<svg width="712" height="387" viewBox="0 0 712 387" fill="none" xmlns="http://www.w3.org/2000/svg">
<path d="M1.968 80.952H42.192V86.136H1.968V80.952ZM18.816 71.112H25.2V82.152H18.816V71.112ZM6.144 50.088H37.776V71.928H6.144V50.088ZM31.536 55.176H12.432V66.888H31.536V55.176ZM74.6843 46.824H81.0683V72.6H74.6843V46.824ZM79.2923 57.144H86.9723V62.424H79.2923V57.144ZM61.9163 49.32H68.6843C68.6843 61.176 61.2923 69.192 48.0923 72.6L45.5003 67.704C56.4443 64.92 61.9163 59.208 61.9163 52.488V49.32ZM47.7083 49.32H65.7563V54.36H47.7083V49.32ZM51.4043 74.472H81.0683V91.272H74.6843V79.512H51.4043V74.472ZM94.7925 50.52H122.777V55.608H94.7925V50.52ZM90.2325 81.048H130.409V86.184H90.2325V81.048ZM120.233 50.52H126.521V54.408C126.521 59.784 126.569 66.072 124.505 75.72L118.217 75.048C120.233 66.024 120.233 59.544 120.233 54.408V50.52ZM121.385 61.224V66.024L94.2645 67.512L93.4005 62.088L121.385 61.224ZM104.489 70.392H110.873V82.92H104.489V70.392Z" fill="#09C169"/>
<path d="M18.228 3.508H21.952V29.52H18.228V3.508ZM20.44 13.252H25.004V16.304H20.44V13.252ZM1.624 20.112H2.94C4.928 20.112 6.496 20.084 8.428 19.692L8.708 22.716C6.664 23.136 5.04 23.164 2.94 23.164H1.624V20.112ZM1.624 6.168H8.288V9.108H5.32V21.484H1.624V6.168ZM9.632 20.112H11.004C13.944 20.112 15.316 20.056 16.94 19.636L17.22 22.66C15.512 23.108 14.112 23.164 11.004 23.164H9.632V20.112ZM9.632 6.168H16.604V9.108H13.3V21.54H9.632V6.168ZM26.9058 23.612H50.3698V26.636H26.9058V23.612ZM36.7338 18.712H40.4578V24.844H36.7338V18.712ZM29.5378 5.244H47.7378V13.868H33.2898V18.236H29.5938V10.956H44.0418V8.184H29.5378V5.244ZM29.5938 16.752H48.3258V19.748H29.5938V16.752ZM71.6601 14.652H80.9841V17.62H71.6601V14.652ZM59.1441 23.472H82.6081V26.524H59.1441V23.472ZM68.9441 18.712H72.6401V24.844H68.9441V18.712ZM71.6601 5.664H80.8441V8.66H75.3841V16.164H71.6601V5.664ZM60.9081 5.692H70.0641V8.66H64.6321V15.912H60.9081V5.692ZM60.9081 14.568H62.5601C65.5561 14.568 67.7121 14.484 70.2321 13.98L70.4841 17.032C67.9081 17.536 65.6681 17.62 62.5601 17.62H60.9081V14.568ZM108.042 3.564H111.766V17.144H108.042V3.564ZM110.73 8.884H115.21V11.908H110.73V8.884ZM100.65 5.3H104.794C104.794 12.188 100.622 16.136 92.7544 17.592L91.2704 14.652C98.0464 13.532 100.65 10.704 100.65 7.596V5.3ZM92.5024 5.3H103.002V8.268H92.5024V5.3ZM94.7704 18.152H111.878V20.868H98.4944V27.812H94.7704V18.152ZM94.7704 26.496H112.41V29.212H94.7704V26.496ZM97.3464 22.352H111.598V24.956H97.3464V22.352ZM134.892 3.536H138.644V29.548H134.892V3.536ZM124.672 5.356C128.592 5.356 131.476 8.94 131.476 14.596C131.476 20.308 128.592 23.892 124.672 23.892C120.752 23.892 117.868 20.308 117.868 14.596C117.868 8.94 120.752 5.356 124.672 5.356ZM124.672 8.744C122.74 8.744 121.424 10.788 121.424 14.596C121.424 18.46 122.74 20.532 124.672 20.532C126.604 20.532 127.892 18.46 127.892 14.596C127.892 10.788 126.604 8.744 124.672 8.744ZM148.044 24.2159L147.935 25.3097C147.848 26.1847 147.683 27.0563 147.438 27.9247C147.199 28.7997 146.947 29.5919 146.682 30.3011C146.423 31.0104 146.214 31.5672 146.055 31.9716H143.311C143.411 31.5805 143.546 31.0336 143.719 30.331C143.891 29.6349 144.054 28.8527 144.206 27.9844C144.358 27.116 144.455 26.2311 144.494 25.3295L144.544 24.2159H148.044ZM168.91 6.168H175.546V9.052H168.91V6.168ZM168.91 11.432H175.546V14.316H168.91V11.432ZM164.038 4.264C167.958 4.264 170.87 6.756 170.87 10.284C170.87 13.756 167.958 16.248 164.038 16.248C160.118 16.248 157.178 13.756 157.178 10.284C157.178 6.756 160.118 4.264 164.038 4.264ZM164.038 7.288C162.106 7.288 160.734 8.38 160.734 10.284C160.734 12.16 162.106 13.252 164.038 13.252C165.97 13.252 167.342 12.16 167.342 10.284C167.342 8.38 165.97 7.288 164.038 7.288ZM174.846 3.564H178.57V16.528H174.846V3.564ZM161.434 17.62H178.57V24.676H165.158V27.84H161.462V21.988H174.874V20.476H161.434V17.62ZM161.462 26.328H179.298V29.212H161.462V26.328ZM196.684 9.836H201.612V12.86H196.684V9.836ZM200.604 3.564H204.328V18.964H200.604V3.564ZM195.536 19.524C201.024 19.524 204.412 21.4 204.412 24.536C204.412 27.7 201.024 29.52 195.536 29.52C190.048 29.52 186.66 27.7 186.66 24.536C186.66 21.4 190.048 19.524 195.536 19.524ZM195.536 22.352C192.176 22.352 190.384 23.052 190.384 24.536C190.384 25.992 192.176 26.692 195.536 26.692C198.924 26.692 200.716 25.992 200.716 24.536C200.716 23.052 198.924 22.352 195.536 22.352ZM188.62 6.168H191.644V7.792C191.644 12.748 189.348 17.284 184.392 18.964L182.488 16.024C186.772 14.568 188.62 11.124 188.62 7.792V6.168ZM189.404 6.168H192.4V7.792C192.4 10.844 194.164 14.008 198.252 15.38L196.432 18.32C191.616 16.724 189.404 12.412 189.404 7.792V6.168ZM183.496 5.132H197.44V8.1H183.496V5.132ZM220.118 3.928C226.026 3.928 229.498 5.496 229.498 8.352C229.498 11.208 226.026 12.776 220.118 12.776C214.182 12.776 210.738 11.208 210.738 8.352C210.738 5.496 214.182 3.928 220.118 3.928ZM220.118 6.644C216.366 6.644 214.602 7.204 214.602 8.352C214.602 9.556 216.366 10.06 220.118 10.06C223.87 10.06 225.634 9.556 225.634 8.352C225.634 7.204 223.87 6.644 220.118 6.644ZM208.386 13.98H231.822V16.92H208.386V13.98ZM211.074 18.376H228.994V25.04H214.77V27.336H211.102V22.464H225.326V21.148H211.074V18.376ZM211.102 26.524H229.666V29.324H211.102V26.524ZM252.216 19.692C257.816 19.692 261.4 21.54 261.4 24.62C261.4 27.644 257.816 29.492 252.216 29.492C246.616 29.492 243.032 27.644 243.032 24.62C243.032 21.54 246.616 19.692 252.216 19.692ZM252.216 22.492C248.716 22.492 246.728 23.22 246.728 24.62C246.728 25.992 248.716 26.692 252.216 26.692C255.716 26.692 257.704 25.992 257.704 24.62C257.704 23.22 255.716 22.492 252.216 22.492ZM243.312 4.712H259.72V7.652H243.312V4.712ZM240.68 15.128H264.032V18.096H240.68V15.128ZM249.332 10.62H253.028V15.884H249.332V10.62ZM257.564 4.712H261.26V6.84C261.26 8.884 261.26 11.096 260.56 13.784L256.864 13.392C257.564 10.732 257.564 8.856 257.564 6.84V4.712ZM271.674 19.944H275.482V29.492H271.674V19.944ZM280.634 19.944H284.442V29.492H280.634V19.944ZM266.382 17.984H289.874V20.98H266.382V17.984ZM278.058 4.432C283.602 4.432 287.438 6.7 287.438 10.256C287.438 13.756 283.602 16.024 278.058 16.024C272.542 16.024 268.706 13.756 268.706 10.256C268.706 6.7 272.542 4.432 278.058 4.432ZM278.058 7.4C274.67 7.4 272.514 8.408 272.514 10.256C272.514 12.076 274.67 13.084 278.058 13.084C281.474 13.084 283.602 12.076 283.602 10.256C283.602 8.408 281.474 7.4 278.058 7.4ZM308.772 3.564H312.468V29.492H308.772V3.564ZM311.628 13.672H316.22V16.78H311.628V13.672ZM292.028 7.4H307.12V10.368H292.028V7.4ZM299.616 11.824C303.396 11.824 306.196 14.4 306.196 18.012C306.196 21.624 303.396 24.2 299.616 24.2C295.836 24.2 293.036 21.624 293.036 18.012C293.036 14.4 295.836 11.824 299.616 11.824ZM299.616 14.848C297.852 14.848 296.592 16.024 296.592 18.012C296.592 20 297.852 21.176 299.616 21.176C301.38 21.176 302.64 20 302.64 18.012C302.64 16.024 301.38 14.848 299.616 14.848ZM297.74 3.984H301.464V8.52H297.74V3.984ZM320.305 5.748H336.741V8.744H320.305V5.748ZM317.925 23.36H341.361V26.384H317.925V23.36ZM326.213 14.456H329.937V24.844H326.213V14.456ZM335.397 5.748H339.121V8.24C339.121 11.488 339.121 15.128 338.085 20.672L334.361 20.252C335.397 15.1 335.397 11.348 335.397 8.24V5.748ZM351.116 6.028H354.812V21.092H351.116V6.028ZM351.116 20.14H352.936C356.072 20.14 358.676 20.028 361.672 19.412L362.148 22.52C359.04 23.192 356.24 23.304 352.936 23.304H351.116V20.14ZM368.924 3.564H372.48V29.492H368.924V3.564ZM358.34 11.74H364.248V14.736H358.34V11.74ZM363.436 4.012H366.908V28.344H363.436V4.012ZM378.665 16.92H396.893V19.832H378.665V16.92ZM375.921 23.5H399.385V26.524H375.921V23.5ZM378.665 5.44H396.669V8.436H382.445V17.732H378.665V5.44ZM381.297 11.152H396.081V14.036H381.297V11.152ZM407.923 18.18H411.647V28.708H407.923V18.18ZM419.879 3.564H423.631V29.492H419.879V3.564ZM402.015 19.748L401.567 16.724C406.383 16.724 412.739 16.696 418.255 15.94L418.451 18.656C412.795 19.664 406.747 19.748 402.015 19.748ZM414.699 21.008H420.635V23.808H414.699V21.008ZM409.967 4.628C413.775 4.628 416.547 6.812 416.547 9.948C416.547 13.112 413.775 15.268 409.967 15.268C406.103 15.268 403.359 13.112 403.359 9.948C403.359 6.812 406.103 4.628 409.967 4.628ZM409.967 7.428C408.119 7.428 406.831 8.38 406.831 9.948C406.831 11.544 408.119 12.44 409.967 12.44C411.759 12.44 413.047 11.544 413.047 9.948C413.047 8.38 411.759 7.428 409.967 7.428ZM430.069 5.832H446.393V8.8H430.069V5.832ZM427.437 23.388H450.873V26.44H427.437V23.388ZM444.825 5.832H448.493V8.828C448.493 12.608 448.493 16.192 447.289 21.848L443.621 21.512C444.825 16.276 444.825 12.496 444.825 8.828V5.832ZM445.609 12.944V15.688L429.761 16.472L429.313 13.476L445.609 12.944ZM453.167 15.184H476.659V17.9H453.167V15.184ZM455.799 19.188H473.859V25.348H459.551V27.56H455.855V22.996H470.191V21.708H455.799V19.188ZM455.855 26.776H474.587V29.296H455.855V26.776ZM456.051 4.012H473.803V10.116H459.775V12.244H456.079V7.792H470.135V6.504H456.051V4.012ZM456.079 11.46H474.279V13.98H456.079V11.46ZM491.285 15.408H495.009V19.132H491.285V15.408ZM502.261 3.592H505.985V21.232H502.261V3.592ZM504.669 10.984H509.233V14.036H504.669V10.984ZM485.517 20.728L485.097 17.844C489.745 17.844 495.877 17.816 501.113 17.172L501.393 19.72C495.989 20.644 490.053 20.7 485.517 20.728ZM488.401 22.268H505.985V29.492H502.261V25.124H488.401V22.268ZM485.769 5.468H500.469V8.128H485.769V5.468ZM493.133 8.744C496.941 8.744 499.433 10.228 499.433 12.608C499.433 14.988 496.941 16.472 493.133 16.472C489.297 16.472 486.805 14.988 486.805 12.608C486.805 10.228 489.297 8.744 493.133 8.744ZM493.133 11.18C491.369 11.18 490.333 11.628 490.333 12.608C490.333 13.532 491.369 14.036 493.133 14.036C494.869 14.036 495.905 13.532 495.905 12.608C495.905 11.628 494.869 11.18 493.133 11.18ZM491.285 3.368H495.009V6.672H491.285V3.368ZM516.931 6.448H519.983V8.072C519.983 13.028 517.659 17.48 512.647 19.132L510.799 16.192C515.111 14.764 516.931 11.376 516.931 8.072V6.448ZM517.687 6.448H520.711V8.072C520.711 11.096 522.447 14.064 526.619 15.324L524.855 18.236C519.927 16.752 517.687 12.692 517.687 8.072V6.448ZM511.779 5.3H525.779V8.268H511.779V5.3ZM527.851 3.564H531.575V18.936H527.851V3.564ZM530.539 9.528H535.019V12.58H530.539V9.528ZM523.119 19.412C528.495 19.412 531.883 21.288 531.883 24.452C531.883 27.616 528.495 29.492 523.119 29.492C517.715 29.492 514.327 27.616 514.327 24.452C514.327 21.288 517.715 19.412 523.119 19.412ZM523.119 22.324C519.815 22.324 518.023 22.996 518.023 24.452C518.023 25.908 519.815 26.636 523.119 26.636C526.423 26.636 528.187 25.908 528.187 24.452C528.187 22.996 526.423 22.324 523.119 22.324ZM553.553 3.564H557.249V29.492H553.553V3.564ZM556.409 13.672H561.001V16.78H556.409V13.672ZM536.809 7.4H551.901V10.368H536.809V7.4ZM544.397 11.824C548.177 11.824 550.977 14.4 550.977 18.012C550.977 21.624 548.177 24.2 544.397 24.2C540.617 24.2 537.817 21.624 537.817 18.012C537.817 14.4 540.617 11.824 544.397 11.824ZM544.397 14.848C542.633 14.848 541.373 16.024 541.373 18.012C541.373 20 542.633 21.176 544.397 21.176C546.161 21.176 547.421 20 547.421 18.012C547.421 16.024 546.161 14.848 544.397 14.848ZM542.521 3.984H546.245V8.52H542.521V3.984ZM565.087 5.748H581.523V8.744H565.087V5.748ZM562.707 23.36H586.143V26.384H562.707V23.36ZM570.995 14.456H574.719V24.844H570.995V14.456ZM580.179 5.748H583.903V8.24C583.903 11.488 583.903 15.128 582.867 20.672L579.143 20.252C580.179 15.1 580.179 11.348 580.179 8.24V5.748ZM612.725 3.592H616.477V17.928H612.725V3.592ZM600.993 4.46H604.073V6.952C604.073 11.74 601.665 16.052 596.597 17.592L594.777 14.68C599.145 13.364 600.993 10.116 600.993 6.952V4.46ZM601.749 4.46H604.801V6.952C604.801 10.032 606.621 13.028 610.849 14.232L609.057 17.172C604.073 15.688 601.749 11.656 601.749 6.952V4.46ZM598.949 19.104H616.589V22.044H598.949V19.104ZM598.697 26.272H616.841V29.212H598.697V26.272ZM602.001 20.196H605.641V28.008H602.001V20.196ZM609.897 20.196H613.565V28.008H609.897V20.196ZM637.251 3.536H641.003V29.548H637.251V3.536ZM640.163 13.14H644.755V16.192H640.163V13.14ZM621.683 20.224H623.867C628.235 20.224 631.679 20.084 635.487 19.412L635.851 22.492C631.931 23.192 628.375 23.304 623.867 23.304H621.683V20.224ZM621.683 5.944H633.779V8.94H625.379V21.708H621.683V5.944ZM658.949 7.624H665.473V10.592H658.949V7.624ZM658.949 13.196H665.585V16.164H658.949V13.196ZM647.497 5.636H659.761V18.32H647.497V5.636ZM656.093 8.576H651.165V15.408H656.093V8.576ZM664.409 3.592H668.133V22.464H664.409V3.592ZM650.969 26.076H668.693V29.044H650.969V26.076ZM650.969 20.672H654.721V27.616H650.969V20.672Z" fill="white"/>
<path d="M127.782 315.532H142.734V317.436H127.782V315.532ZM135.258 318.724C138.842 318.724 141.306 320.516 141.306 323.316C141.306 326.088 138.842 327.852 135.258 327.852C131.618 327.852 129.182 326.088 129.182 323.316C129.182 320.516 131.618 318.724 135.258 318.724ZM135.258 320.544C132.934 320.544 131.394 321.608 131.394 323.316C131.394 324.968 132.934 326.06 135.258 326.06C137.526 326.06 139.094 324.968 139.094 323.316C139.094 321.608 137.526 320.544 135.258 320.544ZM145.03 312.872H147.354V328.692H145.03V312.872ZM146.71 319.844H151.106V321.776H146.71V319.844ZM130.918 330.064H147.354V338.184H145.03V331.968H130.918V330.064ZM134.082 312.732H136.406V316.596H134.082V312.732ZM156.368 328.048H158.664V330.988H171.04V328.048H173.364V337.848H156.368V328.048ZM158.664 332.78V335.972H171.04V332.78H158.664ZM153.456 324.408H176.332V326.284H153.456V324.408ZM163.732 313.152H165.72V314.272C165.72 318.668 160.82 321.832 155.612 322.616L154.772 320.796C159.336 320.18 163.732 317.464 163.732 314.272V313.152ZM164.096 313.152H166.084V314.272C166.084 317.408 170.536 320.18 175.044 320.796L174.176 322.616C169.024 321.832 164.096 318.612 164.096 314.272V313.152ZM197.253 314.608H199.269V316.54C199.269 322.056 194.145 326.34 189.077 327.488L188.041 325.556C192.493 324.716 197.253 320.852 197.253 316.54V314.608ZM197.673 314.608H199.689V316.54C199.689 320.88 204.477 324.716 208.901 325.556L207.865 327.488C202.825 326.34 197.673 322.084 197.673 316.54V314.608ZM187.117 332.864H210.049V334.768H187.117V332.864ZM213.939 330.176H215.927C220.603 330.176 223.823 330.064 227.631 329.392L227.883 331.296C223.963 331.968 220.659 332.108 215.927 332.108H213.939V330.176ZM213.939 315.168H225.727V317.1H216.263V330.848H213.939V315.168ZM215.675 322.252H225.167V324.128H215.675V322.252ZM229.983 312.872H232.335V338.184H229.983V312.872ZM231.775 323.036H236.479V324.996H231.775V323.036ZM245.716 313.796C249.496 313.796 252.268 316.092 252.268 319.424C252.268 322.728 249.496 325.024 245.716 325.024C241.964 325.024 239.192 322.728 239.192 319.424C239.192 316.092 241.964 313.796 245.716 313.796ZM245.716 315.7C243.28 315.7 241.432 317.24 241.432 319.424C241.432 321.608 243.28 323.12 245.716 323.12C248.18 323.12 250 321.608 250 319.424C250 317.24 248.18 315.7 245.716 315.7ZM257.028 312.872H259.38V325.836H257.028V312.872ZM243 327.068H259.38V333.228H245.324V337.036H243.056V331.492H257.084V328.944H243V327.068ZM243.056 336H260.22V337.848H243.056V336ZM282.758 312.844H285.082V338.212H282.758V312.844ZM271.726 314.804C275.478 314.804 278.166 318.248 278.166 323.624C278.166 329.028 275.478 332.472 271.726 332.472C268.002 332.472 265.314 329.028 265.314 323.624C265.314 318.248 268.002 314.804 271.726 314.804ZM271.726 316.904C269.262 316.904 267.526 319.536 267.526 323.624C267.526 327.74 269.262 330.428 271.726 330.428C274.218 330.428 275.926 327.74 275.926 323.624C275.926 319.536 274.218 316.904 271.726 316.904ZM299.059 314.58H310.679V325.444H299.059V314.58ZM308.411 316.456H301.327V323.568H308.411V316.456ZM315.327 312.872H317.651V327.292H315.327V312.872ZM317.007 318.948H321.403V320.88H317.007V318.948ZM308.579 329.672H310.567V330.344C310.567 334.32 306.395 337.26 301.411 338.1L300.515 336.308C304.883 335.636 308.579 333.172 308.579 330.344V329.672ZM309.027 329.672H311.015V330.344C311.015 333.116 314.767 335.636 319.051 336.336L318.183 338.128C313.227 337.288 309.027 334.236 309.027 330.344V329.672ZM301.495 328.804H318.099V330.652H301.495V328.804ZM326.861 320.46H344.053V322.364H326.861V320.46ZM323.753 325.752H346.713V327.656H323.753V325.752ZM326.861 313.796H329.157V321.412H326.861V313.796ZM326.693 335.664H344.193V337.568H326.693V335.664ZM326.693 330.176H328.989V336.168H326.693V330.176ZM357.414 325.332H380.29V327.236H357.414V325.332ZM367.69 321.272H369.986V326.116H367.69V321.272ZM360.298 320.544H377.63V322.448H360.298V320.544ZM360.298 314.02H377.434V315.896H362.594V321.664H360.298V314.02ZM368.81 329.056C374.214 329.056 377.49 330.708 377.49 333.592C377.49 336.532 374.214 338.156 368.81 338.156C363.406 338.156 360.13 336.532 360.13 333.592C360.13 330.708 363.406 329.056 368.81 329.056ZM368.81 330.848C364.862 330.848 362.482 331.856 362.482 333.592C362.482 335.356 364.862 336.336 368.81 336.336C372.786 336.336 375.138 335.356 375.138 333.592C375.138 331.856 372.786 330.848 368.81 330.848ZM389.555 327.712H391.851V333.928H389.555V327.712ZM397.647 327.656H399.915V333.9H397.647V327.656ZM383.171 333.144H406.103V335.076H383.171V333.144ZM385.943 314.748H403.275V322.392H388.323V327.488H386.027V320.544H400.979V316.624H385.943V314.748ZM386.027 326.452H403.863V328.356H386.027V326.452ZM408.929 323.428H431.805V325.332H408.929V323.428ZM411.953 319.508H429.089V321.384H411.953V319.508ZM411.953 313.684H428.809V315.588H414.249V321.02H411.953V313.684ZM411.673 327.516H428.865V333.48H414.025V336.672H411.729V331.744H426.569V329.336H411.673V327.516ZM411.729 336.056H429.621V337.904H411.729V336.056ZM446.111 313.292C451.683 313.292 455.015 314.86 455.015 317.688C455.015 320.516 451.683 322.084 446.111 322.084C440.511 322.084 437.207 320.516 437.207 317.688C437.207 314.86 440.511 313.292 446.111 313.292ZM446.111 315.056C441.967 315.056 439.587 316.008 439.587 317.688C439.587 319.368 441.967 320.32 446.111 320.32C450.227 320.32 452.607 319.368 452.607 317.688C452.607 316.008 450.227 315.056 446.111 315.056ZM434.659 323.764H457.535V325.64H434.659V323.764ZM437.431 327.796H454.623V333.508H439.783V336.588H437.487V331.828H452.327V329.588H437.431V327.796ZM437.487 336.084H455.379V337.904H437.487V336.084ZM468.32 333.032H491.252V334.964H468.32V333.032ZM478.568 326.48H480.892V333.564H478.568V326.48ZM470.98 314.972H488.452V326.9H470.98V314.972ZM486.212 316.848H473.248V325.024H486.212V316.848ZM500.798 315.056H502.73V316.988C502.73 321.44 499.818 325.192 495.562 326.648L494.386 324.8C498.194 323.568 500.798 320.432 500.798 316.988V315.056ZM501.246 315.056H503.178V316.988C503.178 320.264 505.838 323.204 509.562 324.38L508.414 326.2C504.214 324.828 501.246 321.272 501.246 316.988V315.056ZM495.03 314.524H508.89V316.4H495.03V314.524ZM512.474 312.872H514.826V326.564H512.474V312.872ZM498.502 327.824H500.798V330.82H512.53V327.824H514.826V337.848H498.502V327.824ZM500.798 332.696V335.944H512.53V332.696H500.798ZM536.972 312.872H539.296V338.184H536.972V312.872ZM538.736 323.26H543.44V325.22H538.736V323.26ZM519.696 316.904H534.62V318.808H519.696V316.904ZM527.256 320.908C530.84 320.908 533.416 323.316 533.416 326.732C533.416 330.148 530.84 332.556 527.256 332.556C523.7 332.556 521.096 330.148 521.096 326.732C521.096 323.316 523.7 320.908 527.256 320.908ZM527.256 322.84C524.96 322.84 523.308 324.436 523.308 326.732C523.308 329 524.96 330.624 527.256 330.624C529.552 330.624 531.204 329 531.204 326.732C531.204 324.436 529.552 322.84 527.256 322.84ZM526.052 313.18H528.376V317.772H526.052V313.18ZM548.001 315.392H564.297V317.324H548.001V315.392ZM545.593 332.724H568.469V334.656H545.593V332.724ZM554.469 323.68H556.793V333.676H554.469V323.68ZM563.429 315.392H565.725V317.912C565.725 321.048 565.725 324.52 564.801 329.644L562.477 329.336C563.429 324.492 563.429 320.936 563.429 317.912V315.392ZM575.599 333.216L575.44 334.29C575.327 335.045 575.155 335.854 574.923 336.716C574.697 337.578 574.462 338.39 574.217 339.152C573.972 339.914 573.769 340.521 573.61 340.972H571.82C571.907 340.547 572.019 339.987 572.159 339.291C572.298 338.595 572.437 337.816 572.576 336.955C572.722 336.099 572.841 335.224 572.934 334.33L573.053 333.216H575.599ZM112.218 350.484H114.066V354.6C114.066 359.864 110.846 365.296 106.898 367.312L105.554 365.464C109.166 363.7 112.218 358.884 112.218 354.6V350.484ZM112.638 350.484H114.486V354.6C114.486 358.604 117.342 363.112 121.01 364.848L119.694 366.696C115.69 364.708 112.638 359.612 112.638 354.6V350.484ZM106.45 349.448H120.086V351.408H106.45V349.448ZM123.082 346.872H125.434V372.184H123.082V346.872ZM124.874 357.092H129.578V359.052H124.874V357.092ZM137.892 358.24H140.216V362.916H137.892V358.24ZM145.956 358.24H148.252V362.916H145.956V358.24ZM143.156 347.18C148.728 347.18 152.06 348.72 152.06 351.548C152.06 354.376 148.728 355.944 143.156 355.944C137.556 355.944 134.252 354.376 134.252 351.548C134.252 348.72 137.556 347.18 143.156 347.18ZM143.156 348.944C139.012 348.944 136.632 349.896 136.632 351.548C136.632 353.228 139.012 354.18 143.156 354.18C147.272 354.18 149.652 353.228 149.652 351.548C149.652 349.896 147.272 348.944 143.156 348.944ZM131.704 357.456H154.58V359.332H131.704V357.456ZM134.476 361.796H151.668V367.508H136.828V370.588H134.532V365.828H149.372V363.588H134.476V361.796ZM134.532 370.084H152.424V371.904H134.532V370.084ZM163.93 349.448H165.834V351.492C165.834 356.112 162.978 360.06 158.75 361.628L157.546 359.78C161.326 358.436 163.93 355.076 163.93 351.492V349.448ZM164.378 349.448H166.254V351.492C166.254 354.74 168.718 357.904 172.386 359.192L171.21 361.04C167.094 359.528 164.378 355.72 164.378 351.492V349.448ZM171.014 353.452H176.642V355.384H171.014V353.452ZM158.274 348.608H171.798V350.484H158.274V348.608ZM161.41 363.392H178.294V372.184H175.97V365.296H161.41V363.392ZM175.97 346.872H178.294V362.02H175.97V346.872ZM201.644 346.9H203.996V365.38H201.644V346.9ZM187.728 369.72H204.752V371.624H187.728V369.72ZM187.728 363.476H190.024V370.364H187.728V363.476ZM190.416 348.636C194.196 348.636 196.996 351.212 196.996 354.88C196.996 358.52 194.196 361.124 190.416 361.124C186.636 361.124 183.808 358.52 183.808 354.88C183.808 351.212 186.636 348.636 190.416 348.636ZM190.416 350.652C187.952 350.652 186.076 352.388 186.076 354.88C186.076 357.344 187.952 359.08 190.416 359.08C192.88 359.08 194.756 357.344 194.756 354.88C194.756 352.388 192.88 350.652 190.416 350.652ZM216.936 349.532H231.888V351.436H216.936V349.532ZM224.412 352.724C227.996 352.724 230.46 354.516 230.46 357.316C230.46 360.088 227.996 361.852 224.412 361.852C220.772 361.852 218.336 360.088 218.336 357.316C218.336 354.516 220.772 352.724 224.412 352.724ZM224.412 354.544C222.088 354.544 220.548 355.608 220.548 357.316C220.548 358.968 222.088 360.06 224.412 360.06C226.68 360.06 228.248 358.968 228.248 357.316C228.248 355.608 226.68 354.544 224.412 354.544ZM234.184 346.872H236.508V362.692H234.184V346.872ZM235.864 353.844H240.26V355.776H235.864V353.844ZM220.072 364.064H236.508V372.184H234.184V365.968H220.072V364.064ZM223.236 346.732H225.56V350.596H223.236V346.732ZM245.522 362.048H247.818V364.988H260.194V362.048H262.518V371.848H245.522V362.048ZM247.818 366.78V369.972H260.194V366.78H247.818ZM242.61 358.408H265.486V360.284H242.61V358.408ZM252.886 347.152H254.874V348.272C254.874 352.668 249.974 355.832 244.766 356.616L243.926 354.796C248.49 354.18 252.886 351.464 252.886 348.272V347.152ZM253.25 347.152H255.238V348.272C255.238 351.408 259.69 354.18 264.198 354.796L263.33 356.616C258.178 355.832 253.25 352.612 253.25 348.272V347.152ZM279.82 347.292C285.392 347.292 288.724 348.86 288.724 351.688C288.724 354.516 285.392 356.084 279.82 356.084C274.22 356.084 270.916 354.516 270.916 351.688C270.916 348.86 274.22 347.292 279.82 347.292ZM279.82 349.056C275.676 349.056 273.296 350.008 273.296 351.688C273.296 353.368 275.676 354.32 279.82 354.32C283.936 354.32 286.316 353.368 286.316 351.688C286.316 350.008 283.936 349.056 279.82 349.056ZM268.368 357.764H291.244V359.64H268.368V357.764ZM271.14 361.796H288.332V367.508H273.492V370.588H271.196V365.828H286.036V363.588H271.14V361.796ZM271.196 370.084H289.088V371.904H271.196V370.084ZM302.001 360.284H324.877V362.16H302.001V360.284ZM312.277 357.008H314.573V361.068H312.277V357.008ZM305.025 355.972H322.189V357.792H305.025V355.972ZM305.025 347.6H322.077V349.42H307.321V356.952H305.025V347.6ZM306.649 351.744H321.405V353.536H306.649V351.744ZM313.425 364.036C318.941 364.036 322.105 365.436 322.105 368.096C322.105 370.728 318.941 372.128 313.425 372.128C307.909 372.128 304.745 370.728 304.745 368.096C304.745 365.436 307.909 364.036 313.425 364.036ZM313.425 365.8C309.365 365.8 307.097 366.612 307.097 368.096C307.097 369.608 309.365 370.392 313.425 370.392C317.485 370.392 319.753 369.608 319.753 368.096C319.753 366.612 317.485 365.8 313.425 365.8ZM345.091 346.9H347.415V365.884H345.091V346.9ZM346.687 355.188H351.167V357.148H346.687V355.188ZM327.843 349.952H342.795V351.828H327.843V349.952ZM335.319 353.228C338.903 353.228 341.367 355.104 341.367 357.96C341.367 360.788 338.903 362.664 335.319 362.664C331.707 362.664 329.243 360.788 329.243 357.96C329.243 355.104 331.707 353.228 335.319 353.228ZM335.319 355.048C333.023 355.048 331.455 356.196 331.455 357.96C331.455 359.696 333.023 360.844 335.319 360.844C337.587 360.844 339.155 359.696 339.155 357.96C339.155 356.196 337.587 355.048 335.319 355.048ZM334.143 346.872H336.467V350.932H334.143V346.872ZM331.651 369.72H348.563V371.624H331.651V369.72ZM331.651 364.372H333.975V370.532H331.651V364.372ZM367.776 348.3H369.708V350.904C369.708 355.804 366.936 359.808 362.596 361.432L361.392 359.528C365.256 358.156 367.776 354.768 367.776 350.904V348.3ZM368.196 348.3H370.1V350.82C370.1 354.404 372.564 357.568 376.26 358.856L375 360.676C370.912 359.136 368.196 355.412 368.196 350.82V348.3ZM379.9 346.872H382.224V361.852H379.9V346.872ZM373.908 362.58C379.116 362.58 382.336 364.344 382.336 367.368C382.336 370.392 379.116 372.128 373.908 372.128C368.672 372.128 365.452 370.392 365.452 367.368C365.452 364.344 368.672 362.58 373.908 362.58ZM373.908 364.428C370.1 364.428 367.776 365.52 367.776 367.368C367.776 369.216 370.1 370.308 373.908 370.308C377.716 370.308 380.04 369.216 380.04 367.368C380.04 365.52 377.716 364.428 373.908 364.428ZM374.412 352.22H380.404V354.152H374.412V352.22ZM393.393 349.588H395.297V351.632C395.297 356.28 392.497 360.172 388.241 361.712L387.065 359.864C390.873 358.52 393.393 355.244 393.393 351.632V349.588ZM393.813 349.588H395.717V351.604C395.717 354.908 398.125 357.876 401.849 359.108L400.729 360.928C396.501 359.528 393.813 355.916 393.813 351.604V349.588ZM387.765 348.748H401.289V350.652H387.765V348.748ZM404.481 346.872H406.805V362.132H404.481V346.872ZM406.161 353.284H410.557V355.244H406.161V353.284ZM398.741 362.804C403.893 362.804 407.057 364.512 407.057 367.452C407.057 370.42 403.893 372.128 398.741 372.128C393.589 372.128 390.425 370.42 390.425 367.452C390.425 364.512 393.589 362.804 398.741 362.804ZM398.741 364.68C394.989 364.68 392.693 365.688 392.693 367.452C392.693 369.244 394.989 370.308 398.741 370.308C402.493 370.308 404.789 369.244 404.789 367.452C404.789 365.688 402.493 364.68 398.741 364.68ZM424.359 347.292C429.931 347.292 433.263 348.86 433.263 351.688C433.263 354.516 429.931 356.084 424.359 356.084C418.759 356.084 415.455 354.516 415.455 351.688C415.455 348.86 418.759 347.292 424.359 347.292ZM424.359 349.056C420.215 349.056 417.835 350.008 417.835 351.688C417.835 353.368 420.215 354.32 424.359 354.32C428.475 354.32 430.855 353.368 430.855 351.688C430.855 350.008 428.475 349.056 424.359 349.056ZM412.907 357.764H435.783V359.64H412.907V357.764ZM415.679 361.796H432.871V367.508H418.031V370.588H415.735V365.828H430.575V363.588H415.679V361.796ZM415.735 370.084H433.627V371.904H415.735V370.084ZM458.664 351.52H465.44V353.424H458.664V351.52ZM458.44 356.784H465.272V358.688H458.44V356.784ZM465.048 346.872H467.372V362.048H465.048V346.872ZM457.124 348.776H459.616C459.616 355.3 455.108 359.864 447.828 362.048L446.876 360.172C453.344 358.296 457.124 354.572 457.124 349.784V348.776ZM448.192 348.776H458.72V350.68H448.192V348.776ZM459.14 362.328C464.264 362.328 467.512 364.148 467.512 367.2C467.512 370.252 464.264 372.072 459.14 372.072C454.016 372.072 450.768 370.252 450.768 367.2C450.768 364.148 454.016 362.328 459.14 362.328ZM459.14 364.148C455.444 364.148 453.064 365.296 453.064 367.2C453.064 369.104 455.444 370.224 459.14 370.224C462.864 370.224 465.244 369.104 465.244 367.2C465.244 365.296 462.864 364.148 459.14 364.148ZM490.806 346.872H493.13V362.188H490.806V346.872ZM486.606 354.544H491.842V356.476H486.606V354.544ZM476.722 363.532H493.13V371.848H476.722V363.532ZM490.862 365.408H478.99V369.972H490.862V365.408ZM472.354 349.504H486.998V351.38H472.354V349.504ZM479.662 352.668C483.078 352.668 485.514 354.516 485.514 357.204C485.514 359.892 483.078 361.684 479.662 361.684C476.246 361.684 473.81 359.892 473.81 357.204C473.81 354.516 476.246 352.668 479.662 352.668ZM479.662 354.46C477.534 354.46 476.022 355.552 476.022 357.204C476.022 358.828 477.534 359.92 479.662 359.92C481.79 359.92 483.302 358.828 483.302 357.204C483.302 355.552 481.79 354.46 479.662 354.46ZM478.514 346.62H480.838V350.848H478.514V346.62ZM498.028 351.184H510.572V353.088H498.028V351.184ZM504.3 354.768C507.464 354.768 509.76 357.148 509.76 360.564C509.76 363.952 507.464 366.332 504.3 366.332C501.164 366.332 498.868 363.952 498.868 360.564C498.868 357.148 501.164 354.768 504.3 354.768ZM504.3 356.756C502.368 356.756 500.968 358.324 500.968 360.564C500.968 362.804 502.368 364.372 504.3 364.372C506.26 364.372 507.688 362.804 507.688 360.564C507.688 358.324 506.26 356.756 504.3 356.756ZM517.264 346.872H519.504V372.184H517.264V346.872ZM513.232 357.512H518.02V359.444H513.232V357.512ZM511.86 347.432H514.044V370.952H511.86V347.432ZM503.18 347.6H505.476V352.36H503.18V347.6ZM523.841 367.032H546.773V368.964H523.841V367.032ZM534.089 360.984H536.413V367.592H534.089V360.984ZM526.529 348.664H528.825V353.172H541.733V348.664H544.029V361.6H526.529V348.664ZM528.825 355.048V359.696H541.733V355.048H528.825ZM559.567 355.916H564.411V357.848H559.567V355.916ZM554.835 349.252H556.655V354.068C556.655 359.36 554.443 364.484 550.747 366.752L549.291 364.988C552.763 362.944 554.835 358.408 554.835 354.068V349.252ZM555.283 349.252H557.075V353.984C557.075 358.044 558.979 362.356 562.311 364.372L560.967 366.192C557.327 363.952 555.283 358.912 555.283 353.984V349.252ZM568.863 346.872H571.103V372.184H568.863V346.872ZM563.739 347.404H565.923V370.924H563.739V347.404ZM580.957 359.892H583.253V367.48H580.957V359.892ZM590.309 359.892H592.633V367.48H590.309V359.892ZM575.357 367.032H598.289V368.964H575.357V367.032ZM586.781 348.468C592.129 348.468 595.965 351.016 595.965 354.992C595.965 358.94 592.129 361.488 586.781 361.488C581.405 361.488 577.569 358.94 577.569 354.992C577.569 351.016 581.405 348.468 586.781 348.468ZM586.781 350.316C582.721 350.316 579.809 352.164 579.809 354.992C579.809 357.792 582.721 359.64 586.781 359.64C590.841 359.64 593.725 357.792 593.725 354.992C593.725 352.164 590.841 350.316 586.781 350.316ZM603.573 370.159C603.082 370.159 602.661 369.983 602.31 369.632C601.959 369.281 601.783 368.86 601.783 368.369C601.783 367.879 601.959 367.458 602.31 367.107C602.661 366.755 603.082 366.58 603.573 366.58C604.063 366.58 604.484 366.755 604.836 367.107C605.187 367.458 605.363 367.879 605.363 368.369C605.363 368.694 605.28 368.992 605.114 369.264C604.955 369.536 604.739 369.755 604.468 369.92C604.203 370.08 603.904 370.159 603.573 370.159Z" fill="white"/>
<path d="M100 158C100 139.775 114.775 125 133 125H662C689.614 125 712 147.386 712 175V185C712 188.314 709.314 191 706 191H133C114.775 191 100 176.225 100 158Z" fill="white"/>
<path d="M55 242C55 223.775 69.7746 209 88 209H560C587.614 209 610 231.386 610 259V269C610 272.314 607.314 275 604 275H88C69.7746 275 55 260.225 55 242Z" fill="white"/>
<path d="M120.352 155V153.21C120.352 152.667 120.448 152.09 120.641 151.48C120.839 150.864 121.125 150.27 121.496 149.7C121.874 149.124 122.328 148.623 122.858 148.199L124.131 149.233C123.713 149.83 123.348 150.453 123.037 151.102C122.732 151.745 122.58 152.435 122.58 153.17V155H120.352ZM125.443 155V153.21C125.443 152.667 125.539 152.09 125.732 151.48C125.93 150.864 126.215 150.27 126.587 149.7C126.964 149.124 127.419 148.623 127.949 148.199L129.222 149.233C128.804 149.83 128.439 150.453 128.128 151.102C127.823 151.745 127.67 152.435 127.67 153.17V155H125.443ZM148.368 145.872H150.692V159.396H148.368V145.872ZM150.048 151.724H154.444V153.656H150.048V151.724ZM141.368 147.636H143.944C143.944 154.02 139.492 158.164 132.072 159.872L131.148 157.996C137.812 156.512 141.368 153.124 141.368 148.896V147.636ZM132.184 147.636H142.712V149.54H132.184V147.636ZM134.76 160.544H150.832V162.308H137.056V169.98H134.76V160.544ZM134.76 169.084H151.392V170.848H134.76V169.084ZM136.272 164.772H150.524V166.48H136.272V164.772ZM175.19 145.844H177.514V171.212H175.19V145.844ZM164.158 147.804C167.91 147.804 170.598 151.248 170.598 156.624C170.598 162.028 167.91 165.472 164.158 165.472C160.434 165.472 157.746 162.028 157.746 156.624C157.746 151.248 160.434 147.804 164.158 147.804ZM164.158 149.904C161.694 149.904 159.958 152.536 159.958 156.624C159.958 160.74 161.694 163.428 164.158 163.428C166.65 163.428 168.358 160.74 168.358 156.624C168.358 152.536 166.65 149.904 164.158 149.904ZM209.663 145.872H211.903V171.184H209.663V145.872ZM205.575 156.036H210.419V157.94H205.575V156.036ZM199.023 149.12H201.263C201.263 155.644 199.023 161.692 191.799 165.752L190.427 164.1C196.783 160.544 199.023 155.42 199.023 149.568V149.12ZM191.407 149.12H199.807V151.052H191.407V149.12ZM204.035 146.544H206.247V169.952H204.035V146.544ZM217.249 146.908H219.545V150.548H226.685V146.908H228.952V157.968H217.249V146.908ZM219.545 152.368V156.092H226.685V152.368H219.545ZM233.517 145.872H235.841V158.92H233.517V145.872ZM234.833 151.304H239.565V153.236H234.833V151.304ZM219.769 160.152H235.841V166.284H222.121V170.092H219.825V164.548H233.573V162H219.769V160.152ZM219.825 169.056H236.765V170.904H219.825V169.056ZM268.213 145.844H270.537V171.212H268.213V145.844ZM257.181 147.804C260.933 147.804 263.621 151.248 263.621 156.624C263.621 162.028 260.933 165.472 257.181 165.472C253.457 165.472 250.769 162.028 250.769 156.624C250.769 151.248 253.457 147.804 257.181 147.804ZM257.181 149.904C254.717 149.904 252.981 152.536 252.981 156.624C252.981 160.74 254.717 163.428 257.181 163.428C259.673 163.428 261.381 160.74 261.381 156.624C261.381 152.536 259.673 149.904 257.181 149.904ZM282.323 147.804C286.047 147.804 288.679 151.248 288.679 156.624C288.679 162.028 286.047 165.472 282.323 165.472C278.599 165.472 275.967 162.028 275.967 156.624C275.967 151.248 278.599 147.804 282.323 147.804ZM282.323 149.904C279.859 149.904 278.179 152.536 278.179 156.624C278.179 160.74 279.859 163.428 282.323 163.428C284.759 163.428 286.467 160.74 286.467 156.624C286.467 152.536 284.759 149.904 282.323 149.904ZM294.419 152.228H299.067V154.188H294.419V152.228ZM294.419 159.76H299.067V161.72H294.419V159.76ZM292.711 145.872H295.063V171.184H292.711V145.872ZM319.785 145.872H322.109V171.184H319.785V145.872ZM312.365 148.588H314.661C314.661 155.924 311.357 162.336 302.901 166.48L301.669 164.604C308.977 161.076 312.365 155.7 312.365 148.98V148.588ZM302.817 148.588H313.373V150.492H302.817V148.588ZM352.298 145.788H354.622V159.76H352.298V145.788ZM353.642 151.864H358.374V153.824H353.642V151.864ZM338.55 161.048H354.622V166.704H340.902V169.784H338.606V165.024H352.354V162.812H338.55V161.048ZM338.606 169.112H355.546V170.904H338.606V169.112ZM335.05 148.14H350.002V149.96H335.05V148.14ZM342.526 151.08C346.166 151.08 348.574 152.676 348.574 155.252C348.574 157.8 346.166 159.368 342.526 159.368C338.83 159.368 336.45 157.8 336.45 155.252C336.45 152.676 338.83 151.08 342.526 151.08ZM342.526 152.788C340.174 152.788 338.662 153.74 338.662 155.252C338.662 156.736 340.174 157.688 342.526 157.688C344.85 157.688 346.362 156.736 346.362 155.252C346.362 153.74 344.85 152.788 342.526 152.788ZM341.35 145.592H343.674V149.4H341.35V145.592ZM368.627 158.332H391.503V160.236H368.627V158.332ZM378.903 154.272H381.199V159.116H378.903V154.272ZM371.511 153.544H388.843V155.448H371.511V153.544ZM371.511 147.02H388.647V148.896H373.807V154.664H371.511V147.02ZM380.023 162.056C385.427 162.056 388.703 163.708 388.703 166.592C388.703 169.532 385.427 171.156 380.023 171.156C374.619 171.156 371.343 169.532 371.343 166.592C371.343 163.708 374.619 162.056 380.023 162.056ZM380.023 163.848C376.075 163.848 373.695 164.856 373.695 166.592C373.695 168.356 376.075 169.336 380.023 169.336C383.999 169.336 386.351 168.356 386.351 166.592C386.351 164.856 383.999 163.848 380.023 163.848ZM400.768 160.712H403.064V166.928H400.768V160.712ZM408.86 160.656H411.128V166.9H408.86V160.656ZM394.384 166.144H417.316V168.076H394.384V166.144ZM397.156 147.748H414.488V155.392H399.536V160.488H397.24V153.544H412.192V149.624H397.156V147.748ZM397.24 159.452H415.076V161.356H397.24V159.452ZM420.142 156.428H443.018V158.332H420.142V156.428ZM423.166 152.508H440.302V154.384H423.166V152.508ZM423.166 146.684H440.022V148.588H425.462V154.02H423.166V146.684ZM422.886 160.516H440.078V166.48H425.238V169.672H422.942V164.744H437.782V162.336H422.886V160.516ZM422.942 169.056H440.834V170.904H422.942V169.056ZM464.268 145.844H466.592V171.212H464.268V145.844ZM453.236 147.804C456.988 147.804 459.676 151.248 459.676 156.624C459.676 162.028 456.988 165.472 453.236 165.472C449.512 165.472 446.824 162.028 446.824 156.624C446.824 151.248 449.512 147.804 453.236 147.804ZM453.236 149.904C450.772 149.904 449.036 152.536 449.036 156.624C449.036 160.74 450.772 163.428 453.236 163.428C455.728 163.428 457.436 160.74 457.436 156.624C457.436 152.536 455.728 149.904 453.236 149.904ZM485.833 161.44H487.625V162.812C487.625 166.116 485.553 169.448 481.913 170.848L480.737 169.112C483.929 167.964 485.833 165.248 485.833 162.812V161.44ZM486.337 161.44H488.073V162.812C488.073 165.36 489.585 168.076 492.609 169.308L491.629 171.072C487.989 169.644 486.337 166.172 486.337 162.812V161.44ZM495.185 161.44H496.921V162.812C496.921 165.78 495.241 169.532 491.629 171.072L490.649 169.308C493.645 167.936 495.185 164.996 495.185 162.812V161.44ZM495.661 161.44H497.453V162.812C497.453 165.416 499.329 168.02 502.549 169.112L501.373 170.848C497.677 169.504 495.661 166.312 495.661 162.812V161.44ZM497.929 145.9H500.281V160.348H497.929V145.9ZM486.701 147.356C490.537 147.356 493.281 149.764 493.281 153.264C493.281 156.764 490.537 159.144 486.701 159.144C482.865 159.144 480.093 156.764 480.093 153.264C480.093 149.764 482.865 147.356 486.701 147.356ZM486.701 149.288C484.181 149.288 482.361 150.912 482.361 153.264C482.361 155.616 484.181 157.212 486.701 157.212C489.221 157.212 491.041 155.616 491.041 153.264C491.041 150.912 489.221 149.288 486.701 149.288ZM516.715 147.468C521.979 147.468 525.899 150.268 525.899 154.468C525.899 158.696 521.979 161.468 516.715 161.468C511.451 161.468 507.503 158.696 507.503 154.468C507.503 150.268 511.451 147.468 516.715 147.468ZM516.715 149.372C512.711 149.372 509.743 151.416 509.743 154.468C509.743 157.492 512.711 159.564 516.715 159.564C520.719 159.564 523.687 157.492 523.687 154.468C523.687 151.416 520.719 149.372 516.715 149.372ZM505.291 165.892H528.223V167.852H505.291V165.892ZM543.172 150.324H550.256V152.228H543.172V150.324ZM543.172 155.728H550.312V157.66H543.172V155.728ZM532.196 148.056H543.76V159.928H532.196V148.056ZM541.464 149.932H534.464V158.052H541.464V149.932ZM549.528 145.9H551.852V164.38H549.528V145.9ZM535.584 168.72H552.468V170.624H535.584V168.72ZM535.584 162.7H537.908V169.588H535.584V162.7ZM574.929 153.376H577.225V157.24H574.929V153.376ZM574.593 147.412H576.637V148.196C576.637 152.004 571.933 154.44 566.613 154.944L565.857 153.18C570.421 152.816 574.593 150.856 574.593 148.196V147.412ZM575.601 147.412H577.617V148.196C577.617 150.828 581.789 152.816 586.353 153.18L585.597 154.944C580.305 154.44 575.601 152.004 575.601 148.196V147.412ZM566.753 146.656H585.485V148.476H566.753V146.656ZM566.781 161.58H585.429V163.428H566.781V161.58ZM564.653 156.372H587.613V158.248H564.653V156.372ZM576.105 164.66C580.977 164.66 583.693 165.808 583.693 167.992C583.693 170.204 580.977 171.324 576.105 171.324C571.233 171.324 568.489 170.204 568.489 167.992C568.489 165.808 571.233 164.66 576.105 164.66ZM576.105 166.256C572.745 166.256 570.869 166.844 570.869 167.992C570.869 169.14 572.745 169.728 576.105 169.728C579.437 169.728 581.341 169.14 581.341 167.992C581.341 166.844 579.437 166.256 576.105 166.256ZM574.957 159.256H577.253V162.756H574.957V159.256ZM599.203 147.72H601.527C601.527 153.768 598.167 158.304 591.839 160.992L590.663 159.284C596.235 156.988 599.203 153.264 599.203 148.476V147.72ZM591.755 147.72H600.099V149.652H591.755V147.72ZM609.535 145.872H611.747V160.488H609.535V145.872ZM598.923 153.068H605.027V154.944H598.923V153.068ZM604.523 146.404H606.707V160.096H604.523V146.404ZM596.991 161.356H598.783V163.008C598.783 166.34 596.683 169.7 593.043 171.1L591.895 169.364C595.059 168.216 596.991 165.472 596.991 163.008V161.356ZM597.495 161.356H599.231V163.008C599.231 165.584 600.715 168.3 603.767 169.588L602.787 171.324C599.119 169.868 597.495 166.396 597.495 163.008V161.356ZM606.287 161.356H608.023V163.008C608.023 166.004 606.371 169.784 602.787 171.324L601.751 169.588C604.803 168.188 606.287 165.192 606.287 163.008V161.356ZM606.763 161.356H608.555V163.008C608.555 165.668 610.459 168.3 613.651 169.364L612.503 171.1C608.835 169.756 606.763 166.536 606.763 163.008V161.356ZM622.945 147.804C626.613 147.804 629.245 151.248 629.245 156.624C629.245 162.028 626.613 165.472 622.945 165.472C619.249 165.472 616.645 162.028 616.645 156.624C616.645 151.248 619.249 147.804 622.945 147.804ZM622.945 149.904C620.509 149.904 618.857 152.536 618.857 156.624C618.857 160.74 620.509 163.428 622.945 163.428C625.381 163.428 627.033 160.74 627.033 156.624C627.033 152.536 625.381 149.904 622.945 149.904ZM634.733 145.844H637.029V171.212H634.733V145.844ZM628.489 155.504H635.741V157.408H628.489V155.504ZM647.555 158.892H649.851V166.48H647.555V158.892ZM656.907 158.892H659.231V166.48H656.907V158.892ZM641.955 166.032H664.887V167.964H641.955V166.032ZM653.379 147.468C658.727 147.468 662.563 150.016 662.563 153.992C662.563 157.94 658.727 160.488 653.379 160.488C648.003 160.488 644.167 157.94 644.167 153.992C644.167 150.016 648.003 147.468 653.379 147.468ZM653.379 149.316C649.319 149.316 646.407 151.164 646.407 153.992C646.407 156.792 649.319 158.64 653.379 158.64C657.439 158.64 660.323 156.792 660.323 153.992C660.323 151.164 657.439 149.316 653.379 149.316ZM670.17 169.159C669.68 169.159 669.259 168.983 668.908 168.632C668.556 168.281 668.381 167.86 668.381 167.369C668.381 166.879 668.556 166.458 668.908 166.107C669.259 165.755 669.68 165.58 670.17 165.58C670.661 165.58 671.082 165.755 671.433 166.107C671.785 166.458 671.96 166.879 671.96 167.369C671.96 167.694 671.877 167.992 671.712 168.264C671.553 168.536 671.337 168.755 671.065 168.92C670.8 169.08 670.502 169.159 670.17 169.159ZM676.653 148.636V150.426C676.653 150.97 676.554 151.55 676.355 152.166C676.163 152.776 675.878 153.369 675.5 153.946C675.129 154.516 674.678 155.013 674.148 155.438L672.875 154.403C673.293 153.807 673.654 153.187 673.959 152.544C674.27 151.894 674.426 151.202 674.426 150.466V148.636H676.653ZM681.744 148.636V150.426C681.744 150.97 681.645 151.55 681.446 152.166C681.254 152.776 680.969 153.369 680.591 153.946C680.22 154.516 679.769 155.013 679.239 155.438L677.966 154.403C678.384 153.807 678.745 153.187 679.05 152.544C679.361 151.894 679.517 151.202 679.517 150.466V148.636H681.744Z" fill="black"/>
<path d="M84.3523 238V236.21C84.3523 235.667 84.4484 235.09 84.6406 234.48C84.8395 233.864 85.1245 233.27 85.4957 232.7C85.8736 232.124 86.3277 231.623 86.858 231.199L88.1307 232.233C87.7131 232.83 87.3485 233.453 87.0369 234.102C86.732 234.745 86.5795 235.435 86.5795 236.17V238H84.3523ZM89.4432 238V236.21C89.4432 235.667 89.5393 235.09 89.7315 234.48C89.9304 233.864 90.2154 233.27 90.5866 232.7C90.9645 232.124 91.4186 231.623 91.9489 231.199L93.2216 232.233C92.804 232.83 92.4394 233.453 92.1278 234.102C91.8229 234.745 91.6705 235.435 91.6705 236.17V238H89.4432ZM95.0361 243.796H117.912V245.672H95.0361V243.796ZM105.34 241.108H107.636V244.636H105.34V241.108ZM98.0041 251.776H115.392V253.624H98.0041V251.776ZM98.0041 247.324H100.328V252.784H98.0041V247.324ZM96.2401 231.196H116.596V233.016H96.2401V231.196ZM106.488 234.108C111.668 234.108 114.664 235.452 114.664 237.972C114.664 240.464 111.668 241.808 106.488 241.808C101.308 241.808 98.3121 240.464 98.3121 237.972C98.3121 235.452 101.308 234.108 106.488 234.108ZM106.488 235.816C102.736 235.816 100.664 236.572 100.664 237.972C100.664 239.344 102.736 240.1 106.488 240.1C110.212 240.1 112.312 239.344 112.312 237.972C112.312 236.572 110.212 235.816 106.488 235.816ZM105.34 228.592H107.636V232.204H105.34V228.592ZM127.066 232.484H128.914V236.6C128.914 241.864 125.694 247.296 121.746 249.312L120.402 247.464C124.014 245.7 127.066 240.884 127.066 236.6V232.484ZM127.486 232.484H129.334V236.6C129.334 240.604 132.19 245.112 135.858 246.848L134.542 248.696C130.538 246.708 127.486 241.612 127.486 236.6V232.484ZM121.298 231.448H134.934V233.408H121.298V231.448ZM137.93 228.872H140.282V254.184H137.93V228.872ZM139.722 239.092H144.426V241.052H139.722V239.092ZM159.208 237.44H166.264V239.344H159.208V237.44ZM153.104 231.056H155.008V235.564C155.008 241.248 152.012 246.68 148.008 248.836L146.524 246.988C150.248 245.14 153.104 240.268 153.104 235.564V231.056ZM153.552 231.056H155.428V235.564C155.428 240.184 158.284 244.776 161.952 246.512L160.58 248.388C156.492 246.316 153.552 241.108 153.552 235.564V231.056ZM165.116 228.844H167.412V254.212H165.116V228.844ZM175.418 236.46H192.61V238.364H175.418V236.46ZM172.31 241.752H195.27V243.656H172.31V241.752ZM175.418 229.796H177.714V237.412H175.418V229.796ZM175.25 251.664H192.75V253.568H175.25V251.664ZM175.25 246.176H177.546V252.168H175.25V246.176ZM208.07 229.516H226.662V231.336H208.07V229.516ZM208.182 236.068H226.55V237.86H208.182V236.068ZM211.906 230.216H214.23V237.328H211.906V230.216ZM220.53 230.216H222.826V237.328H220.53V230.216ZM205.942 239.932H228.818V241.808H205.942V239.932ZM216.218 241.024H218.514V244.916H216.218V241.024ZM208.714 244.244H225.906V249.788H211.066V252.84H208.77V248.136H223.61V245.98H208.714V244.244ZM208.77 252.14H226.662V253.904H208.77V252.14ZM238.476 230.804C242.144 230.804 244.776 234.248 244.776 239.624C244.776 245.028 242.144 248.472 238.476 248.472C234.78 248.472 232.176 245.028 232.176 239.624C232.176 234.248 234.78 230.804 238.476 230.804ZM238.476 232.904C236.04 232.904 234.388 235.536 234.388 239.624C234.388 243.74 236.04 246.428 238.476 246.428C240.912 246.428 242.564 243.74 242.564 239.624C242.564 235.536 240.912 232.904 238.476 232.904ZM250.264 228.844H252.56V254.212H250.264V228.844ZM244.02 238.504H251.272V240.408H244.02V238.504ZM275.994 228.872H278.29V254.184H275.994V228.872ZM263.898 232.484H265.746V236.264C265.746 241.78 262.638 247.184 258.83 249.284L257.29 247.52C260.902 245.7 263.898 240.8 263.898 236.264V232.484ZM264.374 232.484H266.222V236.264C266.222 240.268 269.162 245.028 272.746 246.876L271.402 248.696C267.51 246.652 264.374 241.248 264.374 236.264V232.484ZM258.214 231.448H271.878V233.38H258.214V231.448ZM270.926 235.984H277.478V237.916H270.926V235.984ZM270.926 241.388H277.478V243.348H270.926V241.388ZM295.872 237.44H302.928V239.344H295.872V237.44ZM289.768 231.056H291.672V235.564C291.672 241.248 288.676 246.68 284.672 248.836L283.188 246.988C286.912 245.14 289.768 240.268 289.768 235.564V231.056ZM290.216 231.056H292.092V235.564C292.092 240.184 294.948 244.776 298.616 246.512L297.244 248.388C293.156 246.316 290.216 241.108 290.216 235.564V231.056ZM301.78 228.844H304.076V254.212H301.78V228.844ZM323.597 231.056H325.529V232.988C325.529 237.44 322.617 241.192 318.361 242.648L317.185 240.8C320.993 239.568 323.597 236.432 323.597 232.988V231.056ZM324.045 231.056H325.977V232.988C325.977 236.264 328.637 239.204 332.361 240.38L331.213 242.2C327.013 240.828 324.045 237.272 324.045 232.988V231.056ZM317.829 230.524H331.689V232.4H317.829V230.524ZM335.273 228.872H337.625V242.564H335.273V228.872ZM321.301 243.824H323.597V246.82H335.329V243.824H337.625V253.848H321.301V243.824ZM323.597 248.696V251.944H335.329V248.696H323.597ZM352.882 241.528H355.206V245.952H352.882V241.528ZM342.606 240.716H365.482V242.592H342.606V240.716ZM354.03 245.252C359.462 245.252 362.71 246.848 362.71 249.704C362.71 252.532 359.462 254.128 354.03 254.128C348.598 254.128 345.35 252.532 345.35 249.704C345.35 246.848 348.598 245.252 354.03 245.252ZM354.03 247.044C350.082 247.044 347.702 247.996 347.702 249.704C347.702 251.384 350.082 252.336 354.03 252.336C358.006 252.336 360.358 251.384 360.358 249.704C360.358 247.996 358.006 247.044 354.03 247.044ZM352.546 230.944H354.618V231.7C354.618 235.788 349.97 238.532 344.734 239.176L343.894 237.328C348.43 236.852 352.546 234.584 352.546 231.7V230.944ZM353.526 230.944H355.57V231.7C355.57 234.584 359.686 236.852 364.222 237.328L363.382 239.176C358.146 238.532 353.526 235.788 353.526 231.7V230.944ZM344.706 230.02H363.438V231.896H344.706V230.02ZM385.528 228.872H387.852V254.184H385.528V228.872ZM387.292 239.26H391.996V241.22H387.292V239.26ZM368.252 232.904H383.176V234.808H368.252V232.904ZM375.812 236.908C379.396 236.908 381.972 239.316 381.972 242.732C381.972 246.148 379.396 248.556 375.812 248.556C372.256 248.556 369.652 246.148 369.652 242.732C369.652 239.316 372.256 236.908 375.812 236.908ZM375.812 238.84C373.516 238.84 371.864 240.436 371.864 242.732C371.864 245 373.516 246.624 375.812 246.624C378.108 246.624 379.76 245 379.76 242.732C379.76 240.436 378.108 238.84 375.812 238.84ZM374.608 229.18H376.932V233.772H374.608V229.18ZM412.574 228.872H414.898V254.184H412.574V228.872ZM405.154 231.588H407.45C407.45 238.924 404.146 245.336 395.69 249.48L394.458 247.604C401.766 244.076 405.154 238.7 405.154 231.98V231.588ZM395.606 231.588H406.162V233.492H395.606V231.588ZM434.531 230.804C438.199 230.804 440.831 234.248 440.831 239.624C440.831 245.028 438.199 248.472 434.531 248.472C430.835 248.472 428.231 245.028 428.231 239.624C428.231 234.248 430.835 230.804 434.531 230.804ZM434.531 232.904C432.095 232.904 430.443 235.536 430.443 239.624C430.443 243.74 432.095 246.428 434.531 246.428C436.967 246.428 438.619 243.74 438.619 239.624C438.619 235.536 436.967 232.904 434.531 232.904ZM446.319 228.844H448.615V254.212H446.319V228.844ZM440.075 238.504H447.327V240.408H440.075V238.504ZM472.021 228.844H474.345V254.212H472.021V228.844ZM467.037 234.64H472.637V236.544H467.037V234.64ZM454.465 246.372H456.341C460.261 246.372 463.481 246.26 467.345 245.644L467.569 247.576C463.593 248.192 460.345 248.332 456.341 248.332H454.465V246.372ZM454.409 231.14H465.469V240.212H456.761V246.82H454.465V238.308H463.173V233.072H454.409V231.14ZM466.869 241.556H472.469V243.46H466.869V241.556ZM486.158 243.012H488.454V253.4H486.158V243.012ZM497.75 228.872H500.074V254.212H497.75V228.872ZM479.494 244.16L479.186 242.2C483.974 242.2 490.33 242.172 495.818 241.388L495.958 243.124C490.302 244.076 484.198 244.16 479.494 244.16ZM492.01 246.148H498.338V247.968H492.01V246.148ZM487.446 230.132C491.17 230.132 493.774 232.12 493.774 235.116C493.774 238.112 491.17 240.1 487.446 240.1C483.666 240.1 481.09 238.112 481.09 235.116C481.09 232.12 483.666 230.132 487.446 230.132ZM487.446 231.924C484.982 231.924 483.246 233.24 483.246 235.116C483.246 237.02 484.982 238.308 487.446 238.308C489.854 238.308 491.59 237.02 491.59 235.116C491.59 233.24 489.854 231.924 487.446 231.924ZM510.656 241.892H512.952V249.48H510.656V241.892ZM520.008 241.892H522.332V249.48H520.008V241.892ZM505.056 249.032H527.988V250.964H505.056V249.032ZM516.48 230.468C521.828 230.468 525.664 233.016 525.664 236.992C525.664 240.94 521.828 243.488 516.48 243.488C511.104 243.488 507.268 240.94 507.268 236.992C507.268 233.016 511.104 230.468 516.48 230.468ZM516.48 232.316C512.42 232.316 509.508 234.164 509.508 236.992C509.508 239.792 512.42 241.64 516.48 241.64C520.54 241.64 523.424 239.792 523.424 236.992C523.424 234.164 520.54 232.316 516.48 232.316ZM533.272 252.159C532.781 252.159 532.361 251.983 532.009 251.632C531.658 251.281 531.482 250.86 531.482 250.369C531.482 249.879 531.658 249.458 532.009 249.107C532.361 248.755 532.781 248.58 533.272 248.58C533.763 248.58 534.183 248.755 534.535 249.107C534.886 249.458 535.062 249.879 535.062 250.369C535.062 250.694 534.979 250.992 534.813 251.264C534.654 251.536 534.439 251.755 534.167 251.92C533.902 252.08 533.603 252.159 533.272 252.159ZM539.755 231.636V233.426C539.755 233.97 539.656 234.55 539.457 235.166C539.264 235.776 538.979 236.369 538.602 236.946C538.23 237.516 537.78 238.013 537.249 238.438L535.977 237.403C536.394 236.807 536.755 236.187 537.06 235.544C537.372 234.894 537.528 234.202 537.528 233.466V231.636H539.755ZM544.846 231.636V233.426C544.846 233.97 544.746 234.55 544.548 235.166C544.355 235.776 544.07 236.369 543.692 236.946C543.321 237.516 542.871 238.013 542.34 238.438L541.067 237.403C541.485 236.807 541.846 236.187 542.151 235.544C542.463 234.894 542.619 234.202 542.619 233.466V231.636H544.846Z" fill="black"/>
</svg>
