<svg width="703" height="454" viewBox="0 0 703 454" fill="none" xmlns="http://www.w3.org/2000/svg">
<g filter="url(#filter0_d_456_11)">
<path d="M586.867 51.096H593.059C593.059 64.776 589.507 76.248 573.571 84.6L570.067 79.752C583.171 72.84 586.867 64.44 586.867 51.864V51.096ZM572.707 51.096H590.755V56.136H572.707V51.096ZM587.491 61.992V66.84L571.171 68.328L570.355 62.952L587.491 61.992ZM601.267 46.824H607.651V91.272H601.267V46.824ZM593.011 63.864H604.627V69.048H593.011V63.864ZM645.232 46.824H651.664V91.272H645.232V46.824ZM615.712 50.904H640.672V55.992H615.712V50.904ZM615.136 81.144L614.512 75.912C622.528 75.912 633.232 75.768 642.4 74.664L642.736 79.32C633.376 80.904 623.152 81.096 615.136 81.144ZM619.552 54.888H625.744V77.304H619.552V54.888ZM630.64 54.888H636.832V77.304H630.64V54.888ZM666.732 55.32H671.484V56.616C671.484 63.672 668.604 70.2 661.644 72.792L658.716 68.088C664.332 65.928 666.732 61.32 666.732 56.616V55.32ZM668.028 55.32H672.732V56.616C672.732 61.032 675.18 65.304 680.748 67.272L677.916 71.976C670.908 69.576 668.028 63.384 668.028 56.616V55.32ZM659.964 51.672H679.452V56.664H659.964V51.672ZM666.732 47.352H672.732V54.216H666.732V47.352ZM690.588 46.872H696.636V76.92H690.588V46.872ZM685.452 57.384H692.508V62.568H685.452V57.384ZM681.324 47.544H687.276V73.032H681.324V47.544ZM678.156 74.856H683.58V75.528C683.58 83.256 677.436 89.544 666.3 91.128L664.044 86.184C673.644 84.936 678.156 80.088 678.156 75.528V74.856ZM679.068 74.856H684.492V75.528C684.492 80.088 689.052 84.936 698.604 86.184L696.348 91.128C685.212 89.544 679.068 83.256 679.068 75.528V74.856Z" fill="#09C169"/>
<path d="M131.492 5.076H147.76V8.016H131.492V5.076ZM128.832 16.108H152.268V19.104H128.832V16.108ZM138.548 18.208H142.3V29.52H138.548V18.208ZM145.856 5.076H149.524V7.372C149.524 10.172 149.524 13.308 148.516 17.9L144.848 17.48C145.856 13.14 145.856 10.06 145.856 7.372V5.076ZM165.117 13.392H169.233V16.388H165.117V13.392ZM159.097 10.76H161.897V11.432C161.897 16.836 160.329 22.24 156.185 24.62L154.085 21.82C157.781 19.664 159.097 15.408 159.097 11.432V10.76ZM159.825 10.76H162.625V11.432C162.625 15.352 163.969 19.3 167.637 21.26L165.621 24.004C161.421 21.82 159.825 16.752 159.825 11.432V10.76ZM155.065 7.904H166.629V10.9H155.065V7.904ZM159.097 4.432H162.625V10.34H159.097V4.432ZM173.293 3.564H176.821V29.492H173.293V3.564ZM168.057 3.984H171.529V28.316H168.057V3.984ZM186.311 6.14H189.335V7.792C189.335 12.664 187.039 17.172 182.055 18.796L180.179 15.856C184.463 14.456 186.311 11.04 186.311 7.792V6.14ZM187.095 6.14H190.091V7.792C190.091 10.816 191.855 14.008 195.943 15.38L194.123 18.292C189.307 16.696 187.095 12.384 187.095 7.792V6.14ZM194.431 9.752H199.359V12.776H194.431V9.752ZM181.187 4.992H195.131V7.932H181.187V4.992ZM184.351 20.168H202.019V29.492H198.295V23.136H184.351V20.168ZM198.295 3.564H202.019V18.992H198.295V3.564ZM223.885 3.592H227.637V22.212H223.885V3.592ZM210.361 26.076H228.281V29.044H210.361V26.076ZM210.361 20.336H214.085V27.28H210.361V20.336ZM213.525 5.216C217.501 5.216 220.553 7.96 220.553 11.796C220.553 15.604 217.501 18.376 213.525 18.376C209.549 18.376 206.469 15.604 206.469 11.796C206.469 7.96 209.549 5.216 213.525 5.216ZM213.525 8.436C211.593 8.436 210.109 9.668 210.109 11.796C210.109 13.896 211.593 15.128 213.525 15.128C215.429 15.128 216.913 13.896 216.913 11.796C216.913 9.668 215.429 8.436 213.525 8.436ZM250.803 7.652H256.879V10.62H250.803V7.652ZM250.607 13.028H256.683V15.996H250.607V13.028ZM256.291 3.564H260.015V18.488H256.291V3.564ZM247.835 5.328H251.811C251.811 12.384 247.835 16.92 239.967 19.076L238.511 16.136C245.091 14.428 247.835 11.18 247.835 7.12V5.328ZM239.939 5.328H250.439V8.296H239.939V5.328ZM251.419 18.824C256.683 18.824 260.183 20.84 260.183 24.088C260.183 27.336 256.683 29.38 251.419 29.38C246.155 29.38 242.655 27.336 242.655 24.088C242.655 20.84 246.155 18.824 251.419 18.824ZM251.419 21.68C248.255 21.68 246.351 22.492 246.351 24.088C246.351 25.684 248.255 26.468 251.419 26.468C254.611 26.468 256.515 25.684 256.515 24.088C256.515 22.492 254.611 21.68 251.419 21.68ZM282.049 3.564H285.773V19.216H282.049V3.564ZM278.801 11.152H283.561V14.176H278.801V11.152ZM268.497 20.308H285.773V29.212H268.497V20.308ZM282.133 23.248H272.165V26.272H282.133V23.248ZM264.157 5.804H279.305V8.744H264.157V5.804ZM271.745 9.584C275.357 9.584 277.933 11.516 277.933 14.26C277.933 17.032 275.357 18.908 271.745 18.908C268.133 18.908 265.529 17.032 265.529 14.26C265.529 11.516 268.133 9.584 271.745 9.584ZM271.745 12.356C270.149 12.356 269.085 13 269.085 14.26C269.085 15.52 270.149 16.192 271.745 16.192C273.313 16.192 274.377 15.52 274.377 14.26C274.377 13 273.313 12.356 271.745 12.356ZM269.869 3.34H273.593V7.904H269.869V3.34ZM290.923 6.14H302.095V9.08H290.923V6.14ZM294.255 13.56H297.923V22.352H294.255V13.56ZM300.611 6.14H304.279V8.24C304.279 10.76 304.279 13.896 303.579 18.208L299.939 17.872C300.611 13.728 300.611 10.732 300.611 8.24V6.14ZM306.491 3.564H310.215V29.492H306.491V3.564ZM309.123 13.98H313.687V17.06H309.123V13.98ZM289.943 24.256L289.607 21.26C294.171 21.26 300.219 21.176 305.315 20.532L305.511 23.248C300.275 24.144 294.451 24.256 289.943 24.256ZM335.957 10.256H342.005V13.252H335.957V10.256ZM340.045 3.592H343.769V22.492H340.045V3.592ZM326.661 26.076H344.357V29.044H326.661V26.076ZM326.661 20.896H330.385V27.84H326.661V20.896ZM328.061 6.98H331.085V8.604C331.085 13.476 328.789 17.984 323.805 19.636L321.929 16.668C326.213 15.268 328.061 11.88 328.061 8.604V6.98ZM328.845 6.98H331.841V8.604C331.841 11.628 333.605 14.848 337.693 16.22L335.873 19.132C331.057 17.536 328.845 13.224 328.845 8.604V6.98ZM322.937 5.328H336.881V8.268H322.937V5.328ZM347.827 16.36H371.291V19.328H347.827V16.36ZM357.991 18.236H361.743V23.696H357.991V18.236ZM350.711 4.656H368.323V14.288H350.711V4.656ZM364.655 7.568H354.351V11.376H364.655V7.568ZM350.543 26.076H368.715V29.044H350.543V26.076ZM350.543 21.512H354.239V27.056H350.543V21.512ZM379.577 6.14H382.601V7.792C382.601 12.664 380.305 17.172 375.321 18.796L373.445 15.856C377.729 14.456 379.577 11.04 379.577 7.792V6.14ZM380.361 6.14H383.357V7.792C383.357 10.816 385.121 14.008 389.209 15.38L387.389 18.292C382.573 16.696 380.361 12.384 380.361 7.792V6.14ZM387.697 9.752H392.625V12.776H387.697V9.752ZM374.453 4.992H388.397V7.932H374.453V4.992ZM377.617 20.168H395.285V29.492H391.561V23.136H377.617V20.168ZM391.561 3.564H395.285V18.992H391.561V3.564ZM408.455 14.708H426.823V17.676H408.455V14.708ZM405.851 23.584H429.315V26.58H405.851V23.584ZM415.707 16.472H419.431V24.424H415.707V16.472ZM408.455 5.524H412.207V15.996H408.455V5.524ZM448.213 3.564H451.909V29.492H448.213V3.564ZM451.069 13.672H455.661V16.78H451.069V13.672ZM431.469 7.4H446.561V10.368H431.469V7.4ZM439.057 11.824C442.837 11.824 445.637 14.4 445.637 18.012C445.637 21.624 442.837 24.2 439.057 24.2C435.277 24.2 432.477 21.624 432.477 18.012C432.477 14.4 435.277 11.824 439.057 11.824ZM439.057 14.848C437.293 14.848 436.033 16.024 436.033 18.012C436.033 20 437.293 21.176 439.057 21.176C440.821 21.176 442.081 20 442.081 18.012C442.081 16.024 440.821 14.848 439.057 14.848ZM437.181 3.984H440.905V8.52H437.181V3.984ZM457.339 18.068H480.831V21.064H457.339V18.068ZM467.139 20H470.835V29.52H467.139V20ZM469.015 4.432C474.559 4.432 478.395 6.728 478.395 10.284C478.395 13.812 474.559 16.08 469.015 16.08C463.499 16.08 459.663 13.812 459.663 10.284C459.663 6.728 463.499 4.432 469.015 4.432ZM469.015 7.4C465.627 7.4 463.471 8.408 463.471 10.284C463.471 12.132 465.627 13.14 469.015 13.14C472.431 13.14 474.559 12.132 474.559 10.284C474.559 8.408 472.431 7.4 469.015 7.4ZM483.097 15.184H506.589V17.9H483.097V15.184ZM485.729 19.188H503.789V25.348H489.481V27.56H485.785V22.996H500.121V21.708H485.729V19.188ZM485.785 26.776H504.517V29.296H485.785V26.776ZM485.981 4.012H503.733V10.116H489.705V12.244H486.009V7.792H500.065V6.504H485.981V4.012ZM486.009 11.46H504.209V13.98H486.009V11.46ZM529.223 10.256H535.271V13.252H529.223V10.256ZM533.311 3.592H537.035V22.492H533.311V3.592ZM519.927 26.076H537.623V29.044H519.927V26.076ZM519.927 20.896H523.651V27.84H519.927V20.896ZM521.327 6.98H524.351V8.604C524.351 13.476 522.055 17.984 517.071 19.636L515.195 16.668C519.479 15.268 521.327 11.88 521.327 8.604V6.98ZM522.111 6.98H525.107V8.604C525.107 11.628 526.871 14.848 530.959 16.22L529.139 19.132C524.323 17.536 522.111 13.224 522.111 8.604V6.98ZM516.203 5.328H530.147V8.268H516.203V5.328ZM550.865 4.32H554.141V5.524C554.141 10.508 550.221 14.736 543.417 15.744L541.961 12.748C547.925 11.964 550.865 8.576 550.865 5.524V4.32ZM551.565 4.32H554.813V5.524C554.813 8.548 557.781 11.964 563.717 12.748L562.289 15.744C555.485 14.736 551.565 10.508 551.565 5.524V4.32ZM550.893 20H554.589V29.492H550.893V20ZM541.121 17.648H564.557V20.672H541.121V17.648ZM583.538 3.564H587.262V18.684H583.538V3.564ZM586.226 9.444H590.706V12.496H586.226V9.444ZM567.606 5.076H571.302V8.352H576.37V5.076H580.066V17.424H567.606V5.076ZM571.302 11.208V14.512H576.37V11.208H571.302ZM570.406 19.832H587.402V22.772H574.13V28.344H570.406V19.832ZM570.406 26.244H587.906V29.184H570.406V26.244ZM595.016 5.748H611.452V8.744H595.016V5.748ZM592.636 23.36H616.072V26.384H592.636V23.36ZM600.924 14.456H604.648V24.844H600.924V14.456ZM610.108 5.748H613.832V8.24C613.832 11.488 613.832 15.128 612.796 20.672L609.072 20.252C610.108 15.1 610.108 11.348 610.108 8.24V5.748ZM642.655 3.592H646.407V17.928H642.655V3.592ZM630.923 4.46H634.003V6.952C634.003 11.74 631.595 16.052 626.527 17.592L624.707 14.68C629.075 13.364 630.923 10.116 630.923 6.952V4.46ZM631.679 4.46H634.731V6.952C634.731 10.032 636.551 13.028 640.779 14.232L638.987 17.172C634.003 15.688 631.679 11.656 631.679 6.952V4.46ZM628.879 19.104H646.519V22.044H628.879V19.104ZM628.627 26.272H646.771V29.212H628.627V26.272ZM631.931 20.196H635.571V28.008H631.931V20.196ZM639.827 20.196H643.495V28.008H639.827V20.196ZM667.18 3.536H670.932V29.548H667.18V3.536ZM670.092 13.14H674.684V16.192H670.092V13.14ZM651.612 20.224H653.796C658.164 20.224 661.608 20.084 665.416 19.412L665.78 22.492C661.86 23.192 658.304 23.304 653.796 23.304H651.612V20.224ZM651.612 5.944H663.708V8.94H655.308V21.708H651.612V5.944ZM688.878 7.624H695.402V10.592H688.878V7.624ZM688.878 13.196H695.514V16.164H688.878V13.196ZM677.426 5.636H689.69V18.32H677.426V5.636ZM686.022 8.576H681.094V15.408H686.022V8.576ZM694.338 3.592H698.062V22.464H694.338V3.592ZM680.898 26.076H698.622V29.044H680.898V26.076ZM680.898 20.672H684.65V27.616H680.898V20.672Z" fill="white"/>
<path d="M205.06 352.176H206.956V368.4H205.06V352.176ZM197.452 358.296H201.556V359.928H197.452V358.296ZM200.932 352.608H202.828V367.776H200.932V352.608ZM192.82 371.76H207.628V373.392H192.82V371.76ZM192.82 366.408H194.812V372.6H192.82V366.408ZM189.652 354.264H198.028V364.2H189.652V354.264ZM196.156 355.824H191.5V362.616H196.156V355.824ZM213.29 363.432H228.194V365.04H213.29V363.432ZM210.77 369.528H230.426V371.184H210.77V369.528ZM219.578 364.272H221.546V370.296H219.578V364.272ZM213.29 353.928H227.954V355.56H215.306V364.032H213.29V353.928ZM214.658 358.584H227.498V360.192H214.658V358.584ZM238.32 363.12H240.312V368.304H238.32V363.12ZM239.304 353.568C242.64 353.568 245.04 355.656 245.04 358.68C245.04 361.704 242.64 363.792 239.304 363.792C235.968 363.792 233.568 361.704 233.568 358.68C233.568 355.656 235.968 353.568 239.304 353.568ZM239.304 355.272C237.096 355.272 235.512 356.664 235.512 358.68C235.512 360.696 237.096 362.088 239.304 362.088C241.512 362.088 243.096 360.696 243.096 358.68C243.096 356.664 241.512 355.272 239.304 355.272ZM247.512 352.176H249.504V373.872H247.512V352.176ZM248.928 361.104H252.936V362.784H248.928V361.104ZM232.872 369.192L232.584 367.536C236.496 367.512 241.728 367.488 246.144 366.888L246.312 368.376C241.728 369.144 236.664 369.192 232.872 369.192ZM276.509 352.176H278.501V365.232H276.509V352.176ZM277.949 357.936H281.717V359.592H277.949V357.936ZM264.869 366.456H278.501V373.584H264.869V366.456ZM276.557 368.064H266.813V371.976H276.557V368.064ZM261.725 354.456H274.541V356.088H261.725V354.456ZM268.133 357.144C271.229 357.144 273.317 358.68 273.317 361.032C273.317 363.384 271.229 364.872 268.133 364.872C265.013 364.872 262.925 363.384 262.925 361.032C262.925 358.68 265.013 357.144 268.133 357.144ZM268.133 358.68C266.141 358.68 264.821 359.592 264.821 361.032C264.821 362.448 266.141 363.36 268.133 363.36C270.077 363.36 271.421 362.448 271.421 361.032C271.421 359.592 270.077 358.68 268.133 358.68ZM267.125 351.984H269.117V355.296H267.125V351.984ZM287.379 354.768H289.059C289.059 359.424 288.435 364.536 285.339 368.76L283.779 367.848C286.755 363.984 287.379 359.448 287.379 354.912V354.768ZM284.235 354.768H288.363V356.424H284.235V354.768ZM292.155 354.768H293.859C293.859 359.352 293.571 365.448 290.163 370.152L288.579 369.24C291.891 364.92 292.155 359.28 292.155 354.936V354.768ZM289.779 354.768H293.211V356.424H289.779V354.768ZM300.339 352.176H302.259V373.872H300.339V352.176ZM292.851 360.696H296.739V362.328H292.851V360.696ZM296.331 352.728H298.203V372.768H296.331V352.728ZM327.271 352.176H329.263V373.872H327.271V352.176ZM328.783 361.08H332.815V362.76H328.783V361.08ZM312.463 355.632H325.255V357.264H312.463V355.632ZM318.943 359.064C322.015 359.064 324.223 361.128 324.223 364.056C324.223 366.984 322.015 369.048 318.943 369.048C315.895 369.048 313.663 366.984 313.663 364.056C313.663 361.128 315.895 359.064 318.943 359.064ZM318.943 360.72C316.975 360.72 315.559 362.088 315.559 364.056C315.559 366 316.975 367.392 318.943 367.392C320.911 367.392 322.327 366 322.327 364.056C322.327 362.088 320.911 360.72 318.943 360.72ZM317.911 352.44H319.903V356.376H317.911V352.44ZM337.301 358.68H352.037V360.312H337.301V358.68ZM334.637 363.216H354.317V364.848H334.637V363.216ZM337.301 352.968H339.269V359.496H337.301V352.968ZM337.157 371.712H352.157V373.344H337.157V371.712ZM337.157 367.008H339.125V372.144H337.157V367.008ZM372.489 354.432H374.409C374.409 360.696 372.249 366.456 364.617 370.296L363.489 368.76C370.185 365.4 372.489 360.576 372.489 354.648V354.432ZM364.665 354.432H373.689V356.04H364.665V354.432ZM372.369 359.808V361.32L363.897 362.112L363.561 360.384L372.369 359.808ZM379.329 352.176H381.321V373.872H379.329V352.176ZM374.361 360.864H380.289V362.52H374.361V360.864ZM401.359 352.176H403.351V373.872H401.359V352.176ZM386.095 354.504H398.383V356.136H386.095V354.504ZM385.759 368.52L385.519 366.816C389.551 366.816 394.879 366.768 399.487 366.216L399.607 367.68C394.927 368.424 389.719 368.496 385.759 368.52ZM388.495 355.728H390.415V367.272H388.495V355.728ZM394.039 355.728H395.983V367.272H394.039V355.728ZM412.157 356.088H413.669V356.688C413.669 360.12 411.917 363.408 408.773 364.776L407.813 363.264C410.549 362.088 412.157 359.376 412.157 356.688V356.088ZM412.541 356.088H414.029V356.688C414.029 359.184 415.709 361.704 418.421 362.784L417.485 364.272C414.317 363.024 412.541 359.952 412.541 356.688V356.088ZM408.221 355.056H417.893V356.64H408.221V355.056ZM412.157 352.512H414.029V355.776H412.157V352.512ZM424.013 352.2H425.909V366.864H424.013V352.2ZM420.605 357.696H424.709V359.352H420.605V357.696ZM419.405 352.56H421.277V364.992H419.405V352.56ZM417.725 365.976H419.405V366.48C419.405 370.296 415.493 373.032 411.125 373.8L410.381 372.24C414.197 371.64 417.725 369.288 417.725 366.48V365.976ZM417.989 365.976H419.693V366.48C419.693 369.288 423.221 371.64 427.037 372.24L426.293 373.8C421.925 373.032 417.989 370.296 417.989 366.48V365.976ZM439.515 352.536C444.291 352.536 447.147 353.88 447.147 356.304C447.147 358.728 444.291 360.072 439.515 360.072C434.715 360.072 431.883 358.728 431.883 356.304C431.883 353.88 434.715 352.536 439.515 352.536ZM439.515 354.048C435.963 354.048 433.923 354.864 433.923 356.304C433.923 357.744 435.963 358.56 439.515 358.56C443.043 358.56 445.083 357.744 445.083 356.304C445.083 354.864 443.043 354.048 439.515 354.048ZM429.699 361.512H449.307V363.12H429.699V361.512ZM432.075 364.968H446.811V369.864H434.091V372.504H432.123V368.424H444.843V366.504H432.075V364.968ZM432.123 372.072H447.459V373.632H432.123V372.072ZM458.528 363.672H478.136V365.28H458.528V363.672ZM467.336 360.864H469.304V364.344H467.336V360.864ZM461.12 359.976H475.832V361.536H461.12V359.976ZM461.12 352.8H475.736V354.36H463.088V360.816H461.12V352.8ZM462.512 356.352H475.16V357.888H462.512V356.352ZM468.32 366.888C473.048 366.888 475.76 368.088 475.76 370.368C475.76 372.624 473.048 373.824 468.32 373.824C463.592 373.824 460.88 372.624 460.88 370.368C460.88 368.088 463.592 366.888 468.32 366.888ZM468.32 368.4C464.84 368.4 462.896 369.096 462.896 370.368C462.896 371.664 464.84 372.336 468.32 372.336C471.8 372.336 473.744 371.664 473.744 370.368C473.744 369.096 471.8 368.4 468.32 368.4ZM480.582 355.872H491.334V357.504H480.582V355.872ZM485.958 358.944C488.67 358.944 490.638 360.984 490.638 363.912C490.638 366.816 488.67 368.856 485.958 368.856C483.27 368.856 481.302 366.816 481.302 363.912C481.302 360.984 483.27 358.944 485.958 358.944ZM485.958 360.648C484.302 360.648 483.102 361.992 483.102 363.912C483.102 365.832 484.302 367.176 485.958 367.176C487.638 367.176 488.862 365.832 488.862 363.912C488.862 361.992 487.638 360.648 485.958 360.648ZM497.07 352.176H498.99V373.872H497.07V352.176ZM493.614 361.296H497.718V362.952H493.614V361.296ZM492.438 352.656H494.31V372.816H492.438V352.656ZM484.998 352.8H486.966V356.88H484.998V352.8ZM36.4596 382.152H38.4516V403.896H36.4596V382.152ZM21.9396 384H23.9076V389.736H30.1716V384H32.1636V398.664H21.9396V384ZM23.9076 391.32V397.032H30.1716V391.32H23.9076ZM52.5138 395.856C57.1218 395.856 60.0738 397.368 60.0738 399.864C60.0738 402.336 57.1218 403.824 52.5138 403.824C47.8818 403.824 44.9538 402.336 44.9538 399.864C44.9538 397.368 47.8818 395.856 52.5138 395.856ZM52.5138 397.416C49.1058 397.416 46.9218 398.352 46.9218 399.864C46.9218 401.352 49.1058 402.288 52.5138 402.288C55.9218 402.288 58.0818 401.352 58.0818 399.864C58.0818 398.352 55.9218 397.416 52.5138 397.416ZM45.1217 383.256H59.0898V384.888H45.1217V383.256ZM42.7938 392.28H62.3778V393.888H42.7938V392.28ZM50.8338 388.104H52.8018V392.736H50.8338V388.104ZM57.9378 383.256H59.8818V385.104C59.8818 386.856 59.8818 388.608 59.3058 390.864L57.3378 390.624C57.9378 388.392 57.9378 386.808 57.9378 385.104V383.256ZM70.5119 383.208H72.1679V385.32C72.1679 389.424 69.7199 392.952 66.0479 394.344L65.0399 392.76C68.3279 391.56 70.5119 388.56 70.5119 385.32V383.208ZM70.8719 383.208H72.5039V385.32C72.5039 388.44 74.7359 391.248 77.9519 392.376L76.9439 393.936C73.3199 392.616 70.8719 389.304 70.8719 385.32V383.208ZM68.1599 396.336H82.6559V403.872H80.6399V397.968H68.1599V396.336ZM80.6399 382.176H82.6559V395.232H80.6399V382.176ZM92.47 384.384H94.102V386.136C94.102 390.096 91.654 393.48 88.03 394.824L86.998 393.24C90.238 392.088 92.47 389.208 92.47 386.136V384.384ZM92.854 384.384H94.462V386.136C94.462 388.92 96.574 391.632 99.718 392.736L98.71 394.32C95.182 393.024 92.854 389.76 92.854 386.136V384.384ZM98.542 387.816H103.366V389.472H98.542V387.816ZM87.622 383.664H99.214V385.272H87.622V383.664ZM90.31 396.336H104.782V403.872H102.79V397.968H90.31V396.336ZM102.79 382.176H104.782V395.16H102.79V382.176ZM124.772 382.152H126.764V403.896H124.772V382.152ZM115.316 383.832C118.532 383.832 120.836 386.784 120.836 391.392C120.836 396.024 118.532 398.976 115.316 398.976C112.124 398.976 109.82 396.024 109.82 391.392C109.82 386.784 112.124 383.832 115.316 383.832ZM115.316 385.632C113.204 385.632 111.716 387.888 111.716 391.392C111.716 394.92 113.204 397.224 115.316 397.224C117.452 397.224 118.916 394.92 118.916 391.392C118.916 387.888 117.452 385.632 115.316 385.632ZM133.17 384.336H147.138V385.992H133.17V384.336ZM131.106 399.192H150.714V400.848H131.106V399.192ZM138.714 391.44H140.706V400.008H138.714V391.44ZM146.394 384.336H148.362V386.496C148.362 389.184 148.362 392.16 147.57 396.552L145.578 396.288C146.394 392.136 146.394 389.088 146.394 386.496V384.336ZM175.774 382.176H177.766V398.328H175.774V382.176ZM160.558 383.928H171.982V385.56H160.558V383.928ZM160.198 395.064L159.982 393.36C163.534 393.36 168.598 393.312 172.654 392.832L172.774 394.32C168.598 394.992 163.726 395.064 160.198 395.064ZM162.718 385.32H164.638V393.648H162.718V385.32ZM167.902 385.32H169.822V393.648H167.902V385.32ZM172.174 386.28H176.83V387.912H172.174V386.28ZM172.174 390.432H176.83V392.064H172.174V390.432ZM163.894 401.76H178.342V403.392H163.894V401.76ZM163.894 397.008H165.886V402.792H163.894V397.008ZM196.845 382.152H198.837V398.136H196.845V382.152ZM198.213 388.752H202.053V390.408H198.213V388.752ZM185.325 401.76H199.821V403.392H185.325V401.76ZM185.325 396.504H187.317V402.408H185.325V396.504ZM188.061 383.688C191.301 383.688 193.725 385.92 193.725 389.04C193.725 392.184 191.301 394.392 188.061 394.392C184.821 394.392 182.396 392.184 182.396 389.04C182.396 385.92 184.821 383.688 188.061 383.688ZM188.061 385.44C185.949 385.44 184.34 386.928 184.34 389.04C184.34 391.176 185.949 392.64 188.061 392.64C190.173 392.64 191.781 391.176 191.781 389.04C191.781 386.928 190.173 385.44 188.061 385.44ZM218.923 382.2H220.915V398.472H218.923V382.2ZM220.291 389.304H224.131V390.984H220.291V389.304ZM204.139 384.816H216.955V386.424H204.139V384.816ZM210.547 387.624C213.619 387.624 215.731 389.232 215.731 391.68C215.731 394.104 213.619 395.712 210.547 395.712C207.451 395.712 205.339 394.104 205.339 391.68C205.339 389.232 207.451 387.624 210.547 387.624ZM210.547 389.184C208.579 389.184 207.235 390.168 207.235 391.68C207.235 393.168 208.579 394.152 210.547 394.152C212.491 394.152 213.835 393.168 213.835 391.68C213.835 390.168 212.491 389.184 210.547 389.184ZM209.539 382.176H211.531V385.656H209.539V382.176ZM207.403 401.76H221.899V403.392H207.403V401.76ZM207.403 397.176H209.395V402.456H207.403V397.176ZM232.895 393.624H252.551V395.256H232.895V393.624ZM241.871 394.44H243.863V399.432H241.871V394.44ZM235.391 401.76H250.367V403.392H235.391V401.76ZM235.391 397.512H237.359V402.384H235.391V397.512ZM235.511 382.848H237.479V385.608H247.967V382.848H249.959V391.536H235.511V382.848ZM237.479 387.168V389.928H247.967V387.168H237.479ZM262.077 383.184C265.317 383.184 267.621 384.984 267.621 387.648C267.621 390.288 265.317 392.136 262.077 392.136C258.861 392.136 256.557 390.288 256.557 387.648C256.557 384.984 258.861 383.184 262.077 383.184ZM262.077 384.84C259.965 384.84 258.453 385.992 258.453 387.648C258.453 389.328 259.965 390.456 262.077 390.456C264.189 390.456 265.701 389.328 265.701 387.648C265.701 385.992 264.189 384.84 262.077 384.84ZM261.189 394.536H263.181V403.2H261.189V394.536ZM270.789 382.176H272.757V403.896H270.789V382.176ZM255.213 395.616L254.949 393.936C258.981 393.936 264.477 393.888 269.253 393.168L269.397 394.656C264.501 395.544 259.173 395.616 255.213 395.616ZM292.867 382.176H294.859V403.872H292.867V382.176ZM286.507 384.504H288.475C288.475 390.792 285.643 396.288 278.395 399.84L277.339 398.232C283.603 395.208 286.507 390.6 286.507 384.84V384.504ZM278.323 384.504H287.371V386.136H278.323V384.504ZM307.937 390.6H312.041V392.256H307.937V390.6ZM315.665 382.176H317.585V403.872H315.665V382.176ZM311.369 382.632H313.265V402.792H311.369V382.632ZM304.025 383.976C306.833 383.976 308.657 386.88 308.657 391.536C308.657 396.192 306.833 399.096 304.025 399.096C301.217 399.096 299.417 396.192 299.417 391.536C299.417 386.88 301.217 383.976 304.025 383.976ZM304.025 385.824C302.321 385.824 301.241 388.032 301.241 391.536C301.241 395.04 302.321 397.248 304.025 397.248C305.753 397.248 306.833 395.04 306.833 391.536C306.833 388.032 305.753 385.824 304.025 385.824ZM332.055 389.52H338.103V391.152H332.055V389.52ZM326.823 384.048H328.455V387.912C328.455 392.784 325.887 397.44 322.455 399.288L321.183 397.704C324.375 396.12 326.823 391.944 326.823 387.912V384.048ZM327.207 384.048H328.815V387.912C328.815 391.872 331.263 395.808 334.407 397.296L333.231 398.904C329.727 397.128 327.207 392.664 327.207 387.912V384.048ZM337.119 382.152H339.087V403.896H337.119V382.152ZM360.427 386.16H366.235V387.792H360.427V386.16ZM360.235 390.672H366.091V392.304H360.235V390.672ZM365.899 382.176H367.891V395.184H365.899V382.176ZM359.107 383.808H361.243C361.243 389.4 357.379 393.312 351.139 395.184L350.323 393.576C355.867 391.968 359.107 388.776 359.107 384.672V383.808ZM351.451 383.808H360.475V385.44H351.451V383.808ZM360.835 395.424C365.227 395.424 368.011 396.984 368.011 399.6C368.011 402.216 365.227 403.776 360.835 403.776C356.443 403.776 353.659 402.216 353.659 399.6C353.659 396.984 356.443 395.424 360.835 395.424ZM360.835 396.984C357.667 396.984 355.627 397.968 355.627 399.6C355.627 401.232 357.667 402.192 360.835 402.192C364.027 402.192 366.067 401.232 366.067 399.6C366.067 397.968 364.027 396.984 360.835 396.984ZM387.978 382.176H389.97V395.304H387.978V382.176ZM384.378 388.752H388.866V390.408H384.378V388.752ZM375.906 396.456H389.97V403.584H375.906V396.456ZM388.026 398.064H377.85V401.976H388.026V398.064ZM372.162 384.432H384.714V386.04H372.162V384.432ZM378.426 387.144C381.354 387.144 383.442 388.728 383.442 391.032C383.442 393.336 381.354 394.872 378.426 394.872C375.498 394.872 373.41 393.336 373.41 391.032C373.41 388.728 375.498 387.144 378.426 387.144ZM378.426 388.68C376.602 388.68 375.306 389.616 375.306 391.032C375.306 392.424 376.602 393.36 378.426 393.36C380.25 393.36 381.546 392.424 381.546 391.032C381.546 389.616 380.25 388.68 378.426 388.68ZM377.442 381.96H379.434V385.584H377.442V381.96ZM395.176 384.552H404.992V386.16H395.176V384.552ZM398.56 390.744H400.528V398.088H398.56V390.744ZM404.176 384.552H406.12V385.704C406.12 387.48 406.12 390.312 405.496 394.344L403.528 394.152C404.176 390.24 404.176 387.456 404.176 385.704V384.552ZM408.856 382.176H410.824V403.872H408.856V382.176ZM410.296 391.248H414.304V392.928H410.296V391.248ZM394.216 399.144L393.976 397.464C397.912 397.464 403.144 397.392 407.536 396.84L407.632 398.304C403.144 399.024 398.056 399.12 394.216 399.144ZM428.78 385.272H430.388V388.8C430.388 393.384 427.628 397.992 424.172 399.696L423.02 398.112C426.164 396.624 428.78 392.544 428.78 388.8V385.272ZM429.164 385.272H430.772V388.8C430.772 392.472 433.388 396.216 436.58 397.584L435.452 399.168C431.948 397.536 429.164 393.312 429.164 388.8V385.272ZM423.74 384.384H435.86V386.064H423.74V384.384ZM438.788 382.176H440.78V403.872H438.788V382.176ZM450.762 383.208H452.418V385.32C452.418 389.424 449.97 392.952 446.298 394.344L445.29 392.76C448.578 391.56 450.762 388.56 450.762 385.32V383.208ZM451.122 383.208H452.754V385.32C452.754 388.44 454.986 391.248 458.202 392.376L457.194 393.936C453.57 392.616 451.122 389.304 451.122 385.32V383.208ZM448.41 396.336H462.906V403.872H460.89V397.968H448.41V396.336ZM460.89 382.176H462.906V395.232H460.89V382.176ZM476.992 382.536C481.768 382.536 484.624 383.88 484.624 386.304C484.624 388.728 481.768 390.072 476.992 390.072C472.192 390.072 469.36 388.728 469.36 386.304C469.36 383.88 472.192 382.536 476.992 382.536ZM476.992 384.048C473.44 384.048 471.4 384.864 471.4 386.304C471.4 387.744 473.44 388.56 476.992 388.56C480.52 388.56 482.56 387.744 482.56 386.304C482.56 384.864 480.52 384.048 476.992 384.048ZM467.176 391.512H486.784V393.12H467.176V391.512ZM469.552 394.968H484.288V399.864H471.568V402.504H469.6V398.424H482.32V396.504H469.552V394.968ZM469.6 402.072H484.936V403.632H469.6V402.072ZM498.5 395.184H500.468V397.704H511.076V395.184H513.068V403.584H498.5V395.184ZM500.468 399.24V401.976H511.076V399.24H500.468ZM496.004 392.064H515.612V393.672H496.004V392.064ZM504.812 382.416H506.516V383.376C506.516 387.144 502.316 389.856 497.852 390.528L497.132 388.968C501.044 388.44 504.812 386.112 504.812 383.376V382.416ZM505.124 382.416H506.828V383.376C506.828 386.064 510.644 388.44 514.508 388.968L513.764 390.528C509.348 389.856 505.124 387.096 505.124 383.376V382.416ZM518.106 392.736H537.714V394.344H518.106V392.736ZM520.266 396.936H535.314V403.992H533.322V398.568H520.266V396.936ZM520.578 388.728H535.458V390.336H520.578V388.728ZM520.578 382.992H535.266V384.624H522.57V389.544H520.578V382.992ZM555.016 382.104H557.008V394.08H555.016V382.104ZM556.168 387.312H560.224V388.992H556.168V387.312ZM543.232 395.184H557.008V400.032H545.248V402.672H543.28V398.592H555.064V396.696H543.232V395.184ZM543.28 402.096H557.8V403.632H543.28V402.096ZM540.232 384.12H553.048V385.68H540.232V384.12ZM546.64 386.64C549.76 386.64 551.824 388.008 551.824 390.216C551.824 392.4 549.76 393.744 546.64 393.744C543.472 393.744 541.432 392.4 541.432 390.216C541.432 388.008 543.472 386.64 546.64 386.64ZM546.64 388.104C544.624 388.104 543.328 388.92 543.328 390.216C543.328 391.488 544.624 392.304 546.64 392.304C548.632 392.304 549.928 391.488 549.928 390.216C549.928 388.92 548.632 388.104 546.64 388.104ZM545.632 381.936H547.624V385.2H545.632V381.936ZM577.773 382.944H579.525V384.144C579.525 388.296 575.301 391.272 570.789 392.04L569.997 390.432C573.957 389.832 577.773 387.24 577.773 384.144V382.944ZM578.133 382.944H579.861V384.144C579.861 387.168 583.725 389.832 587.637 390.432L586.845 392.04C582.381 391.272 578.133 388.248 578.133 384.144V382.944ZM577.773 395.616H579.741V403.872H577.773V395.616ZM569.013 394.392H588.621V396.048H569.013V394.392ZM603.241 395.52H604.777V396.696C604.777 399.528 603.001 402.384 599.881 403.584L598.873 402.096C601.609 401.112 603.241 398.784 603.241 396.696V395.52ZM603.673 395.52H605.161V396.696C605.161 398.88 606.457 401.208 609.049 402.264L608.209 403.776C605.089 402.552 603.673 399.576 603.673 396.696V395.52ZM611.257 395.52H612.745V396.696C612.745 399.24 611.305 402.456 608.209 403.776L607.369 402.264C609.937 401.088 611.257 398.568 611.257 396.696V395.52ZM611.665 395.52H613.201V396.696C613.201 398.928 614.809 401.16 617.569 402.096L616.561 403.584C613.393 402.432 611.665 399.696 611.665 396.696V395.52ZM613.609 382.2H615.625V394.584H613.609V382.2ZM603.985 383.448C607.273 383.448 609.625 385.512 609.625 388.512C609.625 391.512 607.273 393.552 603.985 393.552C600.697 393.552 598.321 391.512 598.321 388.512C598.321 385.512 600.697 383.448 603.985 383.448ZM603.985 385.104C601.825 385.104 600.265 386.496 600.265 388.512C600.265 390.528 601.825 391.896 603.985 391.896C606.145 391.896 607.705 390.528 607.705 388.512C607.705 386.496 606.145 385.104 603.985 385.104ZM625.703 383.832C628.847 383.832 631.103 386.784 631.103 391.392C631.103 396.024 628.847 398.976 625.703 398.976C622.535 398.976 620.303 396.024 620.303 391.392C620.303 386.784 622.535 383.832 625.703 383.832ZM625.703 385.632C623.615 385.632 622.199 387.888 622.199 391.392C622.199 394.92 623.615 397.224 625.703 397.224C627.791 397.224 629.207 394.92 629.207 391.392C629.207 387.888 627.791 385.632 625.703 385.632ZM635.807 382.152H637.775V403.896H635.807V382.152ZM630.455 390.432H636.671V392.064H630.455V390.432ZM646.797 393.336H648.765V399.84H646.797V393.336ZM654.813 393.336H656.805V399.84H654.813V393.336ZM641.997 399.456H661.653V401.112H641.997V399.456ZM651.789 383.544C656.373 383.544 659.661 385.728 659.661 389.136C659.661 392.52 656.373 394.704 651.789 394.704C647.181 394.704 643.893 392.52 643.893 389.136C643.893 385.728 647.181 383.544 651.789 383.544ZM651.789 385.128C648.309 385.128 645.813 386.712 645.813 389.136C645.813 391.536 648.309 393.12 651.789 393.12C655.269 393.12 657.741 391.536 657.741 389.136C657.741 386.712 655.269 385.128 651.789 385.128ZM666.182 402.136C665.761 402.136 665.401 401.986 665.099 401.685C664.798 401.384 664.648 401.023 664.648 400.602C664.648 400.182 664.798 399.821 665.099 399.52C665.401 399.219 665.761 399.068 666.182 399.068C666.602 399.068 666.963 399.219 667.264 399.52C667.565 399.821 667.716 400.182 667.716 400.602C667.716 400.881 667.645 401.136 667.503 401.369C667.366 401.602 667.182 401.79 666.949 401.932C666.722 402.068 666.466 402.136 666.182 402.136Z" fill="white"/>
<rect x="11" y="116" width="686" height="209" rx="16" fill="white"/>
<path d="M133.72 210.48H135.32V228.56H133.72V210.48ZM130.8 217.74H134.26V219.1H130.8V217.74ZM126.12 212.8H127.72C127.72 217.46 126.12 221.78 120.96 224.68L119.98 223.5C124.52 220.96 126.12 217.3 126.12 213.12V212.8ZM120.68 212.8H126.68V214.18H120.68V212.8ZM129.7 210.96H131.28V227.68H129.7V210.96ZM139.138 211.22H140.778V213.82H145.878V211.22H147.498V219.12H139.138V211.22ZM140.778 215.12V217.78H145.878V215.12H140.778ZM150.758 210.48H152.418V219.8H150.758V210.48ZM151.698 214.36H155.078V215.74H151.698V214.36ZM140.938 220.68H152.418V225.06H142.618V227.78H140.978V223.82H150.798V222H140.938V220.68ZM140.978 227.04H153.078V228.36H140.978V227.04ZM164.117 217.5H167.537V218.88H164.117V217.5ZM170.557 210.48H172.157V228.56H170.557V210.48ZM166.977 210.86H168.557V227.66H166.977V210.86ZM160.857 211.98C163.197 211.98 164.717 214.4 164.717 218.28C164.717 222.16 163.197 224.58 160.857 224.58C158.517 224.58 157.017 222.16 157.017 218.28C157.017 214.4 158.517 211.98 160.857 211.98ZM160.857 213.52C159.437 213.52 158.537 215.36 158.537 218.28C158.537 221.2 159.437 223.04 160.857 223.04C162.297 223.04 163.197 221.2 163.197 218.28C163.197 215.36 162.297 213.52 160.857 213.52ZM194.56 210.48H196.16V228.56H194.56V210.48ZM191.5 217.72H194.98V219.1H191.5V217.72ZM190.46 210.88H192.02V227.64H190.46V210.88ZM181.46 222.72H182.64C185.28 222.72 187.08 222.62 189.18 222.18L189.34 223.56C187.18 224.02 185.36 224.1 182.64 224.1H181.46V222.72ZM181.46 212.68H188.18V214.04H183.1V223.34H181.46V212.68ZM211.579 210.5H213.239V224.06H211.579V210.5ZM212.719 216.42H215.919V217.82H212.719V216.42ZM199.259 212.68H209.939V214.02H199.259V212.68ZM204.599 215.02C207.159 215.02 208.919 216.36 208.919 218.4C208.919 220.42 207.159 221.76 204.599 221.76C202.019 221.76 200.259 220.42 200.259 218.4C200.259 216.36 202.019 215.02 204.599 215.02ZM204.599 216.32C202.959 216.32 201.839 217.14 201.839 218.4C201.839 219.64 202.959 220.46 204.599 220.46C206.219 220.46 207.339 219.64 207.339 218.4C207.339 217.14 206.219 216.32 204.599 216.32ZM203.759 210.48H205.419V213.38H203.759V210.48ZM201.979 226.8H214.059V228.16H201.979V226.8ZM201.979 222.98H203.639V227.38H201.979V222.98ZM223.282 212.38H233.962V213.74H223.282V212.38ZM228.622 214.66C231.182 214.66 232.942 215.94 232.942 217.94C232.942 219.92 231.182 221.18 228.622 221.18C226.022 221.18 224.282 219.92 224.282 217.94C224.282 215.94 226.022 214.66 228.622 214.66ZM228.622 215.96C226.962 215.96 225.862 216.72 225.862 217.94C225.862 219.12 226.962 219.9 228.622 219.9C230.242 219.9 231.362 219.12 231.362 217.94C231.362 216.72 230.242 215.96 228.622 215.96ZM235.602 210.48H237.262V221.78H235.602V210.48ZM236.802 215.46H239.942V216.84H236.802V215.46ZM225.522 222.76H237.262V228.56H235.602V224.12H225.522V222.76ZM227.782 210.38H229.442V213.14H227.782V210.38ZM243.701 221.32H245.341V223.42H254.181V221.32H255.841V228.32H243.701V221.32ZM245.341 224.7V226.98H254.181V224.7H245.341ZM241.621 218.72H257.961V220.06H241.621V218.72ZM248.961 210.68H250.381V211.48C250.381 214.62 246.881 216.88 243.161 217.44L242.561 216.14C245.821 215.7 248.961 213.76 248.961 211.48V210.68ZM249.221 210.68H250.641V211.48C250.641 213.72 253.821 215.7 257.041 216.14L256.421 217.44C252.741 216.88 249.221 214.58 249.221 211.48V210.68ZM265.664 224.96H282.044V226.34H265.664V224.96ZM272.984 221.08H274.644V225.54H272.984V221.08ZM267.644 211.82H280.024V217.3H269.344V220.92H267.704V215.96H278.384V213.16H267.644V211.82ZM267.704 220.22H280.444V221.58H267.704V220.22ZM286.123 219.14H298.543V220.5H286.123V219.14ZM284.063 224.74H300.443V226.12H284.063V224.74ZM286.123 212.14H298.363V213.52H287.783V219.74H286.123V212.14ZM316.101 210.5H317.681V220.32H316.101V210.5ZM313.261 214.64H316.661V216H313.261V214.64ZM312.221 210.84H313.801V220.2H312.221V210.84ZM303.261 211.76H310.241V219.38H303.261V211.76ZM308.681 213.06H304.801V218.06H308.681V213.06ZM305.841 221.16H307.481V223.3H316.081V221.16H317.681V228.32H305.841V221.16ZM307.481 224.62V226.96H316.081V224.62H307.481ZM329.019 210.78C332.999 210.78 335.379 211.9 335.379 213.92C335.379 215.94 332.999 217.06 329.019 217.06C325.019 217.06 322.659 215.94 322.659 213.92C322.659 211.9 325.019 210.78 329.019 210.78ZM329.019 212.04C326.059 212.04 324.359 212.72 324.359 213.92C324.359 215.12 326.059 215.8 329.019 215.8C331.959 215.8 333.659 215.12 333.659 213.92C333.659 212.72 331.959 212.04 329.019 212.04ZM320.839 218.26H337.179V219.6H320.839V218.26ZM322.819 221.14H335.099V225.22H324.499V227.42H322.859V224.02H333.459V222.42H322.819V221.14ZM322.859 227.06H335.639V228.36H322.859V227.06ZM354.163 213.74H358.783V215.12H354.163V213.74ZM358.083 210.48H359.743V219.8H358.083V210.48ZM348.103 220.74H359.743V225.06H349.783V227.8H348.163V223.82H358.103V222.06H348.103V220.74ZM348.163 227H360.423V228.32H348.163V227ZM349.383 211.04H350.743V212.74C350.743 216.08 348.743 218.78 345.723 219.86L344.863 218.54C347.583 217.62 349.383 215.36 349.383 212.74V211.04ZM349.663 211.04H351.003V212.74C351.003 215.1 352.823 217.28 355.443 218.14L354.583 219.44C351.663 218.4 349.663 215.8 349.663 212.74V211.04ZM372.921 215.16H377.001V216.54H372.921V215.16ZM376.481 210.48H378.141V221.26H376.481V210.48ZM372.201 221.8C375.921 221.8 378.221 223.06 378.221 225.18C378.221 227.32 375.921 228.54 372.201 228.54C368.461 228.54 366.161 227.32 366.161 225.18C366.161 223.06 368.461 221.8 372.201 221.8ZM372.201 223.1C369.481 223.1 367.821 223.86 367.821 225.18C367.821 226.48 369.481 227.24 372.201 227.24C374.921 227.24 376.581 226.48 376.581 225.18C376.581 223.86 374.921 223.1 372.201 223.1ZM367.881 212.3H369.241V213.76C369.241 217.1 367.201 219.96 364.201 221.08L363.341 219.76C366.021 218.78 367.881 216.36 367.881 213.76V212.3ZM368.201 212.3H369.541V213.76C369.541 216.1 371.301 218.34 373.921 219.26L373.081 220.58C370.141 219.52 368.201 216.8 368.201 213.76V212.3ZM363.841 211.8H373.501V213.16H363.841V211.8ZM393.92 210.48H395.58V228.56H393.92V210.48ZM395.18 217.9H398.54V219.3H395.18V217.9ZM381.58 213.36H392.24V214.72H381.58V213.36ZM386.98 216.22C389.54 216.22 391.38 217.94 391.38 220.38C391.38 222.82 389.54 224.54 386.98 224.54C384.44 224.54 382.58 222.82 382.58 220.38C382.58 217.94 384.44 216.22 386.98 216.22ZM386.98 217.6C385.34 217.6 384.16 218.74 384.16 220.38C384.16 222 385.34 223.16 386.98 223.16C388.62 223.16 389.8 222 389.8 220.38C389.8 218.74 388.62 217.6 386.98 217.6ZM386.12 210.7H387.78V213.98H386.12V210.7ZM401.798 212.28H413.438V213.66H401.798V212.28ZM400.078 224.66H416.418V226.04H400.078V224.66ZM406.418 218.2H408.078V225.34H406.418V218.2ZM412.818 212.28H414.458V214.08C414.458 216.32 414.458 218.8 413.798 222.46L412.138 222.24C412.818 218.78 412.818 216.24 412.818 214.08V212.28ZM437.242 210.5H438.922V220.52H437.242V210.5ZM428.802 211.14H430.182V212.9C430.182 216.24 428.102 219.06 425.042 220.16L424.202 218.86C426.922 217.9 428.802 215.5 428.802 212.9V211.14ZM429.102 211.14H430.462V212.9C430.462 215.42 432.362 217.64 435.042 218.52L434.222 219.84C431.182 218.8 429.102 216.14 429.102 212.9V211.14ZM426.962 221.6H439.022V222.96H426.962V221.6ZM426.782 226.98H439.222V228.32H426.782V226.98ZM429.442 222.18H431.062V227.76H429.442V222.18ZM434.922 222.18H436.562V227.76H434.922V222.18ZM447.1 221.5H448.4V222.54C448.4 224.94 446.92 227.34 444.32 228.34L443.48 227.1C445.76 226.26 447.1 224.3 447.1 222.54V221.5ZM447.48 221.5H448.72V222.54C448.72 224.38 449.78 226.36 451.96 227.24L451.26 228.5C448.64 227.48 447.48 224.96 447.48 222.54V221.5ZM453.8 221.5H455.02V222.54C455.02 224.68 453.84 227.4 451.26 228.5L450.54 227.24C452.7 226.24 453.8 224.12 453.8 222.54V221.5ZM454.12 221.5H455.42V222.54C455.42 224.44 456.74 226.32 459.06 227.1L458.2 228.34C455.58 227.38 454.12 225.06 454.12 222.54V221.5ZM451.38 215H456.16V216.38H451.38V215ZM447.42 211.5C450.08 211.5 452.06 213.24 452.06 215.74C452.06 218.22 450.08 219.96 447.42 219.96C444.76 219.96 442.8 218.22 442.8 215.74C442.8 213.24 444.76 211.5 447.42 211.5ZM447.42 212.88C445.66 212.88 444.38 214.08 444.38 215.74C444.38 217.4 445.66 218.58 447.42 218.58C449.16 218.58 450.46 217.4 450.46 215.74C450.46 214.08 449.16 212.88 447.42 212.88ZM455.7 210.48H457.36V220.78H455.7V210.48ZM474.338 217.68H477.678V219.08H474.338V217.68ZM473.118 210.46H474.798V228.56H473.118V210.46ZM461.598 212.24H463.258V223.44H461.598V212.24ZM461.598 222.58H463.038C465.718 222.58 468.458 222.4 471.438 221.78L471.638 223.16C468.558 223.8 465.778 223.98 463.038 223.98H461.598V222.58ZM483.297 219.78H484.937V225.2H483.297V219.78ZM489.977 219.78H491.637V225.2H489.977V219.78ZM479.297 224.88H495.677V226.26H479.297V224.88ZM487.457 211.62C491.277 211.62 494.017 213.44 494.017 216.28C494.017 219.1 491.277 220.92 487.457 220.92C483.617 220.92 480.877 219.1 480.877 216.28C480.877 213.44 483.617 211.62 487.457 211.62ZM487.457 212.94C484.557 212.94 482.477 214.26 482.477 216.28C482.477 218.28 484.557 219.6 487.457 219.6C490.357 219.6 492.417 218.28 492.417 216.28C492.417 214.26 490.357 212.94 487.457 212.94ZM500.417 222.909V222.824C500.426 221.92 500.521 221.2 500.701 220.665C500.881 220.13 501.137 219.696 501.468 219.365C501.799 219.034 502.197 218.728 502.661 218.449C502.941 218.278 503.192 218.077 503.414 217.845C503.637 217.608 503.812 217.336 503.94 217.028C504.072 216.721 504.138 216.38 504.138 216.006C504.138 215.542 504.03 215.139 503.812 214.798C503.594 214.457 503.303 214.195 502.938 214.01C502.574 213.825 502.169 213.733 501.724 213.733C501.335 213.733 500.961 213.813 500.602 213.974C500.242 214.135 499.941 214.389 499.7 214.734C499.458 215.08 499.318 215.532 499.281 216.091H497.491C497.529 215.286 497.737 214.597 498.116 214.024C498.499 213.451 499.004 213.013 499.629 212.71C500.258 212.407 500.957 212.256 501.724 212.256C502.557 212.256 503.281 212.421 503.897 212.753C504.517 213.084 504.996 213.539 505.332 214.116C505.673 214.694 505.843 215.352 505.843 216.091C505.843 216.612 505.763 217.083 505.602 217.504C505.445 217.926 505.218 218.302 504.92 218.634C504.626 218.965 504.271 219.259 503.854 219.514C503.438 219.775 503.104 220.049 502.853 220.338C502.602 220.622 502.42 220.961 502.306 221.354C502.192 221.747 502.131 222.237 502.121 222.824V222.909H500.417ZM501.326 227.114C500.976 227.114 500.675 226.988 500.424 226.737C500.173 226.486 500.048 226.186 500.048 225.835C500.048 225.485 500.173 225.184 500.424 224.933C500.675 224.682 500.976 224.557 501.326 224.557C501.676 224.557 501.977 224.682 502.228 224.933C502.479 225.184 502.604 225.485 502.604 225.835C502.604 226.067 502.545 226.28 502.427 226.474C502.313 226.669 502.159 226.825 501.965 226.943C501.776 227.057 501.563 227.114 501.326 227.114Z" fill="#444444"/>
<path d="M129.58 275.46H134.14V276.82H129.58V275.46ZM133.2 270.5H134.86V283.74H133.2V270.5ZM123.32 286.8H135.36V288.16H123.32V286.8ZM123.32 282.58H124.98V287.5H123.32V282.58ZM124.6 272.74H125.96V274.2C125.96 277.48 123.92 280.32 120.9 281.44L120.04 280.12C122.74 279.16 124.6 276.76 124.6 274.2V272.74ZM124.92 272.74H126.26V274.18C126.26 276.52 128.02 278.8 130.64 279.72L129.8 281.02C126.86 279.96 124.92 277.24 124.92 274.18V272.74ZM120.56 271.96H130.22V273.3H120.56V271.96ZM138.378 279.72H154.758V281.08H138.378V279.72ZM145.858 280.56H147.518V284.72H145.858V280.56ZM140.478 271.32H152.638V277.68H140.478V271.32ZM150.998 272.66H142.098V276.34H150.998V272.66ZM140.458 286.8H152.938V288.16H140.458V286.8ZM140.458 282.98H142.098V287.28H140.458V282.98ZM161.397 272.32H162.757V273.78C162.757 277.08 160.717 279.9 157.697 281.02L156.837 279.7C159.537 278.74 161.397 276.34 161.397 273.78V272.32ZM161.717 272.32H163.057V273.78C163.057 276.1 164.817 278.36 167.437 279.28L166.597 280.6C163.657 279.52 161.717 276.8 161.717 273.78V272.32ZM166.457 275.18H170.477V276.56H166.457V275.18ZM157.357 271.72H167.017V273.06H157.357V271.72ZM159.597 282.28H171.657V288.56H169.997V283.64H159.597V282.28ZM169.997 270.48H171.657V281.3H169.997V270.48ZM188.335 270.5H190.015V283.7H188.335V270.5ZM178.395 286.8H190.555V288.16H178.395V286.8ZM178.395 282.34H180.035V287.26H178.395V282.34ZM180.315 271.74C183.015 271.74 185.015 273.58 185.015 276.2C185.015 278.8 183.015 280.66 180.315 280.66C177.615 280.66 175.595 278.8 175.595 276.2C175.595 273.58 177.615 271.74 180.315 271.74ZM180.315 273.18C178.555 273.18 177.215 274.42 177.215 276.2C177.215 277.96 178.555 279.2 180.315 279.2C182.075 279.2 183.415 277.96 183.415 276.2C183.415 274.42 182.075 273.18 180.315 273.18ZM201.159 272.24H212.639V273.6H201.159V272.24ZM199.199 284.74H215.539V286.1H199.199V284.74ZM211.959 272.24H213.579V273.96C213.579 276.16 213.579 278.64 212.839 282.34L211.179 282.14C211.959 278.64 211.959 276.1 211.959 273.96V272.24ZM212.319 276.58V277.84L200.919 278.48L200.659 277.04L212.319 276.58ZM205.559 280.06H207.219V285.24H205.559V280.06ZM219.677 279.14H232.097V280.5H219.677V279.14ZM217.617 284.74H233.997V286.12H217.617V284.74ZM219.677 272.14H231.917V273.52H221.337V279.74H219.677V272.14ZM254.801 270.46H256.461V288.58H254.801V270.46ZM242.681 282.84H244.181C247.201 282.84 249.901 282.72 253.101 282.2L253.281 283.56C250.001 284.1 247.281 284.22 244.181 284.22H242.681V282.84ZM242.641 272.16H251.001V278.62H244.341V283.36H242.681V277.26H249.321V273.52H242.641V272.16ZM264.139 281.26H265.799V288.56H264.139V281.26ZM270.599 281.26H272.279V288.56H270.599V281.26ZM260.019 281.04H276.419V282.4H260.019V281.04ZM262.079 271.18H263.739V273.6H272.679V271.18H274.319V278.92H262.079V271.18ZM263.739 274.96V277.54H272.679V274.96H263.739ZM290.658 270.46H292.338V288.56H290.658V270.46ZM291.878 277.8H295.218V279.18H291.878V277.8ZM286.038 272.42H287.658C287.658 277.56 285.298 282.2 279.458 285.14L278.538 283.86C283.538 281.32 286.038 277.46 286.038 272.68V272.42ZM279.378 272.42H286.898V273.78H279.378V272.42ZM315.621 270.48H317.301V279.84H315.621V270.48ZM305.501 280.72H317.301V285.08H307.181V287.8H305.561V283.84H315.641V282.04H305.501V280.72ZM305.561 287.04H317.961V288.36H305.561V287.04ZM303.261 271.7H312.961V273.02H303.261V271.7ZM302.941 279.24L302.761 277.86C305.981 277.86 310.301 277.78 313.821 277.34L313.921 278.56C310.321 279.1 306.121 279.22 302.941 279.24ZM305.041 272.3H306.641V278.46H305.041V272.3ZM309.561 272.3H311.181V278.46H309.561V272.3ZM324.859 279.78H326.499V285.2H324.859V279.78ZM331.539 279.78H333.199V285.2H331.539V279.78ZM320.859 284.88H337.239V286.26H320.859V284.88ZM329.019 271.62C332.839 271.62 335.579 273.44 335.579 276.28C335.579 279.1 332.839 280.92 329.019 280.92C325.179 280.92 322.439 279.1 322.439 276.28C322.439 273.44 325.179 271.62 329.019 271.62ZM329.019 272.94C326.119 272.94 324.039 274.26 324.039 276.28C324.039 278.28 326.119 279.6 329.019 279.6C331.919 279.6 333.979 278.28 333.979 276.28C333.979 274.26 331.919 272.94 329.019 272.94ZM352.898 270.5H354.478V281.68H352.898V270.5ZM349.958 275.44H353.378V276.8H349.958V275.44ZM349.058 270.76H350.638V281.42H349.058V270.76ZM339.158 272.54H348.318V273.86H339.158V272.54ZM343.758 274.76C346.018 274.76 347.598 275.98 347.598 277.86C347.598 279.74 346.018 280.96 343.758 280.96C341.478 280.96 339.898 279.74 339.898 277.86C339.898 275.98 341.478 274.76 343.758 274.76ZM343.758 276.02C342.338 276.02 341.378 276.74 341.378 277.86C341.378 278.98 342.338 279.72 343.758 279.72C345.158 279.72 346.118 278.98 346.118 277.86C346.118 276.74 345.158 276.02 343.758 276.02ZM342.938 270.56H344.558V273.32H342.938V270.56ZM344.018 282.22H345.298V282.84C345.298 285.12 343.798 287.4 341.178 288.34L340.398 287.1C342.658 286.34 344.018 284.48 344.018 282.84V282.22ZM344.398 282.22H345.618V282.84C345.618 284.58 346.678 286.42 348.838 287.24L348.138 288.5C345.558 287.54 344.398 285.14 344.398 282.84V282.22ZM350.658 282.22H351.878V282.84C351.878 284.88 350.698 287.46 348.138 288.5L347.458 287.24C349.558 286.32 350.658 284.34 350.658 282.84V282.22ZM350.998 282.22H352.278V282.84C352.278 284.6 353.638 286.38 355.918 287.1L355.118 288.34C352.478 287.44 350.998 285.24 350.998 282.84V282.22ZM371.096 277.68H374.436V279.08H371.096V277.68ZM369.876 270.46H371.556V288.56H369.876V270.46ZM358.356 272.24H360.016V283.44H358.356V272.24ZM358.356 282.58H359.796C362.476 282.58 365.216 282.4 368.196 281.78L368.396 283.16C365.316 283.8 362.536 283.98 359.796 283.98H358.356V282.58ZM380.055 279.78H381.695V285.2H380.055V279.78ZM386.735 279.78H388.395V285.2H386.735V279.78ZM376.055 284.88H392.435V286.26H376.055V284.88ZM384.215 271.62C388.035 271.62 390.775 273.44 390.775 276.28C390.775 279.1 388.035 280.92 384.215 280.92C380.375 280.92 377.635 279.1 377.635 276.28C377.635 273.44 380.375 271.62 384.215 271.62ZM384.215 272.94C381.315 272.94 379.235 274.26 379.235 276.28C379.235 278.28 381.315 279.6 384.215 279.6C387.115 279.6 389.175 278.28 389.175 276.28C389.175 274.26 387.115 272.94 384.215 272.94ZM397.175 282.909V282.824C397.184 281.92 397.279 281.2 397.459 280.665C397.639 280.13 397.894 279.696 398.226 279.365C398.557 279.034 398.955 278.728 399.419 278.449C399.698 278.278 399.949 278.077 400.172 277.845C400.394 277.608 400.57 277.336 400.697 277.028C400.83 276.721 400.896 276.38 400.896 276.006C400.896 275.542 400.787 275.139 400.57 274.798C400.352 274.457 400.061 274.195 399.696 274.01C399.331 273.825 398.927 273.733 398.482 273.733C398.093 273.733 397.719 273.813 397.359 273.974C397 274.135 396.699 274.389 396.457 274.734C396.216 275.08 396.076 275.532 396.038 276.091H394.249C394.286 275.286 394.495 274.597 394.874 274.024C395.257 273.451 395.761 273.013 396.386 272.71C397.016 272.407 397.714 272.256 398.482 272.256C399.315 272.256 400.039 272.421 400.655 272.753C401.275 273.084 401.753 273.539 402.089 274.116C402.43 274.694 402.601 275.352 402.601 276.091C402.601 276.612 402.52 277.083 402.359 277.504C402.203 277.926 401.976 278.302 401.678 278.634C401.384 278.965 401.029 279.259 400.612 279.514C400.196 279.775 399.862 280.049 399.611 280.338C399.36 280.622 399.178 280.961 399.064 281.354C398.95 281.747 398.889 282.237 398.879 282.824V282.909H397.175ZM398.084 287.114C397.733 287.114 397.433 286.988 397.182 286.737C396.931 286.486 396.805 286.186 396.805 285.835C396.805 285.485 396.931 285.184 397.182 284.933C397.433 284.682 397.733 284.557 398.084 284.557C398.434 284.557 398.735 284.682 398.986 284.933C399.237 285.184 399.362 285.485 399.362 285.835C399.362 286.067 399.303 286.28 399.185 286.474C399.071 286.669 398.917 286.825 398.723 286.943C398.534 287.057 398.321 287.114 398.084 287.114Z" fill="#444444"/>
<path d="M133.14 149.48H134.8V158.84H133.14V149.48ZM123.12 159.76H134.82V164.1H124.78V166.58H123.16V162.86H133.18V161.06H123.12V159.76ZM123.16 166.04H135.42V167.36H123.16V166.04ZM124.7 150H126.08V151.38C126.08 154.72 124 157.56 120.94 158.68L120.12 157.36C122.84 156.4 124.7 154 124.7 151.38V150ZM125 150H126.36V151.38C126.36 153.88 128.26 156.14 130.94 157.02L130.12 158.32C127.08 157.28 125 154.62 125 151.38V150ZM138.378 159.98H154.778V161.34H138.378V159.98ZM145.698 160.8H147.338V167.56H145.698V160.8ZM140.458 150.48H152.658V157.54H140.458V150.48ZM151.038 151.82H142.098V156.2H151.038V151.82ZM164.117 156.5H167.537V157.88H164.117V156.5ZM170.557 149.48H172.157V167.56H170.557V149.48ZM166.977 149.86H168.557V166.66H166.977V149.86ZM160.857 150.98C163.197 150.98 164.717 153.4 164.717 157.28C164.717 161.16 163.197 163.58 160.857 163.58C158.517 163.58 157.017 161.16 157.017 157.28C157.017 153.4 158.517 150.98 160.857 150.98ZM160.857 152.52C159.437 152.52 158.537 154.36 158.537 157.28C158.537 160.2 159.437 162.04 160.857 162.04C162.297 162.04 163.197 160.2 163.197 157.28C163.197 154.36 162.297 152.52 160.857 152.52ZM184.215 155.6H189.255V156.96H184.215V155.6ZM179.855 151.04H181.215V154.26C181.215 158.32 179.075 162.2 176.215 163.74L175.155 162.42C177.815 161.1 179.855 157.62 179.855 154.26V151.04ZM180.175 151.04H181.515V154.26C181.515 157.56 183.555 160.84 186.175 162.08L185.195 163.42C182.275 161.94 180.175 158.22 180.175 154.26V151.04ZM188.435 149.46H190.075V167.58H188.435V149.46ZM199.454 150.78C202.274 150.78 204.294 152.52 204.294 155.04C204.294 157.58 202.274 159.32 199.454 159.32C196.634 159.32 194.594 157.58 194.594 155.04C194.594 152.52 196.634 150.78 199.454 150.78ZM199.454 152.22C197.574 152.22 196.214 153.36 196.214 155.04C196.214 156.72 197.574 157.88 199.454 157.88C201.314 157.88 202.674 156.72 202.674 155.04C202.674 153.36 201.314 152.22 199.454 152.22ZM206.654 149.46H208.314V167.58H206.654V149.46ZM193.914 163.62L193.674 162.24C196.974 162.24 201.534 162.22 205.474 161.6L205.614 162.82C201.554 163.6 197.134 163.62 193.914 163.62ZM231.337 149.48H232.937V167.56H231.337V149.48ZM228.417 156.74H231.877V158.1H228.417V156.74ZM223.737 151.8H225.337C225.337 156.46 223.737 160.78 218.577 163.68L217.597 162.5C222.137 159.96 223.737 156.3 223.737 152.12V151.8ZM218.297 151.8H224.297V153.18H218.297V151.8ZM227.317 149.96H228.897V166.68H227.317V149.96ZM236.756 150.22H238.396V152.82H243.496V150.22H245.116V158.12H236.756V150.22ZM238.396 154.12V156.78H243.496V154.12H238.396ZM248.376 149.48H250.036V158.8H248.376V149.48ZM249.316 153.36H252.696V154.74H249.316V153.36ZM238.556 159.68H250.036V164.06H240.236V166.78H238.596V162.82H248.416V161H238.556V159.68ZM238.596 166.04H250.696V167.36H238.596V166.04ZM272.379 149.48H274.039V163.64H272.379V149.48ZM273.339 155.78H276.679V157.16H273.339V155.78ZM262.599 165.8H274.679V167.16H262.599V165.8ZM262.599 162.7H264.259V166.22H262.599V162.7ZM264.759 158.32H266.419V160.78H264.759V158.32ZM260.139 161.56L259.919 160.22C263.119 160.22 267.579 160.16 271.299 159.58L271.439 160.76C267.619 161.46 263.279 161.54 260.139 161.56ZM260.379 151.24H270.759V152.5H260.379V151.24ZM265.579 153.24C268.119 153.24 269.779 154.3 269.779 156.02C269.779 157.76 268.119 158.82 265.579 158.82C263.039 158.82 261.359 157.76 261.359 156.02C261.359 154.3 263.039 153.24 265.579 153.24ZM265.579 154.42C263.959 154.42 262.919 155.04 262.919 156.02C262.919 157.02 263.959 157.62 265.579 157.62C267.179 157.62 268.219 157.02 268.219 156.02C268.219 155.04 267.179 154.42 265.579 154.42ZM264.759 149.4H266.419V151.8H264.759V149.4ZM287.078 152.8H291.918V154.16H287.078V152.8ZM286.918 156.56H291.798V157.92H286.918V156.56ZM291.638 149.48H293.298V160.32H291.638V149.48ZM285.978 150.84H287.758C287.758 155.5 284.538 158.76 279.338 160.32L278.658 158.98C283.278 157.64 285.978 154.98 285.978 151.56V150.84ZM279.598 150.84H287.118V152.2H279.598V150.84ZM287.418 160.52C291.078 160.52 293.398 161.82 293.398 164C293.398 166.18 291.078 167.48 287.418 167.48C283.758 167.48 281.438 166.18 281.438 164C281.438 161.82 283.758 160.52 287.418 160.52ZM287.418 161.82C284.778 161.82 283.078 162.64 283.078 164C283.078 165.36 284.778 166.16 287.418 166.16C290.078 166.16 291.778 165.36 291.778 164C291.778 162.64 290.078 161.82 287.418 161.82ZM297.636 151.46H305.816V152.8H297.636V151.46ZM300.456 156.62H302.096V162.74H300.456V156.62ZM305.136 151.46H306.756V152.42C306.756 153.9 306.756 156.26 306.236 159.62L304.596 159.46C305.136 156.2 305.136 153.88 305.136 152.42V151.46ZM309.036 149.48H310.676V167.56H309.036V149.48ZM310.236 157.04H313.576V158.44H310.236V157.04ZM296.836 163.62L296.636 162.22C299.916 162.22 304.276 162.16 307.936 161.7L308.016 162.92C304.276 163.52 300.036 163.6 296.836 163.62ZM322.959 159.22H335.379V160.56H322.959V159.22ZM320.859 163.86H337.239V165.24H320.859V163.86ZM322.959 151.02H335.179V152.38H324.639V159.64H322.959V151.02ZM324.099 155.06H334.799V156.38H324.099V155.06ZM352.458 149.46H354.118V167.58H352.458V149.46ZM349.018 156.42H352.858V157.78H349.018V156.42ZM339.918 161.86H341.298C344.498 161.86 346.758 161.76 349.418 161.28L349.578 162.66C346.858 163.14 344.558 163.26 341.298 163.26H339.918V161.86ZM339.878 151.16H347.958V157.5H341.558V162.28H339.918V156.14H346.318V152.52H339.878V151.16ZM359.816 149.8H361.456V151.48H370.196V149.8H371.856V155.76H359.816V149.8ZM361.456 152.76V154.48H370.196V152.76H361.456ZM357.636 157.28H373.976V158.62H357.636V157.28ZM359.616 160.26H371.896V164.3H361.296V166.52H359.656V163.1H370.256V161.52H359.616V160.26ZM359.656 166.08H372.436V167.36H359.656V166.08ZM385.82 160.38H387.48V167.7H385.82V160.38ZM392.24 160.38H393.9V167.7H392.24V160.38ZM381.66 159.8H398.06V161.18H381.66V159.8ZM388.98 150.12H390.44V151.12C390.44 154.6 386.92 157.1 383.18 157.78L382.52 156.42C385.8 155.9 388.98 153.72 388.98 151.12V150.12ZM389.28 150.12H390.72V151.12C390.72 153.68 393.94 155.92 397.2 156.42L396.52 157.78C392.8 157.1 389.28 154.56 389.28 151.12V150.12ZM401.118 158.06H402.578C406.478 158.06 408.618 157.98 411.158 157.56L411.338 158.88C408.718 159.34 406.518 159.4 402.578 159.4H401.118V158.06ZM401.118 150.8H409.718V152.14H402.758V158.74H401.118V150.8ZM402.218 154.38H409.218V155.7H402.218V154.38ZM413.218 149.5H414.898V160.68H413.218V149.5ZM408.918 160.94C412.678 160.94 414.978 162.14 414.978 164.22C414.978 166.32 412.678 167.52 408.918 167.52C405.138 167.52 402.838 166.32 402.838 164.22C402.838 162.14 405.138 160.94 408.918 160.94ZM408.918 162.26C406.158 162.26 404.498 162.98 404.498 164.22C404.498 165.5 406.158 166.22 408.918 166.22C411.658 166.22 413.318 165.5 413.318 164.22C413.318 162.98 411.658 162.26 408.918 162.26ZM424.902 151.46H433.082V152.8H424.902V151.46ZM427.722 156.62H429.362V162.74H427.722V156.62ZM432.402 151.46H434.022V152.42C434.022 153.9 434.022 156.26 433.502 159.62L431.862 159.46C432.402 156.2 432.402 153.88 432.402 152.42V151.46ZM436.302 149.48H437.942V167.56H436.302V149.48ZM437.502 157.04H440.842V158.44H437.502V157.04ZM424.102 163.62L423.902 162.22C427.182 162.22 431.542 162.16 435.202 161.7L435.282 162.92C431.542 163.52 427.302 163.6 424.102 163.62ZM452.14 154.16H456.22V155.54H452.14V154.16ZM455.7 149.48H457.36V160.26H455.7V149.48ZM451.42 160.8C455.14 160.8 457.44 162.06 457.44 164.18C457.44 166.32 455.14 167.54 451.42 167.54C447.68 167.54 445.38 166.32 445.38 164.18C445.38 162.06 447.68 160.8 451.42 160.8ZM451.42 162.1C448.7 162.1 447.04 162.86 447.04 164.18C447.04 165.48 448.7 166.24 451.42 166.24C454.14 166.24 455.8 165.48 455.8 164.18C455.8 162.86 454.14 162.1 451.42 162.1ZM447.1 151.3H448.46V152.76C448.46 156.1 446.42 158.96 443.42 160.08L442.56 158.76C445.24 157.78 447.1 155.36 447.1 152.76V151.3ZM447.42 151.3H448.76V152.76C448.76 155.1 450.52 157.34 453.14 158.26L452.3 159.58C449.36 158.52 447.42 155.8 447.42 152.76V151.3ZM443.06 150.8H452.72V152.16H443.06V150.8ZM474.018 149.46H475.678V167.58H474.018V149.46ZM466.138 150.86C468.818 150.86 470.738 153.32 470.738 157.16C470.738 161.02 468.818 163.48 466.138 163.48C463.478 163.48 461.558 161.02 461.558 157.16C461.558 153.32 463.478 150.86 466.138 150.86ZM466.138 152.36C464.378 152.36 463.138 154.24 463.138 157.16C463.138 160.1 464.378 162.02 466.138 162.02C467.918 162.02 469.138 160.1 469.138 157.16C469.138 154.24 467.918 152.36 466.138 152.36ZM487.002 150.26H498.642V151.6H487.002V150.26ZM484.922 156.7H501.302V158.06H484.922V156.7ZM492.242 157.66H493.902V161.4H492.242V157.66ZM497.562 150.26H499.182V151.56C499.182 153.04 499.182 154.86 498.582 157.32L496.962 157.12C497.562 154.72 497.562 153 497.562 151.56V150.26ZM493.062 160.84C496.962 160.84 499.342 162.06 499.342 164.2C499.342 166.32 496.962 167.54 493.062 167.54C489.162 167.54 486.802 166.32 486.802 164.2C486.802 162.06 489.162 160.84 493.062 160.84ZM493.062 162.2C490.202 162.2 488.462 162.92 488.462 164.2C488.462 165.46 490.202 166.2 493.062 166.2C495.942 166.2 497.662 165.46 497.662 164.2C497.662 162.92 495.942 162.2 493.062 162.2ZM505.4 150.42H517.04V151.78H505.4V150.42ZM503.32 157.08H519.7V158.44H503.32V157.08ZM515.96 150.42H517.58V151.76C517.58 153.3 517.58 155.06 516.98 157.56L515.36 157.48C515.96 155 515.96 153.26 515.96 151.76V150.42ZM505.32 160.9H517.64V167.32H505.32V160.9ZM516.02 162.22H506.94V165.98H516.02V162.22ZM535.359 149.5H536.939V160.68H535.359V149.5ZM532.419 154.44H535.839V155.8H532.419V154.44ZM531.519 149.76H533.099V160.42H531.519V149.76ZM521.619 151.54H530.779V152.86H521.619V151.54ZM526.219 153.76C528.479 153.76 530.059 154.98 530.059 156.86C530.059 158.74 528.479 159.96 526.219 159.96C523.939 159.96 522.359 158.74 522.359 156.86C522.359 154.98 523.939 153.76 526.219 153.76ZM526.219 155.02C524.799 155.02 523.839 155.74 523.839 156.86C523.839 157.98 524.799 158.72 526.219 158.72C527.619 158.72 528.579 157.98 528.579 156.86C528.579 155.74 527.619 155.02 526.219 155.02ZM525.399 149.56H527.019V152.32H525.399V149.56ZM526.479 161.22H527.759V161.84C527.759 164.12 526.259 166.4 523.639 167.34L522.859 166.1C525.119 165.34 526.479 163.48 526.479 161.84V161.22ZM526.859 161.22H528.079V161.84C528.079 163.58 529.139 165.42 531.299 166.24L530.599 167.5C528.019 166.54 526.859 164.14 526.859 161.84V161.22ZM533.119 161.22H534.339V161.84C534.339 163.88 533.159 166.46 530.599 167.5L529.919 166.24C532.019 165.32 533.119 163.34 533.119 161.84V161.22ZM533.459 161.22H534.739V161.84C534.739 163.6 536.099 165.38 538.379 166.1L537.579 167.34C534.939 166.44 533.459 164.24 533.459 161.84V161.22ZM553.557 156.68H556.897V158.08H553.557V156.68ZM552.337 149.46H554.017V167.56H552.337V149.46ZM540.817 151.24H542.477V162.44H540.817V151.24ZM540.817 161.58H542.257C544.937 161.58 547.677 161.4 550.657 160.78L550.857 162.16C547.777 162.8 544.997 162.98 542.257 162.98H540.817V161.58ZM562.516 158.78H564.156V164.2H562.516V158.78ZM569.196 158.78H570.856V164.2H569.196V158.78ZM558.516 163.88H574.896V165.26H558.516V163.88ZM566.676 150.62C570.496 150.62 573.236 152.44 573.236 155.28C573.236 158.1 570.496 159.92 566.676 159.92C562.836 159.92 560.096 158.1 560.096 155.28C560.096 152.44 562.836 150.62 566.676 150.62ZM566.676 151.94C563.776 151.94 561.696 153.26 561.696 155.28C561.696 157.28 563.776 158.6 566.676 158.6C569.576 158.6 571.636 157.28 571.636 155.28C571.636 153.26 569.576 151.94 566.676 151.94ZM579.636 161.909V161.824C579.645 160.92 579.74 160.2 579.92 159.665C580.1 159.13 580.355 158.696 580.687 158.365C581.018 158.034 581.416 157.728 581.88 157.449C582.159 157.278 582.41 157.077 582.633 156.845C582.855 156.608 583.031 156.336 583.158 156.028C583.291 155.721 583.357 155.38 583.357 155.006C583.357 154.542 583.248 154.139 583.031 153.798C582.813 153.457 582.522 153.195 582.157 153.01C581.792 152.825 581.388 152.733 580.942 152.733C580.554 152.733 580.18 152.813 579.82 152.974C579.46 153.135 579.16 153.389 578.918 153.734C578.677 154.08 578.537 154.532 578.499 155.091H576.71C576.747 154.286 576.956 153.597 577.335 153.024C577.718 152.451 578.222 152.013 578.847 151.71C579.477 151.407 580.175 151.256 580.942 151.256C581.776 151.256 582.5 151.421 583.116 151.753C583.736 152.084 584.214 152.539 584.55 153.116C584.891 153.694 585.062 154.352 585.062 155.091C585.062 155.612 584.981 156.083 584.82 156.504C584.664 156.926 584.437 157.302 584.138 157.634C583.845 157.965 583.49 158.259 583.073 158.514C582.656 158.775 582.323 159.049 582.072 159.338C581.821 159.622 581.638 159.961 581.525 160.354C581.411 160.747 581.35 161.237 581.34 161.824V161.909H579.636ZM580.545 166.114C580.194 166.114 579.894 165.988 579.643 165.737C579.392 165.486 579.266 165.186 579.266 164.835C579.266 164.485 579.392 164.184 579.643 163.933C579.894 163.682 580.194 163.557 580.545 163.557C580.895 163.557 581.196 163.682 581.447 163.933C581.698 164.184 581.823 164.485 581.823 164.835C581.823 165.067 581.764 165.28 581.646 165.474C581.532 165.669 581.378 165.825 581.184 165.943C580.995 166.057 580.781 166.114 580.545 166.114Z" fill="#444444"/>
<path d="M97.7544 153H95.613C95.3127 153 95.0278 153.14 94.844 153.379L82.2128 169.603L76.156 161.822C76.0644 161.704 75.9476 161.609 75.8144 161.543C75.6812 161.477 75.5351 161.443 75.387 161.443H73.2456C73.0403 161.443 72.927 161.682 73.0526 161.844L81.4438 172.623C81.8359 173.126 82.5896 173.126 82.9848 172.623L97.9474 153.398C98.073 153.239 97.9597 153 97.7544 153Z" fill="#09C169"/>
<path d="M97.7544 206H95.613C95.3127 206 95.0278 206.14 94.844 206.379L82.2128 222.603L76.156 214.822C76.0644 214.704 75.9476 214.609 75.8144 214.543C75.6812 214.477 75.5351 214.443 75.387 214.443H73.2456C73.0403 214.443 72.927 214.682 73.0526 214.844L81.4438 225.623C81.8359 226.126 82.5896 226.126 82.9848 225.623L97.9474 206.398C98.073 206.239 97.9597 206 97.7544 206Z" fill="#09C169"/>
<path d="M97.7544 206H95.613C95.3127 206 95.0278 206.14 94.844 206.379L82.2128 222.603L76.156 214.822C76.0644 214.704 75.9476 214.609 75.8144 214.543C75.6812 214.477 75.5351 214.443 75.387 214.443H73.2456C73.0403 214.443 72.927 214.682 73.0526 214.844L81.4438 225.623C81.8359 226.126 82.5896 226.126 82.9848 225.623L97.9474 206.398C98.073 206.239 97.9597 206 97.7544 206Z" fill="#09C169"/>
<path d="M97.7544 260H95.613C95.3127 260 95.0278 260.14 94.844 260.379L82.2128 276.603L76.156 268.822C76.0644 268.704 75.9476 268.609 75.8144 268.543C75.6812 268.477 75.5351 268.443 75.387 268.443H73.2456C73.0403 268.443 72.927 268.682 73.0526 268.844L81.4438 279.623C81.8359 280.126 82.5896 280.126 82.9848 279.623L97.9474 260.398C98.073 260.239 97.9597 260 97.7544 260Z" fill="#09C169"/>
</g>
<defs>
<filter id="filter0_d_456_11" x="7" y="3.33984" width="695.623" height="408.652" filterUnits="userSpaceOnUse" color-interpolation-filters="sRGB">
<feFlood flood-opacity="0" result="BackgroundImageFix"/>
<feColorMatrix in="SourceAlpha" type="matrix" values="0 0 0 0 0 0 0 0 0 0 0 0 0 0 0 0 0 0 127 0" result="hardAlpha"/>
<feOffset dy="4"/>
<feGaussianBlur stdDeviation="2"/>
<feComposite in2="hardAlpha" operator="out"/>
<feColorMatrix type="matrix" values="0 0 0 0 0 0 0 0 0 0 0 0 0 0 0 0 0 0 0.25 0"/>
<feBlend mode="normal" in2="BackgroundImageFix" result="effect1_dropShadow_456_11"/>
<feBlend mode="normal" in="SourceGraphic" in2="effect1_dropShadow_456_11" result="shape"/>
</filter>
</defs>
</svg>
