<svg width="377" height="576" viewBox="0 0 377 576" fill="none" xmlns="http://www.w3.org/2000/svg">
<path d="M139.168 179.048H142.264C142.264 185.888 140.488 191.624 132.52 195.8L130.768 193.376C137.32 189.92 139.168 185.72 139.168 179.432V179.048ZM132.088 179.048H141.112V181.568H132.088V179.048ZM139.48 184.496V186.92L131.32 187.664L130.912 184.976L139.48 184.496ZM146.368 176.912H149.56V199.136H146.368V176.912ZM142.24 185.432H148.048V188.024H142.24V185.432ZM168.35 176.912H171.566V199.136H168.35V176.912ZM153.59 178.952H166.07V181.496H153.59V178.952ZM153.302 194.072L152.99 191.456C156.998 191.456 162.35 191.384 166.934 190.832L167.102 193.16C162.422 193.952 157.31 194.048 153.302 194.072ZM155.51 180.944H158.606V192.152H155.51V180.944ZM161.054 180.944H164.15V192.152H161.054V180.944ZM179.1 181.16H181.476V181.808C181.476 185.336 180.036 188.6 176.556 189.896L175.092 187.544C177.9 186.464 179.1 184.16 179.1 181.808V181.16ZM179.748 181.16H182.1V181.808C182.1 184.016 183.324 186.152 186.108 187.136L184.692 189.488C181.188 188.288 179.748 185.192 179.748 181.808V181.16ZM175.716 179.336H185.46V181.832H175.716V179.336ZM179.1 177.176H182.1V180.608H179.1V177.176ZM191.028 176.936H194.052V191.96H191.028V176.936ZM188.46 182.192H191.988V184.784H188.46V182.192ZM186.396 177.272H189.372V190.016H186.396V177.272ZM184.812 190.928H187.524V191.264C187.524 195.128 184.452 198.272 178.884 199.064L177.756 196.592C182.556 195.968 184.812 193.544 184.812 191.264V190.928ZM185.268 190.928H187.98V191.264C187.98 193.544 190.26 195.968 195.036 196.592L193.908 199.064C188.34 198.272 185.268 195.128 185.268 191.264V190.928ZM206.757 178.256H209.253V180.824C209.253 184.592 207.741 188.36 204.117 189.896L202.437 187.424C205.533 186.056 206.757 183.32 206.757 180.824V178.256ZM207.333 178.256H209.829V180.824C209.829 183.2 211.029 185.6 213.957 186.752L212.253 189.176C208.797 187.808 207.333 184.448 207.333 180.824V178.256ZM218.661 176.936H221.685V190.496H218.661V176.936ZM215.997 182.312H219.525V184.88H215.997V182.312ZM213.957 177.344H216.933V189.8H213.957V177.344ZM214.149 190.808C218.805 190.808 221.805 192.368 221.805 194.984C221.805 197.576 218.805 199.136 214.149 199.136C209.469 199.136 206.517 197.576 206.517 194.984C206.517 192.368 209.469 190.808 214.149 190.808ZM214.149 193.208C211.293 193.208 209.685 193.808 209.685 194.984C209.685 196.16 211.293 196.736 214.149 196.736C217.005 196.736 218.589 196.16 218.589 194.984C218.589 193.808 217.005 193.208 214.149 193.208ZM229.987 178.064H232.651V180.056C232.651 184.52 230.659 188.432 226.291 189.896L224.635 187.328C228.427 186.104 229.987 183.104 229.987 180.056V178.064ZM230.659 178.064H233.227V179.912C233.227 182.864 234.667 185.6 238.195 186.728L236.539 189.224C232.435 187.808 230.659 184.232 230.659 179.912V178.064ZM240.235 176.912H243.427V189.92H240.235V176.912ZM235.891 190.496C240.595 190.496 243.499 192.104 243.499 194.816C243.499 197.552 240.595 199.136 235.891 199.136C231.187 199.136 228.283 197.552 228.283 194.816C228.283 192.104 231.187 190.496 235.891 190.496ZM235.891 192.968C233.011 192.968 231.475 193.568 231.475 194.816C231.475 196.064 233.011 196.688 235.891 196.688C238.795 196.688 240.331 196.064 240.331 194.816C240.331 193.568 238.795 192.968 235.891 192.968ZM236.179 180.944H240.691V183.536H236.179V180.944Z" fill="white"/>
<rect x="0.5" y="257.5" width="376" height="88" rx="44" stroke="white"/>
<rect x="0.5" y="372.5" width="376" height="88" rx="44" stroke="white"/>
<rect x="0.5" y="487.5" width="376" height="88" rx="44" stroke="white"/>
<path d="M59.64 276.48H61.22V290H59.64V276.48ZM53.3 281.58H56.72V282.94H53.3V281.58ZM56.2 276.84H57.78V289.48H56.2V276.84ZM49.44 292.8H61.78V294.16H49.44V292.8ZM49.44 288.34H51.1V293.5H49.44V288.34ZM46.8 278.22H53.78V286.5H46.8V278.22ZM52.22 279.52H48.34V285.18H52.22V279.52ZM66.4984 285.86H78.9184V287.2H66.4984V285.86ZM64.3984 290.94H80.7784V292.32H64.3984V290.94ZM71.7384 286.56H73.3784V291.58H71.7384V286.56ZM66.4984 277.94H78.7184V279.3H68.1784V286.36H66.4984V277.94ZM67.6384 281.82H78.3384V283.16H67.6384V281.82ZM95.9369 276.48H97.5969V286.72H95.9369V276.48ZM83.9169 277.52H85.5569V284.88H83.9169V277.52ZM83.9169 283.96H85.3769C88.3969 283.96 91.0969 283.76 93.9769 283.16L94.2169 284.52C91.2169 285.16 88.4969 285.36 85.3769 285.36H83.9169V283.96ZM85.9169 287.6H97.5969V294.32H85.9169V287.6ZM95.9769 288.92H87.5369V292.96H95.9769V288.92ZM101.195 284.02H117.535V285.38H101.195V284.02ZM103.355 281.22H115.595V282.56H103.355V281.22ZM103.355 277.06H115.395V278.42H104.995V282.3H103.355V277.06ZM103.155 286.94H115.435V291.2H104.835V293.48H103.195V289.96H113.795V288.24H103.155V286.94ZM103.195 293.04H115.975V294.36H103.195V293.04ZM119.574 285.98H135.914V287.34H119.574V285.98ZM121.694 292.8H134.114V294.16H121.694V292.8ZM121.694 288.92H123.354V293.22H121.694V288.92ZM127.754 277.08C131.614 277.08 134.114 278.44 134.114 280.7C134.114 282.94 131.614 284.3 127.754 284.3C123.874 284.3 121.394 282.94 121.394 280.7C121.394 278.44 123.874 277.08 127.754 277.08ZM127.754 278.44C124.914 278.44 123.094 279.28 123.094 280.7C123.094 282.12 124.914 282.96 127.754 282.96C130.594 282.96 132.414 282.12 132.414 280.7C132.414 279.28 130.594 278.44 127.754 278.44ZM156.677 276.48H158.337V294.56H156.677V276.48ZM143.937 291.02L143.717 289.62C147.137 289.6 151.637 289.6 155.537 289.08L155.657 290.32C151.617 290.98 147.277 291.04 143.937 291.02ZM144.097 278.9H155.077V280.26H144.097V278.9ZM149.577 281.24C152.137 281.24 153.917 282.6 153.917 284.64C153.917 286.68 152.137 288.04 149.577 288.04C147.037 288.04 145.277 286.68 145.277 284.64C145.277 282.6 147.037 281.24 149.577 281.24ZM149.577 282.56C147.957 282.56 146.837 283.38 146.837 284.64C146.837 285.9 147.957 286.76 149.577 286.76C151.217 286.76 152.337 285.9 152.337 284.64C152.337 283.38 151.217 282.56 149.577 282.56ZM148.757 276.66H150.417V279.76H148.757V276.66ZM162.756 277.84H171.056V285.62H162.756V277.84ZM169.436 279.18H164.376V284.3H169.436V279.18ZM174.376 276.48H176.036V287.16H174.376V276.48ZM175.576 280.96H178.716V282.36H175.576V280.96ZM170.276 287.78C173.956 287.78 176.216 289.04 176.216 291.16C176.216 293.3 173.956 294.54 170.276 294.54C166.596 294.54 164.336 293.3 164.336 291.16C164.336 289.04 166.596 287.78 170.276 287.78ZM170.276 289.12C167.596 289.12 165.956 289.86 165.956 291.16C165.956 292.46 167.596 293.22 170.276 293.22C172.956 293.22 174.596 292.46 174.596 291.16C174.596 289.86 172.956 289.12 170.276 289.12ZM192.654 276.48H194.314V294.56H192.654V276.48ZM193.914 283.9H197.274V285.3H193.914V283.9ZM180.314 279.36H190.974V280.72H180.314V279.36ZM185.714 282.22C188.274 282.22 190.114 283.94 190.114 286.38C190.114 288.82 188.274 290.54 185.714 290.54C183.174 290.54 181.314 288.82 181.314 286.38C181.314 283.94 183.174 282.22 185.714 282.22ZM185.714 283.6C184.074 283.6 182.894 284.74 182.894 286.38C182.894 288 184.074 289.16 185.714 289.16C187.354 289.16 188.534 288 188.534 286.38C188.534 284.74 187.354 283.6 185.714 283.6ZM184.854 276.7H186.514V279.98H184.854V276.7ZM201.013 281.9H213.293V283.26H201.013V281.9ZM198.793 285.68H215.193V287.04H198.793V285.68ZM201.013 277.14H202.653V282.58H201.013V277.14ZM200.893 292.76H213.393V294.12H200.893V292.76ZM200.893 288.84H202.533V293.12H200.893V288.84ZM230.076 278.26H231.516V279.02C231.516 282.26 228.076 284.64 224.436 285.26L223.796 283.94C226.976 283.48 230.076 281.4 230.076 279.02V278.26ZM230.496 278.26H231.916V279.02C231.916 281.4 235.036 283.48 238.196 283.94L237.576 285.26C233.916 284.64 230.496 282.26 230.496 279.02V278.26ZM230.136 287.66H231.776V294.56H230.136V287.66ZM222.836 286.78H239.176V288.14H222.836V286.78ZM224.356 277.6H237.596V278.94H224.356V277.6ZM254.974 276.48H256.574V294.56H254.974V276.48ZM248.394 282.96H251.854V284.34H248.394V282.96ZM251.354 276.9H252.914V293.64H251.354V276.9ZM244.914 279.28H246.194V281.58C246.194 285.54 244.674 289.28 242.014 290.96L240.994 289.72C243.514 288.2 244.914 284.9 244.914 281.58V279.28ZM245.254 279.28H246.534V281.58C246.534 284.72 247.894 287.86 250.374 289.3L249.354 290.52C246.714 288.92 245.254 285.36 245.254 281.58V279.28ZM241.494 278.58H249.754V279.96H241.494V278.58ZM259.633 290.96H276.013V292.34H259.633V290.96ZM266.953 287.08H268.613V291.54H266.953V287.08ZM261.613 277.82H273.993V283.3H263.313V286.92H261.673V281.96H272.353V279.16H261.613V277.82ZM261.673 286.22H274.413V287.58H261.673V286.22ZM59.64 306.48H61.22V320H59.64V306.48ZM53.3 311.58H56.72V312.94H53.3V311.58ZM56.2 306.84H57.78V319.48H56.2V306.84ZM49.44 322.8H61.78V324.16H49.44V322.8ZM49.44 318.34H51.1V323.5H49.44V318.34ZM46.8 308.22H53.78V316.5H46.8V308.22ZM52.22 309.52H48.34V315.18H52.22V309.52ZM66.4984 315.86H78.9184V317.2H66.4984V315.86ZM64.3984 320.94H80.7784V322.32H64.3984V320.94ZM71.7384 316.56H73.3784V321.58H71.7384V316.56ZM66.4984 307.94H78.7184V309.3H68.1784V316.36H66.4984V307.94ZM67.6384 311.82H78.3384V313.16H67.6384V311.82ZM95.9369 306.5H97.6169V317.6H95.9369V306.5ZM83.7169 315.14H85.1769C88.4569 315.14 90.8769 315.04 93.7769 314.56L93.9569 315.92C90.9769 316.42 88.5369 316.5 85.1769 316.5H83.7169V315.14ZM83.6769 307.62H91.8769V312.62H85.3369V315.9H83.7169V311.32H90.2569V308.98H83.6769V307.62ZM91.6569 318C95.4169 318 97.7369 319.18 97.7369 321.26C97.7369 323.34 95.4169 324.54 91.6569 324.54C87.8769 324.54 85.5969 323.34 85.5969 321.26C85.5969 319.18 87.8769 318 91.6569 318ZM91.6569 319.32C88.8969 319.32 87.2369 320.02 87.2369 321.26C87.2369 322.5 88.8969 323.22 91.6569 323.22C94.4169 323.22 96.0769 322.5 96.0769 321.26C96.0769 320.02 94.4169 319.32 91.6569 319.32ZM109.355 306.78C113.335 306.78 115.715 307.9 115.715 309.92C115.715 311.94 113.335 313.06 109.355 313.06C105.355 313.06 102.995 311.94 102.995 309.92C102.995 307.9 105.355 306.78 109.355 306.78ZM109.355 308.04C106.395 308.04 104.695 308.72 104.695 309.92C104.695 311.12 106.395 311.8 109.355 311.8C112.295 311.8 113.995 311.12 113.995 309.92C113.995 308.72 112.295 308.04 109.355 308.04ZM101.175 314.26H117.515V315.6H101.175V314.26ZM103.155 317.14H115.435V321.22H104.835V323.42H103.195V320.02H113.795V318.42H103.155V317.14ZM103.195 323.06H115.975V324.36H103.195V323.06ZM138.939 306.48H140.539V324.56H138.939V306.48ZM136.019 313.74H139.479V315.1H136.019V313.74ZM131.339 308.8H132.939C132.939 313.46 131.339 317.78 126.179 320.68L125.199 319.5C129.739 316.96 131.339 313.3 131.339 309.12V308.8ZM125.899 308.8H131.899V310.18H125.899V308.8ZM134.919 306.96H136.499V323.68H134.919V306.96ZM152.897 309.74H157.517V311.12H152.897V309.74ZM156.817 306.48H158.477V315.8H156.817V306.48ZM146.837 316.74H158.477V321.06H148.517V323.8H146.897V319.82H156.837V318.06H146.837V316.74ZM146.897 323H159.157V324.32H146.897V323ZM148.117 307.04H149.477V308.74C149.477 312.08 147.477 314.78 144.457 315.86L143.597 314.54C146.317 313.62 148.117 311.36 148.117 308.74V307.04ZM148.397 307.04H149.737V308.74C149.737 311.1 151.557 313.28 154.177 314.14L153.317 315.44C150.397 314.4 148.397 311.8 148.397 308.74V307.04ZM174.376 306.42H176.036V316.4H174.376V306.42ZM175.336 310.76H178.716V312.16H175.336V310.76ZM164.556 317.32H176.036V321.36H166.236V323.56H164.596V320.16H174.416V318.58H164.556V317.32ZM164.596 323.08H176.696V324.36H164.596V323.08ZM162.056 308.1H172.736V309.4H162.056V308.1ZM167.396 310.2C169.996 310.2 171.716 311.34 171.716 313.18C171.716 315 169.996 316.12 167.396 316.12C164.756 316.12 163.056 315 163.056 313.18C163.056 311.34 164.756 310.2 167.396 310.2ZM167.396 311.42C165.716 311.42 164.636 312.1 164.636 313.18C164.636 314.24 165.716 314.92 167.396 314.92C169.056 314.92 170.136 314.24 170.136 313.18C170.136 312.1 169.056 311.42 167.396 311.42ZM166.556 306.28H168.216V309H166.556V306.28ZM193.339 307.12H194.799V308.12C194.799 311.58 191.279 314.06 187.519 314.7L186.859 313.36C190.159 312.86 193.339 310.7 193.339 308.12V307.12ZM193.639 307.12H195.079V308.12C195.079 310.64 198.299 312.86 201.559 313.36L200.899 314.7C197.179 314.06 193.639 311.54 193.639 308.12V307.12ZM193.339 317.68H194.979V324.56H193.339V317.68ZM186.039 316.66H202.379V318.04H186.039V316.66ZM214.563 317.6H215.843V318.58C215.843 320.94 214.363 323.32 211.763 324.32L210.923 323.08C213.203 322.26 214.563 320.32 214.563 318.58V317.6ZM214.923 317.6H216.163V318.58C216.163 320.4 217.243 322.34 219.403 323.22L218.703 324.48C216.103 323.46 214.923 320.98 214.923 318.58V317.6ZM221.243 317.6H222.483V318.58C222.483 320.7 221.283 323.38 218.703 324.48L218.003 323.22C220.143 322.24 221.243 320.14 221.243 318.58V317.6ZM221.583 317.6H222.863V318.58C222.863 320.44 224.203 322.3 226.503 323.08L225.663 324.32C223.023 323.36 221.583 321.08 221.583 318.58V317.6ZM223.203 306.5H224.883V316.82H223.203V306.5ZM215.183 307.54C217.923 307.54 219.883 309.26 219.883 311.76C219.883 314.26 217.923 315.96 215.183 315.96C212.443 315.96 210.463 314.26 210.463 311.76C210.463 309.26 212.443 307.54 215.183 307.54ZM215.183 308.92C213.383 308.92 212.083 310.08 212.083 311.76C212.083 313.44 213.383 314.58 215.183 314.58C216.983 314.58 218.283 313.44 218.283 311.76C218.283 310.08 216.983 308.92 215.183 308.92ZM230.521 317.32H232.161V319.42H241.001V317.32H242.661V324.32H230.521V317.32ZM232.161 320.7V322.98H241.001V320.7H232.161ZM228.441 314.72H244.781V316.06H228.441V314.72ZM235.781 306.68H237.201V307.48C237.201 310.62 233.701 312.88 229.981 313.44L229.381 312.14C232.641 311.7 235.781 309.76 235.781 307.48V306.68ZM236.041 306.68H237.461V307.48C237.461 309.72 240.641 311.7 243.861 312.14L243.241 313.44C239.561 312.88 236.041 310.58 236.041 307.48V306.68ZM259.999 306.48H261.659V324.56H259.999V306.48ZM247.999 308.24H249.639V319.44H247.999V308.24ZM247.999 318.46H249.479C252.219 318.46 255.079 318.26 258.139 317.62L258.339 319.04C255.199 319.68 252.339 319.9 249.479 319.9H247.999V318.46ZM277.478 306.46H279.158V324.58H277.478V306.46ZM278.758 313.6H282.118V315H278.758V313.6ZM266.018 318.68H267.438C270.778 318.68 273.118 318.56 275.818 318.06L275.998 319.46C273.218 319.98 270.838 320.08 267.438 320.08H266.018V318.68ZM266.018 308.22H274.418V309.58H267.658V319.3H266.018V308.22ZM285.412 323.114C285.062 323.114 284.761 322.988 284.51 322.737C284.259 322.486 284.134 322.186 284.134 321.835C284.134 321.485 284.259 321.184 284.51 320.933C284.761 320.682 285.062 320.557 285.412 320.557C285.762 320.557 286.063 320.682 286.314 320.933C286.565 321.184 286.69 321.485 286.69 321.835C286.69 322.067 286.631 322.28 286.513 322.474C286.399 322.669 286.245 322.825 286.051 322.943C285.862 323.057 285.649 323.114 285.412 323.114Z" fill="white"/>
<path d="M50.06 393.98C52.4 393.98 53.92 396.4 53.92 400.28C53.92 404.16 52.4 406.58 50.06 406.58C47.72 406.58 46.22 404.16 46.22 400.28C46.22 396.4 47.72 393.98 50.06 393.98ZM50.06 395.52C48.64 395.52 47.74 397.36 47.74 400.28C47.74 403.2 48.64 405.04 50.06 405.04C51.48 405.04 52.38 403.2 52.38 400.28C52.38 397.36 51.48 395.52 50.06 395.52ZM59.76 392.48H61.36V410.56H59.76V392.48ZM56.9 399.64H60.36V401H56.9V399.64ZM55.76 392.86H57.34V409.66H55.76V392.86ZM68.8584 395.06H70.1784V398C70.1784 401.76 67.8784 405.64 65.0584 407.08L64.0984 405.76C66.6784 404.5 68.8584 401.06 68.8584 398V395.06ZM69.1584 395.06H70.4784V398C70.4784 400.86 72.5184 404.08 75.1384 405.32L74.1984 406.64C71.3384 405.22 69.1584 401.58 69.1584 398V395.06ZM64.7384 394.32H74.4784V395.72H64.7384V394.32ZM76.6184 392.48H78.2984V410.56H76.6184V392.48ZM77.8984 399.78H81.2584V401.18H77.8984V399.78ZM87.8569 393.14C90.5569 393.14 92.5369 394.78 92.5369 397.16C92.5369 399.52 90.5569 401.16 87.8569 401.16C85.1769 401.16 83.1969 399.52 83.1969 397.16C83.1969 394.78 85.1769 393.14 87.8569 393.14ZM87.8569 394.5C86.1169 394.5 84.7969 395.6 84.7969 397.16C84.7969 398.72 86.1169 399.8 87.8569 399.8C89.6169 399.8 90.9169 398.72 90.9169 397.16C90.9169 395.6 89.6169 394.5 87.8569 394.5ZM95.9369 392.48H97.6169V401.74H95.9369V392.48ZM85.9169 402.62H97.6169V407.02H87.5769V409.74H85.9569V405.78H95.9769V403.96H85.9169V402.62ZM85.9569 409H98.2169V410.32H85.9569V409ZM113.555 392.5H115.215V406.06H113.555V392.5ZM114.695 398.42H117.895V399.82H114.695V398.42ZM101.235 394.68H111.915V396.02H101.235V394.68ZM106.575 397.02C109.135 397.02 110.895 398.36 110.895 400.4C110.895 402.42 109.135 403.76 106.575 403.76C103.995 403.76 102.235 402.42 102.235 400.4C102.235 398.36 103.995 397.02 106.575 397.02ZM106.575 398.32C104.935 398.32 103.815 399.14 103.815 400.4C103.815 401.64 104.935 402.46 106.575 402.46C108.195 402.46 109.315 401.64 109.315 400.4C109.315 399.14 108.195 398.32 106.575 398.32ZM105.735 392.48H107.395V395.38H105.735V392.48ZM103.955 408.8H116.035V410.16H103.955V408.8ZM103.955 404.98H105.615V409.38H103.955V404.98ZM132.719 394.36H134.319C134.319 399.58 132.519 404.38 126.159 407.58L125.219 406.3C130.799 403.5 132.719 399.48 132.719 394.54V394.36ZM126.199 394.36H133.719V395.7H126.199V394.36ZM132.619 398.84V400.1L125.559 400.76L125.279 399.32L132.619 398.84ZM138.419 392.48H140.079V410.56H138.419V392.48ZM134.279 399.72H139.219V401.1H134.279V399.72ZM156.777 392.48H158.437V410.56H156.777V392.48ZM144.057 394.42H154.297V395.78H144.057V394.42ZM143.777 406.1L143.577 404.68C146.937 404.68 151.377 404.64 155.217 404.18L155.317 405.4C151.417 406.02 147.077 406.08 143.777 406.1ZM146.057 395.44H147.657V405.06H146.057V395.44ZM150.677 395.44H152.297V405.06H150.677V395.44ZM165.776 395.74H167.036V396.24C167.036 399.1 165.576 401.84 162.956 402.98L162.156 401.72C164.436 400.74 165.776 398.48 165.776 396.24V395.74ZM166.096 395.74H167.336V396.24C167.336 398.32 168.736 400.42 170.996 401.32L170.216 402.56C167.576 401.52 166.096 398.96 166.096 396.24V395.74ZM162.496 394.88H170.556V396.2H162.496V394.88ZM165.776 392.76H167.336V395.48H165.776V392.76ZM175.656 392.5H177.236V404.72H175.656V392.5ZM172.816 397.08H176.236V398.46H172.816V397.08ZM171.816 392.8H173.376V403.16H171.816V392.8ZM170.416 403.98H171.816V404.4C171.816 407.58 168.556 409.86 164.916 410.5L164.296 409.2C167.476 408.7 170.416 406.74 170.416 404.4V403.98ZM170.636 403.98H172.056V404.4C172.056 406.74 174.996 408.7 178.176 409.2L177.556 410.5C173.916 409.86 170.636 407.58 170.636 404.4V403.98ZM193.534 392.46H195.194V410.58H193.534V392.46ZM185.654 393.86C188.334 393.86 190.254 396.32 190.254 400.16C190.254 404.02 188.334 406.48 185.654 406.48C182.994 406.48 181.074 404.02 181.074 400.16C181.074 396.32 182.994 393.86 185.654 393.86ZM185.654 395.36C183.894 395.36 182.654 397.24 182.654 400.16C182.654 403.1 183.894 405.02 185.654 405.02C187.434 405.02 188.654 403.1 188.654 400.16C188.654 397.24 187.434 395.36 185.654 395.36ZM206.158 397.22H214.838V398.5H206.158V397.22ZM206.158 393.24H214.638V394.54H207.858V397.8H206.158V393.24ZM209.618 397.94H211.278V400.96H209.618V397.94ZM217.598 392.48H219.258V402.2H217.598V392.48ZM204.757 401.78L204.538 400.46C208.038 400.44 212.458 400.36 216.198 399.94L216.298 401.1C212.458 401.66 208.158 401.78 204.757 401.78ZM207.338 403.02H219.258V407.24H208.998V409.56H207.358V405.98H217.638V404.34H207.338V403.02ZM207.358 409.04H219.878V410.36H207.358V409.04ZM235.761 393.12H237.221V394.12C237.221 397.58 233.701 400.06 229.941 400.7L229.281 399.36C232.581 398.86 235.761 396.7 235.761 394.12V393.12ZM236.061 393.12H237.501V394.12C237.501 396.64 240.721 398.86 243.981 399.36L243.321 400.7C239.601 400.06 236.061 397.54 236.061 394.12V393.12ZM235.761 403.68H237.401V410.56H235.761V403.68ZM228.461 402.66H244.801V404.04H228.461V402.66ZM256.984 403.6H258.264V404.58C258.264 406.94 256.784 409.32 254.184 410.32L253.344 409.08C255.624 408.26 256.984 406.32 256.984 404.58V403.6ZM257.344 403.6H258.584V404.58C258.584 406.4 259.664 408.34 261.824 409.22L261.124 410.48C258.524 409.46 257.344 406.98 257.344 404.58V403.6ZM263.664 403.6H264.904V404.58C264.904 406.7 263.704 409.38 261.124 410.48L260.424 409.22C262.564 408.24 263.664 406.14 263.664 404.58V403.6ZM264.004 403.6H265.284V404.58C265.284 406.44 266.624 408.3 268.924 409.08L268.084 410.32C265.444 409.36 264.004 407.08 264.004 404.58V403.6ZM265.624 392.5H267.304V402.82H265.624V392.5ZM257.604 393.54C260.344 393.54 262.304 395.26 262.304 397.76C262.304 400.26 260.344 401.96 257.604 401.96C254.864 401.96 252.884 400.26 252.884 397.76C252.884 395.26 254.864 393.54 257.604 393.54ZM257.604 394.92C255.804 394.92 254.504 396.08 254.504 397.76C254.504 399.44 255.804 400.58 257.604 400.58C259.404 400.58 260.704 399.44 260.704 397.76C260.704 396.08 259.404 394.92 257.604 394.92ZM272.943 400.92H285.363V402.28H272.943V400.92ZM270.883 406.9H287.263V408.3H270.883V406.9ZM278.203 401.5H279.863V407.46H278.203V401.5ZM272.943 393.92H285.183V395.28H274.603V401.52H272.943V393.92ZM289.261 402.42H305.661V403.78H289.261V402.42ZM291.341 392.94H303.541V397.32H293.021V399.76H291.381V396.1H301.921V394.24H291.341V392.94ZM291.381 399.22H303.941V400.52H291.381V399.22ZM296.621 399.9H298.281V403.1H296.621V399.9ZM291.081 405.16H303.661V410.4H302.001V406.52H291.081V405.16ZM310.43 394.455L310.288 404.909H308.64L308.498 394.455H310.43ZM309.464 409.114C309.113 409.114 308.813 408.988 308.562 408.737C308.311 408.486 308.185 408.186 308.185 407.835C308.185 407.485 308.311 407.184 308.562 406.933C308.813 406.682 309.113 406.557 309.464 406.557C309.814 406.557 310.115 406.682 310.366 406.933C310.617 407.184 310.742 407.485 310.742 407.835C310.742 408.067 310.683 408.28 310.565 408.474C310.451 408.669 310.297 408.825 310.103 408.943C309.914 409.057 309.701 409.114 309.464 409.114ZM53.5 424.36H55.1C55.1 429.58 53.3 434.38 46.94 437.58L46 436.3C51.58 433.5 53.5 429.48 53.5 424.54V424.36ZM46.98 424.36H54.5V425.7H46.98V424.36ZM53.4 428.84V430.1L46.34 430.76L46.06 429.32L53.4 428.84ZM59.2 422.48H60.86V440.56H59.2V422.48ZM55.06 429.72H60V431.1H55.06V429.72ZM77.5584 422.48H79.2184V440.56H77.5584V422.48ZM64.8384 424.42H75.0784V425.78H64.8384V424.42ZM64.5584 436.1L64.3584 434.68C67.7184 434.68 72.1584 434.64 75.9984 434.18L76.0984 435.4C72.1984 436.02 67.8584 436.08 64.5584 436.1ZM66.8384 425.44H68.4384V435.06H66.8384V425.44ZM71.4584 425.44H73.0784V435.06H71.4584V425.44ZM86.5569 425.74H87.8169V426.24C87.8169 429.1 86.3569 431.84 83.7369 432.98L82.9369 431.72C85.2169 430.74 86.5569 428.48 86.5569 426.24V425.74ZM86.8769 425.74H88.1169V426.24C88.1169 428.32 89.5169 430.42 91.7769 431.32L90.9969 432.56C88.3569 431.52 86.8769 428.96 86.8769 426.24V425.74ZM83.2769 424.88H91.3369V426.2H83.2769V424.88ZM86.5569 422.76H88.1169V425.48H86.5569V422.76ZM96.4369 422.5H98.0169V434.72H96.4369V422.5ZM93.5969 427.08H97.0169V428.46H93.5969V427.08ZM92.5969 422.8H94.1569V433.16H92.5969V422.8ZM91.1969 433.98H92.5969V434.4C92.5969 437.58 89.3369 439.86 85.6969 440.5L85.0769 439.2C88.2569 438.7 91.1969 436.74 91.1969 434.4V433.98ZM91.4169 433.98H92.8369V434.4C92.8369 436.74 95.7769 438.7 98.9569 439.2L98.3369 440.5C94.6969 439.86 91.4169 437.58 91.4169 434.4V433.98ZM101.175 431.98H117.515V433.34H101.175V431.98ZM103.295 438.8H115.715V440.16H103.295V438.8ZM103.295 434.92H104.955V439.22H103.295V434.92ZM109.355 423.08C113.215 423.08 115.715 424.44 115.715 426.7C115.715 428.94 113.215 430.3 109.355 430.3C105.475 430.3 102.995 428.94 102.995 426.7C102.995 424.44 105.475 423.08 109.355 423.08ZM109.355 424.44C106.515 424.44 104.695 425.28 104.695 426.7C104.695 428.12 106.515 428.96 109.355 428.96C112.195 428.96 114.015 428.12 114.015 426.7C114.015 425.28 112.195 424.44 109.355 424.44ZM130.639 439.199C129.702 439.199 128.866 439.038 128.132 438.716C127.403 438.394 126.823 437.946 126.392 437.374C125.966 436.796 125.734 436.126 125.696 435.364H127.486C127.524 435.832 127.685 436.237 127.969 436.578C128.253 436.914 128.625 437.175 129.084 437.359C129.543 437.544 130.052 437.636 130.611 437.636C131.236 437.636 131.79 437.527 132.273 437.31C132.756 437.092 133.134 436.789 133.409 436.401C133.684 436.012 133.821 435.562 133.821 435.051C133.821 434.516 133.688 434.045 133.423 433.638C133.158 433.226 132.77 432.904 132.259 432.672C131.747 432.44 131.122 432.324 130.384 432.324H129.219V430.761H130.384C130.961 430.761 131.468 430.657 131.903 430.449C132.344 430.241 132.687 429.947 132.933 429.568C133.184 429.189 133.31 428.744 133.31 428.233C133.31 427.741 133.201 427.312 132.983 426.947C132.765 426.583 132.457 426.299 132.06 426.095C131.667 425.892 131.203 425.79 130.668 425.79C130.166 425.79 129.692 425.882 129.247 426.067C128.807 426.247 128.447 426.509 128.168 426.855C127.888 427.196 127.737 427.608 127.713 428.091H126.009C126.037 427.329 126.267 426.661 126.697 426.088C127.128 425.51 127.692 425.061 128.388 424.739C129.089 424.417 129.858 424.256 130.696 424.256C131.596 424.256 132.367 424.438 133.011 424.803C133.655 425.162 134.15 425.638 134.496 426.23C134.841 426.822 135.014 427.461 135.014 428.148C135.014 428.967 134.799 429.665 134.368 430.243C133.942 430.821 133.362 431.221 132.628 431.443V431.557C133.546 431.708 134.264 432.099 134.78 432.729C135.296 433.354 135.554 434.128 135.554 435.051C135.554 435.842 135.339 436.552 134.908 437.182C134.482 437.807 133.899 438.299 133.161 438.659C132.422 439.019 131.581 439.199 130.639 439.199ZM143.203 439.199C142.133 439.199 141.222 438.908 140.469 438.325C139.716 437.738 139.141 436.888 138.743 435.776C138.345 434.658 138.146 433.309 138.146 431.727C138.146 430.155 138.345 428.813 138.743 427.7C139.145 426.583 139.723 425.731 140.476 425.143C141.233 424.552 142.143 424.256 143.203 424.256C144.264 424.256 145.17 424.552 145.923 425.143C146.681 425.731 147.259 426.583 147.656 427.7C148.059 428.813 148.26 430.155 148.26 431.727C148.26 433.309 148.061 434.658 147.663 435.776C147.266 436.888 146.69 437.738 145.938 438.325C145.185 438.908 144.273 439.199 143.203 439.199ZM143.203 437.636C144.264 437.636 145.088 437.125 145.675 436.102C146.262 435.08 146.555 433.621 146.555 431.727C146.555 430.468 146.42 429.395 146.151 428.51C145.885 427.625 145.502 426.95 145 426.486C144.503 426.022 143.904 425.79 143.203 425.79C142.152 425.79 141.33 426.308 140.739 427.345C140.147 428.377 139.851 429.838 139.851 431.727C139.851 432.987 139.983 434.057 140.249 434.938C140.514 435.818 140.895 436.488 141.392 436.947C141.894 437.407 142.498 437.636 143.203 437.636ZM150.433 432.02H166.813V433.38H150.433V432.02ZM157.913 432.7H159.573V436.86H157.913V432.7ZM152.513 438.8H164.993V440.16H152.513V438.8ZM152.513 435.26H154.153V439.32H152.513V435.26ZM152.613 423.04H154.253V425.34H162.993V423.04H164.653V430.28H152.613V423.04ZM154.253 426.64V428.94H162.993V426.64H154.253ZM186.837 422.48H188.497V435.7H186.837V422.48ZM187.977 427.96H191.177V429.34H187.977V427.96ZM181.897 423.88H183.657C183.657 428.56 180.377 431.98 175.197 433.64L174.477 432.28C179.037 430.88 181.897 428.08 181.897 424.6V423.88ZM175.217 423.88H182.737V425.24H175.217V423.88ZM177.217 438.8H189.297V440.16H177.217V438.8ZM177.217 434.36H178.877V439.34H177.217V434.36ZM203.3 424.46H204.68V426.3C204.68 429.62 202.64 432.4 199.6 433.5L198.74 432.18C201.46 431.22 203.3 428.88 203.3 426.3V424.46ZM203.62 424.46H205V426.3C205 428.74 206.88 430.94 209.56 431.84L208.7 433.14C205.7 432.12 203.62 429.48 203.62 426.3V424.46ZM199.18 423.98H209.08V425.32H199.18V423.98ZM211.64 422.5H213.32V435.72H211.64V422.5ZM201.7 438.8H213.86V440.16H201.7V438.8ZM201.7 434.48H203.34V439.4H201.7V434.48ZM230.538 422.48H232.118V433.92H230.538V422.48ZM227.598 427.38H231.018V428.76H227.598V427.38ZM226.678 422.84H228.238V433.28H226.678V422.84ZM216.798 424.64H225.958V425.96H216.798V424.64ZM221.398 426.88C223.658 426.88 225.238 428.12 225.238 429.98C225.238 431.86 223.658 433.08 221.398 433.08C219.118 433.08 217.538 431.86 217.538 429.98C217.538 428.12 219.118 426.88 221.398 426.88ZM221.398 428.12C219.978 428.12 219.018 428.86 219.018 429.98C219.018 431.12 219.978 431.84 221.398 431.84C222.798 431.84 223.758 431.12 223.758 429.98C223.758 428.86 222.798 428.12 221.398 428.12ZM220.578 422.62H222.198V425.38H220.578V422.62ZM226.198 434.24C229.958 434.24 232.218 435.36 232.218 437.38C232.218 439.38 229.958 440.52 226.198 440.52C222.398 440.52 220.158 439.38 220.158 437.38C220.158 435.36 222.398 434.24 226.198 434.24ZM226.198 435.52C223.418 435.52 221.798 436.18 221.798 437.38C221.798 438.58 223.418 439.26 226.198 439.26C228.938 439.26 230.578 438.58 230.578 437.38C230.578 436.18 228.938 435.52 226.198 435.52ZM240.437 428.6H242.117V431.6H240.437V428.6ZM248.457 422.48H250.117V432.9H248.457V422.48ZM235.597 432.46L235.357 431.12C238.657 431.12 243.157 431.08 246.977 430.52L247.097 431.7C243.157 432.4 238.817 432.46 235.597 432.46ZM236.977 427.76H245.657V429.1H236.977V427.76ZM236.977 423.38H245.497V424.74H238.637V428.28H236.977V423.38ZM238.257 433.7H239.917V435.6H248.477V433.7H250.117V440.32H238.257V433.7ZM239.917 436.9V438.98H248.477V436.9H239.917ZM266.835 422.48H268.495V440.56H266.835V422.48ZM254.835 424.24H256.475V435.44H254.835V424.24ZM254.835 434.46H256.315C259.055 434.46 261.915 434.26 264.975 433.62L265.175 435.04C262.035 435.68 259.175 435.9 256.315 435.9H254.835V434.46ZM284.314 422.46H285.994V440.58H284.314V422.46ZM285.594 429.6H288.954V431H285.594V429.6ZM272.854 434.68H274.274C277.614 434.68 279.954 434.56 282.654 434.06L282.834 435.46C280.054 435.98 277.674 436.08 274.274 436.08H272.854V434.68ZM272.854 424.22H281.254V425.58H274.494V435.3H272.854V424.22ZM292.248 439.114C291.897 439.114 291.597 438.988 291.346 438.737C291.095 438.486 290.969 438.186 290.969 437.835C290.969 437.485 291.095 437.184 291.346 436.933C291.597 436.682 291.897 436.557 292.248 436.557C292.598 436.557 292.899 436.682 293.15 436.933C293.401 437.184 293.526 437.485 293.526 437.835C293.526 438.067 293.467 438.28 293.349 438.474C293.235 438.669 293.081 438.825 292.887 438.943C292.698 439.057 292.485 439.114 292.248 439.114Z" fill="white"/>
<path d="M46.5057 522V520.722L51.3068 515.466C51.8703 514.85 52.3343 514.315 52.6989 513.861C53.0634 513.402 53.3333 512.971 53.5085 512.568C53.6884 512.161 53.7784 511.735 53.7784 511.29C53.7784 510.778 53.6553 510.336 53.4091 509.962C53.1676 509.588 52.8362 509.299 52.4148 509.095C51.9934 508.892 51.5199 508.79 50.9943 508.79C50.4356 508.79 49.9479 508.906 49.5312 509.138C49.1193 509.365 48.7997 509.685 48.5724 510.097C48.3499 510.509 48.2386 510.991 48.2386 511.545H46.5625C46.5625 510.693 46.759 509.945 47.152 509.301C47.545 508.657 48.08 508.155 48.7571 507.795C49.4389 507.436 50.2036 507.256 51.0511 507.256C51.9034 507.256 52.6586 507.436 53.3168 507.795C53.9749 508.155 54.491 508.641 54.8651 509.251C55.2391 509.862 55.4261 510.542 55.4261 511.29C55.4261 511.825 55.3291 512.348 55.1349 512.859C54.9455 513.366 54.6141 513.932 54.1406 514.557C53.6719 515.177 53.0208 515.935 52.1875 516.83L48.9205 520.324V520.438H55.6818V522H46.5057ZM57.9616 519.017V517.568L64.3537 507.455H65.4048V509.699H64.6946L59.8651 517.341V517.455H68.473V519.017H57.9616ZM64.8082 522V518.577V517.902V507.455H66.4844V522H64.8082ZM75.3889 507.04H76.7489V510.28C76.7489 514.44 74.5089 518.3 71.5489 519.8L70.5289 518.44C73.2089 517.16 75.3889 513.7 75.3889 510.28V507.04ZM75.6689 507.04H77.0289V510.28C77.0289 513.58 79.1889 516.9 81.8689 518.14L80.8689 519.46C77.9289 518.02 75.6689 514.3 75.6689 510.28V507.04ZM83.7489 505.46H85.4089V523.58H83.7489V505.46ZM101.387 505.48H103.047V518.7H101.387V505.48ZM102.527 510.96H105.727V512.34H102.527V510.96ZM96.4473 506.88H98.2073C98.2073 511.56 94.9273 514.98 89.7473 516.64L89.0273 515.28C93.5873 513.88 96.4473 511.08 96.4473 507.6V506.88ZM89.7673 506.88H97.2873V508.24H89.7673V506.88ZM91.7673 521.8H103.847V523.16H91.7673V521.8ZM91.7673 517.36H93.4273V522.34H91.7673V517.36ZM120.371 514.52H122.031V517.68H120.371V514.52ZM113.031 513.94H129.371V515.28H113.031V513.94ZM121.191 517.18C125.071 517.18 127.391 518.32 127.391 520.36C127.391 522.38 125.071 523.52 121.191 523.52C117.311 523.52 114.991 522.38 114.991 520.36C114.991 518.32 117.311 517.18 121.191 517.18ZM121.191 518.46C118.371 518.46 116.671 519.14 116.671 520.36C116.671 521.56 118.371 522.24 121.191 522.24C124.031 522.24 125.711 521.56 125.711 520.36C125.711 519.14 124.031 518.46 121.191 518.46ZM120.131 506.96H121.611V507.5C121.611 510.42 118.291 512.38 114.551 512.84L113.951 511.52C117.191 511.18 120.131 509.56 120.131 507.5V506.96ZM120.831 506.96H122.291V507.5C122.291 509.56 125.231 511.18 128.471 511.52L127.871 512.84C124.131 512.38 120.831 510.42 120.831 507.5V506.96ZM114.531 506.3H127.911V507.64H114.531V506.3ZM149.294 505.46H150.974V523.56H149.294V505.46ZM150.514 512.8H153.854V514.18H150.514V512.8ZM144.674 507.42H146.294C146.294 512.56 143.934 517.2 138.094 520.14L137.174 518.86C142.174 516.32 144.674 512.46 144.674 507.68V507.42ZM138.014 507.42H145.534V508.78H138.014V507.42ZM157.693 510.5H169.953V511.86H157.693V510.5ZM157.693 505.84H159.333V511.1H157.693V505.84ZM155.473 513.96H171.813V515.3H155.473V513.96ZM163.613 516.92C167.473 516.92 169.813 518.1 169.813 520.22C169.813 522.3 167.473 523.5 163.613 523.5C159.753 523.5 157.413 522.3 157.413 520.22C157.413 518.1 159.753 516.92 163.613 516.92ZM163.613 518.22C160.793 518.22 159.093 518.94 159.093 520.22C159.093 521.46 160.793 522.18 163.613 522.18C166.453 522.18 168.133 521.46 168.133 520.22C168.133 518.94 166.453 518.22 163.613 518.22ZM186.231 505.5H187.891V519.06H186.231V505.5ZM187.371 511.42H190.571V512.82H187.371V511.42ZM173.911 507.68H184.591V509.02H173.911V507.68ZM179.251 510.02C181.811 510.02 183.571 511.36 183.571 513.4C183.571 515.42 181.811 516.76 179.251 516.76C176.671 516.76 174.911 515.42 174.911 513.4C174.911 511.36 176.671 510.02 179.251 510.02ZM179.251 511.32C177.611 511.32 176.491 512.14 176.491 513.4C176.491 514.64 177.611 515.46 179.251 515.46C180.871 515.46 181.991 514.64 181.991 513.4C181.991 512.14 180.871 511.32 179.251 511.32ZM178.411 505.48H180.071V508.38H178.411V505.48ZM176.631 521.8H188.711V523.16H176.631V521.8ZM176.631 517.98H178.291V522.38H176.631V517.98ZM202.655 507.04H204.015V510.28C204.015 514.44 201.775 518.3 198.815 519.8L197.795 518.44C200.475 517.16 202.655 513.7 202.655 510.28V507.04ZM202.935 507.04H204.295V510.28C204.295 513.58 206.455 516.9 209.135 518.14L208.135 519.46C205.195 518.02 202.935 514.3 202.935 510.28V507.04ZM211.015 505.46H212.675V523.58H211.015V505.46ZM228.653 505.48H230.313V518.7H228.653V505.48ZM229.793 510.96H232.993V512.34H229.793V510.96ZM223.713 506.88H225.473C225.473 511.56 222.193 514.98 217.013 516.64L216.293 515.28C220.853 513.88 223.713 511.08 223.713 507.6V506.88ZM217.033 506.88H224.553V508.24H217.033V506.88ZM219.033 521.8H231.113V523.16H219.033V521.8ZM219.033 517.36H220.693V522.34H219.033V517.36ZM248.431 505.48H250.031V523.56H248.431V505.48ZM245.371 512.72H248.851V514.1H245.371V512.72ZM244.331 505.88H245.891V522.64H244.331V505.88ZM235.331 517.72H236.511C239.151 517.72 240.951 517.62 243.051 517.18L243.211 518.56C241.051 519.02 239.231 519.1 236.511 519.1H235.331V517.72ZM235.331 507.68H242.051V509.04H236.971V518.34H235.331V507.68ZM253.07 513.88H269.47V515.14H253.07V513.88ZM255.01 516.6H267.41V520.46H256.71V522.58H255.07V519.32H265.79V517.78H255.01V516.6ZM255.07 522.14H267.99V523.34H255.07V522.14ZM255.15 506H267.35V509.76H256.83V511.72H255.19V508.64H265.73V507.18H255.15V506ZM255.19 511.32H267.69V512.52H255.19V511.32ZM281.913 507.34H283.293V508.78C283.293 512.1 281.253 514.88 278.213 515.96L277.353 514.66C280.073 513.7 281.913 511.34 281.913 508.78V507.34ZM282.233 507.34H283.613V508.78C283.613 511.22 285.493 513.42 288.173 514.32L287.313 515.62C284.313 514.6 282.233 511.94 282.233 508.78V507.34ZM290.253 505.48H291.933V516.42H290.253V505.48ZM279.853 517.38H291.933V523.56H290.253V518.74H279.853V517.38ZM277.793 506.74H287.693V508.08H277.793V506.74ZM305.152 509.86H309.172V511.22H305.152V509.86ZM308.712 505.48H310.372V515.3H308.712V505.48ZM298.792 516.18H300.432V518.38H308.732V516.18H310.372V523.32H298.792V516.18ZM300.432 519.72V521.96H308.732V519.72H300.432ZM300.112 506.9H301.472V508.38C301.472 511.66 299.432 514.5 296.412 515.62L295.552 514.28C298.252 513.34 300.112 510.94 300.112 508.38V506.9ZM300.432 506.9H301.772V508.36C301.772 510.7 303.532 512.96 306.152 513.88L305.312 515.18C302.372 514.12 300.432 511.4 300.432 508.36V506.9ZM296.072 506.56H305.732V507.9H296.072V506.56ZM55.26 539.74H59.82V541.12H55.26V539.74ZM50.52 536.58H51.86V538.8C51.86 542.3 49.9 545.22 46.88 546.44L46.02 545.12C48.7 544.12 50.52 541.56 50.52 538.8V536.58ZM50.84 536.58H52.18V538.86C52.18 541.38 53.94 543.76 56.56 544.72L55.66 546C52.78 544.88 50.84 542.08 50.84 538.86V536.58ZM59.2 535.5H60.86V549.02H59.2V535.5ZM49.24 551.8H61.3V553.16H49.24V551.8ZM49.24 547.52H50.9V552.44H49.24V547.52ZM74.0384 540.16H78.1184V541.54H74.0384V540.16ZM77.5984 535.48H79.2584V546.26H77.5984V535.48ZM73.3184 546.8C77.0384 546.8 79.3384 548.06 79.3384 550.18C79.3384 552.32 77.0384 553.54 73.3184 553.54C69.5784 553.54 67.2784 552.32 67.2784 550.18C67.2784 548.06 69.5784 546.8 73.3184 546.8ZM73.3184 548.1C70.5984 548.1 68.9384 548.86 68.9384 550.18C68.9384 551.48 70.5984 552.24 73.3184 552.24C76.0384 552.24 77.6984 551.48 77.6984 550.18C77.6984 548.86 76.0384 548.1 73.3184 548.1ZM68.9984 537.3H70.3584V538.76C70.3584 542.1 68.3184 544.96 65.3184 546.08L64.4584 544.76C67.1384 543.78 68.9984 541.36 68.9984 538.76V537.3ZM69.3184 537.3H70.6584V538.76C70.6584 541.1 72.4184 543.34 75.0384 544.26L74.1984 545.58C71.2584 544.52 69.3184 541.8 69.3184 538.76V537.3ZM64.9584 536.8H74.6184V538.16H64.9584V536.8ZM95.0369 535.48H96.6969V553.56H95.0369V535.48ZM96.2969 542.9H99.6569V544.3H96.2969V542.9ZM82.6969 538.36H93.3569V539.72H82.6969V538.36ZM88.0969 541.22C90.6569 541.22 92.4969 542.94 92.4969 545.38C92.4969 547.82 90.6569 549.54 88.0969 549.54C85.5569 549.54 83.6969 547.82 83.6969 545.38C83.6969 542.94 85.5569 541.22 88.0969 541.22ZM88.0969 542.6C86.4569 542.6 85.2769 543.74 85.2769 545.38C85.2769 547 86.4569 548.16 88.0969 548.16C89.7369 548.16 90.9169 547 90.9169 545.38C90.9169 543.74 89.7369 542.6 88.0969 542.6ZM87.2369 535.7H88.8969V538.98H87.2369V535.7ZM109.335 539.5H114.795V540.88H109.335V539.5ZM109.335 545.22H114.795V546.6H109.335V545.22ZM106.015 536.86C108.635 536.86 110.515 539.32 110.515 543.16C110.515 547.02 108.635 549.48 106.015 549.48C103.375 549.48 101.515 547.02 101.515 543.16C101.515 539.32 103.375 536.86 106.015 536.86ZM106.015 538.36C104.275 538.36 103.075 540.24 103.075 543.16C103.075 546.1 104.275 548.02 106.015 548.02C107.755 548.02 108.955 546.1 108.955 543.16C108.955 540.24 107.755 538.36 106.015 538.36ZM114.435 535.46H116.075V553.58H114.435V535.46ZM138.359 535.5H140.039V548.74H138.359V535.5ZM128.419 551.8H140.579V553.16H128.419V551.8ZM128.419 547.52H130.059V552.44H128.419V547.52ZM129.919 536.48H131.299V538.32C131.299 541.84 129.299 544.92 126.259 546.16L125.399 544.82C128.119 543.76 129.919 541.12 129.919 538.32V536.48ZM130.219 536.48H131.579V538.32C131.579 541.04 133.399 543.5 136.099 544.48L135.219 545.82C132.219 544.66 130.219 541.76 130.219 538.32V536.48ZM148.117 538.56H149.477V539.34C149.477 542.48 147.477 545.12 144.457 546.14L143.657 544.84C146.317 543.98 148.117 541.78 148.117 539.34V538.56ZM148.417 538.56H149.777V539.34C149.777 541.58 151.637 543.6 154.297 544.38L153.537 545.68C150.497 544.74 148.417 542.3 148.417 539.34V538.56ZM144.117 537.66H153.757V539H144.117V537.66ZM148.117 535.4H149.777V538.14H148.117V535.4ZM153.217 540.62H157.297V542H153.217V540.62ZM156.817 535.48H158.477V546.42H156.817V535.48ZM152.537 546.9C156.277 546.9 158.557 548.12 158.557 550.22C158.557 552.3 156.277 553.52 152.537 553.52C148.777 553.52 146.497 552.3 146.497 550.22C146.497 548.12 148.777 546.9 152.537 546.9ZM152.537 548.2C149.797 548.2 148.157 548.94 148.157 550.22C148.157 551.48 149.797 552.22 152.537 552.22C155.257 552.22 156.917 551.48 156.917 550.22C156.917 548.94 155.257 548.2 152.537 548.2ZM170.176 535.78C174.156 535.78 176.536 536.9 176.536 538.92C176.536 540.94 174.156 542.06 170.176 542.06C166.176 542.06 163.816 540.94 163.816 538.92C163.816 536.9 166.176 535.78 170.176 535.78ZM170.176 537.04C167.216 537.04 165.516 537.72 165.516 538.92C165.516 540.12 167.216 540.8 170.176 540.8C173.116 540.8 174.816 540.12 174.816 538.92C174.816 537.72 173.116 537.04 170.176 537.04ZM161.996 543.26H178.336V544.6H161.996V543.26ZM163.976 546.14H176.256V550.22H165.656V552.42H164.016V549.02H174.616V547.42H163.976V546.14ZM164.016 552.06H176.796V553.36H164.016V552.06ZM198.399 535.48H200.059V546.06H198.399V535.48ZM199.599 539.82H202.739V541.22H199.599V539.82ZM186.779 536.48H188.419V539.24H193.519V536.48H195.139V544.92H186.779V536.48ZM188.419 540.56V543.58H193.519V540.56H188.419ZM188.759 547.04H200.199V548.38H190.419V552.92H188.759V547.04ZM188.759 551.96H200.559V553.32H188.759V551.96ZM212.598 535.78C216.578 535.78 218.958 536.9 218.958 538.92C218.958 540.94 216.578 542.06 212.598 542.06C208.598 542.06 206.238 540.94 206.238 538.92C206.238 536.9 208.598 535.78 212.598 535.78ZM212.598 537.04C209.638 537.04 207.938 537.72 207.938 538.92C207.938 540.12 209.638 540.8 212.598 540.8C215.538 540.8 217.238 540.12 217.238 538.92C217.238 537.72 215.538 537.04 212.598 537.04ZM204.418 543.26H220.758V544.6H204.418V543.26ZM206.398 546.14H218.678V550.22H208.078V552.42H206.438V549.02H217.038V547.42H206.398V546.14ZM206.438 552.06H219.218V553.36H206.438V552.06ZM235.761 536.12H237.221V537.12C237.221 540.58 233.701 543.06 229.941 543.7L229.281 542.36C232.581 541.86 235.761 539.7 235.761 537.12V536.12ZM236.061 536.12H237.501V537.12C237.501 539.64 240.721 541.86 243.981 542.36L243.321 543.7C239.601 543.06 236.061 540.54 236.061 537.12V536.12ZM235.761 546.68H237.401V553.56H235.761V546.68ZM228.461 545.66H244.801V547.04H228.461V545.66ZM256.984 546.6H258.264V547.58C258.264 549.94 256.784 552.32 254.184 553.32L253.344 552.08C255.624 551.26 256.984 549.32 256.984 547.58V546.6ZM257.344 546.6H258.584V547.58C258.584 549.4 259.664 551.34 261.824 552.22L261.124 553.48C258.524 552.46 257.344 549.98 257.344 547.58V546.6ZM263.664 546.6H264.904V547.58C264.904 549.7 263.704 552.38 261.124 553.48L260.424 552.22C262.564 551.24 263.664 549.14 263.664 547.58V546.6ZM264.004 546.6H265.284V547.58C265.284 549.44 266.624 551.3 268.924 552.08L268.084 553.32C265.444 552.36 264.004 550.08 264.004 547.58V546.6ZM265.624 535.5H267.304V545.82H265.624V535.5ZM257.604 536.54C260.344 536.54 262.304 538.26 262.304 540.76C262.304 543.26 260.344 544.96 257.604 544.96C254.864 544.96 252.884 543.26 252.884 540.76C252.884 538.26 254.864 536.54 257.604 536.54ZM257.604 537.92C255.804 537.92 254.504 539.08 254.504 540.76C254.504 542.44 255.804 543.58 257.604 543.58C259.404 543.58 260.704 542.44 260.704 540.76C260.704 539.08 259.404 537.92 257.604 537.92ZM272.943 546.32H274.583V548.42H283.423V546.32H285.083V553.32H272.943V546.32ZM274.583 549.7V551.98H283.423V549.7H274.583ZM270.863 543.72H287.203V545.06H270.863V543.72ZM278.203 535.68H279.623V536.48C279.623 539.62 276.123 541.88 272.403 542.44L271.803 541.14C275.063 540.7 278.203 538.76 278.203 536.48V535.68ZM278.463 535.68H279.883V536.48C279.883 538.72 283.063 540.7 286.283 541.14L285.663 542.44C281.983 541.88 278.463 539.58 278.463 536.48V535.68ZM302.421 535.48H304.081V553.56H302.421V535.48ZM290.421 537.24H292.061V548.44H290.421V537.24ZM290.421 547.46H291.901C294.641 547.46 297.501 547.26 300.561 546.62L300.761 548.04C297.621 548.68 294.761 548.9 291.901 548.9H290.421V547.46ZM319.9 535.46H321.58V553.58H319.9V535.46ZM321.18 542.6H324.54V544H321.18V542.6ZM308.44 547.68H309.86C313.2 547.68 315.54 547.56 318.24 547.06L318.42 548.46C315.64 548.98 313.26 549.08 309.86 549.08H308.44V547.68ZM308.44 537.22H316.84V538.58H310.08V548.3H308.44V537.22ZM327.834 552.114C327.483 552.114 327.183 551.988 326.932 551.737C326.681 551.486 326.555 551.186 326.555 550.835C326.555 550.485 326.681 550.184 326.932 549.933C327.183 549.682 327.483 549.557 327.834 549.557C328.184 549.557 328.485 549.682 328.736 549.933C328.987 550.184 329.112 550.485 329.112 550.835C329.112 551.067 329.053 551.28 328.935 551.474C328.821 551.669 328.667 551.825 328.473 551.943C328.284 552.057 328.071 552.114 327.834 552.114Z" fill="white"/>
<path d="M151.533 41.1621C154.448 41.1621 156.807 38.8037 156.807 35.8887V5.27344C156.807 2.3584 154.448 0 151.533 0C148.618 0 146.26 2.3584 146.26 5.27344V35.8887C146.26 38.8037 148.618 41.1621 151.533 41.1621ZM241.328 62.2559H223.75C223.75 56.4258 219.033 51.709 213.203 51.709H140.547C134.717 51.709 130 56.4258 130 62.2559V98.584C130 99.082 130.029 99.5654 130.103 100.034C130.029 101.06 130 102.085 130 103.125C130 129.009 150.991 150 176.875 150C200.327 150 219.751 132.788 223.208 110.303H241.328C247.158 110.303 251.875 105.586 251.875 99.7559V72.8027C251.875 66.9727 247.158 62.2559 241.328 62.2559ZM213.203 99.7559H213.042C213.145 100.869 213.203 101.982 213.203 103.125C213.203 123.193 196.943 139.453 176.875 139.453C156.807 139.453 140.547 123.193 140.547 103.125C140.547 101.982 140.605 100.869 140.708 99.7559H140.547V62.2559H213.203V99.7559ZM241.328 98.584H224.922V72.8027H241.328V98.584ZM201.045 41.1621C203.96 41.1621 206.318 38.8037 206.318 35.8887V5.27344C206.318 2.3584 203.96 0 201.045 0C198.13 0 195.771 2.3584 195.771 5.27344V35.8887C195.771 38.8037 198.13 41.1621 201.045 41.1621ZM176.143 41.1621C179.058 41.1621 181.416 38.8037 181.416 35.8887V5.27344C181.416 2.3584 179.058 0 176.143 0C173.228 0 170.869 2.3584 170.869 5.27344V35.8887C170.869 38.8037 173.228 41.1621 176.143 41.1621Z" fill="white"/>
</svg>
