<svg width="377" height="576" viewBox="0 0 377 576" fill="none" xmlns="http://www.w3.org/2000/svg">
<path d="M139.168 179.048H142.264C142.264 185.888 140.488 191.624 132.52 195.8L130.768 193.376C137.32 189.92 139.168 185.72 139.168 179.432V179.048ZM132.088 179.048H141.112V181.568H132.088V179.048ZM139.48 184.496V186.92L131.32 187.664L130.912 184.976L139.48 184.496ZM146.368 176.912H149.56V199.136H146.368V176.912ZM142.24 185.432H148.048V188.024H142.24V185.432ZM168.35 176.912H171.566V199.136H168.35V176.912ZM153.59 178.952H166.07V181.496H153.59V178.952ZM153.302 194.072L152.99 191.456C156.998 191.456 162.35 191.384 166.934 190.832L167.102 193.16C162.422 193.952 157.31 194.048 153.302 194.072ZM155.51 180.944H158.606V192.152H155.51V180.944ZM161.054 180.944H164.15V192.152H161.054V180.944ZM179.1 181.16H181.476V181.808C181.476 185.336 180.036 188.6 176.556 189.896L175.092 187.544C177.9 186.464 179.1 184.16 179.1 181.808V181.16ZM179.748 181.16H182.1V181.808C182.1 184.016 183.324 186.152 186.108 187.136L184.692 189.488C181.188 188.288 179.748 185.192 179.748 181.808V181.16ZM175.716 179.336H185.46V181.832H175.716V179.336ZM179.1 177.176H182.1V180.608H179.1V177.176ZM191.028 176.936H194.052V191.96H191.028V176.936ZM188.46 182.192H191.988V184.784H188.46V182.192ZM186.396 177.272H189.372V190.016H186.396V177.272ZM184.812 190.928H187.524V191.264C187.524 195.128 184.452 198.272 178.884 199.064L177.756 196.592C182.556 195.968 184.812 193.544 184.812 191.264V190.928ZM185.268 190.928H187.98V191.264C187.98 193.544 190.26 195.968 195.036 196.592L193.908 199.064C188.34 198.272 185.268 195.128 185.268 191.264V190.928ZM206.757 178.256H209.253V180.824C209.253 184.592 207.741 188.36 204.117 189.896L202.437 187.424C205.533 186.056 206.757 183.32 206.757 180.824V178.256ZM207.333 178.256H209.829V180.824C209.829 183.2 211.029 185.6 213.957 186.752L212.253 189.176C208.797 187.808 207.333 184.448 207.333 180.824V178.256ZM218.661 176.936H221.685V190.496H218.661V176.936ZM215.997 182.312H219.525V184.88H215.997V182.312ZM213.957 177.344H216.933V189.8H213.957V177.344ZM214.149 190.808C218.805 190.808 221.805 192.368 221.805 194.984C221.805 197.576 218.805 199.136 214.149 199.136C209.469 199.136 206.517 197.576 206.517 194.984C206.517 192.368 209.469 190.808 214.149 190.808ZM214.149 193.208C211.293 193.208 209.685 193.808 209.685 194.984C209.685 196.16 211.293 196.736 214.149 196.736C217.005 196.736 218.589 196.16 218.589 194.984C218.589 193.808 217.005 193.208 214.149 193.208ZM229.987 178.064H232.651V180.056C232.651 184.52 230.659 188.432 226.291 189.896L224.635 187.328C228.427 186.104 229.987 183.104 229.987 180.056V178.064ZM230.659 178.064H233.227V179.912C233.227 182.864 234.667 185.6 238.195 186.728L236.539 189.224C232.435 187.808 230.659 184.232 230.659 179.912V178.064ZM240.235 176.912H243.427V189.92H240.235V176.912ZM235.891 190.496C240.595 190.496 243.499 192.104 243.499 194.816C243.499 197.552 240.595 199.136 235.891 199.136C231.187 199.136 228.283 197.552 228.283 194.816C228.283 192.104 231.187 190.496 235.891 190.496ZM235.891 192.968C233.011 192.968 231.475 193.568 231.475 194.816C231.475 196.064 233.011 196.688 235.891 196.688C238.795 196.688 240.331 196.064 240.331 194.816C240.331 193.568 238.795 192.968 235.891 192.968ZM236.179 180.944H240.691V183.536H236.179V180.944Z" fill="white"/>
<rect x="0.5" y="257.5" width="376" height="88" rx="44" stroke="white"/>
<rect x="0.5" y="372.5" width="376" height="88" rx="44" stroke="white"/>
<rect x="0.5" y="487.5" width="376" height="88" rx="44" stroke="white"/>
<path d="M84.3119 276.48H85.8919V290H84.3119V276.48ZM77.9719 281.58H81.3919V282.94H77.9719V281.58ZM80.8719 276.84H82.4519V289.48H80.8719V276.84ZM74.1119 292.8H86.4519V294.16H74.1119V292.8ZM74.1119 288.34H75.7719V293.5H74.1119V288.34ZM71.4719 278.22H78.4519V286.5H71.4719V278.22ZM76.8919 279.52H73.0119V285.18H76.8919V279.52ZM91.1703 285.86H103.59V287.2H91.1703V285.86ZM89.0703 290.94H105.45V292.32H89.0703V290.94ZM96.4103 286.56H98.0503V291.58H96.4103V286.56ZM91.1703 277.94H103.39V279.3H92.8503V286.36H91.1703V277.94ZM92.3103 281.82H103.01V283.16H92.3103V281.82ZM120.609 276.48H122.269V286.72H120.609V276.48ZM108.589 277.52H110.229V284.88H108.589V277.52ZM108.589 283.96H110.049C113.069 283.96 115.769 283.76 118.649 283.16L118.889 284.52C115.889 285.16 113.169 285.36 110.049 285.36H108.589V283.96ZM110.589 287.6H122.269V294.32H110.589V287.6ZM120.649 288.92H112.209V292.96H120.649V288.92ZM125.867 284.02H142.207V285.38H125.867V284.02ZM128.027 281.22H140.267V282.56H128.027V281.22ZM128.027 277.06H140.067V278.42H129.667V282.3H128.027V277.06ZM127.827 286.94H140.107V291.2H129.507V293.48H127.867V289.96H138.467V288.24H127.827V286.94ZM127.867 293.04H140.647V294.36H127.867V293.04ZM144.246 285.98H160.586V287.34H144.246V285.98ZM146.366 292.8H158.786V294.16H146.366V292.8ZM146.366 288.92H148.026V293.22H146.366V288.92ZM152.426 277.08C156.286 277.08 158.786 278.44 158.786 280.7C158.786 282.94 156.286 284.3 152.426 284.3C148.546 284.3 146.066 282.94 146.066 280.7C146.066 278.44 148.546 277.08 152.426 277.08ZM152.426 278.44C149.586 278.44 147.766 279.28 147.766 280.7C147.766 282.12 149.586 282.96 152.426 282.96C155.266 282.96 157.086 282.12 157.086 280.7C157.086 279.28 155.266 278.44 152.426 278.44ZM181.349 276.48H183.009V294.56H181.349V276.48ZM168.609 291.02L168.389 289.62C171.809 289.6 176.309 289.6 180.209 289.08L180.329 290.32C176.289 290.98 171.949 291.04 168.609 291.02ZM168.769 278.9H179.749V280.26H168.769V278.9ZM174.249 281.24C176.809 281.24 178.589 282.6 178.589 284.64C178.589 286.68 176.809 288.04 174.249 288.04C171.709 288.04 169.949 286.68 169.949 284.64C169.949 282.6 171.709 281.24 174.249 281.24ZM174.249 282.56C172.629 282.56 171.509 283.38 171.509 284.64C171.509 285.9 172.629 286.76 174.249 286.76C175.889 286.76 177.009 285.9 177.009 284.64C177.009 283.38 175.889 282.56 174.249 282.56ZM173.429 276.66H175.089V279.76H173.429V276.66ZM187.428 277.84H195.728V285.62H187.428V277.84ZM194.108 279.18H189.048V284.3H194.108V279.18ZM199.048 276.48H200.708V287.16H199.048V276.48ZM200.248 280.96H203.388V282.36H200.248V280.96ZM194.948 287.78C198.628 287.78 200.888 289.04 200.888 291.16C200.888 293.3 198.628 294.54 194.948 294.54C191.268 294.54 189.008 293.3 189.008 291.16C189.008 289.04 191.268 287.78 194.948 287.78ZM194.948 289.12C192.268 289.12 190.628 289.86 190.628 291.16C190.628 292.46 192.268 293.22 194.948 293.22C197.628 293.22 199.268 292.46 199.268 291.16C199.268 289.86 197.628 289.12 194.948 289.12ZM217.326 276.48H218.986V294.56H217.326V276.48ZM218.586 283.9H221.946V285.3H218.586V283.9ZM204.986 279.36H215.646V280.72H204.986V279.36ZM210.386 282.22C212.946 282.22 214.786 283.94 214.786 286.38C214.786 288.82 212.946 290.54 210.386 290.54C207.846 290.54 205.986 288.82 205.986 286.38C205.986 283.94 207.846 282.22 210.386 282.22ZM210.386 283.6C208.746 283.6 207.566 284.74 207.566 286.38C207.566 288 208.746 289.16 210.386 289.16C212.026 289.16 213.206 288 213.206 286.38C213.206 284.74 212.026 283.6 210.386 283.6ZM209.526 276.7H211.186V279.98H209.526V276.7ZM225.684 281.9H237.964V283.26H225.684V281.9ZM223.464 285.68H239.864V287.04H223.464V285.68ZM225.684 277.14H227.324V282.58H225.684V277.14ZM225.564 292.76H238.064V294.12H225.564V292.76ZM225.564 288.84H227.204V293.12H225.564V288.84ZM254.748 278.26H256.188V279.02C256.188 282.26 252.748 284.64 249.108 285.26L248.468 283.94C251.648 283.48 254.748 281.4 254.748 279.02V278.26ZM255.168 278.26H256.588V279.02C256.588 281.4 259.708 283.48 262.868 283.94L262.248 285.26C258.588 284.64 255.168 282.26 255.168 279.02V278.26ZM254.808 287.66H256.448V294.56H254.808V287.66ZM247.508 286.78H263.848V288.14H247.508V286.78ZM249.028 277.6H262.268V278.94H249.028V277.6ZM279.646 276.48H281.246V294.56H279.646V276.48ZM273.066 282.96H276.526V284.34H273.066V282.96ZM276.026 276.9H277.586V293.64H276.026V276.9ZM269.586 279.28H270.866V281.58C270.866 285.54 269.346 289.28 266.686 290.96L265.666 289.72C268.186 288.2 269.586 284.9 269.586 281.58V279.28ZM269.926 279.28H271.206V281.58C271.206 284.72 272.566 287.86 275.046 289.3L274.026 290.52C271.386 288.92 269.926 285.36 269.926 281.58V279.28ZM266.166 278.58H274.426V279.96H266.166V278.58ZM284.305 290.96H300.685V292.34H284.305V290.96ZM291.625 287.08H293.285V291.54H291.625V287.08ZM286.285 277.82H298.665V283.3H287.985V286.92H286.345V281.96H297.025V279.16H286.285V277.82ZM286.345 286.22H299.085V287.58H286.345V286.22ZM81.558 306.48H83.138V320H81.558V306.48ZM75.218 311.58H78.638V312.94H75.218V311.58ZM78.118 306.84H79.698V319.48H78.118V306.84ZM71.358 322.8H83.698V324.16H71.358V322.8ZM71.358 318.34H73.018V323.5H71.358V318.34ZM68.718 308.22H75.698V316.5H68.718V308.22ZM74.138 309.52H70.258V315.18H74.138V309.52ZM88.4164 315.86H100.836V317.2H88.4164V315.86ZM86.3164 320.94H102.696V322.32H86.3164V320.94ZM93.6564 316.56H95.2964V321.58H93.6564V316.56ZM88.4164 307.94H100.636V309.3H90.0964V316.36H88.4164V307.94ZM89.5564 311.82H100.256V313.16H89.5564V311.82ZM117.855 306.5H119.535V317.6H117.855V306.5ZM105.635 315.14H107.095C110.375 315.14 112.795 315.04 115.695 314.56L115.875 315.92C112.895 316.42 110.455 316.5 107.095 316.5H105.635V315.14ZM105.595 307.62H113.795V312.62H107.255V315.9H105.635V311.32H112.175V308.98H105.595V307.62ZM113.575 318C117.335 318 119.655 319.18 119.655 321.26C119.655 323.34 117.335 324.54 113.575 324.54C109.795 324.54 107.515 323.34 107.515 321.26C107.515 319.18 109.795 318 113.575 318ZM113.575 319.32C110.815 319.32 109.155 320.02 109.155 321.26C109.155 322.5 110.815 323.22 113.575 323.22C116.335 323.22 117.995 322.5 117.995 321.26C117.995 320.02 116.335 319.32 113.575 319.32ZM131.273 306.78C135.253 306.78 137.633 307.9 137.633 309.92C137.633 311.94 135.253 313.06 131.273 313.06C127.273 313.06 124.913 311.94 124.913 309.92C124.913 307.9 127.273 306.78 131.273 306.78ZM131.273 308.04C128.313 308.04 126.613 308.72 126.613 309.92C126.613 311.12 128.313 311.8 131.273 311.8C134.213 311.8 135.913 311.12 135.913 309.92C135.913 308.72 134.213 308.04 131.273 308.04ZM123.093 314.26H139.433V315.6H123.093V314.26ZM125.073 317.14H137.353V321.22H126.753V323.42H125.113V320.02H135.713V318.42H125.073V317.14ZM125.113 323.06H137.893V324.36H125.113V323.06ZM160.857 306.48H162.457V324.56H160.857V306.48ZM157.937 313.74H161.397V315.1H157.937V313.74ZM153.257 308.8H154.857C154.857 313.46 153.257 317.78 148.097 320.68L147.117 319.5C151.657 316.96 153.257 313.3 153.257 309.12V308.8ZM147.817 308.8H153.817V310.18H147.817V308.8ZM156.837 306.96H158.417V323.68H156.837V306.96ZM174.815 309.74H179.435V311.12H174.815V309.74ZM178.735 306.48H180.395V315.8H178.735V306.48ZM168.755 316.74H180.395V321.06H170.435V323.8H168.815V319.82H178.755V318.06H168.755V316.74ZM168.815 323H181.075V324.32H168.815V323ZM170.035 307.04H171.395V308.74C171.395 312.08 169.395 314.78 166.375 315.86L165.515 314.54C168.235 313.62 170.035 311.36 170.035 308.74V307.04ZM170.315 307.04H171.655V308.74C171.655 311.1 173.475 313.28 176.095 314.14L175.235 315.44C172.315 314.4 170.315 311.8 170.315 308.74V307.04ZM196.294 306.42H197.954V316.4H196.294V306.42ZM197.254 310.76H200.634V312.16H197.254V310.76ZM186.474 317.32H197.954V321.36H188.154V323.56H186.514V320.16H196.334V318.58H186.474V317.32ZM186.514 323.08H198.614V324.36H186.514V323.08ZM183.974 308.1H194.654V309.4H183.974V308.1ZM189.314 310.2C191.914 310.2 193.634 311.34 193.634 313.18C193.634 315 191.914 316.12 189.314 316.12C186.674 316.12 184.974 315 184.974 313.18C184.974 311.34 186.674 310.2 189.314 310.2ZM189.314 311.42C187.634 311.42 186.554 312.1 186.554 313.18C186.554 314.24 187.634 314.92 189.314 314.92C190.974 314.92 192.054 314.24 192.054 313.18C192.054 312.1 190.974 311.42 189.314 311.42ZM188.474 306.28H190.134V309H188.474V306.28ZM215.257 307.12H216.717V308.12C216.717 311.58 213.197 314.06 209.437 314.7L208.777 313.36C212.077 312.86 215.257 310.7 215.257 308.12V307.12ZM215.557 307.12H216.997V308.12C216.997 310.64 220.217 312.86 223.477 313.36L222.817 314.7C219.097 314.06 215.557 311.54 215.557 308.12V307.12ZM215.257 317.68H216.897V324.56H215.257V317.68ZM207.957 316.66H224.297V318.04H207.957V316.66ZM236.48 317.6H237.76V318.58C237.76 320.94 236.28 323.32 233.68 324.32L232.84 323.08C235.12 322.26 236.48 320.32 236.48 318.58V317.6ZM236.84 317.6H238.08V318.58C238.08 320.4 239.16 322.34 241.32 323.22L240.62 324.48C238.02 323.46 236.84 320.98 236.84 318.58V317.6ZM243.16 317.6H244.4V318.58C244.4 320.7 243.2 323.38 240.62 324.48L239.92 323.22C242.06 322.24 243.16 320.14 243.16 318.58V317.6ZM243.5 317.6H244.78V318.58C244.78 320.44 246.12 322.3 248.42 323.08L247.58 324.32C244.94 323.36 243.5 321.08 243.5 318.58V317.6ZM245.12 306.5H246.8V316.82H245.12V306.5ZM237.1 307.54C239.84 307.54 241.8 309.26 241.8 311.76C241.8 314.26 239.84 315.96 237.1 315.96C234.36 315.96 232.38 314.26 232.38 311.76C232.38 309.26 234.36 307.54 237.1 307.54ZM237.1 308.92C235.3 308.92 234 310.08 234 311.76C234 313.44 235.3 314.58 237.1 314.58C238.9 314.58 240.2 313.44 240.2 311.76C240.2 310.08 238.9 308.92 237.1 308.92ZM252.439 317.32H254.079V319.42H262.919V317.32H264.579V324.32H252.439V317.32ZM254.079 320.7V322.98H262.919V320.7H254.079ZM250.359 314.72H266.699V316.06H250.359V314.72ZM257.699 306.68H259.119V307.48C259.119 310.62 255.619 312.88 251.899 313.44L251.299 312.14C254.559 311.7 257.699 309.76 257.699 307.48V306.68ZM257.959 306.68H259.379V307.48C259.379 309.72 262.559 311.7 265.779 312.14L265.159 313.44C261.479 312.88 257.959 310.58 257.959 307.48V306.68ZM281.917 306.48H283.577V324.56H281.917V306.48ZM269.917 308.24H271.557V319.44H269.917V308.24ZM269.917 318.46H271.397C274.137 318.46 276.997 318.26 280.057 317.62L280.257 319.04C277.117 319.68 274.257 319.9 271.397 319.9H269.917V318.46ZM299.396 306.46H301.076V324.58H299.396V306.46ZM300.676 313.6H304.036V315H300.676V313.6ZM287.936 318.68H289.356C292.696 318.68 295.036 318.56 297.736 318.06L297.916 319.46C295.136 319.98 292.756 320.08 289.356 320.08H287.936V318.68ZM287.936 308.22H296.336V309.58H289.576V319.3H287.936V308.22ZM307.33 323.114C306.98 323.114 306.679 322.988 306.428 322.737C306.177 322.486 306.051 322.186 306.051 321.835C306.051 321.485 306.177 321.184 306.428 320.933C306.679 320.682 306.98 320.557 307.33 320.557C307.68 320.557 307.981 320.682 308.232 320.933C308.483 321.184 308.608 321.485 308.608 321.835C308.608 322.067 308.549 322.28 308.431 322.474C308.317 322.669 308.163 322.825 307.969 322.943C307.78 323.057 307.567 323.114 307.33 323.114Z" fill="white"/>
<path d="M57.1245 393.98C59.4645 393.98 60.9845 396.4 60.9845 400.28C60.9845 404.16 59.4645 406.58 57.1245 406.58C54.7845 406.58 53.2845 404.16 53.2845 400.28C53.2845 396.4 54.7845 393.98 57.1245 393.98ZM57.1245 395.52C55.7045 395.52 54.8045 397.36 54.8045 400.28C54.8045 403.2 55.7045 405.04 57.1245 405.04C58.5445 405.04 59.4445 403.2 59.4445 400.28C59.4445 397.36 58.5445 395.52 57.1245 395.52ZM66.8245 392.48H68.4245V410.56H66.8245V392.48ZM63.9645 399.64H67.4245V401H63.9645V399.64ZM62.8245 392.86H64.4045V409.66H62.8245V392.86ZM75.9229 395.06H77.2429V398C77.2429 401.76 74.9429 405.64 72.1229 407.08L71.1629 405.76C73.7429 404.5 75.9229 401.06 75.9229 398V395.06ZM76.2229 395.06H77.5429V398C77.5429 400.86 79.5829 404.08 82.2029 405.32L81.2629 406.64C78.4029 405.22 76.2229 401.58 76.2229 398V395.06ZM71.8029 394.32H81.5429V395.72H71.8029V394.32ZM83.6829 392.48H85.3629V410.56H83.6829V392.48ZM84.9629 399.78H88.3229V401.18H84.9629V399.78ZM94.9213 393.14C97.6213 393.14 99.6013 394.78 99.6013 397.16C99.6013 399.52 97.6213 401.16 94.9213 401.16C92.2413 401.16 90.2613 399.52 90.2613 397.16C90.2613 394.78 92.2413 393.14 94.9213 393.14ZM94.9213 394.5C93.1813 394.5 91.8613 395.6 91.8613 397.16C91.8613 398.72 93.1813 399.8 94.9213 399.8C96.6813 399.8 97.9813 398.72 97.9813 397.16C97.9813 395.6 96.6813 394.5 94.9213 394.5ZM103.001 392.48H104.681V401.74H103.001V392.48ZM92.9813 402.62H104.681V407.02H94.6413V409.74H93.0213V405.78H103.041V403.96H92.9813V402.62ZM93.0213 409H105.281V410.32H93.0213V409ZM120.62 392.5H122.28V406.06H120.62V392.5ZM121.76 398.42H124.96V399.82H121.76V398.42ZM108.3 394.68H118.98V396.02H108.3V394.68ZM113.64 397.02C116.2 397.02 117.96 398.36 117.96 400.4C117.96 402.42 116.2 403.76 113.64 403.76C111.06 403.76 109.3 402.42 109.3 400.4C109.3 398.36 111.06 397.02 113.64 397.02ZM113.64 398.32C112 398.32 110.88 399.14 110.88 400.4C110.88 401.64 112 402.46 113.64 402.46C115.26 402.46 116.38 401.64 116.38 400.4C116.38 399.14 115.26 398.32 113.64 398.32ZM112.8 392.48H114.46V395.38H112.8V392.48ZM111.02 408.8H123.1V410.16H111.02V408.8ZM111.02 404.98H112.68V409.38H111.02V404.98ZM139.783 394.36H141.383C141.383 399.58 139.583 404.38 133.223 407.58L132.283 406.3C137.863 403.5 139.783 399.48 139.783 394.54V394.36ZM133.263 394.36H140.783V395.7H133.263V394.36ZM139.683 398.84V400.1L132.623 400.76L132.343 399.32L139.683 398.84ZM145.483 392.48H147.143V410.56H145.483V392.48ZM141.343 399.72H146.283V401.1H141.343V399.72ZM163.842 392.48H165.502V410.56H163.842V392.48ZM151.122 394.42H161.362V395.78H151.122V394.42ZM150.842 406.1L150.642 404.68C154.002 404.68 158.442 404.64 162.282 404.18L162.382 405.4C158.482 406.02 154.142 406.08 150.842 406.1ZM153.122 395.44H154.722V405.06H153.122V395.44ZM157.742 395.44H159.362V405.06H157.742V395.44ZM172.84 395.74H174.1V396.24C174.1 399.1 172.64 401.84 170.02 402.98L169.22 401.72C171.5 400.74 172.84 398.48 172.84 396.24V395.74ZM173.16 395.74H174.4V396.24C174.4 398.32 175.8 400.42 178.06 401.32L177.28 402.56C174.64 401.52 173.16 398.96 173.16 396.24V395.74ZM169.56 394.88H177.62V396.2H169.56V394.88ZM172.84 392.76H174.4V395.48H172.84V392.76ZM182.72 392.5H184.3V404.72H182.72V392.5ZM179.88 397.08H183.3V398.46H179.88V397.08ZM178.88 392.8H180.44V403.16H178.88V392.8ZM177.48 403.98H178.88V404.4C178.88 407.58 175.62 409.86 171.98 410.5L171.36 409.2C174.54 408.7 177.48 406.74 177.48 404.4V403.98ZM177.7 403.98H179.12V404.4C179.12 406.74 182.06 408.7 185.24 409.2L184.62 410.5C180.98 409.86 177.7 407.58 177.7 404.4V403.98ZM200.599 392.46H202.259V410.58H200.599V392.46ZM192.719 393.86C195.399 393.86 197.319 396.32 197.319 400.16C197.319 404.02 195.399 406.48 192.719 406.48C190.059 406.48 188.139 404.02 188.139 400.16C188.139 396.32 190.059 393.86 192.719 393.86ZM192.719 395.36C190.959 395.36 189.719 397.24 189.719 400.16C189.719 403.1 190.959 405.02 192.719 405.02C194.499 405.02 195.719 403.1 195.719 400.16C195.719 397.24 194.499 395.36 192.719 395.36ZM213.222 397.22H221.902V398.5H213.222V397.22ZM213.222 393.24H221.702V394.54H214.922V397.8H213.222V393.24ZM216.682 397.94H218.342V400.96H216.682V397.94ZM224.662 392.48H226.322V402.2H224.662V392.48ZM211.822 401.78L211.602 400.46C215.102 400.44 219.522 400.36 223.262 399.94L223.362 401.1C219.522 401.66 215.222 401.78 211.822 401.78ZM214.402 403.02H226.322V407.24H216.062V409.56H214.422V405.98H224.702V404.34H214.402V403.02ZM214.422 409.04H226.942V410.36H214.422V409.04ZM242.825 393.12H244.285V394.12C244.285 397.58 240.765 400.06 237.005 400.7L236.345 399.36C239.645 398.86 242.825 396.7 242.825 394.12V393.12ZM243.125 393.12H244.565V394.12C244.565 396.64 247.785 398.86 251.045 399.36L250.385 400.7C246.665 400.06 243.125 397.54 243.125 394.12V393.12ZM242.825 403.68H244.465V410.56H242.825V403.68ZM235.525 402.66H251.865V404.04H235.525V402.66ZM264.049 403.6H265.329V404.58C265.329 406.94 263.849 409.32 261.249 410.32L260.409 409.08C262.689 408.26 264.049 406.32 264.049 404.58V403.6ZM264.409 403.6H265.649V404.58C265.649 406.4 266.729 408.34 268.889 409.22L268.189 410.48C265.589 409.46 264.409 406.98 264.409 404.58V403.6ZM270.729 403.6H271.969V404.58C271.969 406.7 270.769 409.38 268.189 410.48L267.489 409.22C269.629 408.24 270.729 406.14 270.729 404.58V403.6ZM271.069 403.6H272.349V404.58C272.349 406.44 273.689 408.3 275.989 409.08L275.149 410.32C272.509 409.36 271.069 407.08 271.069 404.58V403.6ZM272.689 392.5H274.369V402.82H272.689V392.5ZM264.669 393.54C267.409 393.54 269.369 395.26 269.369 397.76C269.369 400.26 267.409 401.96 264.669 401.96C261.929 401.96 259.949 400.26 259.949 397.76C259.949 395.26 261.929 393.54 264.669 393.54ZM264.669 394.92C262.869 394.92 261.569 396.08 261.569 397.76C261.569 399.44 262.869 400.58 264.669 400.58C266.469 400.58 267.769 399.44 267.769 397.76C267.769 396.08 266.469 394.92 264.669 394.92ZM280.007 400.92H292.427V402.28H280.007V400.92ZM277.947 406.9H294.327V408.3H277.947V406.9ZM285.267 401.5H286.927V407.46H285.267V401.5ZM280.007 393.92H292.247V395.28H281.667V401.52H280.007V393.92ZM296.326 402.42H312.726V403.78H296.326V402.42ZM298.406 392.94H310.606V397.32H300.086V399.76H298.446V396.1H308.986V394.24H298.406V392.94ZM298.446 399.22H311.006V400.52H298.446V399.22ZM303.686 399.9H305.346V403.1H303.686V399.9ZM298.146 405.16H310.726V410.4H309.066V406.52H298.146V405.16ZM317.494 394.455L317.352 404.909H315.704L315.562 394.455H317.494ZM316.528 409.114C316.178 409.114 315.877 408.988 315.626 408.737C315.375 408.486 315.25 408.186 315.25 407.835C315.25 407.485 315.375 407.184 315.626 406.933C315.877 406.682 316.178 406.557 316.528 406.557C316.879 406.557 317.179 406.682 317.43 406.933C317.681 407.184 317.807 407.485 317.807 407.835C317.807 408.067 317.747 408.28 317.629 408.474C317.515 408.669 317.362 408.825 317.167 408.943C316.978 409.057 316.765 409.114 316.528 409.114ZM72 424.36H73.6C73.6 429.58 71.8 434.38 65.44 437.58L64.5 436.3C70.08 433.5 72 429.48 72 424.54V424.36ZM65.48 424.36H73V425.7H65.48V424.36ZM71.9 428.84V430.1L64.84 430.76L64.56 429.32L71.9 428.84ZM77.7 422.48H79.36V440.56H77.7V422.48ZM73.56 429.72H78.5V431.1H73.56V429.72ZM96.0584 422.48H97.7184V440.56H96.0584V422.48ZM83.3384 424.42H93.5784V425.78H83.3384V424.42ZM83.0584 436.1L82.8584 434.68C86.2184 434.68 90.6584 434.64 94.4984 434.18L94.5984 435.4C90.6984 436.02 86.3584 436.08 83.0584 436.1ZM85.3384 425.44H86.9384V435.06H85.3384V425.44ZM89.9584 425.44H91.5784V435.06H89.9584V425.44ZM105.057 425.74H106.317V426.24C106.317 429.1 104.857 431.84 102.237 432.98L101.437 431.72C103.717 430.74 105.057 428.48 105.057 426.24V425.74ZM105.377 425.74H106.617V426.24C106.617 428.32 108.017 430.42 110.277 431.32L109.497 432.56C106.857 431.52 105.377 428.96 105.377 426.24V425.74ZM101.777 424.88H109.837V426.2H101.777V424.88ZM105.057 422.76H106.617V425.48H105.057V422.76ZM114.937 422.5H116.517V434.72H114.937V422.5ZM112.097 427.08H115.517V428.46H112.097V427.08ZM111.097 422.8H112.657V433.16H111.097V422.8ZM109.697 433.98H111.097V434.4C111.097 437.58 107.837 439.86 104.197 440.5L103.577 439.2C106.757 438.7 109.697 436.74 109.697 434.4V433.98ZM109.917 433.98H111.337V434.4C111.337 436.74 114.277 438.7 117.457 439.2L116.837 440.5C113.197 439.86 109.917 437.58 109.917 434.4V433.98ZM119.675 431.98H136.015V433.34H119.675V431.98ZM121.795 438.8H134.215V440.16H121.795V438.8ZM121.795 434.92H123.455V439.22H121.795V434.92ZM127.855 423.08C131.715 423.08 134.215 424.44 134.215 426.7C134.215 428.94 131.715 430.3 127.855 430.3C123.975 430.3 121.495 428.94 121.495 426.7C121.495 424.44 123.975 423.08 127.855 423.08ZM127.855 424.44C125.015 424.44 123.195 425.28 123.195 426.7C123.195 428.12 125.015 428.96 127.855 428.96C130.695 428.96 132.515 428.12 132.515 426.7C132.515 425.28 130.695 424.44 127.855 424.44ZM149.139 439.199C148.202 439.199 147.366 439.038 146.632 438.716C145.903 438.394 145.323 437.946 144.892 437.374C144.466 436.796 144.234 436.126 144.196 435.364H145.986C146.024 435.832 146.185 436.237 146.469 436.578C146.753 436.914 147.125 437.175 147.584 437.359C148.043 437.544 148.552 437.636 149.111 437.636C149.736 437.636 150.29 437.527 150.773 437.31C151.256 437.092 151.634 436.789 151.909 436.401C152.184 436.012 152.321 435.562 152.321 435.051C152.321 434.516 152.188 434.045 151.923 433.638C151.658 433.226 151.27 432.904 150.759 432.672C150.247 432.44 149.622 432.324 148.884 432.324H147.719V430.761H148.884C149.461 430.761 149.968 430.657 150.403 430.449C150.844 430.241 151.187 429.947 151.433 429.568C151.684 429.189 151.81 428.744 151.81 428.233C151.81 427.741 151.701 427.312 151.483 426.947C151.265 426.583 150.957 426.299 150.56 426.095C150.167 425.892 149.703 425.79 149.168 425.79C148.666 425.79 148.192 425.882 147.747 426.067C147.307 426.247 146.947 426.509 146.668 426.855C146.388 427.196 146.237 427.608 146.213 428.091H144.509C144.537 427.329 144.767 426.661 145.197 426.088C145.628 425.51 146.192 425.061 146.888 424.739C147.589 424.417 148.358 424.256 149.196 424.256C150.096 424.256 150.867 424.438 151.511 424.803C152.155 425.162 152.65 425.638 152.996 426.23C153.341 426.822 153.514 427.461 153.514 428.148C153.514 428.967 153.299 429.665 152.868 430.243C152.442 430.821 151.862 431.221 151.128 431.443V431.557C152.046 431.708 152.764 432.099 153.28 432.729C153.796 433.354 154.054 434.128 154.054 435.051C154.054 435.842 153.839 436.552 153.408 437.182C152.982 437.807 152.399 438.299 151.661 438.659C150.922 439.019 150.081 439.199 149.139 439.199ZM161.703 439.199C160.633 439.199 159.722 438.908 158.969 438.325C158.216 437.738 157.641 436.888 157.243 435.776C156.845 434.658 156.646 433.309 156.646 431.727C156.646 430.155 156.845 428.813 157.243 427.7C157.645 426.583 158.223 425.731 158.976 425.143C159.733 424.552 160.643 424.256 161.703 424.256C162.764 424.256 163.67 424.552 164.423 425.143C165.181 425.731 165.759 426.583 166.156 427.7C166.559 428.813 166.76 430.155 166.76 431.727C166.76 433.309 166.561 434.658 166.163 435.776C165.766 436.888 165.19 437.738 164.438 438.325C163.685 438.908 162.773 439.199 161.703 439.199ZM161.703 437.636C162.764 437.636 163.588 437.125 164.175 436.102C164.762 435.08 165.055 433.621 165.055 431.727C165.055 430.468 164.92 429.395 164.651 428.51C164.385 427.625 164.002 426.95 163.5 426.486C163.003 426.022 162.404 425.79 161.703 425.79C160.652 425.79 159.83 426.308 159.239 427.345C158.647 428.377 158.351 429.838 158.351 431.727C158.351 432.987 158.483 434.057 158.749 434.938C159.014 435.818 159.395 436.488 159.892 436.947C160.394 437.407 160.998 437.636 161.703 437.636ZM168.933 432.02H185.313V433.38H168.933V432.02ZM176.413 432.7H178.073V436.86H176.413V432.7ZM171.013 438.8H183.493V440.16H171.013V438.8ZM171.013 435.26H172.653V439.32H171.013V435.26ZM171.113 423.04H172.753V425.34H181.493V423.04H183.153V430.28H171.113V423.04ZM172.753 426.64V428.94H181.493V426.64H172.753ZM205.337 422.48H206.997V435.7H205.337V422.48ZM206.477 427.96H209.677V429.34H206.477V427.96ZM200.397 423.88H202.157C202.157 428.56 198.877 431.98 193.697 433.64L192.977 432.28C197.537 430.88 200.397 428.08 200.397 424.6V423.88ZM193.717 423.88H201.237V425.24H193.717V423.88ZM195.717 438.8H207.797V440.16H195.717V438.8ZM195.717 434.36H197.377V439.34H195.717V434.36ZM221.8 424.46H223.18V426.3C223.18 429.62 221.14 432.4 218.1 433.5L217.24 432.18C219.96 431.22 221.8 428.88 221.8 426.3V424.46ZM222.12 424.46H223.5V426.3C223.5 428.74 225.38 430.94 228.06 431.84L227.2 433.14C224.2 432.12 222.12 429.48 222.12 426.3V424.46ZM217.68 423.98H227.58V425.32H217.68V423.98ZM230.14 422.5H231.82V435.72H230.14V422.5ZM220.2 438.8H232.36V440.16H220.2V438.8ZM220.2 434.48H221.84V439.4H220.2V434.48ZM249.038 422.48H250.618V433.92H249.038V422.48ZM246.098 427.38H249.518V428.76H246.098V427.38ZM245.178 422.84H246.738V433.28H245.178V422.84ZM235.298 424.64H244.458V425.96H235.298V424.64ZM239.898 426.88C242.158 426.88 243.738 428.12 243.738 429.98C243.738 431.86 242.158 433.08 239.898 433.08C237.618 433.08 236.038 431.86 236.038 429.98C236.038 428.12 237.618 426.88 239.898 426.88ZM239.898 428.12C238.478 428.12 237.518 428.86 237.518 429.98C237.518 431.12 238.478 431.84 239.898 431.84C241.298 431.84 242.258 431.12 242.258 429.98C242.258 428.86 241.298 428.12 239.898 428.12ZM239.078 422.62H240.698V425.38H239.078V422.62ZM244.698 434.24C248.458 434.24 250.718 435.36 250.718 437.38C250.718 439.38 248.458 440.52 244.698 440.52C240.898 440.52 238.658 439.38 238.658 437.38C238.658 435.36 240.898 434.24 244.698 434.24ZM244.698 435.52C241.918 435.52 240.298 436.18 240.298 437.38C240.298 438.58 241.918 439.26 244.698 439.26C247.438 439.26 249.078 438.58 249.078 437.38C249.078 436.18 247.438 435.52 244.698 435.52ZM258.937 428.6H260.617V431.6H258.937V428.6ZM266.957 422.48H268.617V432.9H266.957V422.48ZM254.097 432.46L253.857 431.12C257.157 431.12 261.657 431.08 265.477 430.52L265.597 431.7C261.657 432.4 257.317 432.46 254.097 432.46ZM255.477 427.76H264.157V429.1H255.477V427.76ZM255.477 423.38H263.997V424.74H257.137V428.28H255.477V423.38ZM256.757 433.7H258.417V435.6H266.977V433.7H268.617V440.32H256.757V433.7ZM258.417 436.9V438.98H266.977V436.9H258.417ZM285.335 422.48H286.995V440.56H285.335V422.48ZM273.335 424.24H274.975V435.44H273.335V424.24ZM273.335 434.46H274.815C277.555 434.46 280.415 434.26 283.475 433.62L283.675 435.04C280.535 435.68 277.675 435.9 274.815 435.9H273.335V434.46ZM302.814 422.46H304.494V440.58H302.814V422.46ZM304.094 429.6H307.454V431H304.094V429.6ZM291.354 434.68H292.774C296.114 434.68 298.454 434.56 301.154 434.06L301.334 435.46C298.554 435.98 296.174 436.08 292.774 436.08H291.354V434.68ZM291.354 424.22H299.754V425.58H292.994V435.3H291.354V424.22ZM310.748 439.114C310.397 439.114 310.097 438.988 309.846 438.737C309.595 438.486 309.469 438.186 309.469 437.835C309.469 437.485 309.595 437.184 309.846 436.933C310.097 436.682 310.397 436.557 310.748 436.557C311.098 436.557 311.399 436.682 311.65 436.933C311.901 437.184 312.026 437.485 312.026 437.835C312.026 438.067 311.967 438.28 311.849 438.474C311.735 438.669 311.581 438.825 311.387 438.943C311.198 439.057 310.985 439.114 310.748 439.114Z" fill="white"/>
<path d="M53.2381 522V520.722L58.0392 515.466C58.6027 514.85 59.0667 514.315 59.4313 513.861C59.7959 513.402 60.0658 512.971 60.2409 512.568C60.4209 512.161 60.5108 511.735 60.5108 511.29C60.5108 510.778 60.3877 510.336 60.1415 509.962C59.9 509.588 59.5686 509.299 59.1472 509.095C58.7258 508.892 58.2523 508.79 57.7267 508.79C57.168 508.79 56.6803 508.906 56.2637 509.138C55.8517 509.365 55.5321 509.685 55.3049 510.097C55.0823 510.509 54.9711 510.991 54.9711 511.545H53.2949C53.2949 510.693 53.4914 509.945 53.8844 509.301C54.2774 508.657 54.8124 508.155 55.4895 507.795C56.1713 507.436 56.936 507.256 57.7836 507.256C58.6358 507.256 59.391 507.436 60.0492 507.795C60.7073 508.155 61.2234 508.641 61.5975 509.251C61.9715 509.862 62.1586 510.542 62.1586 511.29C62.1586 511.825 62.0615 512.348 61.8674 512.859C61.678 513.366 61.3465 513.932 60.873 514.557C60.4043 515.177 59.7533 515.935 58.9199 516.83L55.6529 520.324V520.438H62.4142V522H53.2381ZM64.6941 519.017V517.568L71.0861 507.455H72.1373V509.699H71.427L66.5975 517.341V517.455H75.2054V519.017H64.6941ZM71.5407 522V518.577V517.902V507.455H73.2168V522H71.5407ZM82.1213 507.04H83.4813V510.28C83.4813 514.44 81.2413 518.3 78.2813 519.8L77.2613 518.44C79.9413 517.16 82.1213 513.7 82.1213 510.28V507.04ZM82.4013 507.04H83.7613V510.28C83.7613 513.58 85.9213 516.9 88.6013 518.14L87.6013 519.46C84.6613 518.02 82.4013 514.3 82.4013 510.28V507.04ZM90.4813 505.46H92.1413V523.58H90.4813V505.46ZM108.12 505.48H109.78V518.7H108.12V505.48ZM109.26 510.96H112.46V512.34H109.26V510.96ZM103.18 506.88H104.94C104.94 511.56 101.66 514.98 96.4798 516.64L95.7598 515.28C100.32 513.88 103.18 511.08 103.18 507.6V506.88ZM96.4998 506.88H104.02V508.24H96.4998V506.88ZM98.4998 521.8H110.58V523.16H98.4998V521.8ZM98.4998 517.36H100.16V522.34H98.4998V517.36ZM127.103 514.52H128.763V517.68H127.103V514.52ZM119.763 513.94H136.103V515.28H119.763V513.94ZM127.923 517.18C131.803 517.18 134.123 518.32 134.123 520.36C134.123 522.38 131.803 523.52 127.923 523.52C124.043 523.52 121.723 522.38 121.723 520.36C121.723 518.32 124.043 517.18 127.923 517.18ZM127.923 518.46C125.103 518.46 123.403 519.14 123.403 520.36C123.403 521.56 125.103 522.24 127.923 522.24C130.763 522.24 132.443 521.56 132.443 520.36C132.443 519.14 130.763 518.46 127.923 518.46ZM126.863 506.96H128.343V507.5C128.343 510.42 125.023 512.38 121.283 512.84L120.683 511.52C123.923 511.18 126.863 509.56 126.863 507.5V506.96ZM127.563 506.96H129.023V507.5C129.023 509.56 131.963 511.18 135.203 511.52L134.603 512.84C130.863 512.38 127.563 510.42 127.563 507.5V506.96ZM121.263 506.3H134.643V507.64H121.263V506.3ZM156.027 505.46H157.707V523.56H156.027V505.46ZM157.247 512.8H160.587V514.18H157.247V512.8ZM151.407 507.42H153.027C153.027 512.56 150.667 517.2 144.827 520.14L143.907 518.86C148.907 516.32 151.407 512.46 151.407 507.68V507.42ZM144.747 507.42H152.267V508.78H144.747V507.42ZM164.425 510.5H176.685V511.86H164.425V510.5ZM164.425 505.84H166.065V511.1H164.425V505.84ZM162.205 513.96H178.545V515.3H162.205V513.96ZM170.345 516.92C174.205 516.92 176.545 518.1 176.545 520.22C176.545 522.3 174.205 523.5 170.345 523.5C166.485 523.5 164.145 522.3 164.145 520.22C164.145 518.1 166.485 516.92 170.345 516.92ZM170.345 518.22C167.525 518.22 165.825 518.94 165.825 520.22C165.825 521.46 167.525 522.18 170.345 522.18C173.185 522.18 174.865 521.46 174.865 520.22C174.865 518.94 173.185 518.22 170.345 518.22ZM192.964 505.5H194.624V519.06H192.964V505.5ZM194.104 511.42H197.304V512.82H194.104V511.42ZM180.644 507.68H191.324V509.02H180.644V507.68ZM185.984 510.02C188.544 510.02 190.304 511.36 190.304 513.4C190.304 515.42 188.544 516.76 185.984 516.76C183.404 516.76 181.644 515.42 181.644 513.4C181.644 511.36 183.404 510.02 185.984 510.02ZM185.984 511.32C184.344 511.32 183.224 512.14 183.224 513.4C183.224 514.64 184.344 515.46 185.984 515.46C187.604 515.46 188.724 514.64 188.724 513.4C188.724 512.14 187.604 511.32 185.984 511.32ZM185.144 505.48H186.804V508.38H185.144V505.48ZM183.364 521.8H195.444V523.16H183.364V521.8ZM183.364 517.98H185.024V522.38H183.364V517.98ZM209.387 507.04H210.747V510.28C210.747 514.44 208.507 518.3 205.547 519.8L204.527 518.44C207.207 517.16 209.387 513.7 209.387 510.28V507.04ZM209.667 507.04H211.027V510.28C211.027 513.58 213.187 516.9 215.867 518.14L214.867 519.46C211.927 518.02 209.667 514.3 209.667 510.28V507.04ZM217.747 505.46H219.407V523.58H217.747V505.46ZM235.385 505.48H237.045V518.7H235.385V505.48ZM236.525 510.96H239.725V512.34H236.525V510.96ZM230.445 506.88H232.205C232.205 511.56 228.925 514.98 223.745 516.64L223.025 515.28C227.585 513.88 230.445 511.08 230.445 507.6V506.88ZM223.765 506.88H231.285V508.24H223.765V506.88ZM225.765 521.8H237.845V523.16H225.765V521.8ZM225.765 517.36H227.425V522.34H225.765V517.36ZM255.164 505.48H256.764V523.56H255.164V505.48ZM252.104 512.72H255.584V514.1H252.104V512.72ZM251.064 505.88H252.624V522.64H251.064V505.88ZM242.064 517.72H243.244C245.884 517.72 247.684 517.62 249.784 517.18L249.944 518.56C247.784 519.02 245.964 519.1 243.244 519.1H242.064V517.72ZM242.064 507.68H248.784V509.04H243.704V518.34H242.064V507.68ZM259.802 513.88H276.202V515.14H259.802V513.88ZM261.742 516.6H274.142V520.46H263.442V522.58H261.802V519.32H272.522V517.78H261.742V516.6ZM261.802 522.14H274.722V523.34H261.802V522.14ZM261.882 506H274.082V509.76H263.562V511.72H261.922V508.64H272.462V507.18H261.882V506ZM261.922 511.32H274.422V512.52H261.922V511.32ZM288.646 507.34H290.026V508.78C290.026 512.1 287.986 514.88 284.946 515.96L284.086 514.66C286.806 513.7 288.646 511.34 288.646 508.78V507.34ZM288.966 507.34H290.346V508.78C290.346 511.22 292.226 513.42 294.906 514.32L294.046 515.62C291.046 514.6 288.966 511.94 288.966 508.78V507.34ZM296.986 505.48H298.666V516.42H296.986V505.48ZM286.586 517.38H298.666V523.56H296.986V518.74H286.586V517.38ZM284.526 506.74H294.426V508.08H284.526V506.74ZM311.884 509.86H315.904V511.22H311.884V509.86ZM315.444 505.48H317.104V515.3H315.444V505.48ZM305.524 516.18H307.164V518.38H315.464V516.18H317.104V523.32H305.524V516.18ZM307.164 519.72V521.96H315.464V519.72H307.164ZM306.844 506.9H308.204V508.38C308.204 511.66 306.164 514.5 303.144 515.62L302.284 514.28C304.984 513.34 306.844 510.94 306.844 508.38V506.9ZM307.164 506.9H308.504V508.36C308.504 510.7 310.264 512.96 312.884 513.88L312.044 515.18C309.104 514.12 307.164 511.4 307.164 508.36V506.9ZM302.804 506.56H312.464V507.9H302.804V506.56ZM55.967 539.74H60.527V541.12H55.967V539.74ZM51.227 536.58H52.567V538.8C52.567 542.3 50.607 545.22 47.587 546.44L46.727 545.12C49.407 544.12 51.227 541.56 51.227 538.8V536.58ZM51.547 536.58H52.887V538.86C52.887 541.38 54.647 543.76 57.267 544.72L56.367 546C53.487 544.88 51.547 542.08 51.547 538.86V536.58ZM59.907 535.5H61.567V549.02H59.907V535.5ZM49.947 551.8H62.007V553.16H49.947V551.8ZM49.947 547.52H51.607V552.44H49.947V547.52ZM74.7455 540.16H78.8255V541.54H74.7455V540.16ZM78.3055 535.48H79.9655V546.26H78.3055V535.48ZM74.0255 546.8C77.7455 546.8 80.0455 548.06 80.0455 550.18C80.0455 552.32 77.7455 553.54 74.0255 553.54C70.2855 553.54 67.9855 552.32 67.9855 550.18C67.9855 548.06 70.2855 546.8 74.0255 546.8ZM74.0255 548.1C71.3055 548.1 69.6455 548.86 69.6455 550.18C69.6455 551.48 71.3055 552.24 74.0255 552.24C76.7455 552.24 78.4055 551.48 78.4055 550.18C78.4055 548.86 76.7455 548.1 74.0255 548.1ZM69.7055 537.3H71.0655V538.76C71.0655 542.1 69.0255 544.96 66.0255 546.08L65.1655 544.76C67.8455 543.78 69.7055 541.36 69.7055 538.76V537.3ZM70.0255 537.3H71.3655V538.76C71.3655 541.1 73.1255 543.34 75.7455 544.26L74.9055 545.58C71.9655 544.52 70.0255 541.8 70.0255 538.76V537.3ZM65.6655 536.8H75.3255V538.16H65.6655V536.8ZM95.7439 535.48H97.4039V553.56H95.7439V535.48ZM97.0039 542.9H100.364V544.3H97.0039V542.9ZM83.4039 538.36H94.0639V539.72H83.4039V538.36ZM88.8039 541.22C91.3639 541.22 93.2039 542.94 93.2039 545.38C93.2039 547.82 91.3639 549.54 88.8039 549.54C86.2639 549.54 84.4039 547.82 84.4039 545.38C84.4039 542.94 86.2639 541.22 88.8039 541.22ZM88.8039 542.6C87.1639 542.6 85.9839 543.74 85.9839 545.38C85.9839 547 87.1639 548.16 88.8039 548.16C90.4439 548.16 91.6239 547 91.6239 545.38C91.6239 543.74 90.4439 542.6 88.8039 542.6ZM87.9439 535.7H89.6039V538.98H87.9439V535.7ZM110.042 539.5H115.502V540.88H110.042V539.5ZM110.042 545.22H115.502V546.6H110.042V545.22ZM106.722 536.86C109.342 536.86 111.222 539.32 111.222 543.16C111.222 547.02 109.342 549.48 106.722 549.48C104.082 549.48 102.222 547.02 102.222 543.16C102.222 539.32 104.082 536.86 106.722 536.86ZM106.722 538.36C104.982 538.36 103.782 540.24 103.782 543.16C103.782 546.1 104.982 548.02 106.722 548.02C108.462 548.02 109.662 546.1 109.662 543.16C109.662 540.24 108.462 538.36 106.722 538.36ZM115.142 535.46H116.782V553.58H115.142V535.46ZM139.066 535.5H140.746V548.74H139.066V535.5ZM129.126 551.8H141.286V553.16H129.126V551.8ZM129.126 547.52H130.766V552.44H129.126V547.52ZM130.626 536.48H132.006V538.32C132.006 541.84 130.006 544.92 126.966 546.16L126.106 544.82C128.826 543.76 130.626 541.12 130.626 538.32V536.48ZM130.926 536.48H132.286V538.32C132.286 541.04 134.106 543.5 136.806 544.48L135.926 545.82C132.926 544.66 130.926 541.76 130.926 538.32V536.48ZM148.824 538.56H150.184V539.34C150.184 542.48 148.184 545.12 145.164 546.14L144.364 544.84C147.024 543.98 148.824 541.78 148.824 539.34V538.56ZM149.124 538.56H150.484V539.34C150.484 541.58 152.344 543.6 155.004 544.38L154.244 545.68C151.204 544.74 149.124 542.3 149.124 539.34V538.56ZM144.824 537.66H154.464V539H144.824V537.66ZM148.824 535.4H150.484V538.14H148.824V535.4ZM153.924 540.62H158.004V542H153.924V540.62ZM157.524 535.48H159.184V546.42H157.524V535.48ZM153.244 546.9C156.984 546.9 159.264 548.12 159.264 550.22C159.264 552.3 156.984 553.52 153.244 553.52C149.484 553.52 147.204 552.3 147.204 550.22C147.204 548.12 149.484 546.9 153.244 546.9ZM153.244 548.2C150.504 548.2 148.864 548.94 148.864 550.22C148.864 551.48 150.504 552.22 153.244 552.22C155.964 552.22 157.624 551.48 157.624 550.22C157.624 548.94 155.964 548.2 153.244 548.2ZM170.883 535.78C174.863 535.78 177.243 536.9 177.243 538.92C177.243 540.94 174.863 542.06 170.883 542.06C166.883 542.06 164.523 540.94 164.523 538.92C164.523 536.9 166.883 535.78 170.883 535.78ZM170.883 537.04C167.923 537.04 166.223 537.72 166.223 538.92C166.223 540.12 167.923 540.8 170.883 540.8C173.823 540.8 175.523 540.12 175.523 538.92C175.523 537.72 173.823 537.04 170.883 537.04ZM162.703 543.26H179.043V544.6H162.703V543.26ZM164.683 546.14H176.963V550.22H166.363V552.42H164.723V549.02H175.323V547.42H164.683V546.14ZM164.723 552.06H177.503V553.36H164.723V552.06ZM199.106 535.48H200.766V546.06H199.106V535.48ZM200.306 539.82H203.446V541.22H200.306V539.82ZM187.486 536.48H189.126V539.24H194.226V536.48H195.846V544.92H187.486V536.48ZM189.126 540.56V543.58H194.226V540.56H189.126ZM189.466 547.04H200.906V548.38H191.126V552.92H189.466V547.04ZM189.466 551.96H201.266V553.32H189.466V551.96ZM213.305 535.78C217.285 535.78 219.665 536.9 219.665 538.92C219.665 540.94 217.285 542.06 213.305 542.06C209.305 542.06 206.945 540.94 206.945 538.92C206.945 536.9 209.305 535.78 213.305 535.78ZM213.305 537.04C210.345 537.04 208.645 537.72 208.645 538.92C208.645 540.12 210.345 540.8 213.305 540.8C216.245 540.8 217.945 540.12 217.945 538.92C217.945 537.72 216.245 537.04 213.305 537.04ZM205.125 543.26H221.465V544.6H205.125V543.26ZM207.105 546.14H219.385V550.22H208.785V552.42H207.145V549.02H217.745V547.42H207.105V546.14ZM207.145 552.06H219.925V553.36H207.145V552.06ZM236.468 536.12H237.928V537.12C237.928 540.58 234.408 543.06 230.648 543.7L229.988 542.36C233.288 541.86 236.468 539.7 236.468 537.12V536.12ZM236.768 536.12H238.208V537.12C238.208 539.64 241.428 541.86 244.688 542.36L244.028 543.7C240.308 543.06 236.768 540.54 236.768 537.12V536.12ZM236.468 546.68H238.108V553.56H236.468V546.68ZM229.168 545.66H245.508V547.04H229.168V545.66ZM257.691 546.6H258.971V547.58C258.971 549.94 257.491 552.32 254.891 553.32L254.051 552.08C256.331 551.26 257.691 549.32 257.691 547.58V546.6ZM258.051 546.6H259.291V547.58C259.291 549.4 260.371 551.34 262.531 552.22L261.831 553.48C259.231 552.46 258.051 549.98 258.051 547.58V546.6ZM264.371 546.6H265.611V547.58C265.611 549.7 264.411 552.38 261.831 553.48L261.131 552.22C263.271 551.24 264.371 549.14 264.371 547.58V546.6ZM264.711 546.6H265.991V547.58C265.991 549.44 267.331 551.3 269.631 552.08L268.791 553.32C266.151 552.36 264.711 550.08 264.711 547.58V546.6ZM266.331 535.5H268.011V545.82H266.331V535.5ZM258.311 536.54C261.051 536.54 263.011 538.26 263.011 540.76C263.011 543.26 261.051 544.96 258.311 544.96C255.571 544.96 253.591 543.26 253.591 540.76C253.591 538.26 255.571 536.54 258.311 536.54ZM258.311 537.92C256.511 537.92 255.211 539.08 255.211 540.76C255.211 542.44 256.511 543.58 258.311 543.58C260.111 543.58 261.411 542.44 261.411 540.76C261.411 539.08 260.111 537.92 258.311 537.92ZM273.65 546.32H275.29V548.42H284.13V546.32H285.79V553.32H273.65V546.32ZM275.29 549.7V551.98H284.13V549.7H275.29ZM271.57 543.72H287.91V545.06H271.57V543.72ZM278.91 535.68H280.33V536.48C280.33 539.62 276.83 541.88 273.11 542.44L272.51 541.14C275.77 540.7 278.91 538.76 278.91 536.48V535.68ZM279.17 535.68H280.59V536.48C280.59 538.72 283.77 540.7 286.99 541.14L286.37 542.44C282.69 541.88 279.17 539.58 279.17 536.48V535.68ZM303.128 535.48H304.788V553.56H303.128V535.48ZM291.128 537.24H292.768V548.44H291.128V537.24ZM291.128 547.46H292.608C295.348 547.46 298.208 547.26 301.268 546.62L301.468 548.04C298.328 548.68 295.468 548.9 292.608 548.9H291.128V547.46ZM320.607 535.46H322.287V553.58H320.607V535.46ZM321.887 542.6H325.247V544H321.887V542.6ZM309.147 547.68H310.567C313.907 547.68 316.247 547.56 318.947 547.06L319.127 548.46C316.347 548.98 313.967 549.08 310.567 549.08H309.147V547.68ZM309.147 537.22H317.547V538.58H310.787V548.3H309.147V537.22ZM328.541 552.114C328.19 552.114 327.89 551.988 327.639 551.737C327.388 551.486 327.262 551.186 327.262 550.835C327.262 550.485 327.388 550.184 327.639 549.933C327.89 549.682 328.19 549.557 328.541 549.557C328.891 549.557 329.192 549.682 329.443 549.933C329.694 550.184 329.819 550.485 329.819 550.835C329.819 551.067 329.76 551.28 329.642 551.474C329.528 551.669 329.374 551.825 329.18 551.943C328.991 552.057 328.778 552.114 328.541 552.114Z" fill="white"/>
<path d="M151.533 41.1621C154.448 41.1621 156.807 38.8037 156.807 35.8887V5.27344C156.807 2.3584 154.448 0 151.533 0C148.618 0 146.26 2.3584 146.26 5.27344V35.8887C146.26 38.8037 148.618 41.1621 151.533 41.1621ZM241.328 62.2559H223.75C223.75 56.4258 219.033 51.709 213.203 51.709H140.547C134.717 51.709 130 56.4258 130 62.2559V98.584C130 99.082 130.029 99.5654 130.103 100.034C130.029 101.06 130 102.085 130 103.125C130 129.009 150.991 150 176.875 150C200.327 150 219.751 132.788 223.208 110.303H241.328C247.158 110.303 251.875 105.586 251.875 99.7559V72.8027C251.875 66.9727 247.158 62.2559 241.328 62.2559ZM213.203 99.7559H213.042C213.145 100.869 213.203 101.982 213.203 103.125C213.203 123.193 196.943 139.453 176.875 139.453C156.807 139.453 140.547 123.193 140.547 103.125C140.547 101.982 140.605 100.869 140.708 99.7559H140.547V62.2559H213.203V99.7559ZM241.328 98.584H224.922V72.8027H241.328V98.584ZM201.045 41.1621C203.96 41.1621 206.318 38.8037 206.318 35.8887V5.27344C206.318 2.3584 203.96 0 201.045 0C198.13 0 195.771 2.3584 195.771 5.27344V35.8887C195.771 38.8037 198.13 41.1621 201.045 41.1621ZM176.143 41.1621C179.058 41.1621 181.416 38.8037 181.416 35.8887V5.27344C181.416 2.3584 179.058 0 176.143 0C173.228 0 170.869 2.3584 170.869 5.27344V35.8887C170.869 38.8037 173.228 41.1621 176.143 41.1621Z" fill="white"/>
</svg>
