<svg width="377" height="571" viewBox="0 0 377 571" fill="none" xmlns="http://www.w3.org/2000/svg">
<path d="M129.168 174.048H132.264C132.264 180.888 130.488 186.624 122.52 190.8L120.768 188.376C127.32 184.92 129.168 180.72 129.168 174.432V174.048ZM122.088 174.048H131.112V176.568H122.088V174.048ZM129.48 179.496V181.92L121.32 182.664L120.912 179.976L129.48 179.496ZM136.368 171.912H139.56V194.136H136.368V171.912ZM132.24 180.432H138.048V183.024H132.24V180.432ZM158.35 171.912H161.566V194.136H158.35V171.912ZM143.59 173.952H156.07V176.496H143.59V173.952ZM143.302 189.072L142.99 186.456C146.998 186.456 152.35 186.384 156.934 185.832L157.102 188.16C152.422 188.952 147.31 189.048 143.302 189.072ZM145.51 175.944H148.606V187.152H145.51V175.944ZM151.054 175.944H154.15V187.152H151.054V175.944ZM169.1 176.16H171.476V176.808C171.476 180.336 170.036 183.6 166.556 184.896L165.092 182.544C167.9 181.464 169.1 179.16 169.1 176.808V176.16ZM169.748 176.16H172.1V176.808C172.1 179.016 173.324 181.152 176.108 182.136L174.692 184.488C171.188 183.288 169.748 180.192 169.748 176.808V176.16ZM165.716 174.336H175.46V176.832H165.716V174.336ZM169.1 172.176H172.1V175.608H169.1V172.176ZM181.028 171.936H184.052V186.96H181.028V171.936ZM178.46 177.192H181.988V179.784H178.46V177.192ZM176.396 172.272H179.372V185.016H176.396V172.272ZM174.812 185.928H177.524V186.264C177.524 190.128 174.452 193.272 168.884 194.064L167.756 191.592C172.556 190.968 174.812 188.544 174.812 186.264V185.928ZM175.268 185.928H177.98V186.264C177.98 188.544 180.26 190.968 185.036 191.592L183.908 194.064C178.34 193.272 175.268 190.128 175.268 186.264V185.928ZM198.149 174.384H200.789V176.256C200.789 180.456 198.749 184.248 194.477 185.64L192.845 183.144C196.541 181.944 198.149 179.064 198.149 176.256V174.384ZM198.797 174.384H201.413V176.256C201.413 178.896 202.997 181.608 206.621 182.76L204.989 185.232C200.813 183.912 198.797 180.288 198.797 176.256V174.384ZM193.685 173.496H205.781V176.016H193.685V173.496ZM208.013 171.936H211.229V187.968H208.013V171.936ZM196.421 191.208H211.781V193.752H196.421V191.208ZM196.421 186.528H199.613V192.48H196.421V186.528ZM230.739 171.912H233.763V185.832H230.739V171.912ZM228.027 177.384H231.579V179.976H228.027V177.384ZM226.131 172.344H229.107V185.112H226.131V172.344ZM214.731 174.192H225.507V176.64H214.731V174.192ZM220.155 177.36C222.939 177.36 224.955 178.944 224.955 181.248C224.955 183.552 222.939 185.112 220.155 185.112C217.371 185.112 215.355 183.552 215.355 181.248C215.355 178.944 217.371 177.36 220.155 177.36ZM220.155 179.64C218.979 179.64 218.187 180.216 218.187 181.248C218.187 182.28 218.979 182.856 220.155 182.856C221.307 182.856 222.099 182.28 222.099 181.248C222.099 180.216 221.307 179.64 220.155 179.64ZM218.547 172.128H221.691V175.872H218.547V172.128ZM226.251 186.072C231.003 186.072 233.883 187.512 233.883 190.104C233.883 192.672 231.003 194.136 226.251 194.136C221.475 194.136 218.595 192.672 218.595 190.104C218.595 187.512 221.475 186.072 226.251 186.072ZM226.251 188.448C223.275 188.448 221.787 188.952 221.787 190.104C221.787 191.232 223.275 191.76 226.251 191.76C229.203 191.76 230.691 191.232 230.691 190.104C230.691 188.952 229.203 188.448 226.251 188.448Z" fill="white"/>
<rect x="0.5" y="252.5" width="376" height="88" rx="44" stroke="white"/>
<rect x="0.5" y="367.5" width="376" height="88" rx="44" stroke="white"/>
<rect x="0.5" y="482.5" width="376" height="88" rx="44" stroke="white"/>
<path d="M42.166 273.36H43.766C43.766 278.58 41.966 283.38 35.606 286.58L34.666 285.3C40.246 282.5 42.166 278.48 42.166 273.54V273.36ZM35.646 273.36H43.166V274.7H35.646V273.36ZM42.066 277.84V279.1L35.006 279.76L34.726 278.32L42.066 277.84ZM47.866 271.48H49.526V289.56H47.866V271.48ZM43.726 278.72H48.666V280.1H43.726V278.72ZM66.2245 271.46H67.8845V289.58H66.2245V271.46ZM54.1045 283.84H55.6045C58.6245 283.84 61.3245 283.72 64.5245 283.2L64.7045 284.56C61.4245 285.1 58.7045 285.22 55.6045 285.22H54.1045V283.84ZM54.0645 273.16H62.4245V279.62H55.7645V284.36H54.1045V278.26H60.7445V274.52H54.0645V273.16ZM76.2829 272.86C78.9029 272.86 80.7829 275.32 80.7829 279.16C80.7829 283.02 78.9029 285.48 76.2829 285.48C73.6429 285.48 71.7829 283.02 71.7829 279.16C71.7829 275.32 73.6429 272.86 76.2829 272.86ZM76.2829 274.36C74.5429 274.36 73.3629 276.24 73.3629 279.16C73.3629 282.1 74.5429 284.02 76.2829 284.02C78.0229 284.02 79.2029 282.1 79.2029 279.16C79.2029 276.24 78.0229 274.36 76.2829 274.36ZM84.7029 271.46H86.3429V289.58H84.7029V271.46ZM80.2429 278.36H85.4229V279.72H80.2429V278.36ZM96.4463 272.88H104.446V274.24H96.4463V272.88ZM99.1663 276.92H100.806V281.44H99.1663V276.92ZM103.786 272.88H105.426V273.84C105.426 275.02 105.426 276.82 104.946 279.2L103.326 279.02C103.786 276.64 103.786 275 103.786 273.84V272.88ZM107.886 271.48H109.546V285.1H107.886V271.48ZM108.786 277.36H112.126V278.74H108.786V277.36ZM98.1263 287.8H110.126V289.16H98.1263V287.8ZM98.1263 283.84H99.7663V288.22H98.1263V283.84ZM95.5263 282.22L95.3463 280.86C98.5663 280.86 103.006 280.78 106.666 280.28L106.786 281.48C103.026 282.14 98.7063 282.22 95.5263 282.22ZM114.625 281H115.925C119.345 281 121.185 280.94 123.445 280.54L123.605 281.9C121.305 282.3 119.405 282.38 115.925 282.38H114.625V281ZM114.585 272.76H122.365V278.06H116.265V281.82H114.625V276.74H120.725V274.1H114.585V272.76ZM127.085 271.5H128.745V284.8H127.085V271.5ZM123.585 274.52H127.485V275.86H123.585V274.52ZM117.065 287.72H129.305V289.08H117.065V287.72ZM117.065 283.82H118.705V288.32H117.065V283.82ZM123.585 278.58H127.485V279.94H123.585V278.58ZM137.908 285.86H154.288V287.24H137.908V285.86ZM145.268 281.48H146.908V286.32H145.268V281.48ZM145.228 273.76H146.628V274.88C146.628 278.58 142.928 281.38 139.368 282.12L138.688 280.8C141.808 280.28 145.228 277.74 145.228 274.88V273.76ZM145.528 273.76H146.928V274.88C146.928 277.74 150.368 280.22 153.528 280.74L152.868 282.06C149.248 281.34 145.528 278.58 145.528 274.88V273.76ZM139.248 273.12H152.908V274.48H139.248V273.12ZM165.307 276.5H170.267V277.84H165.307V276.5ZM169.507 271.5H171.167V284.8H169.507V271.5ZM159.627 287.8H171.667V289.16H159.627V287.8ZM159.627 283.46H161.287V288.38H159.627V283.46ZM161.227 272.64C163.887 272.64 165.887 274.5 165.887 277.12C165.887 279.74 163.887 281.6 161.227 281.6C158.567 281.6 156.567 279.74 156.567 277.12C156.567 274.5 158.567 272.64 161.227 272.64ZM161.227 274.1C159.467 274.1 158.167 275.34 158.167 277.12C158.167 278.9 159.467 280.14 161.227 280.14C162.967 280.14 164.287 278.9 164.287 277.12C164.287 275.34 162.967 274.1 161.227 274.1ZM174.685 282.18H191.085V283.54H174.685V282.18ZM182.005 282.82H183.645V289.56H182.005V282.82ZM176.745 272.2H178.405V274.68H187.345V272.2H188.985V280.02H176.745V272.2ZM178.405 276.02V278.68H187.345V276.02H178.405ZM206.344 271.46H207.984V289.58H206.344V271.46ZM202.584 278.28H206.584V279.66H202.584V278.28ZM193.924 283.86H195.304C198.704 283.86 200.844 283.8 203.384 283.32L203.544 284.68C200.944 285.14 198.744 285.24 195.304 285.24H193.924V283.86ZM193.924 273.12H202.284V274.5H195.564V284.34H193.924V273.12ZM195.144 278.2H201.504V279.54H195.144V278.2ZM219.067 273.24H230.547V274.6H219.067V273.24ZM217.107 285.74H233.447V287.1H217.107V285.74ZM229.867 273.24H231.487V274.96C231.487 277.16 231.487 279.64 230.747 283.34L229.087 283.14C229.867 279.64 229.867 277.1 229.867 274.96V273.24ZM230.227 277.58V278.84L218.827 279.48L218.567 278.04L230.227 277.58ZM223.467 281.06H225.127V286.24H223.467V281.06ZM237.585 280.14H250.005V281.5H237.585V280.14ZM235.525 285.74H251.905V287.12H235.525V285.74ZM237.585 273.14H249.825V274.52H239.245V280.74H237.585V273.14ZM272.709 271.46H274.369V289.58H272.709V271.46ZM260.589 283.84H262.089C265.109 283.84 267.809 283.72 271.009 283.2L271.189 284.56C267.909 285.1 265.189 285.22 262.089 285.22H260.589V283.84ZM260.549 273.16H268.909V279.62H262.249V284.36H260.589V278.26H267.229V274.52H260.549V273.16ZM282.047 282.26H283.707V289.56H282.047V282.26ZM288.507 282.26H290.187V289.56H288.507V282.26ZM277.927 282.04H294.327V283.4H277.927V282.04ZM279.987 272.18H281.647V274.6H290.587V272.18H292.227V279.92H279.987V272.18ZM281.647 275.96V278.54H290.587V275.96H281.647ZM308.886 271.48H310.526V289.56H308.886V271.48ZM310.006 278.92H313.226V280.32H310.006V278.92ZM300.226 273.42H301.746C301.746 277.78 300.826 282 297.586 285.5L296.246 284.56C299.226 281.46 300.226 277.7 300.226 273.6V273.42ZM296.826 273.42H300.846V274.8H296.826V273.42ZM305.146 273.42H306.686C306.686 277.8 306.066 282.76 302.746 286.7L301.406 285.78C304.466 282.24 305.146 277.76 305.146 273.58V273.42ZM302.326 273.42H305.826V274.8H302.326V273.42ZM319.524 274.06H320.864V277C320.864 280.82 318.564 284.66 315.684 286.08L314.724 284.76C317.344 283.52 319.524 280.12 319.524 277V274.06ZM319.844 274.06H321.184V277C321.184 280.06 323.364 283.18 326.024 284.32L325.084 285.64C322.164 284.28 319.844 280.76 319.844 277V274.06ZM315.324 273.32H325.424V274.72H315.324V273.32ZM327.864 271.48H329.524V289.56H327.864V271.48ZM335.893 273.455L335.751 283.909H334.103L333.961 273.455H335.893ZM334.927 288.114C334.576 288.114 334.276 287.988 334.025 287.737C333.774 287.486 333.648 287.186 333.648 286.835C333.648 286.485 333.774 286.184 334.025 285.933C334.276 285.682 334.576 285.557 334.927 285.557C335.277 285.557 335.578 285.682 335.829 285.933C336.08 286.184 336.205 286.485 336.205 286.835C336.205 287.067 336.146 287.28 336.028 287.474C335.914 287.669 335.76 287.825 335.566 287.943C335.376 288.057 335.163 288.114 334.927 288.114ZM56.9955 301.5H58.6755V311.76H56.9955V301.5ZM46.9955 312.8H58.6755V319.32H46.9955V312.8ZM57.0355 314.12H48.6155V317.98H57.0355V314.12ZM48.5555 302.18H49.9355V303.94C49.9355 307.3 47.8555 310.18 44.7955 311.32L43.9755 310C46.6955 309.02 48.5555 306.58 48.5555 303.94V302.18ZM48.8555 302.18H50.2155V303.94C50.2155 306.5 52.0955 308.76 54.7755 309.66L53.9555 310.96C50.9355 309.92 48.8555 307.22 48.8555 303.94V302.18ZM64.3139 309.92H76.7339V311.28H64.3139V309.92ZM62.2539 315.9H78.6339V317.3H62.2539V315.9ZM69.5739 310.5H71.2339V316.46H69.5739V310.5ZM64.3139 302.92H76.5539V304.28H65.9739V310.52H64.3139V302.92ZM94.1173 302.72H95.8773C95.8773 307.28 92.5373 310.4 87.2573 311.7L86.5973 310.38C91.3373 309.24 94.1173 306.72 94.1173 303.52V302.72ZM87.4973 302.72H95.0373V304.06H87.4973V302.72ZM99.4173 301.48H101.077V311.38H99.4173V301.48ZM89.2973 312.38H101.357V313.72H89.2973V312.38ZM89.1173 317.94H101.557V319.28H89.1173V317.94ZM91.7573 313.02H93.3973V318.6H91.7573V313.02ZM97.2573 313.02H98.8973V318.6H97.2573V313.02ZM104.656 310.98H120.996V312.34H104.656V310.98ZM106.776 317.8H119.196V319.16H106.776V317.8ZM106.776 313.92H108.436V318.22H106.776V313.92ZM112.836 302.08C116.696 302.08 119.196 303.44 119.196 305.7C119.196 307.94 116.696 309.3 112.836 309.3C108.956 309.3 106.476 307.94 106.476 305.7C106.476 303.44 108.956 302.08 112.836 302.08ZM112.836 303.44C109.996 303.44 108.176 304.28 108.176 305.7C108.176 307.12 109.996 307.96 112.836 307.96C115.676 307.96 117.496 307.12 117.496 305.7C117.496 304.28 115.676 303.44 112.836 303.44ZM134.319 303.455V318H132.557V305.301H132.472L128.921 307.659V305.869L132.557 303.455H134.319ZM139.752 316.139C139.401 316.139 139.101 316.014 138.85 315.763C138.599 315.512 138.473 315.211 138.473 314.861C138.473 314.51 138.599 314.21 138.85 313.959C139.101 313.708 139.401 313.582 139.752 313.582C140.102 313.582 140.403 313.708 140.654 313.959C140.905 314.21 141.03 314.51 141.03 314.861C141.03 315.093 140.971 315.306 140.853 315.5C140.739 315.694 140.585 315.85 140.391 315.969C140.202 316.082 139.989 316.139 139.752 316.139ZM139.752 308.781C139.401 308.781 139.101 308.656 138.85 308.405C138.599 308.154 138.473 307.853 138.473 307.503C138.473 307.152 138.599 306.852 138.85 306.601C139.101 306.35 139.401 306.224 139.752 306.224C140.102 306.224 140.403 306.35 140.654 306.601C140.905 306.852 141.03 307.152 141.03 307.503C141.03 307.735 140.971 307.948 140.853 308.142C140.739 308.336 140.585 308.492 140.391 308.611C140.202 308.724 139.989 308.781 139.752 308.781ZM149.123 303.455V318H147.362V305.301H147.277L143.725 307.659V305.869L147.362 303.455H149.123ZM172.166 301.48H173.766V319.56H172.166V301.48ZM169.106 308.72H172.586V310.1H169.106V308.72ZM168.066 301.88H169.626V318.64H168.066V301.88ZM159.066 313.72H160.246C162.886 313.72 164.686 313.62 166.786 313.18L166.946 314.56C164.786 315.02 162.966 315.1 160.246 315.1H159.066V313.72ZM159.066 303.68H165.786V305.04H160.706V314.34H159.066V303.68ZM181.504 312.26H183.164V315.2H181.504V312.26ZM189.104 301.48H190.764V319.56H189.104V301.48ZM190.224 309.16H193.564V310.56H190.224V309.16ZM176.844 316.12L176.604 314.74C179.844 314.74 184.264 314.7 188.004 314.16L188.144 315.4C184.244 316.1 180.004 316.12 176.844 316.12ZM176.904 303.66H187.724V305H176.904V303.66ZM182.324 306.06C184.844 306.06 186.584 307.38 186.584 309.4C186.584 311.44 184.844 312.74 182.324 312.74C179.804 312.74 178.084 311.44 178.084 309.4C178.084 307.38 179.804 306.06 182.324 306.06ZM182.324 307.34C180.704 307.34 179.644 308.16 179.644 309.4C179.644 310.64 180.704 311.46 182.324 311.46C183.944 311.46 185.024 310.64 185.024 309.4C185.024 308.16 183.944 307.34 182.324 307.34ZM181.504 301.5H183.164V304.56H181.504V301.5ZM195.203 309.88H211.603V311.14H195.203V309.88ZM197.143 312.6H209.543V316.46H198.843V318.58H197.203V315.32H207.923V313.78H197.143V312.6ZM197.203 318.14H210.123V319.34H197.203V318.14ZM197.283 302H209.483V305.76H198.963V307.72H197.323V304.64H207.863V303.18H197.283V302ZM197.323 307.32H209.823V308.52H197.323V307.32ZM227.886 304.8H232.726V306.16H227.886V304.8ZM227.726 308.56H232.606V309.92H227.726V308.56ZM232.446 301.48H234.106V312.32H232.446V301.48ZM226.786 302.84H228.566C228.566 307.5 225.346 310.76 220.146 312.32L219.466 310.98C224.086 309.64 226.786 306.98 226.786 303.56V302.84ZM220.406 302.84H227.926V304.2H220.406V302.84ZM228.226 312.52C231.886 312.52 234.206 313.82 234.206 316C234.206 318.18 231.886 319.48 228.226 319.48C224.566 319.48 222.246 318.18 222.246 316C222.246 313.82 224.566 312.52 228.226 312.52ZM228.226 313.82C225.586 313.82 223.886 314.64 223.886 316C223.886 317.36 225.586 318.16 228.226 318.16C230.886 318.16 232.586 317.36 232.586 316C232.586 314.64 230.886 313.82 228.226 313.82ZM250.845 301.48H252.505V312.42H250.845V301.48ZM247.845 306.96H251.585V308.34H247.845V306.96ZM240.785 313.38H252.505V319.32H240.785V313.38ZM250.885 314.72H242.405V317.98H250.885V314.72ZM237.665 303.36H248.125V304.7H237.665V303.36ZM242.885 305.62C245.325 305.62 247.065 306.94 247.065 308.86C247.065 310.78 245.325 312.06 242.885 312.06C240.445 312.06 238.705 310.78 238.705 308.86C238.705 306.94 240.445 305.62 242.885 305.62ZM242.885 306.9C241.365 306.9 240.285 307.68 240.285 308.86C240.285 310.02 241.365 310.8 242.885 310.8C244.405 310.8 245.485 310.02 245.485 308.86C245.485 307.68 244.405 306.9 242.885 306.9ZM242.065 301.3H243.725V304.32H242.065V301.3ZM256.003 304.56H264.963V305.92H256.003V304.56ZM260.483 307.12C262.743 307.12 264.383 308.82 264.383 311.26C264.383 313.68 262.743 315.38 260.483 315.38C258.243 315.38 256.603 313.68 256.603 311.26C256.603 308.82 258.243 307.12 260.483 307.12ZM260.483 308.54C259.103 308.54 258.103 309.66 258.103 311.26C258.103 312.86 259.103 313.98 260.483 313.98C261.883 313.98 262.903 312.86 262.903 311.26C262.903 309.66 261.883 308.54 260.483 308.54ZM269.743 301.48H271.343V319.56H269.743V301.48ZM266.863 309.08H270.283V310.46H266.863V309.08ZM265.883 301.88H267.443V318.68H265.883V301.88ZM259.683 302H261.323V305.4H259.683V302ZM274.441 315.88H290.821V317.26H274.441V315.88ZM281.761 311.56H283.421V316.28H281.761V311.56ZM276.361 302.76H278.001V305.98H287.221V302.76H288.861V312H276.361V302.76ZM278.001 307.32V310.64H287.221V307.32H278.001ZM299.96 307.94H303.42V309.32H299.96V307.94ZM296.58 303.18H297.88V306.62C297.88 310.4 296.3 314.06 293.66 315.68L292.62 314.42C295.1 312.96 296.58 309.72 296.58 306.62V303.18ZM296.9 303.18H298.18V306.56C298.18 309.46 299.54 312.54 301.92 313.98L300.96 315.28C298.36 313.68 296.9 310.08 296.9 306.56V303.18ZM306.6 301.48H308.2V319.56H306.6V301.48ZM302.94 301.86H304.5V318.66H302.94V301.86ZM315.238 310.78H316.878V316.2H315.238V310.78ZM321.918 310.78H323.578V316.2H321.918V310.78ZM311.238 315.88H327.618V317.26H311.238V315.88ZM319.398 302.62C323.218 302.62 325.958 304.44 325.958 307.28C325.958 310.1 323.218 311.92 319.398 311.92C315.558 311.92 312.818 310.1 312.818 307.28C312.818 304.44 315.558 302.62 319.398 302.62ZM319.398 303.94C316.498 303.94 314.418 305.26 314.418 307.28C314.418 309.28 316.498 310.6 319.398 310.6C322.298 310.6 324.358 309.28 324.358 307.28C324.358 305.26 322.298 303.94 319.398 303.94ZM331.392 318.114C331.042 318.114 330.741 317.988 330.49 317.737C330.239 317.486 330.114 317.186 330.114 316.835C330.114 316.485 330.239 316.184 330.49 315.933C330.741 315.682 331.042 315.557 331.392 315.557C331.743 315.557 332.043 315.682 332.294 315.933C332.545 316.184 332.671 316.485 332.671 316.835C332.671 317.067 332.612 317.28 332.493 317.474C332.38 317.669 332.226 317.825 332.032 317.943C331.842 318.057 331.629 318.114 331.392 318.114Z" fill="white"/>
<path d="M123.868 391.84H127.388V393.22H123.868V391.84ZM123.868 397.34H127.388V398.72H123.868V397.34ZM130.428 387.48H132.028V405.56H130.428V387.48ZM126.888 387.86H128.448V404.66H126.888V387.86ZM120.728 388.98C123.068 388.98 124.588 391.4 124.588 395.28C124.588 399.16 123.068 401.58 120.728 401.58C118.388 401.58 116.888 399.16 116.888 395.28C116.888 391.4 118.388 388.98 120.728 388.98ZM120.728 390.52C119.308 390.52 118.388 392.36 118.388 395.28C118.388 398.2 119.308 400.04 120.728 400.04C122.168 400.04 123.068 398.2 123.068 395.28C123.068 392.36 122.168 390.52 120.728 390.52ZM148.586 390.22H151.726V391.62H148.586V390.22ZM148.586 394.1H151.726V395.48H148.586V394.1ZM147.426 387.48H149.086V398.22H147.426V387.48ZM137.346 399.08H149.086V405.56H147.426V400.42H137.346V399.08ZM140.106 388.54C142.826 388.54 144.826 390.3 144.826 392.84C144.826 395.36 142.826 397.1 140.106 397.1C137.386 397.1 135.386 395.36 135.386 392.84C135.386 390.3 137.386 388.54 140.106 388.54ZM140.106 389.96C138.306 389.96 137.006 391.12 137.006 392.84C137.006 394.54 138.306 395.72 140.106 395.72C141.906 395.72 143.206 394.54 143.206 392.84C143.206 391.12 141.906 389.96 140.106 389.96ZM163.85 389.04H165.21V392.28C165.21 396.44 162.97 400.3 160.01 401.8L158.99 400.44C161.67 399.16 163.85 395.7 163.85 392.28V389.04ZM164.13 389.04H165.49V392.28C165.49 395.58 167.65 398.9 170.33 400.14L169.33 401.46C166.39 400.02 164.13 396.3 164.13 392.28V389.04ZM172.21 387.46H173.87V405.58H172.21V387.46ZM189.848 387.48H191.508V400.7H189.848V387.48ZM190.988 392.96H194.188V394.34H190.988V392.96ZM184.908 388.88H186.668C186.668 393.56 183.388 396.98 178.208 398.64L177.488 397.28C182.048 395.88 184.908 393.08 184.908 389.6V388.88ZM178.228 388.88H185.748V390.24H178.228V388.88ZM180.228 403.8H192.308V405.16H180.228V403.8ZM180.228 399.36H181.888V404.34H180.228V399.36ZM209.007 387.46H210.667V405.58H209.007V387.46ZM201.127 388.86C203.807 388.86 205.727 391.32 205.727 395.16C205.727 399.02 203.807 401.48 201.127 401.48C198.467 401.48 196.547 399.02 196.547 395.16C196.547 391.32 198.467 388.86 201.127 388.86ZM201.127 390.36C199.367 390.36 198.127 392.24 198.127 395.16C198.127 398.1 199.367 400.02 201.127 400.02C202.907 400.02 204.127 398.1 204.127 395.16C204.127 392.24 202.907 390.36 201.127 390.36ZM221.33 395.26H230.59V396.62H221.33V395.26ZM225.03 396.34H226.71V400.5H225.03V396.34ZM221.33 389.18H230.49V390.54H222.99V395.74H221.33V389.18ZM232.97 387.46H234.63V405.58H232.97V387.46ZM220.23 401.66L219.99 400.28C223.53 400.26 227.97 400.22 231.79 399.76L231.93 401C227.97 401.6 223.65 401.68 220.23 401.66ZM246.969 390.66H252.029V392.02H246.969V390.66ZM246.969 394.52H252.069V395.9H246.969V394.52ZM239.129 389.04H247.389V397.52H239.129V389.04ZM245.749 390.38H240.749V396.18H245.749V390.38ZM251.509 387.5H253.169V400.7H251.509V387.5ZM241.549 403.8H253.609V405.16H241.549V403.8ZM241.549 399.5H243.209V404.42H241.549V399.5ZM75.418 419.36H77.018C77.018 424.58 75.218 429.38 68.858 432.58L67.918 431.3C73.498 428.5 75.418 424.48 75.418 419.54V419.36ZM68.898 419.36H76.418V420.7H68.898V419.36ZM75.318 423.84V425.1L68.258 425.76L67.978 424.32L75.318 423.84ZM81.118 417.48H82.778V435.56H81.118V417.48ZM76.978 424.72H81.918V426.1H76.978V424.72ZM99.4764 417.48H101.136V435.56H99.4764V417.48ZM86.7564 419.42H96.9964V420.78H86.7564V419.42ZM86.4764 431.1L86.2764 429.68C89.6364 429.68 94.0764 429.64 97.9164 429.18L98.0164 430.4C94.1164 431.02 89.7764 431.08 86.4764 431.1ZM88.7564 420.44H90.3564V430.06H88.7564V420.44ZM93.3764 420.44H94.9964V430.06H93.3764V420.44ZM108.475 420.74H109.735V421.24C109.735 424.1 108.275 426.84 105.655 427.98L104.855 426.72C107.135 425.74 108.475 423.48 108.475 421.24V420.74ZM108.795 420.74H110.035V421.24C110.035 423.32 111.435 425.42 113.695 426.32L112.915 427.56C110.275 426.52 108.795 423.96 108.795 421.24V420.74ZM105.195 419.88H113.255V421.2H105.195V419.88ZM108.475 417.76H110.035V420.48H108.475V417.76ZM118.355 417.5H119.935V429.72H118.355V417.5ZM115.515 422.08H118.935V423.46H115.515V422.08ZM114.515 417.8H116.075V428.16H114.515V417.8ZM113.115 428.98H114.515V429.4C114.515 432.58 111.255 434.86 107.615 435.5L106.995 434.2C110.175 433.7 113.115 431.74 113.115 429.4V428.98ZM113.335 428.98H114.755V429.4C114.755 431.74 117.695 433.7 120.875 434.2L120.255 435.5C116.615 434.86 113.335 432.58 113.335 429.4V428.98ZM130.433 424.5H133.853V425.88H130.433V424.5ZM136.873 417.48H138.473V435.56H136.873V417.48ZM133.293 417.86H134.873V434.66H133.293V417.86ZM127.173 418.98C129.513 418.98 131.033 421.4 131.033 425.28C131.033 429.16 129.513 431.58 127.173 431.58C124.833 431.58 123.333 429.16 123.333 425.28C123.333 421.4 124.833 418.98 127.173 418.98ZM127.173 420.52C125.753 420.52 124.853 422.36 124.853 425.28C124.853 428.2 125.753 430.04 127.173 430.04C128.613 430.04 129.513 428.2 129.513 425.28C129.513 422.36 128.613 420.52 127.173 420.52ZM160.277 417.48H161.957V427.18H160.277V417.48ZM150.297 428.08H151.937V430.28H160.317V428.08H161.957V435.32H150.297V428.08ZM151.937 431.6V433.98H160.317V431.6H151.937ZM152.257 418.34C154.997 418.34 156.957 420.04 156.957 422.5C156.957 424.98 154.997 426.68 152.257 426.68C149.517 426.68 147.537 424.98 147.537 422.5C147.537 420.04 149.517 418.34 152.257 418.34ZM152.257 419.72C150.457 419.72 149.157 420.86 149.157 422.5C149.157 424.14 150.457 425.28 152.257 425.28C154.057 425.28 155.357 424.14 155.357 422.5C155.357 420.86 154.057 419.72 152.257 419.72ZM169.975 419.42H171.335V420.88C171.335 424.2 169.335 426.98 166.295 428.08L165.455 426.76C168.175 425.8 169.975 423.46 169.975 420.88V419.42ZM170.275 419.42H171.635V420.86C171.635 423.22 173.355 425.34 176.015 426.22L175.215 427.52C172.195 426.52 170.275 423.94 170.275 420.86V419.42ZM165.955 418.82H175.615V420.18H165.955V418.82ZM177.895 417.48H179.555V428.38H177.895V417.48ZM179.095 422.06H182.235V423.46H179.095V422.06ZM173.795 428.86C177.475 428.86 179.735 430.08 179.735 432.18C179.735 434.3 177.475 435.52 173.795 435.52C170.115 435.52 167.855 434.3 167.855 432.18C167.855 430.08 170.115 428.86 173.795 428.86ZM173.795 430.2C171.115 430.2 169.475 430.92 169.475 432.18C169.475 433.46 171.115 434.22 173.795 434.22C176.475 434.22 178.115 433.46 178.115 432.18C178.115 430.92 176.475 430.2 173.795 430.2ZM196.294 417.42H197.954V427.4H196.294V417.42ZM197.254 421.76H200.634V423.16H197.254V421.76ZM186.474 428.32H197.954V432.36H188.154V434.56H186.514V431.16H196.334V429.58H186.474V428.32ZM186.514 434.08H198.614V435.36H186.514V434.08ZM183.974 419.1H194.654V420.4H183.974V419.1ZM189.314 421.2C191.914 421.2 193.634 422.34 193.634 424.18C193.634 426 191.914 427.12 189.314 427.12C186.674 427.12 184.974 426 184.974 424.18C184.974 422.34 186.674 421.2 189.314 421.2ZM189.314 422.42C187.634 422.42 186.554 423.1 186.554 424.18C186.554 425.24 187.634 425.92 189.314 425.92C190.974 425.92 192.054 425.24 192.054 424.18C192.054 423.1 190.974 422.42 189.314 422.42ZM188.474 417.28H190.134V420H188.474V417.28ZM215.257 418.12H216.717V419.12C216.717 422.58 213.197 425.06 209.437 425.7L208.777 424.36C212.077 423.86 215.257 421.7 215.257 419.12V418.12ZM215.557 418.12H216.997V419.12C216.997 421.64 220.217 423.86 223.477 424.36L222.817 425.7C219.097 425.06 215.557 422.54 215.557 419.12V418.12ZM215.257 428.68H216.897V435.56H215.257V428.68ZM207.957 427.66H224.297V429.04H207.957V427.66ZM236.48 428.6H237.76V429.58C237.76 431.94 236.28 434.32 233.68 435.32L232.84 434.08C235.12 433.26 236.48 431.32 236.48 429.58V428.6ZM236.84 428.6H238.08V429.58C238.08 431.4 239.16 433.34 241.32 434.22L240.62 435.48C238.02 434.46 236.84 431.98 236.84 429.58V428.6ZM243.16 428.6H244.4V429.58C244.4 431.7 243.2 434.38 240.62 435.48L239.92 434.22C242.06 433.24 243.16 431.14 243.16 429.58V428.6ZM243.5 428.6H244.78V429.58C244.78 431.44 246.12 433.3 248.42 434.08L247.58 435.32C244.94 434.36 243.5 432.08 243.5 429.58V428.6ZM245.12 417.5H246.8V427.82H245.12V417.5ZM237.1 418.54C239.84 418.54 241.8 420.26 241.8 422.76C241.8 425.26 239.84 426.96 237.1 426.96C234.36 426.96 232.38 425.26 232.38 422.76C232.38 420.26 234.36 418.54 237.1 418.54ZM237.1 419.92C235.3 419.92 234 421.08 234 422.76C234 424.44 235.3 425.58 237.1 425.58C238.9 425.58 240.2 424.44 240.2 422.76C240.2 421.08 238.9 419.92 237.1 419.92ZM252.439 428.32H254.079V430.42H262.919V428.32H264.579V435.32H252.439V428.32ZM254.079 431.7V433.98H262.919V431.7H254.079ZM250.359 425.72H266.699V427.06H250.359V425.72ZM257.699 417.68H259.119V418.48C259.119 421.62 255.619 423.88 251.899 424.44L251.299 423.14C254.559 422.7 257.699 420.76 257.699 418.48V417.68ZM257.959 417.68H259.379V418.48C259.379 420.72 262.559 422.7 265.779 423.14L265.159 424.44C261.479 423.88 257.959 421.58 257.959 418.48V417.68ZM281.917 417.48H283.577V435.56H281.917V417.48ZM269.917 419.24H271.557V430.44H269.917V419.24ZM269.917 429.46H271.397C274.137 429.46 276.997 429.26 280.057 428.62L280.257 430.04C277.117 430.68 274.257 430.9 271.397 430.9H269.917V429.46ZM299.396 417.46H301.076V435.58H299.396V417.46ZM300.676 424.6H304.036V426H300.676V424.6ZM287.936 429.68H289.356C292.696 429.68 295.036 429.56 297.736 429.06L297.916 430.46C295.136 430.98 292.756 431.08 289.356 431.08H287.936V429.68ZM287.936 419.22H296.336V420.58H289.576V430.3H287.936V419.22ZM307.33 434.114C306.98 434.114 306.679 433.988 306.428 433.737C306.177 433.486 306.051 433.186 306.051 432.835C306.051 432.485 306.177 432.184 306.428 431.933C306.679 431.682 306.98 431.557 307.33 431.557C307.68 431.557 307.981 431.682 308.232 431.933C308.483 432.184 308.608 432.485 308.608 432.835C308.608 433.067 308.549 433.28 308.431 433.474C308.317 433.669 308.163 433.825 307.969 433.943C307.78 434.057 307.567 434.114 307.33 434.114Z" fill="white"/>
<path d="M41.534 505.84H45.054V507.22H41.534V505.84ZM41.534 511.34H45.054V512.72H41.534V511.34ZM48.094 501.48H49.694V519.56H48.094V501.48ZM44.554 501.86H46.114V518.66H44.554V501.86ZM38.394 502.98C40.734 502.98 42.254 505.4 42.254 509.28C42.254 513.16 40.734 515.58 38.394 515.58C36.054 515.58 34.554 513.16 34.554 509.28C34.554 505.4 36.054 502.98 38.394 502.98ZM38.394 504.52C36.974 504.52 36.054 506.36 36.054 509.28C36.054 512.2 36.974 514.04 38.394 514.04C39.834 514.04 40.734 512.2 40.734 509.28C40.734 506.36 39.834 504.52 38.394 504.52ZM66.2524 504.22H69.3924V505.62H66.2524V504.22ZM66.2524 508.1H69.3924V509.48H66.2524V508.1ZM65.0924 501.48H66.7524V512.22H65.0924V501.48ZM55.0124 513.08H66.7524V519.56H65.0924V514.42H55.0124V513.08ZM57.7724 502.54C60.4924 502.54 62.4924 504.3 62.4924 506.84C62.4924 509.36 60.4924 511.1 57.7724 511.1C55.0524 511.1 53.0524 509.36 53.0524 506.84C53.0524 504.3 55.0524 502.54 57.7724 502.54ZM57.7724 503.96C55.9724 503.96 54.6724 505.12 54.6724 506.84C54.6724 508.54 55.9724 509.72 57.7724 509.72C59.5724 509.72 60.8724 508.54 60.8724 506.84C60.8724 505.12 59.5724 503.96 57.7724 503.96ZM81.5159 503.04H82.8759V506.28C82.8759 510.44 80.6359 514.3 77.6759 515.8L76.6559 514.44C79.3359 513.16 81.5159 509.7 81.5159 506.28V503.04ZM81.7959 503.04H83.1559V506.28C83.1559 509.58 85.3159 512.9 87.9959 514.14L86.9959 515.46C84.0559 514.02 81.7959 510.3 81.7959 506.28V503.04ZM89.8759 501.46H91.5359V519.58H89.8759V501.46ZM107.514 501.48H109.174V514.7H107.514V501.48ZM108.654 506.96H111.854V508.34H108.654V506.96ZM102.574 502.88H104.334C104.334 507.56 101.054 510.98 95.8743 512.64L95.1543 511.28C99.7143 509.88 102.574 507.08 102.574 503.6V502.88ZM95.8943 502.88H103.414V504.24H95.8943V502.88ZM97.8943 517.8H109.974V519.16H97.8943V517.8ZM97.8943 513.36H99.5543V518.34H97.8943V513.36ZM121.713 502.62C125.473 502.62 128.273 504.62 128.273 507.62C128.273 510.64 125.473 512.62 121.713 512.62C117.953 512.62 115.133 510.64 115.133 507.62C115.133 504.62 117.953 502.62 121.713 502.62ZM121.713 503.98C118.853 503.98 116.733 505.44 116.733 507.62C116.733 509.78 118.853 511.26 121.713 511.26C124.573 511.26 126.693 509.78 126.693 507.62C126.693 505.44 124.573 503.98 121.713 503.98ZM113.553 515.78H129.933V517.18H113.553V515.78ZM131.951 515.96H148.331V517.34H131.951V515.96ZM139.271 512.08H140.931V516.54H139.271V512.08ZM133.931 502.82H146.311V508.3H135.631V511.92H133.991V506.96H144.671V504.16H133.931V502.82ZM133.991 511.22H146.731V512.58H133.991V511.22ZM150.33 512.18H166.73V513.54H150.33V512.18ZM157.65 512.82H159.29V519.56H157.65V512.82ZM152.39 502.2H154.05V504.68H162.99V502.2H164.63V510.02H152.39V502.2ZM154.05 506.02V508.68H162.99V506.02H154.05ZM181.988 501.46H183.628V519.58H181.988V501.46ZM178.228 508.28H182.228V509.66H178.228V508.28ZM169.568 513.86H170.948C174.348 513.86 176.488 513.8 179.028 513.32L179.188 514.68C176.588 515.14 174.388 515.24 170.948 515.24H169.568V513.86ZM169.568 503.12H177.928V504.5H171.208V514.34H169.568V503.12ZM170.788 508.2H177.148V509.54H170.788V508.2ZM193.277 518V516.722L198.078 511.466C198.642 510.85 199.106 510.315 199.47 509.861C199.835 509.402 200.105 508.971 200.28 508.568C200.46 508.161 200.55 507.735 200.55 507.29C200.55 506.778 200.427 506.336 200.181 505.962C199.939 505.588 199.608 505.299 199.186 505.095C198.765 504.892 198.291 504.79 197.766 504.79C197.207 504.79 196.719 504.906 196.303 505.138C195.891 505.365 195.571 505.685 195.344 506.097C195.121 506.509 195.01 506.991 195.01 507.545H193.334C193.334 506.693 193.53 505.945 193.923 505.301C194.316 504.657 194.852 504.155 195.529 503.795C196.21 503.436 196.975 503.256 197.823 503.256C198.675 503.256 199.43 503.436 200.088 503.795C200.746 504.155 201.262 504.641 201.637 505.251C202.011 505.862 202.198 506.542 202.198 507.29C202.198 507.825 202.101 508.348 201.906 508.859C201.717 509.366 201.386 509.932 200.912 510.557C200.443 511.177 199.792 511.935 198.959 512.83L195.692 516.324V516.438H202.453V518H193.277ZM204.733 515.017V513.568L211.125 503.455H212.176V505.699H211.466L206.637 513.341V513.455H215.244V515.017H204.733ZM211.58 518V514.577V513.902V503.455H213.256V518H211.58ZM222.16 503.04H223.52V506.28C223.52 510.44 221.28 514.3 218.32 515.8L217.3 514.44C219.98 513.16 222.16 509.7 222.16 506.28V503.04ZM222.44 503.04H223.8V506.28C223.8 509.58 225.96 512.9 228.64 514.14L227.64 515.46C224.7 514.02 222.44 510.3 222.44 506.28V503.04ZM230.52 501.46H232.18V519.58H230.52V501.46ZM248.159 501.48H249.819V514.7H248.159V501.48ZM249.299 506.96H252.499V508.34H249.299V506.96ZM243.219 502.88H244.979C244.979 507.56 241.699 510.98 236.519 512.64L235.799 511.28C240.359 509.88 243.219 507.08 243.219 503.6V502.88ZM236.539 502.88H244.059V504.24H236.539V502.88ZM238.539 517.8H250.619V519.16H238.539V517.8ZM238.539 513.36H240.199V518.34H238.539V513.36ZM273.542 501.48H275.142V519.56H273.542V501.48ZM270.502 508.84H273.982V510.2H270.502V508.84ZM269.442 501.88H271.002V518.64H269.442V501.88ZM260.682 503.66H262.342V514.1H260.682V503.66ZM260.682 513.44H261.842C263.702 513.44 265.782 513.32 268.142 512.86L268.322 514.3C265.862 514.78 263.782 514.88 261.842 514.88H260.682V513.44ZM288.986 504.64H290.346V504.88C290.346 507.54 288.386 509.62 285.326 510.38L284.646 509.06C287.226 508.48 288.986 506.8 288.986 504.88V504.64ZM289.286 504.64H290.646V504.88C290.646 506.7 292.386 508.24 294.946 508.82L294.266 510.12C291.246 509.4 289.286 507.42 289.286 504.88V504.64ZM285.026 503.52H294.606V504.84H285.026V503.52ZM288.966 501.52H290.646V504.4H288.966V501.52ZM289.006 511.82H290.666V519.04H289.006V511.82ZM297.006 501.48H298.646V519.58H297.006V501.48ZM284.026 513.04L283.806 511.64C287.226 511.64 291.766 511.62 295.726 511.06L295.846 512.28C291.786 512.98 287.386 513.04 284.026 513.04ZM302.244 515.84H318.624V517.22H302.244V515.84ZM309.524 511.46H311.164V516.3H309.524V511.46ZM309.484 502.68H310.924V504.08C310.924 507.94 307.224 510.92 303.584 511.68L302.884 510.3C306.064 509.72 309.484 507.06 309.484 504.08V502.68ZM309.784 502.68H311.224V504.08C311.224 507.08 314.664 509.72 317.844 510.3L317.124 511.68C313.484 510.92 309.784 507.94 309.784 504.08V502.68ZM331.028 503.04H332.388V506.28C332.388 510.44 330.148 514.3 327.188 515.8L326.168 514.44C328.848 513.16 331.028 509.7 331.028 506.28V503.04ZM331.308 503.04H332.668V506.28C332.668 509.58 334.828 512.9 337.508 514.14L336.508 515.46C333.568 514.02 331.308 510.3 331.308 506.28V503.04ZM339.388 501.46H341.048V519.58H339.388V501.46ZM81.678 531.48H83.278V549.56H81.678V531.48ZM78.818 538.74H82.278V540.12H78.818V538.74ZM77.758 531.88H79.318V548.64H77.758V531.88ZM68.078 533.74H76.438V535.1H68.078V533.74ZM67.918 545.12L67.718 543.72C70.098 543.72 74.018 543.64 76.778 543.28L76.898 544.5C74.038 545.04 70.278 545.12 67.918 545.12ZM69.618 534.62H71.138V544.08H69.618V534.62ZM73.378 534.62H74.898V544.08H73.378V534.62ZM87.3564 532.34H89.0164V539.58H87.3564V532.34ZM87.3564 538.68H88.7564C91.6364 538.68 94.0564 538.52 96.7564 537.98L96.9764 539.36C94.1764 539.92 91.6964 540.06 88.7564 540.06H87.3564V538.68ZM94.3964 534.48H99.9164V535.84H94.3964V534.48ZM99.5164 531.48H101.176V540.82H99.5164V531.48ZM89.5364 541.66H101.176V546.02H91.2364V548.7H89.5964V544.76H99.5364V543.02H89.5364V541.66ZM89.5964 547.98H101.816V549.32H89.5964V547.98ZM105.855 543.84H107.295C110.675 543.84 113.035 543.74 115.815 543.28L115.975 544.62C113.135 545.12 110.735 545.22 107.295 545.22H105.855V543.84ZM105.855 533.12H114.615V534.5H107.495V544.32H105.855V533.12ZM107.095 538.18H113.955V539.52H107.095V538.18ZM117.875 531.48H119.535V549.56H117.875V531.48ZM135.333 531.46H137.013V549.56H135.333V531.46ZM136.553 538.8H139.893V540.18H136.553V538.8ZM130.713 533.42H132.333C132.333 538.56 129.973 543.2 124.133 546.14L123.213 544.86C128.213 542.32 130.713 538.46 130.713 533.68V533.42ZM124.053 533.42H131.573V534.78H124.053V533.42ZM147.117 542.18H163.517V543.54H147.117V542.18ZM154.437 542.82H156.077V549.56H154.437V542.82ZM149.177 532.2H150.837V534.68H159.777V532.2H161.417V540.02H149.177V532.2ZM150.837 536.02V538.68H159.777V536.02H150.837ZM173.675 535.5H179.135V536.88H173.675V535.5ZM173.675 541.22H179.135V542.6H173.675V541.22ZM170.355 532.86C172.975 532.86 174.855 535.32 174.855 539.16C174.855 543.02 172.975 545.48 170.355 545.48C167.715 545.48 165.855 543.02 165.855 539.16C165.855 535.32 167.715 532.86 170.355 532.86ZM170.355 534.36C168.615 534.36 167.415 536.24 167.415 539.16C167.415 542.1 168.615 544.02 170.355 544.02C172.095 544.02 173.295 542.1 173.295 539.16C173.295 536.24 172.095 534.36 170.355 534.36ZM178.775 531.46H180.415V549.58H178.775V531.46ZM185.654 536.22H194.334V537.5H185.654V536.22ZM185.654 532.24H194.134V533.54H187.354V536.8H185.654V532.24ZM189.114 536.94H190.774V539.96H189.114V536.94ZM197.094 531.48H198.754V541.2H197.094V531.48ZM184.254 540.78L184.034 539.46C187.534 539.44 191.954 539.36 195.694 538.94L195.794 540.1C191.954 540.66 187.654 540.78 184.254 540.78ZM186.834 542.02H198.754V546.24H188.494V548.56H186.854V544.98H197.134V543.34H186.834V542.02ZM186.854 548.04H199.374V549.36H186.854V548.04ZM215.257 532.12H216.717V533.12C216.717 536.58 213.197 539.06 209.437 539.7L208.777 538.36C212.077 537.86 215.257 535.7 215.257 533.12V532.12ZM215.557 532.12H216.997V533.12C216.997 535.64 220.217 537.86 223.477 538.36L222.817 539.7C219.097 539.06 215.557 536.54 215.557 533.12V532.12ZM215.257 542.68H216.897V549.56H215.257V542.68ZM207.957 541.66H224.297V543.04H207.957V541.66ZM236.48 542.6H237.76V543.58C237.76 545.94 236.28 548.32 233.68 549.32L232.84 548.08C235.12 547.26 236.48 545.32 236.48 543.58V542.6ZM236.84 542.6H238.08V543.58C238.08 545.4 239.16 547.34 241.32 548.22L240.62 549.48C238.02 548.46 236.84 545.98 236.84 543.58V542.6ZM243.16 542.6H244.4V543.58C244.4 545.7 243.2 548.38 240.62 549.48L239.92 548.22C242.06 547.24 243.16 545.14 243.16 543.58V542.6ZM243.5 542.6H244.78V543.58C244.78 545.44 246.12 547.3 248.42 548.08L247.58 549.32C244.94 548.36 243.5 546.08 243.5 543.58V542.6ZM245.12 531.5H246.8V541.82H245.12V531.5ZM237.1 532.54C239.84 532.54 241.8 534.26 241.8 536.76C241.8 539.26 239.84 540.96 237.1 540.96C234.36 540.96 232.38 539.26 232.38 536.76C232.38 534.26 234.36 532.54 237.1 532.54ZM237.1 533.92C235.3 533.92 234 535.08 234 536.76C234 538.44 235.3 539.58 237.1 539.58C238.9 539.58 240.2 538.44 240.2 536.76C240.2 535.08 238.9 533.92 237.1 533.92ZM252.439 542.32H254.079V544.42H262.919V542.32H264.579V549.32H252.439V542.32ZM254.079 545.7V547.98H262.919V545.7H254.079ZM250.359 539.72H266.699V541.06H250.359V539.72ZM257.699 531.68H259.119V532.48C259.119 535.62 255.619 537.88 251.899 538.44L251.299 537.14C254.559 536.7 257.699 534.76 257.699 532.48V531.68ZM257.959 531.68H259.379V532.48C259.379 534.72 262.559 536.7 265.779 537.14L265.159 538.44C261.479 537.88 257.959 535.58 257.959 532.48V531.68ZM281.917 531.48H283.577V549.56H281.917V531.48ZM269.917 533.24H271.557V544.44H269.917V533.24ZM269.917 543.46H271.397C274.137 543.46 276.997 543.26 280.057 542.62L280.257 544.04C277.117 544.68 274.257 544.9 271.397 544.9H269.917V543.46ZM299.396 531.46H301.076V549.58H299.396V531.46ZM300.676 538.6H304.036V540H300.676V538.6ZM287.936 543.68H289.356C292.696 543.68 295.036 543.56 297.736 543.06L297.916 544.46C295.136 544.98 292.756 545.08 289.356 545.08H287.936V543.68ZM287.936 533.22H296.336V534.58H289.576V544.3H287.936V533.22ZM307.33 548.114C306.98 548.114 306.679 547.988 306.428 547.737C306.177 547.486 306.051 547.186 306.051 546.835C306.051 546.485 306.177 546.184 306.428 545.933C306.679 545.682 306.98 545.557 307.33 545.557C307.68 545.557 307.981 545.682 308.232 545.933C308.483 546.184 308.608 546.485 308.608 546.835C308.608 547.067 308.549 547.28 308.431 547.474C308.317 547.669 308.163 547.825 307.969 547.943C307.78 548.057 307.567 548.114 307.33 548.114Z" fill="white"/>
<path d="M189.936 61.6699C186.552 61.6699 183.93 64.292 183.93 67.5293C183.93 70.7666 186.552 73.3887 189.936 73.3887C193.026 73.3887 195.648 70.7666 195.648 67.5293C195.648 64.292 193.026 61.6699 189.936 61.6699ZM148.92 61.6699C145.536 61.6699 142.914 64.292 142.914 67.5293C142.914 70.7666 145.536 73.3887 148.92 73.3887C152.011 73.3887 154.633 70.7666 154.633 67.5293C154.633 64.292 152.011 61.6699 148.92 61.6699Z" fill="white"/>
<path d="M236.957 50.5368C229.911 40.8689 220.067 34.4089 209.271 31.4939V31.5085C206.767 28.7253 203.939 26.1618 200.775 23.8767C176.796 6.44503 143.134 11.7624 125.629 35.7419C111.522 55.2243 112.123 81.4304 126.508 100.049L126.625 119.472C126.625 119.941 126.698 120.41 126.845 120.849C127.621 123.325 130.258 124.687 132.719 123.911L151.264 118.066C156.171 119.809 161.239 120.805 166.278 121.084L166.205 121.142C179.257 130.649 196.366 133.506 212.055 128.32L230.673 134.384C231.142 134.531 231.625 134.619 232.123 134.619C234.716 134.619 236.811 132.524 236.811 129.931V110.302C249.716 92.7829 250.053 68.569 236.957 50.5368ZM153.314 107.666L151.557 106.933L137.055 111.474L136.908 96.2399L135.736 94.9216C123.344 79.8044 122.523 58.0222 134.125 42.0407C148.246 22.6755 175.316 18.3982 194.623 32.3728C213.988 46.4499 218.28 73.4763 204.291 92.7243C192.558 108.823 171.552 114.77 153.314 107.666ZM227.289 105.175L226.117 106.64L226.264 121.875L211.908 117.041L210.15 117.773C201.947 120.82 193.202 121.069 185.102 118.799L185.072 118.784C195.897 115.459 205.712 108.72 212.787 99.0231C223.979 83.5983 225.795 64.2185 219.291 47.695L219.379 47.7536C222.748 50.1706 225.839 53.1882 228.461 56.8357C239.096 71.4255 238.495 91.2888 227.289 105.175Z" fill="white"/>
<path d="M169.428 61.6699C166.044 61.6699 163.422 64.292 163.422 67.5293C163.422 70.7666 166.044 73.3887 169.428 73.3887C172.519 73.3887 175.141 70.7666 175.141 67.5293C175.141 64.292 172.519 61.6699 169.428 61.6699Z" fill="white"/>
</svg>
