<svg width="377" height="571" viewBox="0 0 377 571" fill="none" xmlns="http://www.w3.org/2000/svg">
<path d="M129.168 174.048H132.264C132.264 180.888 130.488 186.624 122.52 190.8L120.768 188.376C127.32 184.92 129.168 180.72 129.168 174.432V174.048ZM122.088 174.048H131.112V176.568H122.088V174.048ZM129.48 179.496V181.92L121.32 182.664L120.912 179.976L129.48 179.496ZM136.368 171.912H139.56V194.136H136.368V171.912ZM132.24 180.432H138.048V183.024H132.24V180.432ZM158.35 171.912H161.566V194.136H158.35V171.912ZM143.59 173.952H156.07V176.496H143.59V173.952ZM143.302 189.072L142.99 186.456C146.998 186.456 152.35 186.384 156.934 185.832L157.102 188.16C152.422 188.952 147.31 189.048 143.302 189.072ZM145.51 175.944H148.606V187.152H145.51V175.944ZM151.054 175.944H154.15V187.152H151.054V175.944ZM169.1 176.16H171.476V176.808C171.476 180.336 170.036 183.6 166.556 184.896L165.092 182.544C167.9 181.464 169.1 179.16 169.1 176.808V176.16ZM169.748 176.16H172.1V176.808C172.1 179.016 173.324 181.152 176.108 182.136L174.692 184.488C171.188 183.288 169.748 180.192 169.748 176.808V176.16ZM165.716 174.336H175.46V176.832H165.716V174.336ZM169.1 172.176H172.1V175.608H169.1V172.176ZM181.028 171.936H184.052V186.96H181.028V171.936ZM178.46 177.192H181.988V179.784H178.46V177.192ZM176.396 172.272H179.372V185.016H176.396V172.272ZM174.812 185.928H177.524V186.264C177.524 190.128 174.452 193.272 168.884 194.064L167.756 191.592C172.556 190.968 174.812 188.544 174.812 186.264V185.928ZM175.268 185.928H177.98V186.264C177.98 188.544 180.26 190.968 185.036 191.592L183.908 194.064C178.34 193.272 175.268 190.128 175.268 186.264V185.928ZM198.149 174.384H200.789V176.256C200.789 180.456 198.749 184.248 194.477 185.64L192.845 183.144C196.541 181.944 198.149 179.064 198.149 176.256V174.384ZM198.797 174.384H201.413V176.256C201.413 178.896 202.997 181.608 206.621 182.76L204.989 185.232C200.813 183.912 198.797 180.288 198.797 176.256V174.384ZM193.685 173.496H205.781V176.016H193.685V173.496ZM208.013 171.936H211.229V187.968H208.013V171.936ZM196.421 191.208H211.781V193.752H196.421V191.208ZM196.421 186.528H199.613V192.48H196.421V186.528ZM230.739 171.912H233.763V185.832H230.739V171.912ZM228.027 177.384H231.579V179.976H228.027V177.384ZM226.131 172.344H229.107V185.112H226.131V172.344ZM214.731 174.192H225.507V176.64H214.731V174.192ZM220.155 177.36C222.939 177.36 224.955 178.944 224.955 181.248C224.955 183.552 222.939 185.112 220.155 185.112C217.371 185.112 215.355 183.552 215.355 181.248C215.355 178.944 217.371 177.36 220.155 177.36ZM220.155 179.64C218.979 179.64 218.187 180.216 218.187 181.248C218.187 182.28 218.979 182.856 220.155 182.856C221.307 182.856 222.099 182.28 222.099 181.248C222.099 180.216 221.307 179.64 220.155 179.64ZM218.547 172.128H221.691V175.872H218.547V172.128ZM226.251 186.072C231.003 186.072 233.883 187.512 233.883 190.104C233.883 192.672 231.003 194.136 226.251 194.136C221.475 194.136 218.595 192.672 218.595 190.104C218.595 187.512 221.475 186.072 226.251 186.072ZM226.251 188.448C223.275 188.448 221.787 188.952 221.787 190.104C221.787 191.232 223.275 191.76 226.251 191.76C229.203 191.76 230.691 191.232 230.691 190.104C230.691 188.952 229.203 188.448 226.251 188.448Z" fill="white"/>
<rect x="0.5" y="252.5" width="376" height="88" rx="44" stroke="white"/>
<rect x="0.5" y="367.5" width="376" height="88" rx="44" stroke="white"/>
<rect x="0.5" y="482.5" width="376" height="88" rx="44" stroke="white"/>
<path d="M46.5 273.36H48.1C48.1 278.58 46.3 283.38 39.94 286.58L39 285.3C44.58 282.5 46.5 278.48 46.5 273.54V273.36ZM39.98 273.36H47.5V274.7H39.98V273.36ZM46.4 277.84V279.1L39.34 279.76L39.06 278.32L46.4 277.84ZM52.2 271.48H53.86V289.56H52.2V271.48ZM48.06 278.72H53V280.1H48.06V278.72ZM70.5584 271.46H72.2184V289.58H70.5584V271.46ZM58.4384 283.84H59.9384C62.9584 283.84 65.6584 283.72 68.8584 283.2L69.0384 284.56C65.7584 285.1 63.0384 285.22 59.9384 285.22H58.4384V283.84ZM58.3984 273.16H66.7584V279.62H60.0984V284.36H58.4384V278.26H65.0784V274.52H58.3984V273.16ZM80.6169 272.86C83.2369 272.86 85.1169 275.32 85.1169 279.16C85.1169 283.02 83.2369 285.48 80.6169 285.48C77.9769 285.48 76.1169 283.02 76.1169 279.16C76.1169 275.32 77.9769 272.86 80.6169 272.86ZM80.6169 274.36C78.8769 274.36 77.6969 276.24 77.6969 279.16C77.6969 282.1 78.8769 284.02 80.6169 284.02C82.3569 284.02 83.5369 282.1 83.5369 279.16C83.5369 276.24 82.3569 274.36 80.6169 274.36ZM89.0369 271.46H90.6769V289.58H89.0369V271.46ZM84.5769 278.36H89.7569V279.72H84.5769V278.36ZM100.78 272.88H108.78V274.24H100.78V272.88ZM103.5 276.92H105.14V281.44H103.5V276.92ZM108.12 272.88H109.76V273.84C109.76 275.02 109.76 276.82 109.28 279.2L107.66 279.02C108.12 276.64 108.12 275 108.12 273.84V272.88ZM112.22 271.48H113.88V285.1H112.22V271.48ZM113.12 277.36H116.46V278.74H113.12V277.36ZM102.46 287.8H114.46V289.16H102.46V287.8ZM102.46 283.84H104.1V288.22H102.46V283.84ZM99.8603 282.22L99.6803 280.86C102.9 280.86 107.34 280.78 111 280.28L111.12 281.48C107.36 282.14 103.04 282.22 99.8603 282.22ZM118.959 281H120.259C123.679 281 125.519 280.94 127.779 280.54L127.939 281.9C125.639 282.3 123.739 282.38 120.259 282.38H118.959V281ZM118.919 272.76H126.699V278.06H120.599V281.82H118.959V276.74H125.059V274.1H118.919V272.76ZM131.419 271.5H133.079V284.8H131.419V271.5ZM127.919 274.52H131.819V275.86H127.919V274.52ZM121.399 287.72H133.639V289.08H121.399V287.72ZM121.399 283.82H123.039V288.32H121.399V283.82ZM127.919 278.58H131.819V279.94H127.919V278.58ZM142.242 285.86H158.622V287.24H142.242V285.86ZM149.602 281.48H151.242V286.32H149.602V281.48ZM149.562 273.76H150.962V274.88C150.962 278.58 147.262 281.38 143.702 282.12L143.022 280.8C146.142 280.28 149.562 277.74 149.562 274.88V273.76ZM149.862 273.76H151.262V274.88C151.262 277.74 154.702 280.22 157.862 280.74L157.202 282.06C153.582 281.34 149.862 278.58 149.862 274.88V273.76ZM143.582 273.12H157.242V274.48H143.582V273.12ZM169.641 276.5H174.601V277.84H169.641V276.5ZM173.841 271.5H175.501V284.8H173.841V271.5ZM163.961 287.8H176.001V289.16H163.961V287.8ZM163.961 283.46H165.621V288.38H163.961V283.46ZM165.561 272.64C168.221 272.64 170.221 274.5 170.221 277.12C170.221 279.74 168.221 281.6 165.561 281.6C162.901 281.6 160.901 279.74 160.901 277.12C160.901 274.5 162.901 272.64 165.561 272.64ZM165.561 274.1C163.801 274.1 162.501 275.34 162.501 277.12C162.501 278.9 163.801 280.14 165.561 280.14C167.301 280.14 168.621 278.9 168.621 277.12C168.621 275.34 167.301 274.1 165.561 274.1ZM179.019 282.18H195.419V283.54H179.019V282.18ZM186.339 282.82H187.979V289.56H186.339V282.82ZM181.079 272.2H182.739V274.68H191.679V272.2H193.319V280.02H181.079V272.2ZM182.739 276.02V278.68H191.679V276.02H182.739ZM210.678 271.46H212.318V289.58H210.678V271.46ZM206.918 278.28H210.918V279.66H206.918V278.28ZM198.258 283.86H199.638C203.038 283.86 205.178 283.8 207.718 283.32L207.878 284.68C205.278 285.14 203.078 285.24 199.638 285.24H198.258V283.86ZM198.258 273.12H206.618V274.5H199.898V284.34H198.258V273.12ZM199.478 278.2H205.838V279.54H199.478V278.2ZM223.401 273.24H234.881V274.6H223.401V273.24ZM221.441 285.74H237.781V287.1H221.441V285.74ZM234.201 273.24H235.821V274.96C235.821 277.16 235.821 279.64 235.081 283.34L233.421 283.14C234.201 279.64 234.201 277.1 234.201 274.96V273.24ZM234.561 277.58V278.84L223.161 279.48L222.901 278.04L234.561 277.58ZM227.801 281.06H229.461V286.24H227.801V281.06ZM241.919 280.14H254.339V281.5H241.919V280.14ZM239.859 285.74H256.239V287.12H239.859V285.74ZM241.919 273.14H254.159V274.52H243.579V280.74H241.919V273.14ZM277.043 271.46H278.703V289.58H277.043V271.46ZM264.923 283.84H266.423C269.443 283.84 272.143 283.72 275.343 283.2L275.523 284.56C272.243 285.1 269.523 285.22 266.423 285.22H264.923V283.84ZM264.883 273.16H273.243V279.62H266.583V284.36H264.923V278.26H271.563V274.52H264.883V273.16ZM286.381 282.26H288.041V289.56H286.381V282.26ZM292.841 282.26H294.521V289.56H292.841V282.26ZM282.261 282.04H298.661V283.4H282.261V282.04ZM284.321 272.18H285.981V274.6H294.921V272.18H296.561V279.92H284.321V272.18ZM285.981 275.96V278.54H294.921V275.96H285.981ZM313.22 271.48H314.86V289.56H313.22V271.48ZM314.34 278.92H317.56V280.32H314.34V278.92ZM304.56 273.42H306.08C306.08 277.78 305.16 282 301.92 285.5L300.58 284.56C303.56 281.46 304.56 277.7 304.56 273.6V273.42ZM301.16 273.42H305.18V274.8H301.16V273.42ZM309.48 273.42H311.02C311.02 277.8 310.4 282.76 307.08 286.7L305.74 285.78C308.8 282.24 309.48 277.76 309.48 273.58V273.42ZM306.66 273.42H310.16V274.8H306.66V273.42ZM323.858 274.06H325.198V277C325.198 280.82 322.898 284.66 320.018 286.08L319.058 284.76C321.678 283.52 323.858 280.12 323.858 277V274.06ZM324.178 274.06H325.518V277C325.518 280.06 327.698 283.18 330.358 284.32L329.418 285.64C326.498 284.28 324.178 280.76 324.178 277V274.06ZM319.658 273.32H329.758V274.72H319.658V273.32ZM332.198 271.48H333.858V289.56H332.198V271.48ZM340.227 273.455L340.085 283.909H338.437L338.295 273.455H340.227ZM339.261 288.114C338.91 288.114 338.61 287.988 338.359 287.737C338.108 287.486 337.982 287.186 337.982 286.835C337.982 286.485 338.108 286.184 338.359 285.933C338.61 285.682 338.91 285.557 339.261 285.557C339.611 285.557 339.912 285.682 340.163 285.933C340.414 286.184 340.539 286.485 340.539 286.835C340.539 287.067 340.48 287.28 340.362 287.474C340.248 287.669 340.094 287.825 339.9 287.943C339.71 288.057 339.497 288.114 339.261 288.114ZM52.14 301.5H53.82V311.76H52.14V301.5ZM42.14 312.8H53.82V319.32H42.14V312.8ZM52.18 314.12H43.76V317.98H52.18V314.12ZM43.7 302.18H45.08V303.94C45.08 307.3 43 310.18 39.94 311.32L39.12 310C41.84 309.02 43.7 306.58 43.7 303.94V302.18ZM44 302.18H45.36V303.94C45.36 306.5 47.24 308.76 49.92 309.66L49.1 310.96C46.08 309.92 44 307.22 44 303.94V302.18ZM59.4584 309.92H71.8784V311.28H59.4584V309.92ZM57.3984 315.9H73.7784V317.3H57.3984V315.9ZM64.7184 310.5H66.3784V316.46H64.7184V310.5ZM59.4584 302.92H71.6984V304.28H61.1184V310.52H59.4584V302.92ZM89.2619 302.72H91.0219C91.0219 307.28 87.6819 310.4 82.4019 311.7L81.7419 310.38C86.4819 309.24 89.2619 306.72 89.2619 303.52V302.72ZM82.6419 302.72H90.1819V304.06H82.6419V302.72ZM94.5619 301.48H96.2219V311.38H94.5619V301.48ZM84.4419 312.38H96.5019V313.72H84.4419V312.38ZM84.2619 317.94H96.7019V319.28H84.2619V317.94ZM86.9019 313.02H88.5419V318.6H86.9019V313.02ZM92.4019 313.02H94.0419V318.6H92.4019V313.02ZM99.8003 310.98H116.14V312.34H99.8003V310.98ZM101.92 317.8H114.34V319.16H101.92V317.8ZM101.92 313.92H103.58V318.22H101.92V313.92ZM107.98 302.08C111.84 302.08 114.34 303.44 114.34 305.7C114.34 307.94 111.84 309.3 107.98 309.3C104.1 309.3 101.62 307.94 101.62 305.7C101.62 303.44 104.1 302.08 107.98 302.08ZM107.98 303.44C105.14 303.44 103.32 304.28 103.32 305.7C103.32 307.12 105.14 307.96 107.98 307.96C110.82 307.96 112.64 307.12 112.64 305.7C112.64 304.28 110.82 303.44 107.98 303.44ZM129.463 303.455V318H127.702V305.301H127.616L124.065 307.659V305.869L127.702 303.455H129.463ZM134.896 316.139C134.546 316.139 134.245 316.014 133.994 315.763C133.743 315.512 133.618 315.211 133.618 314.861C133.618 314.51 133.743 314.21 133.994 313.959C134.245 313.708 134.546 313.582 134.896 313.582C135.247 313.582 135.547 313.708 135.798 313.959C136.049 314.21 136.175 314.51 136.175 314.861C136.175 315.093 136.116 315.306 135.997 315.5C135.884 315.694 135.73 315.85 135.536 315.969C135.346 316.082 135.133 316.139 134.896 316.139ZM134.896 308.781C134.546 308.781 134.245 308.656 133.994 308.405C133.743 308.154 133.618 307.853 133.618 307.503C133.618 307.152 133.743 306.852 133.994 306.601C134.245 306.35 134.546 306.224 134.896 306.224C135.247 306.224 135.547 306.35 135.798 306.601C136.049 306.852 136.175 307.152 136.175 307.503C136.175 307.735 136.116 307.948 135.997 308.142C135.884 308.336 135.73 308.492 135.536 308.611C135.346 308.724 135.133 308.781 134.896 308.781ZM144.268 303.455V318H142.506V305.301H142.421L138.87 307.659V305.869L142.506 303.455H144.268ZM167.31 301.48H168.91V319.56H167.31V301.48ZM164.25 308.72H167.73V310.1H164.25V308.72ZM163.21 301.88H164.77V318.64H163.21V301.88ZM154.21 313.72H155.39C158.03 313.72 159.83 313.62 161.93 313.18L162.09 314.56C159.93 315.02 158.11 315.1 155.39 315.1H154.21V313.72ZM154.21 303.68H160.93V305.04H155.85V314.34H154.21V303.68ZM176.649 312.26H178.309V315.2H176.649V312.26ZM184.249 301.48H185.909V319.56H184.249V301.48ZM185.369 309.16H188.709V310.56H185.369V309.16ZM171.989 316.12L171.749 314.74C174.989 314.74 179.409 314.7 183.149 314.16L183.289 315.4C179.389 316.1 175.149 316.12 171.989 316.12ZM172.049 303.66H182.869V305H172.049V303.66ZM177.469 306.06C179.989 306.06 181.729 307.38 181.729 309.4C181.729 311.44 179.989 312.74 177.469 312.74C174.949 312.74 173.229 311.44 173.229 309.4C173.229 307.38 174.949 306.06 177.469 306.06ZM177.469 307.34C175.849 307.34 174.789 308.16 174.789 309.4C174.789 310.64 175.849 311.46 177.469 311.46C179.089 311.46 180.169 310.64 180.169 309.4C180.169 308.16 179.089 307.34 177.469 307.34ZM176.649 301.5H178.309V304.56H176.649V301.5ZM190.347 309.88H206.747V311.14H190.347V309.88ZM192.287 312.6H204.687V316.46H193.987V318.58H192.347V315.32H203.067V313.78H192.287V312.6ZM192.347 318.14H205.267V319.34H192.347V318.14ZM192.427 302H204.627V305.76H194.107V307.72H192.467V304.64H203.007V303.18H192.427V302ZM192.467 307.32H204.967V308.52H192.467V307.32ZM223.031 304.8H227.871V306.16H223.031V304.8ZM222.871 308.56H227.751V309.92H222.871V308.56ZM227.591 301.48H229.251V312.32H227.591V301.48ZM221.931 302.84H223.711C223.711 307.5 220.491 310.76 215.291 312.32L214.611 310.98C219.231 309.64 221.931 306.98 221.931 303.56V302.84ZM215.551 302.84H223.071V304.2H215.551V302.84ZM223.371 312.52C227.031 312.52 229.351 313.82 229.351 316C229.351 318.18 227.031 319.48 223.371 319.48C219.711 319.48 217.391 318.18 217.391 316C217.391 313.82 219.711 312.52 223.371 312.52ZM223.371 313.82C220.731 313.82 219.031 314.64 219.031 316C219.031 317.36 220.731 318.16 223.371 318.16C226.031 318.16 227.731 317.36 227.731 316C227.731 314.64 226.031 313.82 223.371 313.82ZM245.989 301.48H247.649V312.42H245.989V301.48ZM242.989 306.96H246.729V308.34H242.989V306.96ZM235.929 313.38H247.649V319.32H235.929V313.38ZM246.029 314.72H237.549V317.98H246.029V314.72ZM232.809 303.36H243.269V304.7H232.809V303.36ZM238.029 305.62C240.469 305.62 242.209 306.94 242.209 308.86C242.209 310.78 240.469 312.06 238.029 312.06C235.589 312.06 233.849 310.78 233.849 308.86C233.849 306.94 235.589 305.62 238.029 305.62ZM238.029 306.9C236.509 306.9 235.429 307.68 235.429 308.86C235.429 310.02 236.509 310.8 238.029 310.8C239.549 310.8 240.629 310.02 240.629 308.86C240.629 307.68 239.549 306.9 238.029 306.9ZM237.209 301.3H238.869V304.32H237.209V301.3ZM251.148 304.56H260.108V305.92H251.148V304.56ZM255.628 307.12C257.888 307.12 259.528 308.82 259.528 311.26C259.528 313.68 257.888 315.38 255.628 315.38C253.388 315.38 251.748 313.68 251.748 311.26C251.748 308.82 253.388 307.12 255.628 307.12ZM255.628 308.54C254.248 308.54 253.248 309.66 253.248 311.26C253.248 312.86 254.248 313.98 255.628 313.98C257.028 313.98 258.048 312.86 258.048 311.26C258.048 309.66 257.028 308.54 255.628 308.54ZM264.888 301.48H266.488V319.56H264.888V301.48ZM262.008 309.08H265.428V310.46H262.008V309.08ZM261.028 301.88H262.588V318.68H261.028V301.88ZM254.828 302H256.468V305.4H254.828V302ZM269.586 315.88H285.966V317.26H269.586V315.88ZM276.906 311.56H278.566V316.28H276.906V311.56ZM271.506 302.76H273.146V305.98H282.366V302.76H284.006V312H271.506V302.76ZM273.146 307.32V310.64H282.366V307.32H273.146ZM295.104 307.94H298.564V309.32H295.104V307.94ZM291.724 303.18H293.024V306.62C293.024 310.4 291.444 314.06 288.804 315.68L287.764 314.42C290.244 312.96 291.724 309.72 291.724 306.62V303.18ZM292.044 303.18H293.324V306.56C293.324 309.46 294.684 312.54 297.064 313.98L296.104 315.28C293.504 313.68 292.044 310.08 292.044 306.56V303.18ZM301.744 301.48H303.344V319.56H301.744V301.48ZM298.084 301.86H299.644V318.66H298.084V301.86ZM310.383 310.78H312.023V316.2H310.383V310.78ZM317.063 310.78H318.723V316.2H317.063V310.78ZM306.383 315.88H322.763V317.26H306.383V315.88ZM314.543 302.62C318.363 302.62 321.103 304.44 321.103 307.28C321.103 310.1 318.363 311.92 314.543 311.92C310.703 311.92 307.963 310.1 307.963 307.28C307.963 304.44 310.703 302.62 314.543 302.62ZM314.543 303.94C311.643 303.94 309.563 305.26 309.563 307.28C309.563 309.28 311.643 310.6 314.543 310.6C317.443 310.6 319.503 309.28 319.503 307.28C319.503 305.26 317.443 303.94 314.543 303.94ZM326.537 318.114C326.187 318.114 325.886 317.988 325.635 317.737C325.384 317.486 325.259 317.186 325.259 316.835C325.259 316.485 325.384 316.184 325.635 315.933C325.886 315.682 326.187 315.557 326.537 315.557C326.887 315.557 327.188 315.682 327.439 315.933C327.69 316.184 327.815 316.485 327.815 316.835C327.815 317.067 327.756 317.28 327.638 317.474C327.524 317.669 327.37 317.825 327.176 317.943C326.987 318.057 326.774 318.114 326.537 318.114Z" fill="white"/>
<path d="M46.2 391.84H49.72V393.22H46.2V391.84ZM46.2 397.34H49.72V398.72H46.2V397.34ZM52.76 387.48H54.36V405.56H52.76V387.48ZM49.22 387.86H50.78V404.66H49.22V387.86ZM43.06 388.98C45.4 388.98 46.92 391.4 46.92 395.28C46.92 399.16 45.4 401.58 43.06 401.58C40.72 401.58 39.22 399.16 39.22 395.28C39.22 391.4 40.72 388.98 43.06 388.98ZM43.06 390.52C41.64 390.52 40.72 392.36 40.72 395.28C40.72 398.2 41.64 400.04 43.06 400.04C44.5 400.04 45.4 398.2 45.4 395.28C45.4 392.36 44.5 390.52 43.06 390.52ZM70.9184 390.22H74.0584V391.62H70.9184V390.22ZM70.9184 394.1H74.0584V395.48H70.9184V394.1ZM69.7584 387.48H71.4184V398.22H69.7584V387.48ZM59.6784 399.08H71.4184V405.56H69.7584V400.42H59.6784V399.08ZM62.4384 388.54C65.1584 388.54 67.1584 390.3 67.1584 392.84C67.1584 395.36 65.1584 397.1 62.4384 397.1C59.7184 397.1 57.7184 395.36 57.7184 392.84C57.7184 390.3 59.7184 388.54 62.4384 388.54ZM62.4384 389.96C60.6384 389.96 59.3384 391.12 59.3384 392.84C59.3384 394.54 60.6384 395.72 62.4384 395.72C64.2384 395.72 65.5384 394.54 65.5384 392.84C65.5384 391.12 64.2384 389.96 62.4384 389.96ZM86.1819 389.04H87.5419V392.28C87.5419 396.44 85.3019 400.3 82.3419 401.8L81.3219 400.44C84.0019 399.16 86.1819 395.7 86.1819 392.28V389.04ZM86.4619 389.04H87.8219V392.28C87.8219 395.58 89.9819 398.9 92.6619 400.14L91.6619 401.46C88.7219 400.02 86.4619 396.3 86.4619 392.28V389.04ZM94.5419 387.46H96.2019V405.58H94.5419V387.46ZM112.18 387.48H113.84V400.7H112.18V387.48ZM113.32 392.96H116.52V394.34H113.32V392.96ZM107.24 388.88H109C109 393.56 105.72 396.98 100.54 398.64L99.8203 397.28C104.38 395.88 107.24 393.08 107.24 389.6V388.88ZM100.56 388.88H108.08V390.24H100.56V388.88ZM102.56 403.8H114.64V405.16H102.56V403.8ZM102.56 399.36H104.22V404.34H102.56V399.36ZM131.339 387.46H132.999V405.58H131.339V387.46ZM123.459 388.86C126.139 388.86 128.059 391.32 128.059 395.16C128.059 399.02 126.139 401.48 123.459 401.48C120.799 401.48 118.879 399.02 118.879 395.16C118.879 391.32 120.799 388.86 123.459 388.86ZM123.459 390.36C121.699 390.36 120.459 392.24 120.459 395.16C120.459 398.1 121.699 400.02 123.459 400.02C125.239 400.02 126.459 398.1 126.459 395.16C126.459 392.24 125.239 390.36 123.459 390.36ZM143.662 395.26H152.922V396.62H143.662V395.26ZM147.362 396.34H149.042V400.5H147.362V396.34ZM143.662 389.18H152.822V390.54H145.322V395.74H143.662V389.18ZM155.302 387.46H156.962V405.58H155.302V387.46ZM142.562 401.66L142.322 400.28C145.862 400.26 150.302 400.22 154.122 399.76L154.262 401C150.302 401.6 145.982 401.68 142.562 401.66ZM169.301 390.66H174.361V392.02H169.301V390.66ZM169.301 394.52H174.401V395.9H169.301V394.52ZM161.461 389.04H169.721V397.52H161.461V389.04ZM168.081 390.38H163.081V396.18H168.081V390.38ZM173.841 387.5H175.501V400.7H173.841V387.5ZM163.881 403.8H175.941V405.16H163.881V403.8ZM163.881 399.5H165.541V404.42H163.881V399.5ZM192.164 389.36H193.764C193.764 394.58 191.964 399.38 185.604 402.58L184.664 401.3C190.244 398.5 192.164 394.48 192.164 389.54V389.36ZM185.644 389.36H193.164V390.7H185.644V389.36ZM192.064 393.84V395.1L185.004 395.76L184.724 394.32L192.064 393.84ZM197.864 387.48H199.524V405.56H197.864V387.48ZM193.724 394.72H198.664V396.1H193.724V394.72ZM216.223 387.48H217.883V405.56H216.223V387.48ZM203.503 389.42H213.743V390.78H203.503V389.42ZM203.223 401.1L203.023 399.68C206.383 399.68 210.823 399.64 214.663 399.18L214.763 400.4C210.863 401.02 206.523 401.08 203.223 401.1ZM205.503 390.44H207.103V400.06H205.503V390.44ZM210.123 390.44H211.743V400.06H210.123V390.44ZM225.221 390.74H226.481V391.24C226.481 394.1 225.021 396.84 222.401 397.98L221.601 396.72C223.881 395.74 225.221 393.48 225.221 391.24V390.74ZM225.541 390.74H226.781V391.24C226.781 393.32 228.181 395.42 230.441 396.32L229.661 397.56C227.021 396.52 225.541 393.96 225.541 391.24V390.74ZM221.941 389.88H230.001V391.2H221.941V389.88ZM225.221 387.76H226.781V390.48H225.221V387.76ZM235.101 387.5H236.681V399.72H235.101V387.5ZM232.261 392.08H235.681V393.46H232.261V392.08ZM231.261 387.8H232.821V398.16H231.261V387.8ZM229.861 398.98H231.261V399.4C231.261 402.58 228.001 404.86 224.361 405.5L223.741 404.2C226.921 403.7 229.861 401.74 229.861 399.4V398.98ZM230.081 398.98H231.501V399.4C231.501 401.74 234.441 403.7 237.621 404.2L237.001 405.5C233.361 404.86 230.081 402.58 230.081 399.4V398.98ZM247.179 394.5H250.599V395.88H247.179V394.5ZM253.619 387.48H255.219V405.56H253.619V387.48ZM250.039 387.86H251.619V404.66H250.039V387.86ZM243.919 388.98C246.259 388.98 247.779 391.4 247.779 395.28C247.779 399.16 246.259 401.58 243.919 401.58C241.579 401.58 240.079 399.16 240.079 395.28C240.079 391.4 241.579 388.98 243.919 388.98ZM243.919 390.52C242.499 390.52 241.599 392.36 241.599 395.28C241.599 398.2 242.499 400.04 243.919 400.04C245.359 400.04 246.259 398.2 246.259 395.28C246.259 392.36 245.359 390.52 243.919 390.52ZM277.023 387.48H278.703V397.18H277.023V387.48ZM267.043 398.08H268.683V400.28H277.063V398.08H278.703V405.32H267.043V398.08ZM268.683 401.6V403.98H277.063V401.6H268.683ZM269.003 388.34C271.743 388.34 273.703 390.04 273.703 392.5C273.703 394.98 271.743 396.68 269.003 396.68C266.263 396.68 264.283 394.98 264.283 392.5C264.283 390.04 266.263 388.34 269.003 388.34ZM269.003 389.72C267.203 389.72 265.903 390.86 265.903 392.5C265.903 394.14 267.203 395.28 269.003 395.28C270.803 395.28 272.103 394.14 272.103 392.5C272.103 390.86 270.803 389.72 269.003 389.72ZM286.721 389.42H288.081V390.88C288.081 394.2 286.081 396.98 283.041 398.08L282.201 396.76C284.921 395.8 286.721 393.46 286.721 390.88V389.42ZM287.021 389.42H288.381V390.86C288.381 393.22 290.101 395.34 292.761 396.22L291.961 397.52C288.941 396.52 287.021 393.94 287.021 390.86V389.42ZM282.701 388.82H292.361V390.18H282.701V388.82ZM294.641 387.48H296.301V398.38H294.641V387.48ZM295.841 392.06H298.981V393.46H295.841V392.06ZM290.541 398.86C294.221 398.86 296.481 400.08 296.481 402.18C296.481 404.3 294.221 405.52 290.541 405.52C286.861 405.52 284.601 404.3 284.601 402.18C284.601 400.08 286.861 398.86 290.541 398.86ZM290.541 400.2C287.861 400.2 286.221 400.92 286.221 402.18C286.221 403.46 287.861 404.22 290.541 404.22C293.221 404.22 294.861 403.46 294.861 402.18C294.861 400.92 293.221 400.2 290.541 400.2ZM313.04 387.42H314.7V397.4H313.04V387.42ZM314 391.76H317.38V393.16H314V391.76ZM303.22 398.32H314.7V402.36H304.9V404.56H303.26V401.16H313.08V399.58H303.22V398.32ZM303.26 404.08H315.36V405.36H303.26V404.08ZM300.72 389.1H311.4V390.4H300.72V389.1ZM306.06 391.2C308.66 391.2 310.38 392.34 310.38 394.18C310.38 396 308.66 397.12 306.06 397.12C303.42 397.12 301.72 396 301.72 394.18C301.72 392.34 303.42 391.2 306.06 391.2ZM306.06 392.42C304.38 392.42 303.3 393.1 303.3 394.18C303.3 395.24 304.38 395.92 306.06 395.92C307.72 395.92 308.8 395.24 308.8 394.18C308.8 393.1 307.72 392.42 306.06 392.42ZM305.22 387.28H306.88V390H305.22V387.28ZM46.3 418.12H47.76V419.12C47.76 422.58 44.24 425.06 40.48 425.7L39.82 424.36C43.12 423.86 46.3 421.7 46.3 419.12V418.12ZM46.6 418.12H48.04V419.12C48.04 421.64 51.26 423.86 54.52 424.36L53.86 425.7C50.14 425.06 46.6 422.54 46.6 419.12V418.12ZM46.3 428.68H47.94V435.56H46.3V428.68ZM39 427.66H55.34V429.04H39V427.66ZM67.5234 428.6H68.8034V429.58C68.8034 431.94 67.3234 434.32 64.7234 435.32L63.8834 434.08C66.1634 433.26 67.5234 431.32 67.5234 429.58V428.6ZM67.8834 428.6H69.1234V429.58C69.1234 431.4 70.2034 433.34 72.3634 434.22L71.6634 435.48C69.0634 434.46 67.8834 431.98 67.8834 429.58V428.6ZM74.2034 428.6H75.4434V429.58C75.4434 431.7 74.2434 434.38 71.6634 435.48L70.9634 434.22C73.1034 433.24 74.2034 431.14 74.2034 429.58V428.6ZM74.5434 428.6H75.8234V429.58C75.8234 431.44 77.1634 433.3 79.4634 434.08L78.6234 435.32C75.9834 434.36 74.5434 432.08 74.5434 429.58V428.6ZM76.1634 417.5H77.8434V427.82H76.1634V417.5ZM68.1434 418.54C70.8834 418.54 72.8434 420.26 72.8434 422.76C72.8434 425.26 70.8834 426.96 68.1434 426.96C65.4034 426.96 63.4234 425.26 63.4234 422.76C63.4234 420.26 65.4034 418.54 68.1434 418.54ZM68.1434 419.92C66.3434 419.92 65.0434 421.08 65.0434 422.76C65.0434 424.44 66.3434 425.58 68.1434 425.58C69.9434 425.58 71.2434 424.44 71.2434 422.76C71.2434 421.08 69.9434 419.92 68.1434 419.92ZM83.4819 428.32H85.1219V430.42H93.9619V428.32H95.6219V435.32H83.4819V428.32ZM85.1219 431.7V433.98H93.9619V431.7H85.1219ZM81.4019 425.72H97.7419V427.06H81.4019V425.72ZM88.7419 417.68H90.1619V418.48C90.1619 421.62 86.6619 423.88 82.9419 424.44L82.3419 423.14C85.6019 422.7 88.7419 420.76 88.7419 418.48V417.68ZM89.0019 417.68H90.4219V418.48C90.4219 420.72 93.6019 422.7 96.8219 423.14L96.2019 424.44C92.5219 423.88 89.0019 421.58 89.0019 418.48V417.68ZM112.96 417.48H114.62V435.56H112.96V417.48ZM100.96 419.24H102.6V430.44H100.96V419.24ZM100.96 429.46H102.44C105.18 429.46 108.04 429.26 111.1 428.62L111.3 430.04C108.16 430.68 105.3 430.9 102.44 430.9H100.96V429.46ZM130.439 417.46H132.119V435.58H130.439V417.46ZM131.719 424.6H135.079V426H131.719V424.6ZM118.979 429.68H120.399C123.739 429.68 126.079 429.56 128.779 429.06L128.959 430.46C126.179 430.98 123.799 431.08 120.399 431.08H118.979V429.68ZM118.979 419.22H127.379V420.58H120.619V430.3H118.979V419.22ZM138.373 434.114C138.022 434.114 137.722 433.988 137.471 433.737C137.22 433.486 137.094 433.186 137.094 432.835C137.094 432.485 137.22 432.184 137.471 431.933C137.722 431.682 138.022 431.557 138.373 431.557C138.723 431.557 139.024 431.682 139.275 431.933C139.526 432.184 139.651 432.485 139.651 432.835C139.651 433.067 139.592 433.28 139.474 433.474C139.36 433.669 139.206 433.825 139.012 433.943C138.823 434.057 138.61 434.114 138.373 434.114Z" fill="white"/>
<path d="M39.2 505.84H42.72V507.22H39.2V505.84ZM39.2 511.34H42.72V512.72H39.2V511.34ZM45.76 501.48H47.36V519.56H45.76V501.48ZM42.22 501.86H43.78V518.66H42.22V501.86ZM36.06 502.98C38.4 502.98 39.92 505.4 39.92 509.28C39.92 513.16 38.4 515.58 36.06 515.58C33.72 515.58 32.22 513.16 32.22 509.28C32.22 505.4 33.72 502.98 36.06 502.98ZM36.06 504.52C34.64 504.52 33.72 506.36 33.72 509.28C33.72 512.2 34.64 514.04 36.06 514.04C37.5 514.04 38.4 512.2 38.4 509.28C38.4 506.36 37.5 504.52 36.06 504.52ZM63.9184 504.22H67.0584V505.62H63.9184V504.22ZM63.9184 508.1H67.0584V509.48H63.9184V508.1ZM62.7584 501.48H64.4184V512.22H62.7584V501.48ZM52.6784 513.08H64.4184V519.56H62.7584V514.42H52.6784V513.08ZM55.4384 502.54C58.1584 502.54 60.1584 504.3 60.1584 506.84C60.1584 509.36 58.1584 511.1 55.4384 511.1C52.7184 511.1 50.7184 509.36 50.7184 506.84C50.7184 504.3 52.7184 502.54 55.4384 502.54ZM55.4384 503.96C53.6384 503.96 52.3384 505.12 52.3384 506.84C52.3384 508.54 53.6384 509.72 55.4384 509.72C57.2384 509.72 58.5384 508.54 58.5384 506.84C58.5384 505.12 57.2384 503.96 55.4384 503.96ZM79.1819 503.04H80.5419V506.28C80.5419 510.44 78.3019 514.3 75.3419 515.8L74.3219 514.44C77.0019 513.16 79.1819 509.7 79.1819 506.28V503.04ZM79.4619 503.04H80.8219V506.28C80.8219 509.58 82.9819 512.9 85.6619 514.14L84.6619 515.46C81.7219 514.02 79.4619 510.3 79.4619 506.28V503.04ZM87.5419 501.46H89.2019V519.58H87.5419V501.46ZM105.18 501.48H106.84V514.7H105.18V501.48ZM106.32 506.96H109.52V508.34H106.32V506.96ZM100.24 502.88H102C102 507.56 98.7203 510.98 93.5403 512.64L92.8203 511.28C97.3803 509.88 100.24 507.08 100.24 503.6V502.88ZM93.5603 502.88H101.08V504.24H93.5603V502.88ZM95.5603 517.8H107.64V519.16H95.5603V517.8ZM95.5603 513.36H97.2203V518.34H95.5603V513.36ZM119.379 502.62C123.139 502.62 125.939 504.62 125.939 507.62C125.939 510.64 123.139 512.62 119.379 512.62C115.619 512.62 112.799 510.64 112.799 507.62C112.799 504.62 115.619 502.62 119.379 502.62ZM119.379 503.98C116.519 503.98 114.399 505.44 114.399 507.62C114.399 509.78 116.519 511.26 119.379 511.26C122.239 511.26 124.359 509.78 124.359 507.62C124.359 505.44 122.239 503.98 119.379 503.98ZM111.219 515.78H127.599V517.18H111.219V515.78ZM129.617 515.96H145.997V517.34H129.617V515.96ZM136.937 512.08H138.597V516.54H136.937V512.08ZM131.597 502.82H143.977V508.3H133.297V511.92H131.657V506.96H142.337V504.16H131.597V502.82ZM131.657 511.22H144.397V512.58H131.657V511.22ZM147.996 512.18H164.396V513.54H147.996V512.18ZM155.316 512.82H156.956V519.56H155.316V512.82ZM150.056 502.2H151.716V504.68H160.656V502.2H162.296V510.02H150.056V502.2ZM151.716 506.02V508.68H160.656V506.02H151.716ZM179.654 501.46H181.294V519.58H179.654V501.46ZM175.894 508.28H179.894V509.66H175.894V508.28ZM167.234 513.86H168.614C172.014 513.86 174.154 513.8 176.694 513.32L176.854 514.68C174.254 515.14 172.054 515.24 168.614 515.24H167.234V513.86ZM167.234 503.12H175.594V504.5H168.874V514.34H167.234V503.12ZM168.454 508.2H174.814V509.54H168.454V508.2ZM190.943 518V516.722L195.744 511.466C196.308 510.85 196.772 510.315 197.136 509.861C197.501 509.402 197.771 508.971 197.946 508.568C198.126 508.161 198.216 507.735 198.216 507.29C198.216 506.778 198.093 506.336 197.847 505.962C197.605 505.588 197.274 505.299 196.852 505.095C196.431 504.892 195.957 504.79 195.432 504.79C194.873 504.79 194.385 504.906 193.969 505.138C193.557 505.365 193.237 505.685 193.01 506.097C192.787 506.509 192.676 506.991 192.676 507.545H191C191 506.693 191.196 505.945 191.589 505.301C191.982 504.657 192.518 504.155 193.195 503.795C193.876 503.436 194.641 503.256 195.489 503.256C196.341 503.256 197.096 503.436 197.754 503.795C198.412 504.155 198.929 504.641 199.303 505.251C199.677 505.862 199.864 506.542 199.864 507.29C199.864 507.825 199.767 508.348 199.572 508.859C199.383 509.366 199.052 509.932 198.578 510.557C198.109 511.177 197.458 511.935 196.625 512.83L193.358 516.324V516.438H200.119V518H190.943ZM202.399 515.017V513.568L208.791 503.455H209.842V505.699H209.132L204.303 513.341V513.455H212.911V515.017H202.399ZM209.246 518V514.577V513.902V503.455H210.922V518H209.246ZM219.826 503.04H221.186V506.28C221.186 510.44 218.946 514.3 215.986 515.8L214.966 514.44C217.646 513.16 219.826 509.7 219.826 506.28V503.04ZM220.106 503.04H221.466V506.28C221.466 509.58 223.626 512.9 226.306 514.14L225.306 515.46C222.366 514.02 220.106 510.3 220.106 506.28V503.04ZM228.186 501.46H229.846V519.58H228.186V501.46ZM245.825 501.48H247.485V514.7H245.825V501.48ZM246.965 506.96H250.165V508.34H246.965V506.96ZM240.885 502.88H242.645C242.645 507.56 239.365 510.98 234.185 512.64L233.465 511.28C238.025 509.88 240.885 507.08 240.885 503.6V502.88ZM234.205 502.88H241.725V504.24H234.205V502.88ZM236.205 517.8H248.285V519.16H236.205V517.8ZM236.205 513.36H237.865V518.34H236.205V513.36ZM271.208 501.48H272.808V519.56H271.208V501.48ZM268.168 508.84H271.648V510.2H268.168V508.84ZM267.108 501.88H268.668V518.64H267.108V501.88ZM258.348 503.66H260.008V514.1H258.348V503.66ZM258.348 513.44H259.508C261.368 513.44 263.448 513.32 265.808 512.86L265.988 514.3C263.528 514.78 261.448 514.88 259.508 514.88H258.348V513.44ZM286.652 504.64H288.012V504.88C288.012 507.54 286.052 509.62 282.992 510.38L282.312 509.06C284.892 508.48 286.652 506.8 286.652 504.88V504.64ZM286.952 504.64H288.312V504.88C288.312 506.7 290.052 508.24 292.612 508.82L291.932 510.12C288.912 509.4 286.952 507.42 286.952 504.88V504.64ZM282.692 503.52H292.272V504.84H282.692V503.52ZM286.632 501.52H288.312V504.4H286.632V501.52ZM286.672 511.82H288.332V519.04H286.672V511.82ZM294.672 501.48H296.312V519.58H294.672V501.48ZM281.692 513.04L281.472 511.64C284.892 511.64 289.432 511.62 293.392 511.06L293.512 512.28C289.452 512.98 285.052 513.04 281.692 513.04ZM299.91 515.84H316.29V517.22H299.91V515.84ZM307.19 511.46H308.83V516.3H307.19V511.46ZM307.15 502.68H308.59V504.08C308.59 507.94 304.89 510.92 301.25 511.68L300.55 510.3C303.73 509.72 307.15 507.06 307.15 504.08V502.68ZM307.45 502.68H308.89V504.08C308.89 507.08 312.33 509.72 315.51 510.3L314.79 511.68C311.15 510.92 307.45 507.94 307.45 504.08V502.68ZM328.694 503.04H330.054V506.28C330.054 510.44 327.814 514.3 324.854 515.8L323.834 514.44C326.514 513.16 328.694 509.7 328.694 506.28V503.04ZM328.974 503.04H330.334V506.28C330.334 509.58 332.494 512.9 335.174 514.14L334.174 515.46C331.234 514.02 328.974 510.3 328.974 506.28V503.04ZM337.054 501.46H338.714V519.58H337.054V501.46ZM45.76 531.48H47.36V549.56H45.76V531.48ZM42.9 538.74H46.36V540.12H42.9V538.74ZM41.84 531.88H43.4V548.64H41.84V531.88ZM32.16 533.74H40.52V535.1H32.16V533.74ZM32 545.12L31.8 543.72C34.18 543.72 38.1 543.64 40.86 543.28L40.98 544.5C38.12 545.04 34.36 545.12 32 545.12ZM33.7 534.62H35.22V544.08H33.7V534.62ZM37.46 534.62H38.98V544.08H37.46V534.62ZM51.4384 532.34H53.0984V539.58H51.4384V532.34ZM51.4384 538.68H52.8384C55.7184 538.68 58.1384 538.52 60.8384 537.98L61.0584 539.36C58.2584 539.92 55.7784 540.06 52.8384 540.06H51.4384V538.68ZM58.4784 534.48H63.9984V535.84H58.4784V534.48ZM63.5984 531.48H65.2584V540.82H63.5984V531.48ZM53.6184 541.66H65.2584V546.02H55.3184V548.7H53.6784V544.76H63.6184V543.02H53.6184V541.66ZM53.6784 547.98H65.8984V549.32H53.6784V547.98ZM69.9369 543.84H71.3769C74.7569 543.84 77.1169 543.74 79.8969 543.28L80.0569 544.62C77.2169 545.12 74.8169 545.22 71.3769 545.22H69.9369V543.84ZM69.9369 533.12H78.6969V534.5H71.5769V544.32H69.9369V533.12ZM71.1769 538.18H78.0369V539.52H71.1769V538.18ZM81.9569 531.48H83.6169V549.56H81.9569V531.48ZM99.4153 531.46H101.095V549.56H99.4153V531.46ZM100.635 538.8H103.975V540.18H100.635V538.8ZM94.7953 533.42H96.4153C96.4153 538.56 94.0553 543.2 88.2153 546.14L87.2953 544.86C92.2953 542.32 94.7953 538.46 94.7953 533.68V533.42ZM88.1353 533.42H95.6553V534.78H88.1353V533.42ZM111.199 542.18H127.599V543.54H111.199V542.18ZM118.519 542.82H120.159V549.56H118.519V542.82ZM113.259 532.2H114.919V534.68H123.859V532.2H125.499V540.02H113.259V532.2ZM114.919 536.02V538.68H123.859V536.02H114.919ZM137.757 535.5H143.217V536.88H137.757V535.5ZM137.757 541.22H143.217V542.6H137.757V541.22ZM134.437 532.86C137.057 532.86 138.937 535.32 138.937 539.16C138.937 543.02 137.057 545.48 134.437 545.48C131.797 545.48 129.937 543.02 129.937 539.16C129.937 535.32 131.797 532.86 134.437 532.86ZM134.437 534.36C132.697 534.36 131.497 536.24 131.497 539.16C131.497 542.1 132.697 544.02 134.437 544.02C136.177 544.02 137.377 542.1 137.377 539.16C137.377 536.24 136.177 534.36 134.437 534.36ZM142.857 531.46H144.497V549.58H142.857V531.46ZM149.736 536.22H158.416V537.5H149.736V536.22ZM149.736 532.24H158.216V533.54H151.436V536.8H149.736V532.24ZM153.196 536.94H154.856V539.96H153.196V536.94ZM161.176 531.48H162.836V541.2H161.176V531.48ZM148.336 540.78L148.116 539.46C151.616 539.44 156.036 539.36 159.776 538.94L159.876 540.1C156.036 540.66 151.736 540.78 148.336 540.78ZM150.916 542.02H162.836V546.24H152.576V548.56H150.936V544.98H161.216V543.34H150.916V542.02ZM150.936 548.04H163.456V549.36H150.936V548.04ZM179.339 532.12H180.799V533.12C180.799 536.58 177.279 539.06 173.519 539.7L172.859 538.36C176.159 537.86 179.339 535.7 179.339 533.12V532.12ZM179.639 532.12H181.079V533.12C181.079 535.64 184.299 537.86 187.559 538.36L186.899 539.7C183.179 539.06 179.639 536.54 179.639 533.12V532.12ZM179.339 542.68H180.979V549.56H179.339V542.68ZM172.039 541.66H188.379V543.04H172.039V541.66ZM200.563 542.6H201.843V543.58C201.843 545.94 200.363 548.32 197.763 549.32L196.923 548.08C199.203 547.26 200.563 545.32 200.563 543.58V542.6ZM200.923 542.6H202.163V543.58C202.163 545.4 203.243 547.34 205.403 548.22L204.703 549.48C202.103 548.46 200.923 545.98 200.923 543.58V542.6ZM207.243 542.6H208.483V543.58C208.483 545.7 207.283 548.38 204.703 549.48L204.003 548.22C206.143 547.24 207.243 545.14 207.243 543.58V542.6ZM207.583 542.6H208.863V543.58C208.863 545.44 210.203 547.3 212.503 548.08L211.663 549.32C209.023 548.36 207.583 546.08 207.583 543.58V542.6ZM209.203 531.5H210.883V541.82H209.203V531.5ZM201.183 532.54C203.923 532.54 205.883 534.26 205.883 536.76C205.883 539.26 203.923 540.96 201.183 540.96C198.443 540.96 196.463 539.26 196.463 536.76C196.463 534.26 198.443 532.54 201.183 532.54ZM201.183 533.92C199.383 533.92 198.083 535.08 198.083 536.76C198.083 538.44 199.383 539.58 201.183 539.58C202.983 539.58 204.283 538.44 204.283 536.76C204.283 535.08 202.983 533.92 201.183 533.92ZM216.521 542.32H218.161V544.42H227.001V542.32H228.661V549.32H216.521V542.32ZM218.161 545.7V547.98H227.001V545.7H218.161ZM214.441 539.72H230.781V541.06H214.441V539.72ZM221.781 531.68H223.201V532.48C223.201 535.62 219.701 537.88 215.981 538.44L215.381 537.14C218.641 536.7 221.781 534.76 221.781 532.48V531.68ZM222.041 531.68H223.461V532.48C223.461 534.72 226.641 536.7 229.861 537.14L229.241 538.44C225.561 537.88 222.041 535.58 222.041 532.48V531.68ZM245.999 531.48H247.659V549.56H245.999V531.48ZM233.999 533.24H235.639V544.44H233.999V533.24ZM233.999 543.46H235.479C238.219 543.46 241.079 543.26 244.139 542.62L244.339 544.04C241.199 544.68 238.339 544.9 235.479 544.9H233.999V543.46ZM263.478 531.46H265.158V549.58H263.478V531.46ZM264.758 538.6H268.118V540H264.758V538.6ZM252.018 543.68H253.438C256.778 543.68 259.118 543.56 261.818 543.06L261.998 544.46C259.218 544.98 256.838 545.08 253.438 545.08H252.018V543.68ZM252.018 533.22H260.418V534.58H253.658V544.3H252.018V533.22ZM271.412 548.114C271.062 548.114 270.761 547.988 270.51 547.737C270.259 547.486 270.134 547.186 270.134 546.835C270.134 546.485 270.259 546.184 270.51 545.933C270.761 545.682 271.062 545.557 271.412 545.557C271.762 545.557 272.063 545.682 272.314 545.933C272.565 546.184 272.69 546.485 272.69 546.835C272.69 547.067 272.631 547.28 272.513 547.474C272.399 547.669 272.245 547.825 272.051 547.943C271.862 548.057 271.649 548.114 271.412 548.114Z" fill="white"/>
<path d="M189.936 61.6699C186.552 61.6699 183.93 64.292 183.93 67.5293C183.93 70.7666 186.552 73.3887 189.936 73.3887C193.026 73.3887 195.648 70.7666 195.648 67.5293C195.648 64.292 193.026 61.6699 189.936 61.6699ZM148.92 61.6699C145.536 61.6699 142.914 64.292 142.914 67.5293C142.914 70.7666 145.536 73.3887 148.92 73.3887C152.011 73.3887 154.633 70.7666 154.633 67.5293C154.633 64.292 152.011 61.6699 148.92 61.6699Z" fill="white"/>
<path d="M236.957 50.5368C229.911 40.8689 220.067 34.4089 209.271 31.4939V31.5085C206.767 28.7253 203.939 26.1618 200.775 23.8767C176.796 6.44503 143.134 11.7624 125.629 35.7419C111.522 55.2243 112.123 81.4304 126.508 100.049L126.625 119.472C126.625 119.941 126.698 120.41 126.845 120.849C127.621 123.325 130.258 124.687 132.719 123.911L151.264 118.066C156.171 119.809 161.239 120.805 166.278 121.084L166.205 121.142C179.257 130.649 196.366 133.506 212.055 128.32L230.673 134.384C231.142 134.531 231.625 134.619 232.123 134.619C234.716 134.619 236.811 132.524 236.811 129.931V110.302C249.716 92.7829 250.053 68.569 236.957 50.5368ZM153.314 107.666L151.557 106.933L137.055 111.474L136.908 96.2399L135.736 94.9216C123.344 79.8044 122.523 58.0222 134.125 42.0407C148.246 22.6755 175.316 18.3982 194.623 32.3728C213.988 46.4499 218.28 73.4763 204.291 92.7243C192.558 108.823 171.552 114.77 153.314 107.666ZM227.289 105.175L226.117 106.64L226.264 121.875L211.908 117.041L210.15 117.773C201.947 120.82 193.202 121.069 185.102 118.799L185.072 118.784C195.897 115.459 205.712 108.72 212.787 99.0231C223.979 83.5983 225.795 64.2185 219.291 47.695L219.379 47.7536C222.748 50.1706 225.839 53.1882 228.461 56.8357C239.096 71.4255 238.495 91.2888 227.289 105.175Z" fill="white"/>
<path d="M169.428 61.6699C166.044 61.6699 163.422 64.292 163.422 67.5293C163.422 70.7666 166.044 73.3887 169.428 73.3887C172.519 73.3887 175.141 70.7666 175.141 67.5293C175.141 64.292 172.519 61.6699 169.428 61.6699Z" fill="white"/>
</svg>
