<svg width="707" height="741" viewBox="0 0 707 741" fill="none" xmlns="http://www.w3.org/2000/svg">
<rect x="95" y="442" width="74" height="175" rx="37" fill="#D9D9D9"/>
<rect x="200.07" y="351" width="74" height="266" rx="37" fill="#D9D9D9"/>
<rect x="319" y="285" width="74" height="332" rx="37" fill="#D9D9D9"/>
<rect x="437.07" y="209" width="74" height="408" rx="37" fill="#09C169"/>
<line y1="652" x2="607.139" y2="652" stroke="white"/>
<path d="M482.67 107.786C483.657 105.207 482.366 102.317 479.786 101.33L437.756 85.2532C435.177 84.2667 432.286 85.5578 431.3 88.137C430.313 90.7161 431.604 93.6067 434.183 94.5933L471.544 108.884L457.253 146.244C456.267 148.823 457.558 151.714 460.137 152.7C462.716 153.687 465.607 152.396 466.593 149.817L482.67 107.786ZM77.0391 290.565L480.039 110.565L475.961 101.435L72.9609 281.435L77.0391 290.565Z" fill="#09C169"/>
<path d="M238.409 732V720.364H242.341C243.254 720.364 244 720.528 244.58 720.858C245.163 721.184 245.595 721.625 245.875 722.182C246.155 722.739 246.295 723.36 246.295 724.045C246.295 724.731 246.155 725.354 245.875 725.915C245.598 726.475 245.17 726.922 244.591 727.256C244.011 727.585 243.269 727.75 242.364 727.75H239.545V726.5H242.318C242.943 726.5 243.445 726.392 243.824 726.176C244.203 725.96 244.477 725.669 244.648 725.301C244.822 724.93 244.909 724.511 244.909 724.045C244.909 723.58 244.822 723.163 244.648 722.795C244.477 722.428 244.201 722.14 243.818 721.932C243.436 721.72 242.928 721.614 242.295 721.614H239.818V732H238.409ZM253.884 728.432V723.273H255.224V732H253.884V730.523H253.793C253.588 730.966 253.27 731.343 252.838 731.653C252.406 731.96 251.861 732.114 251.202 732.114C250.656 732.114 250.171 731.994 249.747 731.756C249.323 731.513 248.99 731.15 248.747 730.665C248.505 730.176 248.384 729.561 248.384 728.818V723.273H249.724V728.727C249.724 729.364 249.902 729.871 250.259 730.25C250.618 730.629 251.077 730.818 251.634 730.818C251.967 730.818 252.306 730.733 252.651 730.562C252.999 730.392 253.291 730.131 253.526 729.778C253.764 729.426 253.884 728.977 253.884 728.432ZM257.862 732V720.364H259.203V724.659H259.317C259.415 724.508 259.552 724.314 259.726 724.08C259.904 723.841 260.158 723.629 260.487 723.443C260.821 723.254 261.271 723.159 261.839 723.159C262.574 723.159 263.222 723.343 263.783 723.71C264.343 724.078 264.781 724.598 265.095 725.273C265.41 725.947 265.567 726.742 265.567 727.659C265.567 728.583 265.41 729.384 265.095 730.062C264.781 730.737 264.345 731.259 263.788 731.631C263.232 731.998 262.589 732.182 261.862 732.182C261.302 732.182 260.853 732.089 260.516 731.903C260.179 731.714 259.919 731.5 259.737 731.261C259.555 731.019 259.415 730.818 259.317 730.659H259.158V732H257.862ZM259.18 727.636C259.18 728.295 259.277 728.877 259.47 729.381C259.663 729.881 259.946 730.273 260.317 730.557C260.688 730.837 261.143 730.977 261.68 730.977C262.241 730.977 262.709 730.83 263.084 730.534C263.463 730.235 263.747 729.833 263.936 729.33C264.129 728.822 264.226 728.258 264.226 727.636C264.226 727.023 264.131 726.47 263.942 725.977C263.756 725.481 263.474 725.089 263.095 724.801C262.72 724.509 262.249 724.364 261.68 724.364C261.135 724.364 260.677 724.502 260.305 724.778C259.934 725.051 259.654 725.434 259.464 725.926C259.275 726.415 259.18 726.985 259.18 727.636ZM268.959 720.364V732H267.618V720.364H268.959ZM271.415 732V723.273H272.756V732H271.415ZM272.097 721.818C271.835 721.818 271.61 721.729 271.42 721.551C271.235 721.373 271.142 721.159 271.142 720.909C271.142 720.659 271.235 720.445 271.42 720.267C271.61 720.089 271.835 720 272.097 720C272.358 720 272.581 720.089 272.767 720.267C272.956 720.445 273.051 720.659 273.051 720.909C273.051 721.159 272.956 721.373 272.767 721.551C272.581 721.729 272.358 721.818 272.097 721.818ZM281.393 725.227L280.189 725.568C280.113 725.367 280.001 725.172 279.854 724.983C279.71 724.79 279.513 724.631 279.263 724.506C279.013 724.381 278.693 724.318 278.303 724.318C277.768 724.318 277.323 724.441 276.967 724.688C276.615 724.93 276.439 725.239 276.439 725.614C276.439 725.947 276.56 726.21 276.803 726.403C277.045 726.597 277.424 726.758 277.939 726.886L279.234 727.205C280.015 727.394 280.596 727.684 280.979 728.074C281.361 728.46 281.553 728.958 281.553 729.568C281.553 730.068 281.409 730.515 281.121 730.909C280.837 731.303 280.439 731.614 279.928 731.841C279.416 732.068 278.821 732.182 278.143 732.182C277.253 732.182 276.517 731.989 275.933 731.602C275.35 731.216 274.981 730.652 274.825 729.909L276.098 729.591C276.219 730.061 276.448 730.413 276.786 730.648C277.126 730.883 277.571 731 278.121 731C278.746 731 279.242 730.867 279.609 730.602C279.981 730.333 280.166 730.011 280.166 729.636C280.166 729.333 280.06 729.08 279.848 728.875C279.636 728.667 279.31 728.511 278.871 728.409L277.416 728.068C276.617 727.879 276.03 727.585 275.655 727.188C275.284 726.786 275.098 726.284 275.098 725.682C275.098 725.189 275.236 724.754 275.513 724.375C275.793 723.996 276.174 723.699 276.655 723.483C277.14 723.267 277.689 723.159 278.303 723.159C279.166 723.159 279.844 723.348 280.337 723.727C280.833 724.106 281.185 724.606 281.393 725.227ZM284.912 726.75V732H283.571V720.364H284.912V724.636H285.026C285.23 724.186 285.537 723.828 285.946 723.562C286.359 723.294 286.908 723.159 287.594 723.159C288.188 723.159 288.709 723.278 289.156 723.517C289.603 723.752 289.95 724.114 290.196 724.602C290.446 725.087 290.571 725.705 290.571 726.455V732H289.23V726.545C289.23 725.852 289.05 725.316 288.69 724.938C288.334 724.555 287.84 724.364 287.207 724.364C286.768 724.364 286.374 724.456 286.026 724.642C285.681 724.828 285.408 725.098 285.207 725.455C285.01 725.811 284.912 726.242 284.912 726.75ZM296.683 732.182C295.842 732.182 295.117 731.996 294.507 731.625C293.901 731.25 293.433 730.727 293.104 730.057C292.778 729.383 292.615 728.598 292.615 727.705C292.615 726.811 292.778 726.023 293.104 725.341C293.433 724.655 293.892 724.121 294.479 723.739C295.07 723.352 295.759 723.159 296.547 723.159C297.001 723.159 297.45 723.235 297.893 723.386C298.337 723.538 298.74 723.784 299.104 724.125C299.467 724.462 299.757 724.909 299.973 725.466C300.189 726.023 300.297 726.708 300.297 727.523V728.091H293.57V726.932H298.933C298.933 726.439 298.835 726 298.638 725.614C298.445 725.227 298.168 724.922 297.808 724.699C297.452 724.475 297.032 724.364 296.547 724.364C296.013 724.364 295.551 724.496 295.161 724.761C294.774 725.023 294.477 725.364 294.268 725.784C294.06 726.205 293.956 726.655 293.956 727.136V727.909C293.956 728.568 294.07 729.127 294.297 729.585C294.528 730.04 294.848 730.386 295.257 730.625C295.666 730.86 296.142 730.977 296.683 730.977C297.036 730.977 297.354 730.928 297.638 730.83C297.926 730.727 298.174 730.576 298.382 730.375C298.59 730.17 298.751 729.917 298.865 729.614L300.161 729.977C300.024 730.417 299.795 730.803 299.473 731.136C299.151 731.466 298.753 731.723 298.28 731.909C297.806 732.091 297.274 732.182 296.683 732.182ZM305.632 732.182C304.905 732.182 304.263 731.998 303.706 731.631C303.149 731.259 302.714 730.737 302.399 730.062C302.085 729.384 301.928 728.583 301.928 727.659C301.928 726.742 302.085 725.947 302.399 725.273C302.714 724.598 303.151 724.078 303.712 723.71C304.272 723.343 304.92 723.159 305.655 723.159C306.223 723.159 306.672 723.254 307.001 723.443C307.335 723.629 307.589 723.841 307.763 724.08C307.941 724.314 308.079 724.508 308.178 724.659H308.291V720.364H309.632V732H308.337V730.659H308.178C308.079 730.818 307.939 731.019 307.757 731.261C307.575 731.5 307.316 731.714 306.979 731.903C306.642 732.089 306.193 732.182 305.632 732.182ZM305.814 730.977C306.352 730.977 306.806 730.837 307.178 730.557C307.549 730.273 307.831 729.881 308.024 729.381C308.217 728.877 308.314 728.295 308.314 727.636C308.314 726.985 308.219 726.415 308.03 725.926C307.84 725.434 307.56 725.051 307.189 724.778C306.818 724.502 306.359 724.364 305.814 724.364C305.246 724.364 304.772 724.509 304.393 724.801C304.018 725.089 303.736 725.481 303.547 725.977C303.361 726.47 303.268 727.023 303.268 727.636C303.268 728.258 303.363 728.822 303.553 729.33C303.746 729.833 304.03 730.235 304.405 730.534C304.784 730.83 305.253 730.977 305.814 730.977ZM316.956 732V720.364H318.297V724.659H318.411C318.509 724.508 318.645 724.314 318.82 724.08C318.998 723.841 319.251 723.629 319.581 723.443C319.914 723.254 320.365 723.159 320.933 723.159C321.668 723.159 322.316 723.343 322.876 723.71C323.437 724.078 323.875 724.598 324.189 725.273C324.503 725.947 324.661 726.742 324.661 727.659C324.661 728.583 324.503 729.384 324.189 730.062C323.875 730.737 323.439 731.259 322.882 731.631C322.325 731.998 321.683 732.182 320.956 732.182C320.395 732.182 319.946 732.089 319.609 731.903C319.272 731.714 319.013 731.5 318.831 731.261C318.649 731.019 318.509 730.818 318.411 730.659H318.251V732H316.956ZM318.274 727.636C318.274 728.295 318.371 728.877 318.564 729.381C318.757 729.881 319.039 730.273 319.411 730.557C319.782 730.837 320.236 730.977 320.774 730.977C321.335 730.977 321.803 730.83 322.178 730.534C322.556 730.235 322.84 729.833 323.03 729.33C323.223 728.822 323.32 728.258 323.32 727.636C323.32 727.023 323.225 726.47 323.036 725.977C322.85 725.481 322.568 725.089 322.189 724.801C321.814 724.509 321.342 724.364 320.774 724.364C320.229 724.364 319.77 724.502 319.399 724.778C319.028 725.051 318.748 725.434 318.558 725.926C318.369 726.415 318.274 726.985 318.274 727.636ZM327.263 735.273C327.036 735.273 326.833 735.254 326.655 735.216C326.477 735.182 326.354 735.148 326.286 735.114L326.626 733.932C326.952 734.015 327.24 734.045 327.49 734.023C327.74 734 327.962 733.888 328.155 733.688C328.352 733.491 328.532 733.17 328.695 732.727L328.945 732.045L325.717 723.273H327.172L329.581 730.227H329.672L332.081 723.273H333.536L329.831 733.273C329.664 733.723 329.458 734.097 329.212 734.392C328.965 734.691 328.679 734.913 328.354 735.057C328.032 735.201 327.668 735.273 327.263 735.273ZM339.987 732V720.364H341.396V730.75H346.805V732H339.987ZM348.805 732V723.273H350.146V732H348.805ZM349.487 721.818C349.226 721.818 349 721.729 348.811 721.551C348.625 721.373 348.533 721.159 348.533 720.909C348.533 720.659 348.625 720.445 348.811 720.267C349 720.089 349.226 720 349.487 720C349.749 720 349.972 720.089 350.158 720.267C350.347 720.445 350.442 720.659 350.442 720.909C350.442 721.159 350.347 721.373 350.158 721.551C349.972 721.729 349.749 721.818 349.487 721.818ZM356.148 732.182C355.36 732.182 354.669 731.994 354.074 731.619C353.483 731.244 353.021 730.72 352.688 730.045C352.358 729.371 352.193 728.583 352.193 727.682C352.193 726.773 352.358 725.979 352.688 725.301C353.021 724.623 353.483 724.097 354.074 723.722C354.669 723.347 355.36 723.159 356.148 723.159C356.936 723.159 357.625 723.347 358.216 723.722C358.811 724.097 359.273 724.623 359.602 725.301C359.936 725.979 360.102 726.773 360.102 727.682C360.102 728.583 359.936 729.371 359.602 730.045C359.273 730.72 358.811 731.244 358.216 731.619C357.625 731.994 356.936 732.182 356.148 732.182ZM356.148 730.977C356.746 730.977 357.239 730.824 357.625 730.517C358.011 730.21 358.297 729.807 358.483 729.307C358.669 728.807 358.761 728.265 358.761 727.682C358.761 727.098 358.669 726.555 358.483 726.051C358.297 725.547 358.011 725.14 357.625 724.83C357.239 724.519 356.746 724.364 356.148 724.364C355.549 724.364 355.057 724.519 354.67 724.83C354.284 725.14 353.998 725.547 353.812 726.051C353.627 726.555 353.534 727.098 353.534 727.682C353.534 728.265 353.627 728.807 353.812 729.307C353.998 729.807 354.284 730.21 354.67 730.517C355.057 730.824 355.549 730.977 356.148 730.977ZM363.49 726.75V732H362.149V723.273H363.445V724.636H363.558C363.763 724.193 364.073 723.837 364.49 723.568C364.907 723.295 365.445 723.159 366.104 723.159C366.695 723.159 367.212 723.28 367.655 723.523C368.098 723.761 368.443 724.125 368.689 724.614C368.935 725.098 369.058 725.712 369.058 726.455V732H367.717V726.545C367.717 725.86 367.539 725.326 367.183 724.943C366.827 724.557 366.339 724.364 365.717 724.364C365.289 724.364 364.907 724.456 364.57 724.642C364.236 724.828 363.973 725.098 363.78 725.455C363.587 725.811 363.49 726.242 363.49 726.75ZM375.168 732.182C374.327 732.182 373.601 731.996 372.991 731.625C372.385 731.25 371.918 730.727 371.588 730.057C371.262 729.383 371.099 728.598 371.099 727.705C371.099 726.811 371.262 726.023 371.588 725.341C371.918 724.655 372.376 724.121 372.963 723.739C373.554 723.352 374.243 723.159 375.031 723.159C375.486 723.159 375.935 723.235 376.378 723.386C376.821 723.538 377.224 723.784 377.588 724.125C377.952 724.462 378.241 724.909 378.457 725.466C378.673 726.023 378.781 726.708 378.781 727.523V728.091H372.054V726.932H377.418C377.418 726.439 377.319 726 377.122 725.614C376.929 725.227 376.652 724.922 376.293 724.699C375.937 724.475 375.516 724.364 375.031 724.364C374.497 724.364 374.035 724.496 373.645 724.761C373.259 725.023 372.961 725.364 372.753 725.784C372.545 726.205 372.44 726.655 372.44 727.136V727.909C372.44 728.568 372.554 729.127 372.781 729.585C373.012 730.04 373.332 730.386 373.741 730.625C374.151 730.86 374.626 730.977 375.168 730.977C375.52 730.977 375.838 730.928 376.122 730.83C376.41 730.727 376.658 730.576 376.866 730.375C377.075 730.17 377.236 729.917 377.349 729.614L378.645 729.977C378.509 730.417 378.279 730.803 377.957 731.136C377.635 731.466 377.238 731.723 376.764 731.909C376.291 732.091 375.759 732.182 375.168 732.182ZM382.162 720.364V732H380.821V720.364H382.162ZM395.663 723.273C395.595 722.697 395.319 722.25 394.834 721.932C394.349 721.614 393.754 721.455 393.05 721.455C392.535 721.455 392.084 721.538 391.697 721.705C391.315 721.871 391.016 722.1 390.8 722.392C390.588 722.684 390.482 723.015 390.482 723.386C390.482 723.697 390.555 723.964 390.703 724.188C390.855 724.407 391.048 724.591 391.283 724.739C391.518 724.883 391.764 725.002 392.021 725.097C392.279 725.187 392.516 725.261 392.732 725.318L393.913 725.636C394.216 725.716 394.554 725.826 394.925 725.966C395.3 726.106 395.658 726.297 395.999 726.54C396.343 726.778 396.627 727.085 396.851 727.46C397.074 727.835 397.186 728.295 397.186 728.841C397.186 729.47 397.021 730.038 396.692 730.545C396.366 731.053 395.889 731.456 395.26 731.756C394.635 732.055 393.875 732.205 392.982 732.205C392.148 732.205 391.427 732.07 390.817 731.801C390.211 731.532 389.733 731.157 389.385 730.676C389.04 730.195 388.845 729.636 388.8 729H390.254C390.292 729.439 390.44 729.803 390.697 730.091C390.959 730.375 391.288 730.587 391.686 730.727C392.088 730.864 392.519 730.932 392.982 730.932C393.519 730.932 394.002 730.845 394.43 730.67C394.858 730.492 395.197 730.246 395.447 729.932C395.697 729.614 395.822 729.242 395.822 728.818C395.822 728.432 395.714 728.117 395.499 727.875C395.283 727.633 394.999 727.436 394.646 727.284C394.294 727.133 393.913 727 393.504 726.886L392.072 726.477C391.163 726.216 390.444 725.843 389.913 725.358C389.383 724.873 389.118 724.239 389.118 723.455C389.118 722.803 389.294 722.235 389.646 721.75C390.002 721.261 390.48 720.883 391.078 720.614C391.68 720.341 392.353 720.205 393.095 720.205C393.845 720.205 394.512 720.339 395.095 720.608C395.679 720.873 396.141 721.237 396.482 721.699C396.826 722.161 397.008 722.686 397.027 723.273H395.663ZM404.821 728.432V723.273H406.162V732H404.821V730.523H404.73C404.526 730.966 404.207 731.343 403.776 731.653C403.344 731.96 402.798 732.114 402.139 732.114C401.594 732.114 401.109 731.994 400.685 731.756C400.26 731.513 399.927 731.15 399.685 730.665C399.442 730.176 399.321 729.561 399.321 728.818V723.273H400.662V728.727C400.662 729.364 400.84 729.871 401.196 730.25C401.556 730.629 402.014 730.818 402.571 730.818C402.904 730.818 403.243 730.733 403.588 730.562C403.937 730.392 404.228 730.131 404.463 729.778C404.702 729.426 404.821 728.977 404.821 728.432ZM408.618 723.273H409.959V732.636C409.959 733.174 409.866 733.64 409.68 734.034C409.499 734.428 409.222 734.733 408.851 734.949C408.483 735.165 408.019 735.273 407.459 735.273C407.413 735.273 407.368 735.273 407.322 735.273C407.277 735.273 407.232 735.273 407.186 735.273V734.023C407.232 734.023 407.273 734.023 407.311 734.023C407.349 734.023 407.391 734.023 407.436 734.023C407.845 734.023 408.144 733.902 408.334 733.659C408.523 733.42 408.618 733.08 408.618 732.636V723.273ZM409.277 721.818C409.016 721.818 408.79 721.729 408.601 721.551C408.415 721.373 408.322 721.159 408.322 720.909C408.322 720.659 408.415 720.445 408.601 720.267C408.79 720.089 409.016 720 409.277 720C409.538 720 409.762 720.089 409.947 720.267C410.137 720.445 410.232 720.659 410.232 720.909C410.232 721.159 410.137 721.373 409.947 721.551C409.762 721.729 409.538 721.818 409.277 721.818ZM414.983 732.205C414.43 732.205 413.928 732.1 413.477 731.892C413.027 731.68 412.669 731.375 412.403 730.977C412.138 730.576 412.006 730.091 412.006 729.523C412.006 729.023 412.104 728.617 412.301 728.307C412.498 727.992 412.761 727.746 413.091 727.568C413.42 727.39 413.784 727.258 414.182 727.17C414.583 727.08 414.987 727.008 415.392 726.955C415.922 726.886 416.352 726.835 416.682 726.801C417.015 726.763 417.258 726.701 417.409 726.614C417.564 726.527 417.642 726.375 417.642 726.159V726.114C417.642 725.553 417.489 725.117 417.182 724.807C416.879 724.496 416.419 724.341 415.801 724.341C415.161 724.341 414.659 724.481 414.295 724.761C413.932 725.042 413.676 725.341 413.528 725.659L412.256 725.205C412.483 724.674 412.786 724.261 413.165 723.966C413.547 723.667 413.964 723.458 414.415 723.341C414.869 723.22 415.316 723.159 415.756 723.159C416.036 723.159 416.358 723.193 416.722 723.261C417.089 723.326 417.443 723.46 417.784 723.665C418.129 723.869 418.415 724.178 418.642 724.591C418.869 725.004 418.983 725.557 418.983 726.25V732H417.642V730.818H417.574C417.483 731.008 417.331 731.21 417.119 731.426C416.907 731.642 416.625 731.826 416.273 731.977C415.92 732.129 415.491 732.205 414.983 732.205ZM415.188 731C415.718 731 416.165 730.896 416.528 730.688C416.896 730.479 417.172 730.21 417.358 729.881C417.547 729.551 417.642 729.205 417.642 728.841V727.614C417.585 727.682 417.46 727.744 417.267 727.801C417.078 727.854 416.858 727.902 416.608 727.943C416.362 727.981 416.121 728.015 415.886 728.045C415.655 728.072 415.468 728.095 415.324 728.114C414.975 728.159 414.65 728.233 414.347 728.335C414.047 728.434 413.805 728.583 413.619 728.784C413.438 728.981 413.347 729.25 413.347 729.591C413.347 730.057 413.519 730.409 413.864 730.648C414.212 730.883 414.653 731 415.188 731ZM421.982 735.273C421.754 735.273 421.552 735.254 421.374 735.216C421.196 735.182 421.072 735.148 421.004 735.114L421.345 733.932C421.671 734.015 421.959 734.045 422.209 734.023C422.459 734 422.68 733.888 422.874 733.688C423.071 733.491 423.25 733.17 423.413 732.727L423.663 732.045L420.436 723.273H421.891L424.3 730.227H424.391L426.8 723.273H428.254L424.55 733.273C424.383 733.723 424.177 734.097 423.93 734.392C423.684 734.691 423.398 734.913 423.072 735.057C422.75 735.201 422.387 735.273 421.982 735.273ZM435.183 720.364L438.638 730.159H438.774L442.229 720.364H443.706L439.433 732H437.979L433.706 720.364H435.183ZM447.092 732.205C446.539 732.205 446.037 732.1 445.587 731.892C445.136 731.68 444.778 731.375 444.513 730.977C444.248 730.576 444.115 730.091 444.115 729.523C444.115 729.023 444.214 728.617 444.411 728.307C444.607 727.992 444.871 727.746 445.2 727.568C445.53 727.39 445.893 727.258 446.291 727.17C446.693 727.08 447.096 727.008 447.501 726.955C448.032 726.886 448.462 726.835 448.791 726.801C449.125 726.763 449.367 726.701 449.518 726.614C449.674 726.527 449.751 726.375 449.751 726.159V726.114C449.751 725.553 449.598 725.117 449.291 724.807C448.988 724.496 448.528 724.341 447.911 724.341C447.27 724.341 446.768 724.481 446.405 724.761C446.041 725.042 445.786 725.341 445.638 725.659L444.365 725.205C444.592 724.674 444.895 724.261 445.274 723.966C445.657 723.667 446.073 723.458 446.524 723.341C446.979 723.22 447.426 723.159 447.865 723.159C448.145 723.159 448.467 723.193 448.831 723.261C449.198 723.326 449.553 723.46 449.893 723.665C450.238 723.869 450.524 724.178 450.751 724.591C450.979 725.004 451.092 725.557 451.092 726.25V732H449.751V730.818H449.683C449.592 731.008 449.441 731.21 449.229 731.426C449.017 731.642 448.734 731.826 448.382 731.977C448.03 732.129 447.6 732.205 447.092 732.205ZM447.297 731C447.827 731 448.274 730.896 448.638 730.688C449.005 730.479 449.282 730.21 449.467 729.881C449.657 729.551 449.751 729.205 449.751 728.841V727.614C449.695 727.682 449.57 727.744 449.376 727.801C449.187 727.854 448.967 727.902 448.717 727.943C448.471 727.981 448.231 728.015 447.996 728.045C447.765 728.072 447.577 728.095 447.433 728.114C447.085 728.159 446.759 728.233 446.456 728.335C446.157 728.434 445.914 728.583 445.729 728.784C445.547 728.981 445.456 729.25 445.456 729.591C445.456 730.057 445.628 730.409 445.973 730.648C446.321 730.883 446.763 731 447.297 731ZM453.54 732V723.273H454.881V732H453.54ZM454.222 721.818C453.96 721.818 453.735 721.729 453.545 721.551C453.36 721.373 453.267 721.159 453.267 720.909C453.267 720.659 453.36 720.445 453.545 720.267C453.735 720.089 453.96 720 454.222 720C454.483 720 454.706 720.089 454.892 720.267C455.081 720.445 455.176 720.659 455.176 720.909C455.176 721.159 455.081 721.373 454.892 721.551C454.706 721.729 454.483 721.818 454.222 721.818ZM458.678 720.364V732H457.337V720.364H458.678ZM467.315 725.227L466.111 725.568C466.035 725.367 465.923 725.172 465.776 724.983C465.632 724.79 465.435 724.631 465.185 724.506C464.935 724.381 464.615 724.318 464.224 724.318C463.69 724.318 463.245 724.441 462.889 724.688C462.537 724.93 462.361 725.239 462.361 725.614C462.361 725.947 462.482 726.21 462.724 726.403C462.967 726.597 463.346 726.758 463.861 726.886L465.156 727.205C465.937 727.394 466.518 727.684 466.901 728.074C467.283 728.46 467.474 728.958 467.474 729.568C467.474 730.068 467.33 730.515 467.043 730.909C466.759 731.303 466.361 731.614 465.849 731.841C465.338 732.068 464.743 732.182 464.065 732.182C463.175 732.182 462.438 731.989 461.855 731.602C461.272 731.216 460.902 730.652 460.747 729.909L462.02 729.591C462.141 730.061 462.37 730.413 462.707 730.648C463.048 730.883 463.493 731 464.043 731C464.668 731 465.164 730.867 465.531 730.602C465.902 730.333 466.088 730.011 466.088 729.636C466.088 729.333 465.982 729.08 465.77 728.875C465.558 728.667 465.232 728.511 464.793 728.409L463.338 728.068C462.539 727.879 461.952 727.585 461.577 727.188C461.205 726.786 461.02 726.284 461.02 725.682C461.02 725.189 461.158 724.754 461.435 724.375C461.715 723.996 462.096 723.699 462.577 723.483C463.062 723.267 463.611 723.159 464.224 723.159C465.088 723.159 465.766 723.348 466.259 723.727C466.755 724.106 467.107 724.606 467.315 725.227ZM470.834 726.75V732H469.493V720.364H470.834V724.636H470.947C471.152 724.186 471.459 723.828 471.868 723.562C472.281 723.294 472.83 723.159 473.516 723.159C474.11 723.159 474.631 723.278 475.078 723.517C475.525 723.752 475.872 724.114 476.118 724.602C476.368 725.087 476.493 725.705 476.493 726.455V732H475.152V726.545C475.152 725.852 474.972 725.316 474.612 724.938C474.256 724.555 473.762 724.364 473.129 724.364C472.69 724.364 472.296 724.456 471.947 724.642C471.603 724.828 471.33 725.098 471.129 725.455C470.932 725.811 470.834 726.242 470.834 726.75ZM482.605 732.182C481.764 732.182 481.039 731.996 480.429 731.625C479.823 731.25 479.355 730.727 479.026 730.057C478.7 729.383 478.537 728.598 478.537 727.705C478.537 726.811 478.7 726.023 479.026 725.341C479.355 724.655 479.813 724.121 480.401 723.739C480.991 723.352 481.681 723.159 482.469 723.159C482.923 723.159 483.372 723.235 483.815 723.386C484.259 723.538 484.662 723.784 485.026 724.125C485.389 724.462 485.679 724.909 485.895 725.466C486.111 726.023 486.219 726.708 486.219 727.523V728.091H479.491V726.932H484.855C484.855 726.439 484.757 726 484.56 725.614C484.366 725.227 484.09 724.922 483.73 724.699C483.374 724.475 482.954 724.364 482.469 724.364C481.935 724.364 481.473 724.496 481.082 724.761C480.696 725.023 480.399 725.364 480.19 725.784C479.982 726.205 479.878 726.655 479.878 727.136V727.909C479.878 728.568 479.991 729.127 480.219 729.585C480.45 730.04 480.77 730.386 481.179 730.625C481.588 730.86 482.063 730.977 482.605 730.977C482.957 730.977 483.276 730.928 483.56 730.83C483.848 730.727 484.096 730.576 484.304 730.375C484.512 730.17 484.673 729.917 484.787 729.614L486.082 729.977C485.946 730.417 485.717 730.803 485.395 731.136C485.073 731.466 484.675 731.723 484.202 731.909C483.728 732.091 483.196 732.182 482.605 732.182ZM488.259 732V723.273H489.554V724.591H489.645C489.804 724.159 490.092 723.809 490.509 723.54C490.925 723.271 491.395 723.136 491.918 723.136C492.016 723.136 492.139 723.138 492.287 723.142C492.435 723.146 492.546 723.152 492.622 723.159V724.523C492.577 724.511 492.473 724.494 492.31 724.472C492.151 724.445 491.982 724.432 491.804 724.432C491.38 724.432 491.001 724.521 490.668 724.699C490.338 724.873 490.077 725.116 489.884 725.426C489.694 725.733 489.599 726.083 489.599 726.477V732H488.259ZM495.341 735.273C495.114 735.273 494.911 735.254 494.733 735.216C494.555 735.182 494.432 735.148 494.364 735.114L494.705 733.932C495.03 734.015 495.318 734.045 495.568 734.023C495.818 734 496.04 733.888 496.233 733.688C496.43 733.491 496.61 733.17 496.773 732.727L497.023 732.045L493.795 723.273H495.25L497.659 730.227H497.75L500.159 723.273H501.614L497.909 733.273C497.742 733.723 497.536 734.097 497.29 734.392C497.044 734.691 496.758 734.913 496.432 735.057C496.11 735.201 495.746 735.273 495.341 735.273ZM504.837 730.409L504.746 731.023C504.681 731.455 504.583 731.917 504.45 732.409C504.321 732.902 504.187 733.366 504.047 733.801C503.907 734.237 503.791 734.583 503.7 734.841H502.678C502.727 734.598 502.791 734.278 502.871 733.881C502.95 733.483 503.03 733.038 503.109 732.545C503.193 732.057 503.261 731.557 503.314 731.045L503.382 730.409H504.837ZM512.48 732H511.003L515.276 720.364H516.73L521.003 732H519.526L516.048 722.205H515.957L512.48 732ZM513.026 727.455H518.98V728.705H513.026V727.455ZM528.134 728.432V723.273H529.474V732H528.134V730.523H528.043C527.838 730.966 527.52 731.343 527.088 731.653C526.656 731.96 526.111 732.114 525.452 732.114C524.906 732.114 524.421 731.994 523.997 731.756C523.573 731.513 523.24 731.15 522.997 730.665C522.755 730.176 522.634 729.561 522.634 728.818V723.273H523.974V728.727C523.974 729.364 524.152 729.871 524.509 730.25C524.868 730.629 525.327 730.818 525.884 730.818C526.217 730.818 526.556 730.733 526.901 730.562C527.249 730.392 527.541 730.131 527.776 729.778C528.014 729.426 528.134 728.977 528.134 728.432ZM535.453 735.455C534.805 735.455 534.249 735.371 533.783 735.205C533.317 735.042 532.929 734.826 532.618 734.557C532.311 734.292 532.067 734.008 531.885 733.705L532.953 732.955C533.074 733.114 533.228 733.295 533.413 733.5C533.599 733.708 533.853 733.888 534.175 734.04C534.5 734.195 534.927 734.273 535.453 734.273C536.158 734.273 536.739 734.102 537.197 733.761C537.656 733.42 537.885 732.886 537.885 732.159V730.386H537.771C537.673 730.545 537.533 730.742 537.351 730.977C537.173 731.208 536.915 731.415 536.578 731.597C536.245 731.775 535.794 731.864 535.226 731.864C534.521 731.864 533.889 731.697 533.328 731.364C532.771 731.03 532.33 730.545 532.004 729.909C531.682 729.273 531.521 728.5 531.521 727.591C531.521 726.697 531.679 725.919 531.993 725.256C532.307 724.589 532.745 724.074 533.305 723.71C533.866 723.343 534.514 723.159 535.249 723.159C535.817 723.159 536.268 723.254 536.601 723.443C536.938 723.629 537.196 723.841 537.374 724.08C537.555 724.314 537.696 724.508 537.794 724.659H537.93V723.273H539.226V732.25C539.226 733 539.055 733.61 538.714 734.08C538.377 734.553 537.923 734.9 537.351 735.119C536.783 735.343 536.15 735.455 535.453 735.455ZM535.408 730.659C535.946 730.659 536.4 730.536 536.771 730.29C537.143 730.044 537.425 729.689 537.618 729.227C537.811 728.765 537.908 728.212 537.908 727.568C537.908 726.939 537.813 726.384 537.624 725.903C537.434 725.422 537.154 725.045 536.783 724.773C536.411 724.5 535.953 724.364 535.408 724.364C534.839 724.364 534.366 724.508 533.987 724.795C533.612 725.083 533.33 725.47 533.141 725.955C532.955 726.439 532.862 726.977 532.862 727.568C532.862 728.174 532.957 728.71 533.146 729.176C533.339 729.638 533.624 730.002 533.999 730.267C534.377 730.528 534.847 730.659 535.408 730.659ZM546.158 732V730.977L549.999 726.773C550.449 726.28 550.821 725.852 551.112 725.489C551.404 725.121 551.62 724.777 551.76 724.455C551.904 724.129 551.976 723.788 551.976 723.432C551.976 723.023 551.877 722.669 551.68 722.369C551.487 722.07 551.222 721.839 550.885 721.676C550.548 721.513 550.169 721.432 549.749 721.432C549.302 721.432 548.911 721.525 548.578 721.71C548.249 721.892 547.993 722.148 547.811 722.477C547.633 722.807 547.544 723.193 547.544 723.636H546.203C546.203 722.955 546.36 722.356 546.675 721.841C546.989 721.326 547.417 720.924 547.959 720.636C548.504 720.348 549.116 720.205 549.794 720.205C550.476 720.205 551.08 720.348 551.607 720.636C552.133 720.924 552.546 721.312 552.845 721.801C553.144 722.29 553.294 722.833 553.294 723.432C553.294 723.86 553.216 724.278 553.061 724.688C552.91 725.093 552.644 725.545 552.266 726.045C551.891 726.542 551.37 727.148 550.703 727.864L548.089 730.659V730.75H553.499V732H546.158ZM559.55 720.205C560.027 720.208 560.504 720.299 560.982 720.477C561.459 720.655 561.894 720.951 562.288 721.364C562.682 721.773 562.999 722.331 563.237 723.04C563.476 723.748 563.595 724.636 563.595 725.705C563.595 726.739 563.497 727.657 563.3 728.46C563.107 729.259 562.826 729.934 562.459 730.483C562.095 731.032 561.652 731.449 561.129 731.733C560.61 732.017 560.023 732.159 559.368 732.159C558.716 732.159 558.135 732.03 557.624 731.773C557.116 731.511 556.699 731.15 556.374 730.688C556.052 730.222 555.845 729.682 555.754 729.068H557.141C557.266 729.602 557.514 730.044 557.885 730.392C558.26 730.737 558.754 730.909 559.368 730.909C560.266 730.909 560.974 730.517 561.493 729.733C562.016 728.949 562.277 727.841 562.277 726.409H562.186C561.974 726.727 561.722 727.002 561.43 727.233C561.139 727.464 560.815 727.642 560.459 727.767C560.103 727.892 559.724 727.955 559.322 727.955C558.656 727.955 558.044 727.79 557.487 727.46C556.934 727.127 556.491 726.67 556.158 726.091C555.828 725.508 555.663 724.841 555.663 724.091C555.663 723.379 555.822 722.727 556.141 722.136C556.463 721.542 556.913 721.068 557.493 720.716C558.076 720.364 558.762 720.193 559.55 720.205ZM559.55 721.455C559.072 721.455 558.643 721.574 558.26 721.812C557.881 722.047 557.58 722.366 557.357 722.767C557.137 723.165 557.027 723.606 557.027 724.091C557.027 724.576 557.133 725.017 557.345 725.415C557.561 725.809 557.855 726.123 558.226 726.358C558.601 726.589 559.027 726.705 559.504 726.705C559.864 726.705 560.199 726.634 560.51 726.494C560.821 726.35 561.091 726.155 561.322 725.909C561.557 725.659 561.741 725.377 561.874 725.062C562.006 724.744 562.072 724.413 562.072 724.068C562.072 723.614 561.963 723.187 561.743 722.79C561.527 722.392 561.228 722.07 560.845 721.824C560.466 721.578 560.035 721.455 559.55 721.455ZM567.446 730.409L567.355 731.023C567.291 731.455 567.192 731.917 567.06 732.409C566.931 732.902 566.796 733.366 566.656 733.801C566.516 734.237 566.401 734.583 566.31 734.841H565.287C565.336 734.598 565.401 734.278 565.48 733.881C565.56 733.483 565.639 733.038 565.719 732.545C565.802 732.057 565.87 731.557 565.923 731.045L565.991 730.409H567.446ZM574.408 732V730.977L578.249 726.773C578.699 726.28 579.071 725.852 579.362 725.489C579.654 725.121 579.87 724.777 580.01 724.455C580.154 724.129 580.226 723.788 580.226 723.432C580.226 723.023 580.127 722.669 579.93 722.369C579.737 722.07 579.472 721.839 579.135 721.676C578.798 721.513 578.419 721.432 577.999 721.432C577.552 721.432 577.161 721.525 576.828 721.71C576.499 721.892 576.243 722.148 576.061 722.477C575.883 722.807 575.794 723.193 575.794 723.636H574.453C574.453 722.955 574.61 722.356 574.925 721.841C575.239 721.326 575.667 720.924 576.209 720.636C576.754 720.348 577.366 720.205 578.044 720.205C578.726 720.205 579.33 720.348 579.857 720.636C580.383 720.924 580.796 721.312 581.095 721.801C581.394 722.29 581.544 722.833 581.544 723.432C581.544 723.86 581.466 724.278 581.311 724.688C581.16 725.093 580.894 725.545 580.516 726.045C580.141 726.542 579.62 727.148 578.953 727.864L576.339 730.659V730.75H581.749V732H574.408ZM587.891 732.159C587.035 732.159 586.305 731.926 585.703 731.46C585.101 730.991 584.641 730.311 584.322 729.42C584.004 728.527 583.845 727.447 583.845 726.182C583.845 724.924 584.004 723.85 584.322 722.96C584.644 722.066 585.107 721.384 585.709 720.915C586.315 720.441 587.042 720.205 587.891 720.205C588.739 720.205 589.464 720.441 590.067 720.915C590.673 721.384 591.135 722.066 591.453 722.96C591.775 723.85 591.936 724.924 591.936 726.182C591.936 727.447 591.777 728.527 591.459 729.42C591.141 730.311 590.68 730.991 590.078 731.46C589.476 731.926 588.747 732.159 587.891 732.159ZM587.891 730.909C588.739 730.909 589.398 730.5 589.868 729.682C590.338 728.864 590.572 727.697 590.572 726.182C590.572 725.174 590.464 724.316 590.249 723.608C590.036 722.9 589.73 722.36 589.328 721.989C588.93 721.617 588.451 721.432 587.891 721.432C587.05 721.432 586.393 721.847 585.919 722.676C585.446 723.502 585.209 724.67 585.209 726.182C585.209 727.189 585.315 728.045 585.527 728.75C585.739 729.455 586.044 729.991 586.442 730.358C586.843 730.725 587.326 730.909 587.891 730.909ZM594.095 732V730.977L597.936 726.773C598.387 726.28 598.758 725.852 599.05 725.489C599.341 725.121 599.557 724.777 599.697 724.455C599.841 724.129 599.913 723.788 599.913 723.432C599.913 723.023 599.815 722.669 599.618 722.369C599.425 722.07 599.16 721.839 598.822 721.676C598.485 721.513 598.107 721.432 597.686 721.432C597.239 721.432 596.849 721.525 596.516 721.71C596.186 721.892 595.93 722.148 595.749 722.477C595.571 722.807 595.482 723.193 595.482 723.636H594.141C594.141 722.955 594.298 722.356 594.612 721.841C594.927 721.326 595.355 720.924 595.896 720.636C596.442 720.348 597.054 720.205 597.732 720.205C598.413 720.205 599.018 720.348 599.544 720.636C600.071 720.924 600.483 721.312 600.783 721.801C601.082 722.29 601.232 722.833 601.232 723.432C601.232 723.86 601.154 724.278 600.999 724.688C600.847 725.093 600.582 725.545 600.203 726.045C599.828 726.542 599.307 727.148 598.641 727.864L596.027 730.659V730.75H601.436V732H594.095ZM607.714 732.159C606.964 732.159 606.296 732.03 605.709 731.773C605.125 731.515 604.661 731.157 604.317 730.699C603.976 730.237 603.79 729.701 603.76 729.091H605.192C605.222 729.466 605.351 729.79 605.578 730.062C605.805 730.331 606.103 730.54 606.47 730.688C606.838 730.835 607.245 730.909 607.692 730.909C608.192 730.909 608.635 730.822 609.021 730.648C609.408 730.473 609.711 730.231 609.93 729.92C610.15 729.61 610.26 729.25 610.26 728.841C610.26 728.413 610.154 728.036 609.942 727.71C609.73 727.381 609.419 727.123 609.01 726.938C608.601 726.752 608.101 726.659 607.51 726.659H606.578V725.409H607.51C607.972 725.409 608.377 725.326 608.726 725.159C609.078 724.992 609.353 724.758 609.55 724.455C609.75 724.152 609.851 723.795 609.851 723.386C609.851 722.992 609.764 722.65 609.589 722.358C609.415 722.066 609.169 721.839 608.851 721.676C608.536 721.513 608.165 721.432 607.737 721.432C607.336 721.432 606.957 721.506 606.601 721.653C606.249 721.797 605.961 722.008 605.737 722.284C605.514 722.557 605.393 722.886 605.374 723.273H604.01C604.033 722.663 604.216 722.129 604.561 721.67C604.906 721.208 605.357 720.848 605.913 720.591C606.474 720.333 607.089 720.205 607.76 720.205C608.48 720.205 609.097 720.35 609.612 720.642C610.127 720.93 610.523 721.311 610.8 721.784C611.076 722.258 611.214 722.769 611.214 723.318C611.214 723.973 611.042 724.532 610.697 724.994C610.357 725.456 609.893 725.777 609.305 725.955V726.045C610.04 726.167 610.614 726.479 611.027 726.983C611.44 727.483 611.646 728.102 611.646 728.841C611.646 729.473 611.474 730.042 611.129 730.545C610.788 731.045 610.322 731.439 609.732 731.727C609.141 732.015 608.468 732.159 607.714 732.159Z" fill="white"/>
<path d="M444.091 691V688.341L450.304 682.588C450.832 682.077 451.275 681.616 451.633 681.207C451.997 680.798 452.272 680.398 452.46 680.006C452.647 679.608 452.741 679.179 452.741 678.719C452.741 678.207 452.625 677.767 452.392 677.398C452.159 677.023 451.841 676.736 451.437 676.537C451.034 676.332 450.576 676.23 450.065 676.23C449.531 676.23 449.065 676.338 448.667 676.554C448.27 676.77 447.963 677.08 447.747 677.483C447.531 677.886 447.423 678.366 447.423 678.923H443.92C443.92 677.781 444.179 676.79 444.696 675.949C445.213 675.108 445.937 674.457 446.869 673.997C447.801 673.537 448.875 673.307 450.091 673.307C451.341 673.307 452.429 673.528 453.355 673.972C454.287 674.409 455.011 675.017 455.528 675.795C456.045 676.574 456.304 677.466 456.304 678.472C456.304 679.131 456.173 679.781 455.912 680.423C455.656 681.065 455.199 681.778 454.539 682.562C453.88 683.341 452.951 684.276 451.752 685.366L449.204 687.864V687.983H456.534V691H444.091ZM466.051 691.384C464.586 691.378 463.324 691.017 462.267 690.301C461.216 689.585 460.407 688.548 459.838 687.19C459.276 685.832 458.998 684.199 459.003 682.29C459.003 680.386 459.284 678.764 459.847 677.423C460.415 676.082 461.225 675.062 462.276 674.364C463.333 673.659 464.591 673.307 466.051 673.307C467.512 673.307 468.767 673.659 469.819 674.364C470.875 675.068 471.688 676.091 472.256 677.432C472.824 678.767 473.105 680.386 473.1 682.29C473.1 684.205 472.816 685.841 472.248 687.199C471.685 688.557 470.878 689.594 469.827 690.31C468.776 691.026 467.517 691.384 466.051 691.384ZM466.051 688.324C467.051 688.324 467.85 687.821 468.446 686.815C469.043 685.81 469.338 684.301 469.333 682.29C469.333 680.966 469.196 679.864 468.924 678.983C468.657 678.102 468.276 677.44 467.782 676.997C467.293 676.554 466.716 676.332 466.051 676.332C465.057 676.332 464.262 676.83 463.665 677.824C463.069 678.818 462.767 680.307 462.762 682.29C462.762 683.631 462.895 684.75 463.162 685.648C463.435 686.54 463.819 687.21 464.313 687.659C464.807 688.102 465.387 688.324 466.051 688.324ZM475.731 691V688.341L481.944 682.588C482.473 682.077 482.916 681.616 483.274 681.207C483.637 680.798 483.913 680.398 484.1 680.006C484.288 679.608 484.382 679.179 484.382 678.719C484.382 678.207 484.265 677.767 484.032 677.398C483.799 677.023 483.481 676.736 483.078 676.537C482.674 676.332 482.217 676.23 481.706 676.23C481.172 676.23 480.706 676.338 480.308 676.554C479.91 676.77 479.603 677.08 479.387 677.483C479.172 677.886 479.064 678.366 479.064 678.923H475.561C475.561 677.781 475.819 676.79 476.336 675.949C476.853 675.108 477.578 674.457 478.51 673.997C479.441 673.537 480.515 673.307 481.731 673.307C482.981 673.307 484.069 673.528 484.995 673.972C485.927 674.409 486.652 675.017 487.169 675.795C487.686 676.574 487.944 677.466 487.944 678.472C487.944 679.131 487.814 679.781 487.552 680.423C487.297 681.065 486.839 681.778 486.18 682.562C485.521 683.341 484.592 684.276 483.393 685.366L480.845 687.864V687.983H488.174V691H475.731ZM490.209 687.932V685.026L497.496 673.545H500.002V677.568H498.519L493.925 684.838V684.974H504.28V687.932H490.209ZM498.587 691V687.045L498.655 685.759V673.545H502.115V691H498.587Z" fill="white"/>
<path d="M449.786 196V193.341L455.999 187.588C456.527 187.077 456.971 186.616 457.328 186.207C457.692 185.798 457.968 185.398 458.155 185.006C458.343 184.608 458.436 184.179 458.436 183.719C458.436 183.207 458.32 182.767 458.087 182.398C457.854 182.023 457.536 181.736 457.132 181.537C456.729 181.332 456.272 181.23 455.76 181.23C455.226 181.23 454.76 181.338 454.363 181.554C453.965 181.77 453.658 182.08 453.442 182.483C453.226 182.886 453.118 183.366 453.118 183.923H449.615C449.615 182.781 449.874 181.79 450.391 180.949C450.908 180.108 451.632 179.457 452.564 178.997C453.496 178.537 454.57 178.307 455.786 178.307C457.036 178.307 458.124 178.528 459.05 178.972C459.982 179.409 460.706 180.017 461.223 180.795C461.74 181.574 461.999 182.466 461.999 183.472C461.999 184.131 461.868 184.781 461.607 185.423C461.351 186.065 460.894 186.778 460.235 187.562C459.576 188.341 458.647 189.276 457.448 190.366L454.9 192.864V192.983H462.229V196H449.786ZM471.414 196.239C470.102 196.239 468.934 196.026 467.912 195.599C466.895 195.168 466.096 194.58 465.517 193.835C464.937 193.091 464.647 192.247 464.647 191.304C464.647 190.577 464.812 189.909 465.142 189.301C465.477 188.688 465.931 188.179 466.505 187.776C467.079 187.366 467.721 187.105 468.431 186.991V186.872C467.5 186.685 466.744 186.233 466.164 185.517C465.585 184.795 465.295 183.957 465.295 183.003C465.295 182.099 465.559 181.295 466.088 180.591C466.616 179.881 467.341 179.324 468.261 178.92C469.187 178.511 470.238 178.307 471.414 178.307C472.591 178.307 473.639 178.511 474.559 178.92C475.485 179.33 476.213 179.889 476.741 180.599C477.27 181.304 477.537 182.105 477.542 183.003C477.537 183.963 477.241 184.801 476.656 185.517C476.071 186.233 475.321 186.685 474.406 186.872V186.991C475.105 187.105 475.738 187.366 476.306 187.776C476.88 188.179 477.335 188.688 477.67 189.301C478.011 189.909 478.184 190.577 478.19 191.304C478.184 192.247 477.892 193.091 477.312 193.835C476.733 194.58 475.931 195.168 474.909 195.599C473.892 196.026 472.727 196.239 471.414 196.239ZM471.414 193.528C472 193.528 472.511 193.423 472.949 193.213C473.386 192.997 473.727 192.702 473.971 192.327C474.221 191.946 474.346 191.509 474.346 191.014C474.346 190.509 474.218 190.062 473.963 189.676C473.707 189.284 473.36 188.977 472.923 188.756C472.485 188.528 471.983 188.415 471.414 188.415C470.852 188.415 470.349 188.528 469.906 188.756C469.463 188.977 469.113 189.284 468.858 189.676C468.608 190.062 468.483 190.509 468.483 191.014C468.483 191.509 468.605 191.946 468.849 192.327C469.093 192.702 469.437 192.997 469.88 193.213C470.324 193.423 470.835 193.528 471.414 193.528ZM471.414 185.73C471.903 185.73 472.338 185.631 472.718 185.432C473.099 185.233 473.397 184.957 473.613 184.605C473.829 184.253 473.937 183.847 473.937 183.386C473.937 182.932 473.829 182.534 473.613 182.193C473.397 181.847 473.102 181.577 472.727 181.384C472.352 181.185 471.914 181.085 471.414 181.085C470.92 181.085 470.483 181.185 470.102 181.384C469.721 181.577 469.423 181.847 469.207 182.193C468.997 182.534 468.892 182.932 468.892 183.386C468.892 183.847 469 184.253 469.216 184.605C469.431 184.957 469.73 185.233 470.11 185.432C470.491 185.631 470.926 185.73 471.414 185.73ZM482.434 196.222C481.872 196.222 481.389 196.023 480.985 195.625C480.588 195.222 480.389 194.739 480.389 194.176C480.389 193.619 480.588 193.142 480.985 192.744C481.389 192.347 481.872 192.148 482.434 192.148C482.98 192.148 483.457 192.347 483.866 192.744C484.275 193.142 484.48 193.619 484.48 194.176C484.48 194.551 484.383 194.895 484.19 195.207C484.002 195.514 483.755 195.761 483.449 195.949C483.142 196.131 482.804 196.222 482.434 196.222ZM487.461 196L494.696 181.682V181.562H486.267V178.545H498.515V181.605L491.27 196H487.461Z" fill="#09C169"/>
<path d="M335.201 267V265.466L340.963 259.159C341.639 258.42 342.196 257.778 342.633 257.233C343.071 256.682 343.395 256.165 343.605 255.682C343.821 255.193 343.929 254.682 343.929 254.148C343.929 253.534 343.781 253.003 343.485 252.554C343.196 252.105 342.798 251.759 342.292 251.514C341.787 251.27 341.218 251.148 340.588 251.148C339.917 251.148 339.332 251.287 338.832 251.565C338.338 251.838 337.954 252.222 337.681 252.716C337.414 253.21 337.281 253.79 337.281 254.455H335.27C335.27 253.432 335.505 252.534 335.977 251.761C336.449 250.989 337.091 250.386 337.903 249.955C338.721 249.523 339.639 249.307 340.656 249.307C341.679 249.307 342.585 249.523 343.375 249.955C344.164 250.386 344.784 250.969 345.233 251.702C345.681 252.435 345.906 253.25 345.906 254.148C345.906 254.79 345.789 255.418 345.556 256.031C345.329 256.639 344.931 257.318 344.363 258.068C343.801 258.812 343.02 259.722 342.02 260.795L338.099 264.989V265.125H346.213V267H335.201ZM350.278 267L358.085 251.557V251.42H349.085V249.545H360.267V251.523L352.494 267H350.278ZM361.944 267.136C361.523 267.136 361.162 266.986 360.861 266.685C360.56 266.384 360.409 266.023 360.409 265.602C360.409 265.182 360.56 264.821 360.861 264.52C361.162 264.219 361.523 264.068 361.944 264.068C362.364 264.068 362.725 264.219 363.026 264.52C363.327 264.821 363.478 265.182 363.478 265.602C363.478 265.881 363.407 266.136 363.265 266.369C363.128 266.602 362.944 266.79 362.711 266.932C362.483 267.068 362.228 267.136 361.944 267.136ZM367.247 267L375.054 251.557V251.42H366.054V249.545H377.235V251.523L369.463 267H367.247Z" fill="white"/>
<path d="M211.01 334V332.466L216.771 326.159C217.447 325.42 218.004 324.778 218.442 324.233C218.879 323.682 219.203 323.165 219.413 322.682C219.629 322.193 219.737 321.682 219.737 321.148C219.737 320.534 219.589 320.003 219.294 319.554C219.004 319.105 218.607 318.759 218.101 318.514C217.595 318.27 217.027 318.148 216.396 318.148C215.726 318.148 215.141 318.287 214.641 318.565C214.146 318.838 213.763 319.222 213.49 319.716C213.223 320.21 213.089 320.79 213.089 321.455H211.078C211.078 320.432 211.314 319.534 211.786 318.761C212.257 317.989 212.899 317.386 213.712 316.955C214.53 316.523 215.447 316.307 216.464 316.307C217.487 316.307 218.393 316.523 219.183 316.955C219.973 317.386 220.592 317.969 221.041 318.702C221.49 319.435 221.714 320.25 221.714 321.148C221.714 321.79 221.598 322.418 221.365 323.031C221.138 323.639 220.74 324.318 220.172 325.068C219.609 325.812 218.828 326.722 217.828 327.795L213.908 331.989V332.125H222.021V334H211.01ZM224.757 330.42V328.682L232.428 316.545H233.689V319.239H232.837L227.041 328.409V328.545H237.371V330.42H224.757ZM232.973 334V329.892V329.082V316.545H234.984V334H232.973ZM241.244 334.136C240.824 334.136 240.463 333.986 240.162 333.685C239.861 333.384 239.71 333.023 239.71 332.602C239.71 332.182 239.861 331.821 240.162 331.52C240.463 331.219 240.824 331.068 241.244 331.068C241.665 331.068 242.026 331.219 242.327 331.52C242.628 331.821 242.778 332.182 242.778 332.602C242.778 332.881 242.707 333.136 242.565 333.369C242.429 333.602 242.244 333.79 242.011 333.932C241.784 334.068 241.528 334.136 241.244 334.136ZM251.457 334.239C250.457 334.239 249.556 334.04 248.755 333.642C247.954 333.244 247.312 332.699 246.829 332.006C246.346 331.312 246.082 330.523 246.036 329.636H248.082C248.161 330.426 248.519 331.08 249.156 331.597C249.798 332.108 250.565 332.364 251.457 332.364C252.173 332.364 252.809 332.196 253.366 331.861C253.928 331.526 254.369 331.065 254.687 330.48C255.011 329.889 255.173 329.222 255.173 328.477C255.173 327.716 255.005 327.037 254.67 326.44C254.34 325.838 253.886 325.364 253.306 325.017C252.727 324.67 252.065 324.494 251.32 324.489C250.786 324.483 250.238 324.565 249.675 324.736C249.113 324.901 248.65 325.114 248.286 325.375L246.309 325.136L247.366 316.545H256.434V318.42H249.138L248.525 323.568H248.627C248.985 323.284 249.434 323.048 249.974 322.861C250.513 322.673 251.076 322.58 251.661 322.58C252.729 322.58 253.681 322.835 254.516 323.347C255.357 323.852 256.016 324.545 256.494 325.426C256.977 326.307 257.218 327.312 257.218 328.443C257.218 329.557 256.968 330.551 256.468 331.426C255.974 332.295 255.292 332.983 254.423 333.489C253.553 333.989 252.565 334.239 251.457 334.239Z" fill="white"/>
<path d="M108.67 422V420.466L114.431 414.159C115.108 413.42 115.664 412.778 116.102 412.233C116.539 411.682 116.863 411.165 117.074 410.682C117.289 410.193 117.397 409.682 117.397 409.148C117.397 408.534 117.25 408.003 116.954 407.554C116.664 407.105 116.267 406.759 115.761 406.514C115.255 406.27 114.687 406.148 114.056 406.148C113.386 406.148 112.801 406.287 112.301 406.565C111.806 406.838 111.423 407.222 111.15 407.716C110.883 408.21 110.75 408.79 110.75 409.455H108.738C108.738 408.432 108.974 407.534 109.446 406.761C109.917 405.989 110.559 405.386 111.372 404.955C112.19 404.523 113.108 404.307 114.125 404.307C115.147 404.307 116.054 404.523 116.843 404.955C117.633 405.386 118.252 405.969 118.701 406.702C119.15 407.435 119.375 408.25 119.375 409.148C119.375 409.79 119.258 410.418 119.025 411.031C118.798 411.639 118.4 412.318 117.832 413.068C117.27 413.812 116.488 414.722 115.488 415.795L111.568 419.989V420.125H119.681V422H108.67ZM129.099 422.239C127.974 422.239 126.971 422.045 126.091 421.659C125.216 421.273 124.52 420.736 124.002 420.048C123.491 419.355 123.213 418.551 123.167 417.636H125.315C125.36 418.199 125.554 418.685 125.895 419.094C126.235 419.497 126.681 419.81 127.233 420.031C127.784 420.253 128.395 420.364 129.065 420.364C129.815 420.364 130.48 420.233 131.059 419.972C131.639 419.71 132.093 419.347 132.423 418.881C132.752 418.415 132.917 417.875 132.917 417.261C132.917 416.619 132.758 416.054 132.44 415.565C132.122 415.071 131.656 414.685 131.042 414.406C130.429 414.128 129.679 413.989 128.792 413.989H127.395V412.114H128.792C129.485 412.114 130.093 411.989 130.616 411.739C131.145 411.489 131.556 411.136 131.852 410.682C132.153 410.227 132.304 409.693 132.304 409.08C132.304 408.489 132.173 407.974 131.912 407.537C131.65 407.099 131.281 406.759 130.804 406.514C130.332 406.27 129.775 406.148 129.133 406.148C128.531 406.148 127.963 406.259 127.429 406.48C126.9 406.696 126.468 407.011 126.133 407.426C125.798 407.835 125.616 408.33 125.588 408.909H123.542C123.576 407.994 123.852 407.193 124.369 406.506C124.886 405.812 125.562 405.273 126.397 404.886C127.238 404.5 128.162 404.307 129.167 404.307C130.247 404.307 131.173 404.526 131.946 404.963C132.718 405.395 133.312 405.966 133.727 406.676C134.142 407.386 134.349 408.153 134.349 408.977C134.349 409.96 134.091 410.798 133.574 411.491C133.062 412.185 132.366 412.665 131.485 412.932V413.068C132.588 413.25 133.449 413.719 134.068 414.474C134.687 415.224 134.997 416.153 134.997 417.261C134.997 418.21 134.738 419.062 134.221 419.818C133.71 420.568 133.011 421.159 132.125 421.591C131.238 422.023 130.23 422.239 129.099 422.239ZM139.444 422.136C139.023 422.136 138.662 421.986 138.361 421.685C138.06 421.384 137.909 421.023 137.909 420.602C137.909 420.182 138.06 419.821 138.361 419.52C138.662 419.219 139.023 419.068 139.444 419.068C139.864 419.068 140.225 419.219 140.526 419.52C140.827 419.821 140.978 420.182 140.978 420.602C140.978 420.881 140.907 421.136 140.765 421.369C140.628 421.602 140.444 421.79 140.211 421.932C139.983 422.068 139.728 422.136 139.444 422.136ZM149.637 422.239C148.353 422.239 147.259 421.889 146.355 421.19C145.452 420.486 144.762 419.466 144.284 418.131C143.807 416.79 143.569 415.17 143.569 413.273C143.569 411.386 143.807 409.776 144.284 408.44C144.767 407.099 145.461 406.077 146.364 405.372C147.273 404.662 148.364 404.307 149.637 404.307C150.909 404.307 151.998 404.662 152.901 405.372C153.81 406.077 154.503 407.099 154.98 408.44C155.463 409.776 155.705 411.386 155.705 413.273C155.705 415.17 155.466 416.79 154.989 418.131C154.512 419.466 153.821 420.486 152.918 421.19C152.015 421.889 150.921 422.239 149.637 422.239ZM149.637 420.364C150.909 420.364 151.898 419.75 152.603 418.523C153.307 417.295 153.659 415.545 153.659 413.273C153.659 411.761 153.498 410.474 153.174 409.412C152.855 408.349 152.395 407.54 151.793 406.983C151.196 406.426 150.478 406.148 149.637 406.148C148.375 406.148 147.39 406.77 146.679 408.014C145.969 409.253 145.614 411.006 145.614 413.273C145.614 414.784 145.773 416.068 146.091 417.125C146.409 418.182 146.867 418.986 147.463 419.537C148.066 420.088 148.79 420.364 149.637 420.364Z" fill="white"/>
<path d="M326.126 691V688.341L332.339 682.588C332.867 682.077 333.31 681.616 333.668 681.207C334.032 680.798 334.308 680.398 334.495 680.006C334.683 679.608 334.776 679.179 334.776 678.719C334.776 678.207 334.66 677.767 334.427 677.398C334.194 677.023 333.876 676.736 333.472 676.537C333.069 676.332 332.612 676.23 332.1 676.23C331.566 676.23 331.1 676.338 330.702 676.554C330.305 676.77 329.998 677.08 329.782 677.483C329.566 677.886 329.458 678.366 329.458 678.923H325.955C325.955 677.781 326.214 676.79 326.731 675.949C327.248 675.108 327.972 674.457 328.904 673.997C329.836 673.537 330.91 673.307 332.126 673.307C333.376 673.307 334.464 673.528 335.39 673.972C336.322 674.409 337.046 675.017 337.563 675.795C338.08 676.574 338.339 677.466 338.339 678.472C338.339 679.131 338.208 679.781 337.947 680.423C337.691 681.065 337.234 681.778 336.575 682.562C335.915 683.341 334.987 684.276 333.788 685.366L331.239 687.864V687.983H338.569V691H326.126ZM348.087 691.384C346.621 691.378 345.359 691.017 344.303 690.301C343.251 689.585 342.442 688.548 341.874 687.19C341.311 685.832 341.033 684.199 341.038 682.29C341.038 680.386 341.32 678.764 341.882 677.423C342.45 676.082 343.26 675.062 344.311 674.364C345.368 673.659 346.626 673.307 348.087 673.307C349.547 673.307 350.803 673.659 351.854 674.364C352.911 675.068 353.723 676.091 354.291 677.432C354.859 678.767 355.141 680.386 355.135 682.29C355.135 684.205 354.851 685.841 354.283 687.199C353.72 688.557 352.913 689.594 351.862 690.31C350.811 691.026 349.553 691.384 348.087 691.384ZM348.087 688.324C349.087 688.324 349.885 687.821 350.482 686.815C351.078 685.81 351.374 684.301 351.368 682.29C351.368 680.966 351.232 679.864 350.959 678.983C350.692 678.102 350.311 677.44 349.817 676.997C349.328 676.554 348.751 676.332 348.087 676.332C347.092 676.332 346.297 676.83 345.7 677.824C345.104 678.818 344.803 680.307 344.797 682.29C344.797 683.631 344.93 684.75 345.197 685.648C345.47 686.54 345.854 687.21 346.348 687.659C346.842 688.102 347.422 688.324 348.087 688.324ZM357.766 691V688.341L363.979 682.588C364.508 682.077 364.951 681.616 365.309 681.207C365.673 680.798 365.948 680.398 366.136 680.006C366.323 679.608 366.417 679.179 366.417 678.719C366.417 678.207 366.3 677.767 366.067 677.398C365.835 677.023 365.516 676.736 365.113 676.537C364.71 676.332 364.252 676.23 363.741 676.23C363.207 676.23 362.741 676.338 362.343 676.554C361.945 676.77 361.638 677.08 361.423 677.483C361.207 677.886 361.099 678.366 361.099 678.923H357.596C357.596 677.781 357.854 676.79 358.371 675.949C358.888 675.108 359.613 674.457 360.545 673.997C361.477 673.537 362.55 673.307 363.766 673.307C365.016 673.307 366.104 673.528 367.031 673.972C367.962 674.409 368.687 675.017 369.204 675.795C369.721 676.574 369.979 677.466 369.979 678.472C369.979 679.131 369.849 679.781 369.587 680.423C369.332 681.065 368.874 681.778 368.215 682.562C367.556 683.341 366.627 684.276 365.428 685.366L362.88 687.864V687.983H370.21V691H357.766ZM379.335 691.239C378.063 691.239 376.929 691.02 375.935 690.582C374.946 690.139 374.165 689.531 373.591 688.759C373.023 687.98 372.73 687.082 372.713 686.065H376.429C376.452 686.491 376.591 686.866 376.847 687.19C377.108 687.509 377.455 687.756 377.886 687.932C378.318 688.108 378.804 688.196 379.344 688.196C379.906 688.196 380.403 688.097 380.835 687.898C381.267 687.699 381.605 687.423 381.849 687.071C382.094 686.719 382.216 686.312 382.216 685.852C382.216 685.386 382.085 684.974 381.824 684.616C381.568 684.253 381.199 683.969 380.716 683.764C380.239 683.56 379.67 683.457 379.011 683.457H377.384V680.747H379.011C379.568 680.747 380.06 680.651 380.486 680.457C380.918 680.264 381.253 679.997 381.491 679.656C381.73 679.31 381.849 678.906 381.849 678.446C381.849 678.009 381.744 677.625 381.534 677.295C381.33 676.96 381.04 676.699 380.665 676.511C380.295 676.324 379.864 676.23 379.369 676.23C378.869 676.23 378.412 676.321 377.997 676.503C377.582 676.679 377.25 676.932 377 677.261C376.75 677.591 376.616 677.977 376.599 678.42H373.062C373.08 677.415 373.366 676.528 373.923 675.761C374.48 674.994 375.23 674.395 376.173 673.963C377.122 673.526 378.193 673.307 379.386 673.307C380.591 673.307 381.645 673.526 382.548 673.963C383.452 674.401 384.153 674.991 384.653 675.736C385.159 676.474 385.409 677.304 385.403 678.224C385.409 679.202 385.105 680.017 384.491 680.67C383.884 681.324 383.091 681.739 382.114 681.915V682.051C383.398 682.216 384.375 682.662 385.045 683.389C385.722 684.111 386.057 685.014 386.051 686.099C386.057 687.094 385.77 687.977 385.19 688.75C384.616 689.523 383.824 690.131 382.812 690.574C381.801 691.017 380.642 691.239 379.335 691.239Z" fill="white"/>
<path d="M206.774 691V688.341L212.987 682.588C213.516 682.077 213.959 681.616 214.317 681.207C214.68 680.798 214.956 680.398 215.143 680.006C215.331 679.608 215.425 679.179 215.425 678.719C215.425 678.207 215.308 677.767 215.075 677.398C214.842 677.023 214.524 676.736 214.121 676.537C213.717 676.332 213.26 676.23 212.749 676.23C212.214 676.23 211.749 676.338 211.351 676.554C210.953 676.77 210.646 677.08 210.43 677.483C210.214 677.886 210.107 678.366 210.107 678.923H206.604C206.604 677.781 206.862 676.79 207.379 675.949C207.896 675.108 208.621 674.457 209.553 673.997C210.484 673.537 211.558 673.307 212.774 673.307C214.024 673.307 215.112 673.528 216.038 673.972C216.97 674.409 217.695 675.017 218.212 675.795C218.729 676.574 218.987 677.466 218.987 678.472C218.987 679.131 218.857 679.781 218.595 680.423C218.339 681.065 217.882 681.778 217.223 682.562C216.564 683.341 215.635 684.276 214.436 685.366L211.888 687.864V687.983H219.217V691H206.774ZM228.735 691.384C227.269 691.378 226.008 691.017 224.951 690.301C223.9 689.585 223.09 688.548 222.522 687.19C221.96 685.832 221.681 684.199 221.687 682.29C221.687 680.386 221.968 678.764 222.531 677.423C223.099 676.082 223.908 675.062 224.96 674.364C226.016 673.659 227.275 673.307 228.735 673.307C230.195 673.307 231.451 673.659 232.502 674.364C233.559 675.068 234.371 676.091 234.94 677.432C235.508 678.767 235.789 680.386 235.783 682.29C235.783 684.205 235.499 685.841 234.931 687.199C234.369 688.557 233.562 689.594 232.511 690.31C231.46 691.026 230.201 691.384 228.735 691.384ZM228.735 688.324C229.735 688.324 230.533 687.821 231.13 686.815C231.727 685.81 232.022 684.301 232.016 682.29C232.016 680.966 231.88 679.864 231.607 678.983C231.34 678.102 230.96 677.44 230.465 676.997C229.977 676.554 229.4 676.332 228.735 676.332C227.741 676.332 226.945 676.83 226.349 677.824C225.752 678.818 225.451 680.307 225.445 682.29C225.445 683.631 225.579 684.75 225.846 685.648C226.119 686.54 226.502 687.21 226.996 687.659C227.491 688.102 228.07 688.324 228.735 688.324ZM238.415 691V688.341L244.628 682.588C245.156 682.077 245.599 681.616 245.957 681.207C246.321 680.798 246.597 680.398 246.784 680.006C246.972 679.608 247.065 679.179 247.065 678.719C247.065 678.207 246.949 677.767 246.716 677.398C246.483 677.023 246.165 676.736 245.761 676.537C245.358 676.332 244.901 676.23 244.389 676.23C243.855 676.23 243.389 676.338 242.991 676.554C242.594 676.77 242.287 677.08 242.071 677.483C241.855 677.886 241.747 678.366 241.747 678.923H238.244C238.244 677.781 238.503 676.79 239.02 675.949C239.537 675.108 240.261 674.457 241.193 673.997C242.125 673.537 243.199 673.307 244.415 673.307C245.665 673.307 246.753 673.528 247.679 673.972C248.611 674.409 249.335 675.017 249.852 675.795C250.369 676.574 250.628 677.466 250.628 678.472C250.628 679.131 250.497 679.781 250.236 680.423C249.98 681.065 249.523 681.778 248.864 682.562C248.205 683.341 247.276 684.276 246.077 685.366L243.528 687.864V687.983H250.858V691H238.415ZM260.376 691.384C258.91 691.378 257.648 691.017 256.592 690.301C255.54 689.585 254.731 688.548 254.163 687.19C253.6 685.832 253.322 684.199 253.327 682.29C253.327 680.386 253.609 678.764 254.171 677.423C254.739 676.082 255.549 675.062 256.6 674.364C257.657 673.659 258.915 673.307 260.376 673.307C261.836 673.307 263.092 673.659 264.143 674.364C265.2 675.068 266.012 676.091 266.58 677.432C267.148 678.767 267.43 680.386 267.424 682.29C267.424 684.205 267.14 685.841 266.572 687.199C266.009 688.557 265.202 689.594 264.151 690.31C263.1 691.026 261.842 691.384 260.376 691.384ZM260.376 688.324C261.376 688.324 262.174 687.821 262.771 686.815C263.367 685.81 263.663 684.301 263.657 682.29C263.657 680.966 263.521 679.864 263.248 678.983C262.981 678.102 262.6 677.44 262.106 676.997C261.617 676.554 261.04 676.332 260.376 676.332C259.381 676.332 258.586 676.83 257.989 677.824C257.393 678.818 257.092 680.307 257.086 682.29C257.086 683.631 257.219 684.75 257.487 685.648C257.759 686.54 258.143 687.21 258.637 687.659C259.131 688.102 259.711 688.324 260.376 688.324Z" fill="white"/>
<path d="M103.79 691V688.341L110.003 682.588C110.531 682.077 110.974 681.616 111.332 681.207C111.696 680.798 111.972 680.398 112.159 680.006C112.347 679.608 112.44 679.179 112.44 678.719C112.44 678.207 112.324 677.767 112.091 677.398C111.858 677.023 111.54 676.736 111.136 676.537C110.733 676.332 110.276 676.23 109.764 676.23C109.23 676.23 108.764 676.338 108.366 676.554C107.969 676.77 107.662 677.08 107.446 677.483C107.23 677.886 107.122 678.366 107.122 678.923H103.619C103.619 677.781 103.878 676.79 104.395 675.949C104.912 675.108 105.636 674.457 106.568 673.997C107.5 673.537 108.574 673.307 109.79 673.307C111.04 673.307 112.128 673.528 113.054 673.972C113.986 674.409 114.71 675.017 115.227 675.795C115.744 676.574 116.003 677.466 116.003 678.472C116.003 679.131 115.872 679.781 115.611 680.423C115.355 681.065 114.898 681.778 114.239 682.562C113.58 683.341 112.651 684.276 111.452 685.366L108.903 687.864V687.983H116.233V691H103.79ZM125.751 691.384C124.285 691.378 123.023 691.017 121.967 690.301C120.915 689.585 120.106 688.548 119.538 687.19C118.975 685.832 118.697 684.199 118.702 682.29C118.702 680.386 118.984 678.764 119.546 677.423C120.114 676.082 120.924 675.062 121.975 674.364C123.032 673.659 124.29 673.307 125.751 673.307C127.211 673.307 128.467 673.659 129.518 674.364C130.575 675.068 131.387 676.091 131.955 677.432C132.523 678.767 132.805 680.386 132.799 682.29C132.799 684.205 132.515 685.841 131.947 687.199C131.384 688.557 130.577 689.594 129.526 690.31C128.475 691.026 127.217 691.384 125.751 691.384ZM125.751 688.324C126.751 688.324 127.549 687.821 128.146 686.815C128.742 685.81 129.038 684.301 129.032 682.29C129.032 680.966 128.896 679.864 128.623 678.983C128.356 678.102 127.975 677.44 127.481 676.997C126.992 676.554 126.415 676.332 125.751 676.332C124.756 676.332 123.961 676.83 123.364 677.824C122.768 678.818 122.467 680.307 122.461 682.29C122.461 683.631 122.594 684.75 122.862 685.648C123.134 686.54 123.518 687.21 124.012 687.659C124.506 688.102 125.086 688.324 125.751 688.324ZM143.024 673.545V691H139.334V677.048H139.232L135.234 679.554V676.281L139.555 673.545H143.024ZM153.684 691.239C152.371 691.239 151.204 691.026 150.181 690.599C149.164 690.168 148.366 689.58 147.786 688.835C147.207 688.091 146.917 687.247 146.917 686.304C146.917 685.577 147.082 684.909 147.411 684.301C147.746 683.688 148.201 683.179 148.775 682.776C149.349 682.366 149.991 682.105 150.701 681.991V681.872C149.769 681.685 149.013 681.233 148.434 680.517C147.854 679.795 147.565 678.957 147.565 678.003C147.565 677.099 147.829 676.295 148.357 675.591C148.886 674.881 149.61 674.324 150.531 673.92C151.457 673.511 152.508 673.307 153.684 673.307C154.86 673.307 155.908 673.511 156.829 673.92C157.755 674.33 158.482 674.889 159.011 675.599C159.539 676.304 159.806 677.105 159.812 678.003C159.806 678.963 159.511 679.801 158.925 680.517C158.34 681.233 157.59 681.685 156.675 681.872V681.991C157.374 682.105 158.008 682.366 158.576 682.776C159.15 683.179 159.604 683.688 159.94 684.301C160.281 684.909 160.454 685.577 160.46 686.304C160.454 687.247 160.161 688.091 159.582 688.835C159.002 689.58 158.201 690.168 157.178 690.599C156.161 691.026 154.996 691.239 153.684 691.239ZM153.684 688.528C154.269 688.528 154.781 688.423 155.218 688.213C155.656 687.997 155.996 687.702 156.241 687.327C156.491 686.946 156.616 686.509 156.616 686.014C156.616 685.509 156.488 685.062 156.232 684.676C155.977 684.284 155.63 683.977 155.192 683.756C154.755 683.528 154.252 683.415 153.684 683.415C153.121 683.415 152.619 683.528 152.175 683.756C151.732 683.977 151.383 684.284 151.127 684.676C150.877 685.062 150.752 685.509 150.752 686.014C150.752 686.509 150.874 686.946 151.119 687.327C151.363 687.702 151.707 687.997 152.15 688.213C152.593 688.423 153.104 688.528 153.684 688.528ZM153.684 680.73C154.173 680.73 154.607 680.631 154.988 680.432C155.369 680.233 155.667 679.957 155.883 679.605C156.099 679.253 156.207 678.847 156.207 678.386C156.207 677.932 156.099 677.534 155.883 677.193C155.667 676.847 155.371 676.577 154.996 676.384C154.621 676.185 154.184 676.085 153.684 676.085C153.19 676.085 152.752 676.185 152.371 676.384C151.991 676.577 151.692 676.847 151.477 677.193C151.266 677.534 151.161 677.932 151.161 678.386C151.161 678.847 151.269 679.253 151.485 679.605C151.701 679.957 151.999 680.233 152.38 680.432C152.761 680.631 153.195 680.73 153.684 680.73Z" fill="white"/>
<path d="M114.296 9.472H122.072V13.324H114.296V9.472ZM119.552 0.903999H124.34V25.204H119.552V0.903999ZM102.344 29.812H125.096V33.628H102.344V29.812ZM102.344 23.152H107.132V32.08H102.344V23.152ZM104.144 5.26H108.032V7.348C108.032 13.612 105.08 19.408 98.672 21.532L96.26 17.716C101.768 15.916 104.144 11.56 104.144 7.348V5.26ZM105.152 5.26H109.004V7.348C109.004 11.236 111.272 15.376 116.528 17.14L114.188 20.884C107.996 18.832 105.152 13.288 105.152 7.348V5.26ZM97.556 3.136H115.484V6.916H97.556V3.136ZM151.029 12.064H156.537V15.952H151.029V12.064ZM143.901 3.748H147.573V9.364C147.573 16.924 145.485 24.304 140.157 27.58L137.277 23.98C142.173 20.956 143.901 15.016 143.901 9.364V3.748ZM144.945 3.748H148.545V9.148C148.545 14.584 149.949 20.128 154.485 23.08L151.893 26.824C146.601 23.548 144.945 16.348 144.945 9.148V3.748ZM161.973 0.868H166.545V34.204H161.973V0.868ZM155.205 1.372H159.669V32.692H155.205V1.372ZM183.858 9.652H190.626V13.468H183.858V9.652ZM183.678 17.968H190.482V21.784H183.678V17.968ZM195.162 0.868H199.734V34.204H195.162V0.868ZM188.286 1.588H192.75V32.728H188.286V1.588ZM180.762 4.792H185.37C185.37 14.26 182.526 21.82 173.238 27.292L170.538 23.944C178.062 19.372 180.762 13.828 180.762 5.764V4.792ZM172.446 4.792H182.382V8.608H172.446V4.792ZM236.432 0.868H241.004V34.204H236.432V0.868ZM232.22 13.432H237.728V17.248H232.22V13.432ZM222.284 4.936H226.856C226.856 14.332 224.12 21.928 214.796 27.364L212.024 24.052C219.62 19.552 222.284 13.936 222.284 5.944V4.936ZM213.716 4.936H223.688V8.788H213.716V4.936ZM229.052 1.732H233.516V32.764H229.052V1.732ZM246.545 2.344H251.297V6.268H257.813V2.344H262.565V16.924H246.545V2.344ZM251.297 9.868V13.18H257.813V9.868H251.297ZM267.029 0.868H271.817V17.788H267.029V0.868ZM269.873 7.276H276.209V11.164H269.873V7.276ZM249.785 19.084H271.817V28.156H254.609V32.116H249.857V24.736H267.101V22.756H249.785V19.084ZM249.857 30.28H272.789V33.988H249.857V30.28ZM309.918 0.903999H314.742V24.844H309.918V0.903999ZM292.53 29.812H315.57V33.628H292.53V29.812ZM292.53 22.432H297.318V31.36H292.53V22.432ZM296.598 2.992C301.71 2.992 305.634 6.52 305.634 11.452C305.634 16.348 301.71 19.912 296.598 19.912C291.486 19.912 287.526 16.348 287.526 11.452C287.526 6.52 291.486 2.992 296.598 2.992ZM296.598 7.132C294.114 7.132 292.206 8.716 292.206 11.452C292.206 14.152 294.114 15.736 296.598 15.736C299.046 15.736 300.954 14.152 300.954 11.452C300.954 8.716 299.046 7.132 296.598 7.132ZM323.595 2.812H344.511V6.592H323.595V2.812ZM320.175 16.996H350.307V20.848H320.175V16.996ZM332.667 19.696H337.491V34.24H332.667V19.696ZM342.063 2.812H346.779V5.764C346.779 9.364 346.779 13.396 345.483 19.3L340.767 18.76C342.063 13.18 342.063 9.22 342.063 5.764V2.812ZM365.777 19.9545C365.777 16.733 366.194 13.7713 367.029 11.0696C367.873 8.35937 369.075 5.86648 370.635 3.59091H373.294C372.68 4.43466 372.105 5.47443 371.568 6.71023C371.039 7.9375 370.575 9.28835 370.174 10.7628C369.774 12.2287 369.458 13.7457 369.228 15.3139C369.007 16.8821 368.896 18.429 368.896 19.9545C368.896 21.983 369.092 24.0412 369.484 26.1293C369.876 28.2173 370.404 30.1562 371.069 31.946C371.734 33.7358 372.475 35.1932 373.294 36.3182H370.635C369.075 34.0426 367.873 31.554 367.029 28.8523C366.194 26.142 365.777 23.1761 365.777 19.9545ZM378.224 3.352H381.032V8.464H387.98V3.352H390.824V18.508H378.224V3.352ZM381.032 10.84V16.096H387.98V10.84H381.032ZM401.336 1.3H404.18V20.812H401.336V1.3ZM396.08 9.724H402.236V12.208H396.08V9.724ZM394.352 1.876H397.196V20.632H394.352V1.876ZM382.364 22.756H404.18V33.808H401.228V25.204H382.364V22.756ZM411.234 4.18H426.174V19.264H411.234V4.18ZM423.258 6.592H414.15V16.852H423.258V6.592ZM432.15 1.228H435.138V25.096H432.15V1.228ZM434.202 11.164H439.962V13.648H434.202V11.164ZM414.87 30.64H436.614V33.088H414.87V30.64ZM414.87 22.828H417.858V31.684H414.87V22.828ZM468.66 6.52H478.056V8.968H468.66V6.52ZM468.66 13H478.128V15.412H468.66V13ZM476.904 1.264H479.892V20.524H476.904V1.264ZM454.62 3.712H469.488V18.184H454.62V3.712ZM466.536 6.124H457.536V15.808H466.536V6.124ZM469.2 21.46C475.896 21.46 480.036 23.728 480.036 27.616C480.036 31.504 475.896 33.736 469.2 33.736C462.468 33.736 458.328 31.504 458.328 27.616C458.328 23.728 462.468 21.46 469.2 21.46ZM469.2 23.836C464.304 23.836 461.316 25.24 461.316 27.616C461.316 29.992 464.304 31.396 469.2 31.396C474.096 31.396 477.084 29.992 477.084 27.616C477.084 25.24 474.096 23.836 469.2 23.836ZM493.665 19.9545C493.665 23.1761 493.244 26.142 492.4 28.8523C491.565 31.554 490.367 34.0426 488.808 36.3182H486.148C486.762 35.4744 487.333 34.4347 487.862 33.1989C488.398 31.9716 488.867 30.625 489.268 29.1591C489.668 27.6847 489.979 26.1634 490.201 24.5952C490.431 23.0185 490.546 21.4716 490.546 19.9545C490.546 17.9261 490.35 15.8679 489.958 13.7798C489.566 11.6918 489.038 9.75284 488.373 7.96307C487.708 6.17329 486.967 4.71591 486.148 3.59091H488.808C490.367 5.86648 491.565 8.35937 492.4 11.0696C493.244 13.7713 493.665 16.733 493.665 19.9545Z" fill="#EEEEEE"/>
</svg>
