<svg width="836" height="400" viewBox="0 0 836 400" fill="none" xmlns="http://www.w3.org/2000/svg">
<path d="M106.959 22.64H115.989C115.989 42.59 110.809 59.32 87.5688 71.5L82.4588 64.43C101.569 54.35 106.959 42.1 106.959 23.76V22.64ZM86.3088 22.64H112.629V29.99H86.3088V22.64ZM107.869 38.53V45.6L84.0688 47.77L82.8788 39.93L107.869 38.53ZM127.959 16.41H137.269V81.23H127.959V16.41ZM115.919 41.26H132.859V48.82H115.919V41.26ZM150.983 19.07H160.223V45.6H150.983V19.07ZM150.983 40.07H156.373C165.473 40.07 174.783 39.58 184.793 37.76L185.913 45.25C175.483 47.21 165.753 47.7 156.373 47.7H150.983V40.07ZM176.673 25.44H194.313V32.86H176.673V25.44ZM192.353 16.41H201.663V49.1H192.353V16.41ZM158.823 51.55H201.663V69.33H168.273V77.1H158.963V62.4H192.353V58.9H158.823V51.55ZM158.963 73.18H203.203V80.53H158.963V73.18ZM250.927 20.12H259.047V24.81C259.047 38.88 249.037 51.34 232.237 54.63L228.247 46.93C242.877 44.41 250.927 34.12 250.927 24.81V20.12ZM252.817 20.12H260.867V24.81C260.867 34.33 268.847 44.41 283.547 46.93L279.557 54.63C262.757 51.34 252.817 39.09 252.817 24.81V20.12ZM226.917 65.76H285.577V73.32H226.917V65.76ZM294.321 21.66H316.861V29.08H294.321V21.66ZM311.751 21.66H320.431V26.84C320.431 32.86 320.431 39.93 318.331 49.52L309.721 48.68C311.751 39.3 311.751 32.72 311.751 26.84V21.66ZM316.581 33.77V40.28L293.761 42.1L292.711 34.82L316.581 33.77ZM339.121 16.41H347.941V81.23H339.121V16.41ZM326.171 17.46H334.851V78.22H326.171V17.46ZM315.881 57.85H328.971V64.78H315.881V57.85ZM302.441 51.48H311.261V76.19H302.441V51.48ZM291.311 55.33L290.331 47.7C298.941 47.7 312.801 47.56 322.951 46.02L323.511 52.88C313.151 54.98 299.781 55.33 291.311 55.33ZM373.416 20.89C383.076 20.89 390.146 29.85 390.146 43.99C390.146 58.27 383.076 67.23 373.416 67.23C363.686 67.23 356.686 58.27 356.686 43.99C356.686 29.85 363.686 20.89 373.416 20.89ZM373.416 29.36C368.726 29.36 365.576 34.47 365.576 43.99C365.576 53.65 368.726 58.83 373.416 58.83C378.176 58.83 381.256 53.65 381.256 43.99C381.256 34.47 378.176 29.36 373.416 29.36ZM400.786 16.34H410.026V81.37H400.786V16.34ZM387.416 39.72H404.706V47.21H387.416V39.72Z" fill="#09C169"/>
<path d="M427.31 33.91H472.25V41.26H427.31V33.91ZM420.03 47.98H478.76V55.4H420.03V47.98ZM427.31 18.72H436.55V37.55H427.31V18.72ZM426.68 72.41H472.6V79.83H426.68V72.41ZM426.68 60.58H435.99V74.37H426.68V60.58ZM500.696 66.04H559.356V73.67H500.696V66.04ZM525.056 51.62H534.296V68.07H525.056V51.62ZM524.706 19.98H532.826V24.67C532.826 38.46 522.816 50.64 505.876 53.72L502.026 45.95C516.796 43.57 524.706 33.63 524.706 24.67V19.98ZM526.526 19.98H534.646V24.67C534.646 33.84 542.556 43.57 557.396 45.95L553.546 53.72C536.536 50.57 526.526 38.67 526.526 24.67V19.98ZM564.951 49.8H623.611V57.08H564.951V49.8ZM589.591 42.87H598.901V52.46H589.591V42.87ZM572.231 38.81H617.381V45.88H572.231V38.81ZM572.231 18.02H616.891V25.09H581.471V42.8H572.231V18.02ZM578.881 28.52H615.421V35.31H578.881V28.52ZM594.211 59.95C608.421 59.95 616.681 63.73 616.681 70.59C616.681 77.52 608.421 81.23 594.211 81.23C579.931 81.23 571.671 77.52 571.671 70.59C571.671 63.73 579.931 59.95 594.211 59.95ZM594.211 66.81C585.181 66.81 581.051 67.93 581.051 70.59C581.051 73.32 585.181 74.44 594.211 74.44C603.171 74.44 607.301 73.32 607.301 70.59C607.301 67.93 603.171 66.81 594.211 66.81ZM658.745 17.32C673.515 17.32 682.195 21.24 682.195 28.38C682.195 35.52 673.515 39.44 658.745 39.44C643.905 39.44 635.295 35.52 635.295 28.38C635.295 21.24 643.905 17.32 658.745 17.32ZM658.745 24.11C649.365 24.11 644.955 25.51 644.955 28.38C644.955 31.39 649.365 32.65 658.745 32.65C668.125 32.65 672.535 31.39 672.535 28.38C672.535 25.51 668.125 24.11 658.745 24.11ZM629.415 42.45H688.005V49.8H629.415V42.45ZM636.135 53.44H680.935V70.1H645.375V75.84H636.205V63.66H671.765V60.37H636.135V53.44ZM636.205 73.81H682.615V80.81H636.205V73.81ZM709.941 49.8H768.601V57.08H709.941V49.8ZM734.581 42.87H743.891V52.46H734.581V42.87ZM717.221 38.81H762.371V45.88H717.221V38.81ZM717.221 18.02H761.881V25.09H726.461V42.8H717.221V18.02ZM723.871 28.52H760.411V35.31H723.871V28.52ZM739.201 59.95C753.411 59.95 761.671 63.73 761.671 70.59C761.671 77.52 753.411 81.23 739.201 81.23C724.921 81.23 716.661 77.52 716.661 70.59C716.661 63.73 724.921 59.95 739.201 59.95ZM739.201 66.81C730.171 66.81 726.041 67.93 726.041 70.59C726.041 73.32 730.171 74.44 739.201 74.44C748.161 74.44 752.291 73.32 752.291 70.59C752.291 67.93 748.161 66.81 739.201 66.81ZM774.335 26.14H805.345V33.56H774.335V26.14ZM789.945 36.43C798.205 36.43 804.155 42.8 804.155 51.9C804.155 60.93 798.205 67.3 789.945 67.3C781.755 67.3 775.735 60.93 775.735 51.9C775.735 42.8 781.755 36.43 789.945 36.43ZM789.945 44.2C786.445 44.2 783.995 47 783.995 51.9C783.995 56.8 786.445 59.53 789.945 59.53C793.445 59.53 795.965 56.8 795.965 51.9C795.965 47 793.445 44.2 789.945 44.2ZM821.235 16.41H830.125V81.23H821.235V16.41ZM813.465 42.73H824.175V50.22H813.465V42.73ZM807.655 17.6H816.335V78.5H807.655V17.6ZM785.395 18.16H794.565V30.83H785.395V18.16ZM529.956 117.32C544.726 117.32 553.406 121.24 553.406 128.38C553.406 135.52 544.726 139.44 529.956 139.44C515.116 139.44 506.506 135.52 506.506 128.38C506.506 121.24 515.116 117.32 529.956 117.32ZM529.956 124.11C520.576 124.11 516.166 125.51 516.166 128.38C516.166 131.39 520.576 132.65 529.956 132.65C539.336 132.65 543.746 131.39 543.746 128.38C543.746 125.51 539.336 124.11 529.956 124.11ZM500.626 142.45H559.216V149.8H500.626V142.45ZM507.346 153.44H552.146V170.1H516.586V175.84H507.416V163.66H542.976V160.37H507.346V153.44ZM507.416 173.81H553.826V180.81H507.416V173.81ZM588.082 145.32H633.652V152.74H588.082V145.32ZM581.292 166.32H639.952V173.95H581.292V166.32ZM605.862 148.68H615.172V168.77H605.862V148.68ZM588.082 120.82H633.162V128.31H597.392V148.54H588.082V120.82ZM645.686 166.18H704.346V173.74H645.686V166.18ZM670.256 151.83H679.566V167.93H670.256V151.83ZM651.776 121.17H697.906V153.02H651.776V121.17ZM688.806 128.59H660.946V145.67H688.806V128.59ZM751.591 116.41H760.831V181.23H751.591V116.41ZM758.731 141.68H770.211V149.45H758.731V141.68ZM709.731 126H747.461V133.42H709.731V126ZM728.701 137.06C738.151 137.06 745.151 143.5 745.151 152.53C745.151 161.56 738.151 168 728.701 168C719.251 168 712.251 161.56 712.251 152.53C712.251 143.5 719.251 137.06 728.701 137.06ZM728.701 144.62C724.291 144.62 721.141 147.56 721.141 152.53C721.141 157.5 724.291 160.44 728.701 160.44C733.111 160.44 736.261 157.5 736.261 152.53C736.261 147.56 733.111 144.62 728.701 144.62ZM724.011 117.46H733.321V128.8H724.011V117.46ZM781.685 133.91H826.625V141.26H781.685V133.91ZM774.405 147.98H833.135V155.4H774.405V147.98ZM781.685 118.72H790.925V137.55H781.685V118.72ZM781.055 172.41H826.975V179.83H781.055V172.41ZM781.055 160.58H790.365V174.37H781.055V160.58ZM787.534 217.32C802.304 217.32 810.984 221.24 810.984 228.38C810.984 235.52 802.304 239.44 787.534 239.44C772.694 239.44 764.084 235.52 764.084 228.38C764.084 221.24 772.694 217.32 787.534 217.32ZM787.534 224.11C778.154 224.11 773.744 225.51 773.744 228.38C773.744 231.39 778.154 232.65 787.534 232.65C796.914 232.65 801.324 231.39 801.324 228.38C801.324 225.51 796.914 224.11 787.534 224.11ZM758.204 242.45H816.794V249.8H758.204V242.45ZM764.924 253.44H809.724V270.1H774.164V275.84H764.994V263.66H800.554V260.37H764.924V253.44ZM764.994 273.81H811.404V280.81H764.994V273.81ZM57.798 316.41H66.618V381.23H57.798V316.41ZM36.448 338.53H47.158V346.09H36.448V338.53ZM44.708 317.46H53.388V378.29H44.708V317.46ZM22.448 326.98H29.448V333.63C29.448 348.19 25.458 362.68 15.168 369.12L9.63797 362.26C19.158 356.31 22.448 344.69 22.448 333.63V326.98ZM24.548 326.98H31.478V333.63C31.478 344.41 34.698 355.33 44.078 360.79L38.618 367.58C28.328 361.49 24.548 347.91 24.548 333.63V326.98ZM12.088 322.92H40.998V330.41H12.088V322.92ZM104.343 356.73C118.343 356.73 127.303 361.35 127.303 369.05C127.303 376.61 118.343 381.23 104.343 381.23C90.3425 381.23 81.3825 376.61 81.3825 369.05C81.3825 361.35 90.3425 356.73 104.343 356.73ZM104.343 363.73C95.5925 363.73 90.6225 365.55 90.6225 369.05C90.6225 372.48 95.5925 374.23 104.343 374.23C113.093 374.23 118.063 372.48 118.063 369.05C118.063 365.55 113.093 363.73 104.343 363.73ZM82.0825 319.28H123.103V326.63H82.0825V319.28ZM75.5025 345.32H133.883V352.74H75.5025V345.32ZM97.1325 334.05H106.373V347.21H97.1325V334.05ZM117.713 319.28H126.953V324.6C126.953 329.71 126.953 335.24 125.203 341.96L115.963 340.98C117.713 334.33 117.713 329.64 117.713 324.6V319.28ZM181.337 316.41H190.577V381.23H181.337V316.41ZM188.477 341.68H199.957V349.45H188.477V341.68ZM139.477 326H177.207V333.42H139.477V326ZM158.447 337.06C167.897 337.06 174.897 343.5 174.897 352.53C174.897 361.56 167.897 368 158.447 368C148.997 368 141.997 361.56 141.997 352.53C141.997 343.5 148.997 337.06 158.447 337.06ZM158.447 344.62C154.037 344.62 150.887 347.56 150.887 352.53C150.887 357.5 154.037 360.44 158.447 360.44C162.857 360.44 166.007 357.5 166.007 352.53C166.007 347.56 162.857 344.62 158.447 344.62ZM153.757 317.46H163.067V328.8H153.757V317.46ZM248.812 316.41H258.192V381.23H248.812V316.41ZM229.702 323.13H238.942C238.942 342.94 232.222 359.18 209.192 370.31L204.362 362.89C222.982 353.93 229.702 342.17 229.702 324.81V323.13ZM207.792 323.13H234.112V330.48H207.792V323.13ZM305.747 319C315.617 319 322.757 324.67 322.757 332.86C322.757 340.91 315.617 346.72 305.747 346.72C295.947 346.72 288.807 340.91 288.807 332.86C288.807 324.67 295.947 319 305.747 319ZM305.747 326.56C301.057 326.56 297.697 328.8 297.697 332.86C297.697 336.85 301.057 339.09 305.747 339.09C310.507 339.09 313.867 336.85 313.867 332.86C313.867 328.8 310.507 326.56 305.747 326.56ZM301.407 353.16H310.717V379.27H301.407V353.16ZM329.757 316.41H338.997V381.23H329.757V316.41ZM286.077 358.06L284.957 350.5C296.297 350.5 312.327 350.36 326.047 348.26L326.677 355.05C312.607 357.85 297.277 357.99 286.077 358.06ZM349.072 326.14H380.082V333.56H349.072V326.14ZM364.682 336.43C372.942 336.43 378.892 342.8 378.892 351.9C378.892 360.93 372.942 367.3 364.682 367.3C356.492 367.3 350.472 360.93 350.472 351.9C350.472 342.8 356.492 336.43 364.682 336.43ZM364.682 344.2C361.182 344.2 358.732 347 358.732 351.9C358.732 356.8 361.182 359.53 364.682 359.53C368.182 359.53 370.702 356.8 370.702 351.9C370.702 347 368.182 344.2 364.682 344.2ZM395.972 316.41H404.862V381.23H395.972V316.41ZM388.202 342.73H398.912V350.22H388.202V342.73ZM382.392 317.6H391.072V378.5H382.392V317.6ZM360.132 318.16H369.302V330.83H360.132V318.16ZM432.118 348.47H437.508C450.248 348.47 457.598 348.19 465.998 346.72L466.978 353.93C458.368 355.54 450.528 355.82 437.508 355.82H432.118V348.47ZM432.118 321.38H462.568V328.73H441.428V350.99H432.118V321.38ZM438.558 334.82H461.168V342.03H438.558V334.82ZM471.458 316.41H480.768V364.43H471.458V316.41ZM478.108 335.59H489.378V343.15H478.108V335.59ZM438.978 372.69H483.078V380.11H438.978V372.69ZM438.978 360.09H448.288V377.38H438.978V360.09ZM505.822 320.33H513.102V327.82C513.102 338.81 508.692 349.8 498.122 354.28L493.222 347.07C502.252 343.08 505.822 335.1 505.822 327.82V320.33ZM507.502 320.33H514.782V327.82C514.782 334.75 518.282 341.75 526.822 345.11L521.852 352.18C511.772 348.19 507.502 338.39 507.502 327.82V320.33ZM540.542 316.48H549.362V356.03H540.542V316.48ZM532.772 332.16H543.062V339.65H532.772V332.16ZM526.822 317.67H535.502V354H526.822V317.67ZM527.382 356.94C540.962 356.94 549.712 361.49 549.712 369.12C549.712 376.68 540.962 381.23 527.382 381.23C513.732 381.23 505.122 376.68 505.122 369.12C505.122 361.49 513.732 356.94 527.382 356.94ZM527.382 363.94C519.052 363.94 514.362 365.69 514.362 369.12C514.362 372.55 519.052 374.23 527.382 374.23C535.712 374.23 540.332 372.55 540.332 369.12C540.332 365.69 535.712 363.94 527.382 363.94ZM604.937 316.48H613.757V356.31H604.937V316.48ZM597.027 333H607.387V340.49H597.027V333ZM591.567 317.32H600.247V355.68H591.567V317.32ZM558.247 322.64H589.677V329.85H558.247V322.64ZM574.067 331.81C582.187 331.81 588.067 336.43 588.067 343.15C588.067 349.87 582.187 354.49 574.067 354.49C565.947 354.49 560.067 349.87 560.067 343.15C560.067 336.43 565.947 331.81 574.067 331.81ZM574.067 338.53C570.637 338.53 568.327 340.14 568.327 343.15C568.327 346.16 570.637 347.84 574.067 347.84C577.427 347.84 579.737 346.16 579.737 343.15C579.737 340.14 577.427 338.53 574.067 338.53ZM569.377 316.83H578.547V327.75H569.377V316.83ZM574.137 358.41H581.137V359.67C581.137 368.84 576.657 377.17 566.437 380.46L562.167 373.6C570.497 371.15 574.137 365.34 574.137 359.67V358.41ZM576.587 358.41H583.237V359.67C583.237 365.41 586.317 371.36 594.087 374.23L590.377 381.09C580.297 377.59 576.587 368.56 576.587 359.67V358.41ZM597.517 358.41H604.167V359.67C604.167 368 600.387 377.45 590.377 381.09L586.737 374.23C594.297 371.08 597.517 364.92 597.517 359.67V358.41ZM599.827 358.41H606.757V359.67C606.757 365.69 610.327 371.36 618.797 373.6L614.457 380.46C604.097 377.31 599.827 369.19 599.827 359.67V358.41ZM629.781 355.26H638.951V360.72H664.921V355.26H674.161V380.53H629.781V355.26ZM638.951 367.65V373.25H664.921V367.65H638.951ZM622.921 344.69H681.511V352.04H622.921V344.69ZM647.491 317.11H655.471V319.07C655.471 330.34 645.811 339.65 629.081 341.82L625.791 334.61C640.421 332.86 647.491 325.65 647.491 319.07V317.11ZM649.031 317.11H657.011V319.07C657.011 325.58 664.081 332.86 678.641 334.61L675.351 341.82C658.621 339.65 649.031 330.27 649.031 319.07V317.11ZM732.186 316.41H741.496V381.23H732.186V316.41ZM690.746 322.57H699.986V362.82H690.746V322.57ZM690.746 357.36H696.486C705.936 357.36 716.436 356.66 727.146 354.56L728.196 362.26C717.066 364.57 706.356 365.27 696.486 365.27H690.746V357.36ZM793.15 316.34H802.53V381.37H793.15V316.34ZM800.43 340.35H811.91V347.98H800.43V340.35ZM754.23 358.06H759.69C770.61 358.06 779.22 357.71 788.74 356.03L789.65 363.73C779.85 365.48 770.96 365.76 759.69 365.76H754.23V358.06ZM754.23 322.36H784.47V329.85H763.47V361.77H754.23V322.36ZM835.403 324.091L828.543 359.737H819.494L824.391 324.091H835.403ZM822.005 375.646C820.331 375.646 818.956 375.066 817.879 373.906C816.818 372.746 816.337 371.338 816.437 369.68C816.553 368.04 817.241 366.656 818.5 365.529C819.776 364.386 821.243 363.814 822.9 363.814C824.491 363.814 825.833 364.386 826.927 365.529C828.021 366.673 828.501 368.056 828.369 369.68C828.286 370.774 827.929 371.777 827.3 372.688C826.687 373.583 825.908 374.304 824.963 374.851C824.018 375.381 823.032 375.646 822.005 375.646Z" fill="#646464"/>
<path d="M130.05 146.51H188.64V154.07H130.05V146.51ZM154.41 152.95H163.72V181.16H154.41V152.95ZM134.67 120.33H149.79V127.68H134.67V120.33ZM146.78 120.33H155.95V124.46C155.95 130.2 155.95 138.25 152.73 149.66L143.63 148.19C146.78 137.41 146.78 130.06 146.78 124.46V120.33ZM160.36 120.33H177.3V127.68H160.36V120.33ZM173.1 120.33H182.27V124.88C182.27 130.76 182.27 138.67 179.75 149.59L170.65 148.26C173.1 137.9 173.1 130.62 173.1 124.88V120.33ZM217.335 123.27H225.595V124.81C225.595 135.1 216.915 143.78 200.395 145.67L197.035 138.32C211.105 136.78 217.335 130.41 217.335 124.81V123.27ZM221.885 123.27H230.145V124.81C230.145 130.48 236.445 136.78 250.515 138.32L247.085 145.67C230.635 143.78 221.885 135.17 221.885 124.81V123.27ZM199.765 119.21H247.785V126.49H199.765V119.21ZM194.445 148.68H253.105V156.1H194.445V148.68ZM219.855 153.37H229.235V167.02H219.855V153.37ZM201.235 172.69H246.665V180.11H201.235V172.69ZM201.235 161.49H210.475V175.28H201.235V161.49ZM300.559 116.48H309.869V164.92H300.559V116.48ZM307.209 136.22H318.479V143.85H307.209V136.22ZM258.839 123.2H296.989V130.48H258.839V123.2ZM277.949 132.79C287.259 132.79 293.839 137.9 293.839 145.32C293.839 152.74 287.259 157.78 277.949 157.78C268.569 157.78 261.989 152.74 261.989 145.32C261.989 137.9 268.569 132.79 277.949 132.79ZM277.949 139.86C273.819 139.86 270.949 141.82 270.949 145.32C270.949 148.82 273.819 150.71 277.949 150.71C282.079 150.71 284.949 148.82 284.949 145.32C284.949 141.82 282.079 139.86 277.949 139.86ZM273.259 116.34H282.569V126.77H273.259V116.34ZM268.079 172.69H312.179V180.11H268.079V172.69ZM268.079 161.28H277.389V175.91H268.079V161.28ZM354.485 119.77H362.255V125.58C362.255 138.6 356.445 150.01 343.705 154.28L338.875 146.79C349.935 143.22 354.485 134.47 354.485 125.58V119.77ZM356.445 119.77H363.935V125.16C363.935 133.77 368.135 141.75 378.425 145.04L373.595 152.32C361.625 148.19 356.445 137.76 356.445 125.16V119.77ZM384.375 116.41H393.685V154.35H384.375V116.41ZM371.705 156.03C385.425 156.03 393.895 160.72 393.895 168.63C393.895 176.61 385.425 181.23 371.705 181.23C357.985 181.23 349.515 176.61 349.515 168.63C349.515 160.72 357.985 156.03 371.705 156.03ZM371.705 163.24C363.305 163.24 358.825 164.99 358.825 168.63C358.825 172.27 363.305 174.09 371.705 174.09C380.175 174.09 384.655 172.27 384.655 168.63C384.655 164.99 380.175 163.24 371.705 163.24ZM372.545 128.17H385.705V135.73H372.545V128.17ZM418.249 123.62H425.879V127.68C425.879 140.07 420.069 151.2 407.539 155.33L402.919 147.98C413.699 144.41 418.249 135.94 418.249 127.68V123.62ZM420.139 123.62H427.699V127.68C427.699 135.24 432.039 142.66 442.469 145.81L438.059 153.09C425.739 149.38 420.139 139.23 420.139 127.68V123.62ZM405.369 120.75H440.369V128.17H405.369V120.75ZM445.549 116.41H454.859V154.84H445.549V116.41ZM452.269 131.32H463.469V138.95H452.269V131.32ZM433.719 156.03C447.159 156.03 455.629 160.72 455.629 168.63C455.629 176.54 447.159 181.23 433.719 181.23C420.209 181.23 411.739 176.54 411.739 168.63C411.739 160.72 420.209 156.03 433.719 156.03ZM433.719 163.31C425.459 163.31 420.979 164.99 420.979 168.63C420.979 172.27 425.459 174.09 433.719 174.09C441.979 174.09 446.389 172.27 446.389 168.63C446.389 164.99 441.979 163.31 433.719 163.31Z" fill="#D4C9C9"/>
<path d="M192.871 216.41H201.761V281.23H192.871V216.41ZM184.681 240.84H195.391V248.26H184.681V240.84ZM165.361 224.32H174.251C174.251 242.59 168.931 257.36 150.801 267.93L145.411 261.49C160.181 252.74 165.361 241.82 165.361 226.28V224.32ZM148.701 224.32H168.091V231.81H148.701V224.32ZM178.521 218.09H187.201V278.43H178.521V218.09ZM212.536 219.28H221.776V226.91H234.446V219.28H243.686V247.63H212.536V219.28ZM221.776 233.91V240.35H234.446V233.91H221.776ZM252.366 216.41H261.676V249.31H252.366V216.41ZM257.896 228.87H270.216V236.43H257.896V228.87ZM218.836 251.83H261.676V269.47H228.216V277.17H218.976V262.82H252.506V258.97H218.836V251.83ZM218.976 273.6H263.566V280.81H218.976V273.6ZM289.6 226.63H296.95V233.91C296.95 248.54 290.79 263.45 278.89 269.05L273.64 261.7C284.35 256.66 289.6 244.55 289.6 233.91V226.63ZM291.56 226.63H298.91V233.91C298.91 243.71 303.95 255.19 314.59 260.09L309.48 267.44C297.58 261.91 291.56 247.7 291.56 233.91V226.63ZM276.16 222.64H311.72V230.27H276.16V222.64ZM316.48 216.41H325.86V281.23H316.48V216.41ZM323.76 241.12H335.24V248.82H323.76V241.12ZM339.505 241.54H398.165V248.89H339.505V241.54ZM346.715 230.76H391.235V238.04H346.715V230.76ZM346.715 217.6H390.675V225.02H355.955V237.06H346.715V217.6ZM346.155 252.53H390.955V269.68H355.395V275.28H346.225V263.1H381.785V259.53H346.155V252.53ZM346.225 273.6H392.635V280.74H346.225V273.6ZM433.159 217.32C447.929 217.32 456.609 221.24 456.609 228.38C456.609 235.52 447.929 239.44 433.159 239.44C418.319 239.44 409.709 235.52 409.709 228.38C409.709 221.24 418.319 217.32 433.159 217.32ZM433.159 224.11C423.779 224.11 419.369 225.51 419.369 228.38C419.369 231.39 423.779 232.65 433.159 232.65C442.539 232.65 446.949 231.39 446.949 228.38C446.949 225.51 442.539 224.11 433.159 224.11ZM403.829 242.45H462.419V249.8H403.829V242.45ZM410.549 253.44H455.349V270.1H419.789V275.84H410.619V263.66H446.179V260.37H410.549V253.44ZM410.619 273.81H457.029V280.81H410.619V273.81ZM505.425 219C515.295 219 522.435 224.67 522.435 232.86C522.435 240.91 515.295 246.72 505.425 246.72C495.625 246.72 488.485 240.91 488.485 232.86C488.485 224.67 495.625 219 505.425 219ZM505.425 226.56C500.735 226.56 497.375 228.8 497.375 232.86C497.375 236.85 500.735 239.09 505.425 239.09C510.185 239.09 513.545 236.85 513.545 232.86C513.545 228.8 510.185 226.56 505.425 226.56ZM501.085 253.16H510.395V279.27H501.085V253.16ZM529.435 216.41H538.675V281.23H529.435V216.41ZM485.755 258.06L484.635 250.5C495.975 250.5 512.005 250.36 525.725 248.26L526.355 255.05C512.285 257.85 496.955 257.99 485.755 258.06ZM590.54 216.48H599.85V264.92H590.54V216.48ZM597.19 236.22H608.46V243.85H597.19V236.22ZM548.82 223.2H586.97V230.48H548.82V223.2ZM567.93 232.79C577.24 232.79 583.82 237.9 583.82 245.32C583.82 252.74 577.24 257.78 567.93 257.78C558.55 257.78 551.97 252.74 551.97 245.32C551.97 237.9 558.55 232.79 567.93 232.79ZM567.93 239.86C563.8 239.86 560.93 241.82 560.93 245.32C560.93 248.82 563.8 250.71 567.93 250.71C572.06 250.71 574.93 248.82 574.93 245.32C574.93 241.82 572.06 239.86 567.93 239.86ZM563.24 216.34H572.55V226.77H563.24V216.34ZM558.06 272.69H602.16V280.11H558.06V272.69ZM558.06 261.28H567.37V275.91H558.06V261.28ZM658.395 256.73C672.395 256.73 681.355 261.35 681.355 269.05C681.355 276.61 672.395 281.23 658.395 281.23C644.395 281.23 635.435 276.61 635.435 269.05C635.435 261.35 644.395 256.73 658.395 256.73ZM658.395 263.73C649.645 263.73 644.675 265.55 644.675 269.05C644.675 272.48 649.645 274.23 658.395 274.23C667.145 274.23 672.115 272.48 672.115 269.05C672.115 265.55 667.145 263.73 658.395 263.73ZM636.135 219.28H677.155V226.63H636.135V219.28ZM629.555 245.32H687.935V252.74H629.555V245.32ZM651.185 234.05H660.425V247.21H651.185V234.05ZM671.765 219.28H681.005V224.6C681.005 229.71 681.005 235.24 679.255 241.96L670.015 240.98C671.765 234.33 671.765 229.64 671.765 224.6V219.28ZM735.46 216.41H744.84V262.82H735.46V216.41ZM742.18 234.47H753.45V242.1H742.18V234.47ZM717.4 221.24H727.34C727.34 238.88 716.56 250.99 697.24 256.59L693.32 249.17C709.21 244.83 717.4 236.15 717.4 225.86V221.24ZM696.12 221.24H722.44V228.73H696.12V221.24ZM702.91 272.69H747.01V280.11H702.91V272.69ZM702.91 258.13H712.29V275.98H702.91V258.13Z" fill="#D4C9C9"/>
<rect x="97" y="102" width="389" height="92" rx="46" stroke="#09C169" stroke-width="2"/>
<line x1="145" y1="299.5" x2="756" y2="299.5" stroke="#09C169"/>
</svg>
