<svg width="689" height="484" viewBox="0 0 689 484" fill="none" xmlns="http://www.w3.org/2000/svg">
<path d="M33.888 46.824H39.984V91.272H33.888V46.824ZM28.272 63.576H35.616V68.664H28.272V63.576ZM15.024 52.248H21.12C21.12 64.776 17.472 74.904 5.04 82.152L1.344 77.736C11.472 71.736 15.024 64.248 15.024 53.592V52.248ZM3.6 52.248H16.896V57.384H3.6V52.248ZM24.048 47.976H30V89.352H24.048V47.976ZM47.3723 48.792H53.7083V54.024H62.3963V48.792H68.7323V68.232H47.3723V48.792ZM53.7083 58.824V63.24H62.3963V58.824H53.7083ZM74.6843 46.824H81.0683V69.384H74.6843V46.824ZM78.4763 55.368H86.9243V60.552H78.4763V55.368ZM51.6923 71.112H81.0683V83.208H58.1243V88.488H51.7883V78.648H74.7803V76.008H51.6923V71.112ZM51.7883 86.04H82.3643V90.984H51.7883V86.04ZM100.217 53.832H105.257V58.824C105.257 68.856 101.033 79.08 92.8725 82.92L89.2725 77.88C96.6165 74.424 100.217 66.12 100.217 58.824V53.832ZM101.561 53.832H106.601V58.824C106.601 65.544 110.057 73.416 117.353 76.776L113.849 81.816C105.689 78.024 101.561 68.28 101.561 58.824V53.832ZM91.0005 51.096H115.385V56.328H91.0005V51.096ZM118.649 46.824H125.081V91.272H118.649V46.824ZM123.641 63.768H131.513V69.048H123.641V63.768ZM159.788 74.8636H166.061L169.214 78.9205L172.317 82.5341L178.163 89.8636H171.277L167.254 84.9205L165.192 81.9886L159.788 74.8636ZM178.692 69.5455C178.692 73.3523 177.97 76.5909 176.527 79.2614C175.095 81.9318 173.141 83.9716 170.663 85.3807C168.197 86.7784 165.425 87.4773 162.345 87.4773C159.243 87.4773 156.459 86.7727 153.993 85.3636C151.527 83.9545 149.578 81.9148 148.146 79.2443C146.714 76.5739 145.999 73.3409 145.999 69.5455C145.999 65.7386 146.714 62.5 148.146 59.8295C149.578 57.1591 151.527 55.125 153.993 53.7273C156.459 52.3182 159.243 51.6136 162.345 51.6136C165.425 51.6136 168.197 52.3182 170.663 53.7273C173.141 55.125 175.095 57.1591 176.527 59.8295C177.97 62.5 178.692 65.7386 178.692 69.5455ZM171.209 69.5455C171.209 67.0795 170.839 65 170.101 63.3068C169.374 61.6136 168.345 60.3295 167.016 59.4545C165.686 58.5795 164.129 58.142 162.345 58.142C160.561 58.142 159.004 58.5795 157.675 59.4545C156.345 60.3295 155.311 61.6136 154.572 63.3068C153.845 65 153.482 67.0795 153.482 69.5455C153.482 72.0114 153.845 74.0909 154.572 75.7841C155.311 77.4773 156.345 78.7614 157.675 79.6364C159.004 80.5114 160.561 80.9489 162.345 80.9489C164.129 80.9489 165.686 80.5114 167.016 79.6364C168.345 78.7614 169.374 77.4773 170.101 75.7841C170.839 74.0909 171.209 72.0114 171.209 69.5455ZM191.284 71.8636V87H184.023V60.8182H190.943V65.4375H191.25C191.83 63.9148 192.801 62.7102 194.165 61.8239C195.528 60.9261 197.182 60.4773 199.125 60.4773C200.943 60.4773 202.528 60.875 203.881 61.6705C205.233 62.4659 206.284 63.6023 207.034 65.0795C207.784 66.5455 208.159 68.2955 208.159 70.3295V87H200.898V71.625C200.909 70.0227 200.5 68.7727 199.67 67.875C198.841 66.9659 197.699 66.5114 196.244 66.5114C195.267 66.5114 194.403 66.7216 193.653 67.142C192.915 67.5625 192.335 68.1761 191.915 68.983C191.506 69.7784 191.295 70.7386 191.284 71.8636ZM220.036 87H212.126L224.178 52.0909H233.689L245.723 87H237.814L229.07 60.0682H228.797L220.036 87ZM219.541 73.2784H238.223V79.0398H219.541V73.2784Z" fill="#09C169"/>
<path d="M18.928 3.564H22.68V16.836H18.928V3.564ZM5.376 17.872H22.68V24.844H9.072V27.56H5.432V22.24H18.984V20.7H5.376V17.872ZM5.432 26.468H23.324V29.324H5.432V26.468ZM7.42 6.028H10.444V7.036C10.444 11.628 8.008 15.716 2.94 17.144L1.232 14.232C5.544 13.028 7.42 10.004 7.42 7.036V6.028ZM8.232 6.028H11.228V7.036C11.228 9.78 13.076 12.608 17.304 13.756L15.596 16.612C10.612 15.268 8.232 11.376 8.232 7.036V6.028ZM2.212 4.74H16.324V7.68H2.212V4.74ZM26.8778 16.36H50.3418V19.328H26.8778V16.36ZM37.0418 18.236H40.7938V23.696H37.0418V18.236ZM29.7618 4.656H47.3738V14.288H29.7618V4.656ZM43.7058 7.568H33.4018V11.376H43.7058V7.568ZM29.5938 26.076H47.7658V29.044H29.5938V26.076ZM29.5938 21.512H33.2898V27.056H29.5938V21.512ZM53.7276 6.14H64.8996V9.08H53.7276V6.14ZM57.0596 13.56H60.7276V22.352H57.0596V13.56ZM63.4156 6.14H67.0836V8.24C67.0836 10.76 67.0836 13.896 66.3836 18.208L62.7436 17.872C63.4156 13.728 63.4156 10.732 63.4156 8.24V6.14ZM69.2956 3.564H73.0196V29.492H69.2956V3.564ZM71.9276 13.98H76.4916V17.06H71.9276V13.98ZM52.7476 24.256L52.4116 21.26C56.9756 21.26 63.0236 21.176 68.1196 20.532L68.3156 23.248C63.0796 24.144 57.2556 24.256 52.7476 24.256ZM101.562 3.564H105.286V17.452H101.562V3.564ZM104.25 9.136H108.73V12.16H104.25V9.136ZM85.8539 13.868H88.0099C93.6379 13.868 96.4379 13.728 99.5459 13.084L99.9099 16.024C96.7459 16.724 93.7779 16.864 88.0099 16.864H85.8539V13.868ZM85.8539 5.104H97.3619V8.072H89.5499V15.856H85.8539V5.104ZM88.3459 18.712H92.0419V21.064H101.59V18.712H105.286V29.184H88.3459V18.712ZM92.0419 23.948V26.216H101.59V23.948H92.0419ZM123.344 7.904H129.952V10.844H123.344V7.904ZM123.344 13.476H130.064V16.416H123.344V13.476ZM128.608 3.592H132.332V22.716H128.608V3.592ZM115.168 26.076H132.892V29.044H115.168V26.076ZM115.168 20.84H118.92V27.784H115.168V20.84ZM111.724 5.272H115.42V9.22H120.348V5.272H123.988V18.656H111.724V5.272ZM115.42 12.048V15.716H120.348V12.048H115.42ZM148.122 3.928C154.03 3.928 157.502 5.496 157.502 8.352C157.502 11.208 154.03 12.776 148.122 12.776C142.186 12.776 138.742 11.208 138.742 8.352C138.742 5.496 142.186 3.928 148.122 3.928ZM148.122 6.644C144.37 6.644 142.606 7.204 142.606 8.352C142.606 9.556 144.37 10.06 148.122 10.06C151.874 10.06 153.638 9.556 153.638 8.352C153.638 7.204 151.874 6.644 148.122 6.644ZM136.39 13.98H159.826V16.92H136.39V13.98ZM139.078 18.376H156.998V25.04H142.774V27.336H139.106V22.464H153.33V21.148H139.078V18.376ZM139.106 26.524H157.67V29.324H139.106V26.524ZM168.6 16.92H192.064V19.832H168.6V16.92ZM178.456 14.148H182.18V17.984H178.456V14.148ZM171.512 12.524H189.572V15.352H171.512V12.524ZM171.512 4.208H189.376V7.036H175.208V14.12H171.512V4.208ZM174.172 8.408H188.788V11.124H174.172V8.408ZM180.304 20.98C185.988 20.98 189.292 22.492 189.292 25.236C189.292 28.008 185.988 29.492 180.304 29.492C174.592 29.492 171.288 28.008 171.288 25.236C171.288 22.492 174.592 20.98 180.304 20.98ZM180.304 23.724C176.692 23.724 175.04 24.172 175.04 25.236C175.04 26.328 176.692 26.776 180.304 26.776C183.888 26.776 185.54 26.328 185.54 25.236C185.54 24.172 183.888 23.724 180.304 23.724ZM194.358 7.456H206.762V10.424H194.358V7.456ZM200.602 11.572C203.906 11.572 206.286 14.12 206.286 17.76C206.286 21.372 203.906 23.92 200.602 23.92C197.326 23.92 194.918 21.372 194.918 17.76C194.918 14.12 197.326 11.572 200.602 11.572ZM200.602 14.68C199.202 14.68 198.222 15.8 198.222 17.76C198.222 19.72 199.202 20.812 200.602 20.812C202.002 20.812 203.01 19.72 203.01 17.76C203.01 15.8 202.002 14.68 200.602 14.68ZM213.118 3.564H216.674V29.492H213.118V3.564ZM210.01 14.092H214.294V17.088H210.01V14.092ZM207.686 4.04H211.158V28.4H207.686V4.04ZM198.782 4.264H202.45V9.332H198.782V4.264ZM232.868 7.652H235.836V10.564C235.836 16.556 233.4 22.408 228.528 24.62L226.428 21.68C230.768 19.748 232.868 14.96 232.868 10.564V7.652ZM233.708 7.652H236.648V10.564C236.648 14.764 238.72 19.244 243.06 21.036L241.044 23.976C236.116 21.848 233.708 16.332 233.708 10.564V7.652ZM227.464 6.056H241.996V9.108H227.464V6.056ZM244.404 3.564H248.156V29.492H244.404V3.564ZM258.458 4.74H261.538V7.232C261.538 12.132 259.158 16.584 254.09 18.208L252.27 15.268C256.638 13.868 258.458 10.508 258.458 7.232V4.74ZM259.214 4.74H262.266V7.232C262.266 10.424 264.058 13.56 268.286 14.848L266.466 17.76C261.51 16.192 259.214 12.048 259.214 7.232V4.74ZM256.246 20.168H273.942V29.492H270.19V23.136H256.246V20.168ZM270.19 3.564H273.942V19.02H270.19V3.564ZM289.872 3.928C295.78 3.928 299.252 5.496 299.252 8.352C299.252 11.208 295.78 12.776 289.872 12.776C283.936 12.776 280.492 11.208 280.492 8.352C280.492 5.496 283.936 3.928 289.872 3.928ZM289.872 6.644C286.12 6.644 284.356 7.204 284.356 8.352C284.356 9.556 286.12 10.06 289.872 10.06C293.624 10.06 295.388 9.556 295.388 8.352C295.388 7.204 293.624 6.644 289.872 6.644ZM278.14 13.98H301.576V16.92H278.14V13.98ZM280.828 18.376H298.748V25.04H284.524V27.336H280.856V22.464H295.08V21.148H280.828V18.376ZM280.856 26.524H299.42V29.324H280.856V26.524ZM327.066 3.564H330.79V19.188H327.066V3.564ZM329.754 9.948H334.234V13H329.754V9.948ZM313.934 20.308H330.79V29.212H313.934V20.308ZM327.15 23.248H317.602V26.272H327.15V23.248ZM310.378 5.888H325.638V8.828H310.378V5.888ZM318.022 9.584C321.774 9.584 324.378 11.488 324.378 14.26C324.378 17.06 321.774 18.908 318.022 18.908C314.242 18.908 311.638 17.06 311.638 14.26C311.638 11.488 314.242 9.584 318.022 9.584ZM318.022 12.356C316.342 12.356 315.222 13 315.222 14.26C315.222 15.52 316.342 16.192 318.022 16.192C319.674 16.192 320.822 15.52 320.822 14.26C320.822 13 319.674 12.356 318.022 12.356ZM316.146 3.396H319.87V7.484H316.146V3.396ZM355.4 6.756H359.88V9.78H355.4V6.756ZM355.4 12.384H359.88V15.408H355.4V12.384ZM343.36 4.964C347.364 4.964 350.416 7.596 350.416 11.264C350.416 14.904 347.364 17.536 343.36 17.536C339.356 17.536 336.304 14.904 336.304 11.264C336.304 7.596 339.356 4.964 343.36 4.964ZM343.36 8.072C341.4 8.072 339.944 9.276 339.944 11.264C339.944 13.28 341.4 14.428 343.36 14.428C345.32 14.428 346.776 13.28 346.776 11.264C346.776 9.276 345.32 8.072 343.36 8.072ZM352.824 3.564H356.548V18.684H352.824V3.564ZM348.092 19.244C353.44 19.244 356.856 21.176 356.856 24.368C356.856 27.588 353.44 29.492 348.092 29.492C342.716 29.492 339.3 27.588 339.3 24.368C339.3 21.176 342.716 19.244 348.092 19.244ZM348.092 22.184C344.788 22.184 342.996 22.884 342.996 24.368C342.996 25.88 344.788 26.58 348.092 26.58C351.396 26.58 353.16 25.88 353.16 24.368C353.16 22.884 351.396 22.184 348.092 22.184ZM378.525 3.564H382.221V29.492H378.525V3.564ZM381.381 13.672H385.973V16.78H381.381V13.672ZM361.781 7.4H376.873V10.368H361.781V7.4ZM369.369 11.824C373.149 11.824 375.949 14.4 375.949 18.012C375.949 21.624 373.149 24.2 369.369 24.2C365.589 24.2 362.789 21.624 362.789 18.012C362.789 14.4 365.589 11.824 369.369 11.824ZM369.369 14.848C367.605 14.848 366.345 16.024 366.345 18.012C366.345 20 367.605 21.176 369.369 21.176C371.133 21.176 372.393 20 372.393 18.012C372.393 16.024 371.133 14.848 369.369 14.848ZM367.493 3.984H371.217V8.52H367.493V3.984ZM390.059 5.748H406.495V8.744H390.059V5.748ZM387.679 23.36H411.115V26.384H387.679V23.36ZM395.967 14.456H399.691V24.844H395.967V14.456ZM405.151 5.748H408.875V8.24C408.875 11.488 408.875 15.128 407.839 20.672L404.115 20.252C405.151 15.1 405.151 11.348 405.151 8.24V5.748ZM437.698 3.592H441.45V17.928H437.698V3.592ZM425.966 4.46H429.046V6.952C429.046 11.74 426.638 16.052 421.57 17.592L419.75 14.68C424.118 13.364 425.966 10.116 425.966 6.952V4.46ZM426.722 4.46H429.774V6.952C429.774 10.032 431.594 13.028 435.822 14.232L434.03 17.172C429.046 15.688 426.722 11.656 426.722 6.952V4.46ZM423.922 19.104H441.562V22.044H423.922V19.104ZM423.67 26.272H441.814V29.212H423.67V26.272ZM426.974 20.196H430.614V28.008H426.974V20.196ZM434.87 20.196H438.538V28.008H434.87V20.196ZM462.223 3.536H465.975V29.548H462.223V3.536ZM465.135 13.14H469.727V16.192H465.135V13.14ZM446.655 20.224H448.839C453.207 20.224 456.651 20.084 460.459 19.412L460.823 22.492C456.903 23.192 453.347 23.304 448.839 23.304H446.655V20.224ZM446.655 5.944H458.751V8.94H450.351V21.708H446.655V5.944ZM483.921 7.624H490.445V10.592H483.921V7.624ZM483.921 13.196H490.557V16.164H483.921V13.196ZM472.469 5.636H484.733V18.32H472.469V5.636ZM481.065 8.576H476.137V15.408H481.065V8.576ZM489.381 3.592H493.105V22.464H489.381V3.592ZM475.941 26.076H493.665V29.044H475.941V26.076ZM475.941 20.672H479.693V27.616H475.941V20.672Z" fill="white"/>
<path d="M538.604 266.936H562.068V269.96H538.604V266.936ZM548.46 268H552.156V277.52H548.46V268ZM541.516 262.12H559.632V265.06H541.516V262.12ZM541.516 252.6H559.352V255.512H545.184V262.82H541.516V252.6ZM544.148 257.388H558.792V260.216H544.148V257.388ZM570.13 265.676H573.854V272.648H570.13V265.676ZM578.278 265.704H581.974V272.676H578.278V265.704ZM564.39 271.64H587.854V274.664H564.39V271.64ZM566.182 253.608H585.922V256.576H566.182V253.608ZM566.294 263.856H585.838V266.796H566.294V263.856ZM569.71 256.072H573.434V264.276H569.71V256.072ZM578.698 256.072H582.394V264.276H578.698V256.072ZM606.752 251.564H610.448V277.492H606.752V251.564ZM609.608 261.672H614.2V264.78H609.608V261.672ZM590.008 255.4H605.1V258.368H590.008V255.4ZM597.596 259.824C601.376 259.824 604.176 262.4 604.176 266.012C604.176 269.624 601.376 272.2 597.596 272.2C593.816 272.2 591.016 269.624 591.016 266.012C591.016 262.4 593.816 259.824 597.596 259.824ZM597.596 262.848C595.832 262.848 594.572 264.024 594.572 266.012C594.572 268 595.832 269.176 597.596 269.176C599.36 269.176 600.62 268 600.62 266.012C600.62 264.024 599.36 262.848 597.596 262.848ZM595.72 251.984H599.444V256.52H595.72V251.984ZM633.742 251.564H637.494V277.492H633.742V251.564ZM626.098 254.252H629.794C629.794 262.176 627.106 268.672 617.894 273.124L615.962 270.156C623.41 266.572 626.098 261.868 626.098 254.924V254.252ZM617.334 254.252H627.862V257.192H617.334V254.252Z" fill="white"/>
<path d="M67.4124 251.564H71.1644V264.836H67.4124V251.564ZM53.8604 265.872H71.1644V272.844H57.5564V275.56H53.9164V270.24H67.4684V268.7H53.8604V265.872ZM53.9164 274.468H71.8084V277.324H53.9164V274.468ZM55.9044 254.028H58.9284V255.036C58.9284 259.628 56.4924 263.716 51.4244 265.144L49.7164 262.232C54.0284 261.028 55.9044 258.004 55.9044 255.036V254.028ZM56.7164 254.028H59.7124V255.036C59.7124 257.78 61.5604 260.608 65.7884 261.756L64.0804 264.612C59.0964 263.268 56.7164 259.376 56.7164 255.036V254.028ZM50.6964 252.74H64.8084V255.68H50.6964V252.74ZM75.3622 264.36H98.8262V267.328H75.3622V264.36ZM85.5262 266.236H89.2782V271.696H85.5262V266.236ZM78.2462 252.656H95.8582V262.288H78.2462V252.656ZM92.1902 255.568H81.8862V259.376H92.1902V255.568ZM78.0782 274.076H96.2502V277.044H78.0782V274.076ZM78.0782 269.512H81.7742V275.056H78.0782V269.512ZM117.752 251.564H121.448V277.492H117.752V251.564ZM120.608 261.672H125.2V264.78H120.608V261.672ZM101.008 255.4H116.1V258.368H101.008V255.4ZM108.596 259.824C112.376 259.824 115.176 262.4 115.176 266.012C115.176 269.624 112.376 272.2 108.596 272.2C104.816 272.2 102.016 269.624 102.016 266.012C102.016 262.4 104.816 259.824 108.596 259.824ZM108.596 262.848C106.832 262.848 105.572 264.024 105.572 266.012C105.572 268 106.832 269.176 108.596 269.176C110.36 269.176 111.62 268 111.62 266.012C111.62 264.024 110.36 262.848 108.596 262.848ZM106.72 251.984H110.444V256.52H106.72V251.984ZM144.742 251.564H148.494V277.492H144.742V251.564ZM137.098 254.252H140.794C140.794 262.176 138.106 268.672 128.894 273.124L126.962 270.156C134.41 266.572 137.098 261.868 137.098 254.924V254.252ZM128.334 254.252H138.862V257.192H128.334V254.252Z" fill="white"/>
<path d="M65.3698 297.784H66.6498V312.248H65.3698V297.784ZM63.0338 303.592H65.8018V304.68H63.0338V303.592ZM59.2898 299.64H60.5698C60.5698 303.368 59.2898 306.824 55.1618 309.144L54.3778 308.2C58.0098 306.168 59.2898 303.24 59.2898 299.896V299.64ZM54.9378 299.64H59.7378V300.744H54.9378V299.64ZM62.1538 298.168H63.4178V311.544H62.1538V298.168ZM69.7045 298.376H71.0165V300.456H75.0965V298.376H76.3925V304.696H69.7045V298.376ZM71.0165 301.496V303.624H75.0965V301.496H71.0165ZM79.0005 297.784H80.3285V305.24H79.0005V297.784ZM79.7525 300.888H82.4565V301.992H79.7525V300.888ZM71.1445 305.944H80.3285V309.448H72.4885V311.624H71.1765V308.456H79.0325V307H71.1445V305.944ZM71.1765 311.032H80.8565V312.088H71.1765V311.032ZM84.4713 299.368H91.0153V300.44H84.4713V299.368ZM86.7273 303.496H88.0393V308.392H86.7273V303.496ZM90.4713 299.368H91.7673V300.136C91.7673 301.32 91.7673 303.208 91.3513 305.896L90.0393 305.768C90.4713 303.16 90.4713 301.304 90.4713 300.136V299.368ZM93.5913 297.784H94.9033V312.248H93.5913V297.784ZM94.5513 303.832H97.2233V304.952H94.5513V303.832ZM83.8313 309.096L83.6713 307.976C86.2953 307.976 89.7833 307.928 92.7113 307.56L92.7753 308.536C89.7833 309.016 86.3913 309.08 83.8313 309.096ZM103.818 298.904H110.218V299.992H103.818V298.904ZM105.994 302.136H107.306V305.752H105.994V302.136ZM109.69 298.904H111.002V299.672C111.002 300.616 111.002 302.056 110.618 303.96L109.322 303.816C109.69 301.912 109.69 300.6 109.69 299.672V298.904ZM112.97 297.784H114.298V308.68H112.97V297.784ZM113.69 302.488H116.362V303.592H113.69V302.488ZM105.162 310.84H114.762V311.928H105.162V310.84ZM105.162 307.672H106.474V311.176H105.162V307.672ZM103.082 306.376L102.938 305.288C105.514 305.288 109.066 305.224 111.994 304.824L112.09 305.784C109.082 306.312 105.626 306.376 103.082 306.376ZM118.361 305.4H119.401C122.137 305.4 123.609 305.352 125.417 305.032L125.545 306.12C123.705 306.44 122.185 306.504 119.401 306.504H118.361V305.4ZM118.329 298.808H124.553V303.048H119.673V306.056H118.361V301.992H123.241V299.88H118.329V298.808ZM128.329 297.8H129.657V308.44H128.329V297.8ZM125.529 300.216H128.649V301.288H125.529V300.216ZM120.313 310.776H130.105V311.864H120.313V310.776ZM120.313 307.656H121.625V311.256H120.313V307.656ZM125.529 303.464H128.649V304.552H125.529V303.464ZM133.832 302.504H140.808V303.592H133.832V302.504ZM136.616 303.16H137.944V306.056H136.616V303.16ZM133.832 298.728H140.712V299.816H135.16V302.984H133.832V298.728ZM142.984 297.784H144.312V308.6H142.984V297.784ZM134.968 310.84H144.792V311.928H134.968V310.84ZM134.968 307.896H136.28V311.304H134.968V307.896ZM132.728 306.776L132.552 305.688C135.336 305.688 138.856 305.624 141.832 305.272L141.912 306.248C138.856 306.696 135.432 306.776 132.728 306.776ZM26.5221 319.032H27.6101V321.624C27.6101 324.952 25.8181 328.04 23.4501 329.24L22.6341 328.152C24.7781 327.128 26.5221 324.36 26.5221 321.624V319.032ZM26.7461 319.032H27.8341V321.624C27.8341 324.264 29.5621 326.92 31.7061 327.912L30.9061 328.968C28.5541 327.816 26.7461 324.84 26.7461 321.624V319.032ZM33.2101 317.768H34.5381V332.264H33.2101V317.768ZM41.2408 319.032H42.3288V321.624C42.3288 324.952 40.5368 328.04 38.1688 329.24L37.3528 328.152C39.4968 327.128 41.2408 324.36 41.2408 321.624V319.032ZM41.4648 319.032H42.5528V321.624C42.5528 324.264 44.2808 326.92 46.4248 327.912L45.6248 328.968C43.2728 327.816 41.4648 324.84 41.4648 321.624V319.032ZM47.9288 317.768H49.2568V332.264H47.9288V317.768ZM53.6876 318.216H62.9996V319.256H53.6876V318.216ZM52.1516 324.056H65.2076V325.112H52.1516V324.056ZM57.4636 322.344H58.7916V324.552H57.4636V322.344ZM62.2956 318.216H63.6076V319.128C63.6076 320.136 63.6076 321.464 63.2716 323.224L61.9596 323.144C62.2956 321.368 62.2956 320.12 62.2956 319.128V318.216ZM62.6636 320.424V321.368L53.5276 321.8L53.3356 320.712L62.6636 320.424ZM53.7196 326.344H63.5436V329.64H55.0636V331.352H53.7516V328.68H62.2316V327.352H53.7196V326.344ZM53.7516 331H63.9756V332.024H53.7516V331ZM68.4063 318.216H77.7183V319.256H68.4063V318.216ZM66.8703 324.056H79.9263V325.112H66.8703V324.056ZM72.1823 322.344H73.5103V324.552H72.1823V322.344ZM77.0143 318.216H78.3263V319.128C78.3263 320.136 78.3263 321.464 77.9903 323.224L76.6783 323.144C77.0143 321.368 77.0143 320.12 77.0143 319.128V318.216ZM77.3823 320.424V321.368L68.2463 321.8L68.0543 320.712L77.3823 320.424ZM68.4383 326.344H78.2623V329.64H69.7823V331.352H68.4703V328.68H76.9503V327.352H68.4383V326.344ZM68.4703 331H78.6943V332.024H68.4703V331ZM91.4771 317.8H92.8051V328.648H91.4771V317.8ZM92.3891 322.536H94.9491V323.656H92.3891V322.536ZM81.6211 319.544H90.1651V320.616H81.6211V319.544ZM85.8931 321.416C87.9411 321.416 89.3491 322.488 89.3491 324.12C89.3491 325.736 87.9411 326.808 85.8931 326.808C83.8291 326.808 82.4211 325.736 82.4211 324.12C82.4211 322.488 83.8291 321.416 85.8931 321.416ZM85.8931 322.456C84.5811 322.456 83.6851 323.112 83.6851 324.12C83.6851 325.112 84.5811 325.768 85.8931 325.768C87.1891 325.768 88.0851 325.112 88.0851 324.12C88.0851 323.112 87.1891 322.456 85.8931 322.456ZM85.2211 317.784H86.5491V320.104H85.2211V317.784ZM83.7971 330.84H93.4611V331.928H83.7971V330.84ZM83.7971 327.784H85.1251V331.304H83.7971V327.784ZM111.304 317.768H112.632V332.264H111.304V317.768ZM105 318.888C107.144 318.888 108.68 320.856 108.68 323.928C108.68 327.016 107.144 328.984 105 328.984C102.872 328.984 101.336 327.016 101.336 323.928C101.336 320.856 102.872 318.888 105 318.888ZM105 320.088C103.592 320.088 102.6 321.592 102.6 323.928C102.6 326.28 103.592 327.816 105 327.816C106.424 327.816 107.4 326.28 107.4 323.928C107.4 321.592 106.424 320.088 105 320.088ZM119.367 318.888C121.495 318.888 122.999 320.856 122.999 323.928C122.999 327.016 121.495 328.984 119.367 328.984C117.239 328.984 115.735 327.016 115.735 323.928C115.735 320.856 117.239 318.888 119.367 318.888ZM119.367 320.088C117.959 320.088 116.999 321.592 116.999 323.928C116.999 326.28 117.959 327.816 119.367 327.816C120.759 327.816 121.735 326.28 121.735 323.928C121.735 321.592 120.759 320.088 119.367 320.088ZM126.279 321.416H128.935V322.536H126.279V321.416ZM126.279 325.72H128.935V326.84H126.279V325.72ZM125.303 317.784H126.647V332.248H125.303V317.784ZM140.773 317.784H142.101V332.248H140.773V317.784ZM136.533 319.336H137.845C137.845 323.528 135.957 327.192 131.125 329.56L130.421 328.488C134.597 326.472 136.533 323.4 136.533 319.56V319.336ZM131.077 319.336H137.109V320.424H131.077V319.336ZM155.46 317.768H156.788V332.264H155.46V317.768ZM149.156 318.888C151.3 318.888 152.836 320.856 152.836 323.928C152.836 327.016 151.3 328.984 149.156 328.984C147.028 328.984 145.492 327.016 145.492 323.928C145.492 320.856 147.028 318.888 149.156 318.888ZM149.156 320.088C147.748 320.088 146.756 321.592 146.756 323.928C146.756 326.28 147.748 327.816 149.156 327.816C150.58 327.816 151.556 326.28 151.556 323.928C151.556 321.592 150.58 320.088 149.156 320.088ZM159.683 325.08H172.755V326.168H159.683V325.08ZM161.331 322.408H171.251V323.512H161.331V322.408ZM161.331 318.408H171.123V319.48H162.659V322.776H161.331V318.408ZM161.347 330.824H171.379V331.928H161.347V330.824ZM161.347 327.688H162.675V331.112H161.347V327.688ZM176.829 329.409L176.738 330.023C176.674 330.455 176.575 330.917 176.442 331.409C176.314 331.902 176.179 332.366 176.039 332.801C175.899 333.237 175.783 333.583 175.692 333.841H174.67C174.719 333.598 174.783 333.278 174.863 332.881C174.942 332.483 175.022 332.038 175.102 331.545C175.185 331.057 175.253 330.557 175.306 330.045L175.374 329.409H176.829ZM19.2029 338.888C21.2989 338.888 22.8029 340.856 22.8029 343.928C22.8029 347.016 21.2989 348.984 19.2029 348.984C17.0909 348.984 15.6029 347.016 15.6029 343.928C15.6029 340.856 17.0909 338.888 19.2029 338.888ZM19.2029 340.088C17.8109 340.088 16.8669 341.592 16.8669 343.928C16.8669 346.28 17.8109 347.816 19.2029 347.816C20.5949 347.816 21.5389 346.28 21.5389 343.928C21.5389 341.592 20.5949 340.088 19.2029 340.088ZM25.9389 337.768H27.2509V352.264H25.9389V337.768ZM22.3709 343.288H26.5149V344.376H22.3709V343.288ZM40.6256 337.768H41.9536V352.264H40.6256V337.768ZM37.7776 341.08H40.9776V342.168H37.7776V341.08ZM30.5936 347.784H31.6656C33.9056 347.784 35.7456 347.72 37.9536 347.368L38.0816 348.472C35.8096 348.824 33.9536 348.904 31.6656 348.904H30.5936V347.784ZM30.5616 339.08H36.8816V344.264H31.9056V348.04H30.5936V343.176H35.5696V340.184H30.5616V339.08ZM37.6816 345.032H40.8816V346.12H37.6816V345.032ZM48.7044 345.864H50.0164V351.8H48.7044V345.864ZM55.3284 337.784H56.6564V352.264H55.3284V337.784ZM44.8964 346.52L44.7204 345.4C47.4564 345.4 51.0884 345.384 54.2244 344.936L54.3044 345.928C51.0724 346.472 47.5844 346.52 44.8964 346.52ZM52.0484 347.656H55.6644V348.696H52.0484V347.656ZM49.4404 338.504C51.5684 338.504 53.0564 339.64 53.0564 341.352C53.0564 343.064 51.5684 344.2 49.4404 344.2C47.2804 344.2 45.8084 343.064 45.8084 341.352C45.8084 339.64 47.2804 338.504 49.4404 338.504ZM49.4404 339.528C48.0324 339.528 47.0404 340.28 47.0404 341.352C47.0404 342.44 48.0324 343.176 49.4404 343.176C50.8164 343.176 51.8084 342.44 51.8084 341.352C51.8084 340.28 50.8164 339.528 49.4404 339.528ZM66.7191 342.68H70.7511V343.768H66.7191V342.68ZM63.2311 339.032H64.3191V341.608C64.3191 344.856 62.6071 347.96 60.3191 349.192L59.4711 348.136C61.5991 347.08 63.2311 344.296 63.2311 341.608V339.032ZM63.4871 339.032H64.5591V341.608C64.5591 344.248 66.1911 346.872 68.2871 347.864L67.5031 348.936C65.1671 347.752 63.4871 344.776 63.4871 341.608V339.032ZM70.0951 337.768H71.4071V352.264H70.0951V337.768ZM79.2979 339.192H85.8739V348.6H79.2979V339.192ZM84.5619 340.264H80.5939V347.528H84.5619V340.264ZM89.3139 337.768H90.6259V352.264H89.3139V337.768ZM85.6179 343.048H89.8099V344.152H85.6179V343.048ZM103.969 337.768H105.297V352.264H103.969V337.768ZM94.2726 347.672H95.4726C97.8886 347.672 100.049 347.576 102.609 347.16L102.753 348.248C100.129 348.68 97.9526 348.776 95.4726 348.776H94.2726V347.672ZM94.2406 339.128H100.929V344.296H95.6006V348.088H94.2726V343.208H99.5846V340.216H94.2406V339.128ZM108.143 344.504H121.263V345.512H108.143V344.504ZM109.695 346.68H119.615V349.768H111.055V351.464H109.743V348.856H118.319V347.624H109.695V346.68ZM109.743 351.112H120.079V352.072H109.743V351.112ZM109.807 338.2H119.567V341.208H111.151V342.776H109.839V340.312H118.271V339.144H109.807V338.2ZM109.839 342.456H119.839V343.416H109.839V342.456ZM131.394 339.416H132.498V340.216C132.498 342.248 130.93 343.944 128.45 344.536L127.906 343.48C130.002 342.968 131.394 341.672 131.394 340.216V339.416ZM131.698 339.416H132.802V340.216C132.802 341.656 134.194 342.808 136.29 343.224L135.746 344.296C133.298 343.752 131.698 342.232 131.698 340.216V339.416ZM128.29 338.776H135.906V339.864H128.29V338.776ZM131.506 345.896H132.834V351.816H131.506V345.896ZM137.906 337.784H139.218V352.264H137.906V337.784ZM127.522 346.776L127.346 345.656C130.082 345.656 133.714 345.624 136.882 345.176L136.978 346.168C133.73 346.728 130.21 346.776 127.522 346.776ZM145.953 338.888C148.049 338.888 149.553 340.856 149.553 343.928C149.553 347.016 148.049 348.984 145.953 348.984C143.841 348.984 142.353 347.016 142.353 343.928C142.353 340.856 143.841 338.888 145.953 338.888ZM145.953 340.088C144.561 340.088 143.617 341.592 143.617 343.928C143.617 346.28 144.561 347.816 145.953 347.816C147.345 347.816 148.289 346.28 148.289 343.928C148.289 341.592 147.345 340.088 145.953 340.088ZM152.689 337.768H154.001V352.264H152.689V337.768ZM149.121 343.288H153.265V344.376H149.121V343.288ZM156.8 344.616H169.872V345.688H156.8V344.616ZM158.416 350.984H168.4V352.056H158.416V350.984ZM158.416 347.288H168.272V348.376H159.728V351.672H158.416V347.288ZM163.76 342.168H168.704V343.24H163.76V342.168ZM163.76 338.344H168.624V339.416H165.12V342.728H163.76V338.344ZM158.048 338.344H162.928V339.416H159.392V342.728H158.048V338.344ZM158.048 342.168H158.848C160.256 342.168 161.584 342.12 163.088 341.784L163.232 342.84C161.648 343.192 160.304 343.24 158.848 343.24H158.048V342.168ZM172.35 345.144H173.438C176.11 345.144 177.806 345.048 179.774 344.664L179.902 345.752C177.886 346.136 176.158 346.232 173.438 346.232H172.35V345.144ZM172.35 338.968H178.974V340.056H173.662V345.48H172.35V338.968ZM182.094 337.784H183.422V348.344H182.094V337.784ZM178.046 341.784H182.398V342.856H178.046V341.784ZM174.174 350.936H183.806V352.024H174.174V350.936ZM174.174 347.56H175.502V351.56H174.174V347.56ZM46.1979 357.784H47.4779V372.248H46.1979V357.784ZM43.7659 363.672H46.5499V364.76H43.7659V363.672ZM42.9179 358.104H44.1659V371.512H42.9179V358.104ZM35.9099 359.528H37.2379V367.88H35.9099V359.528ZM35.9099 367.352H36.8379C38.3259 367.352 39.9899 367.256 41.8779 366.888L42.0219 368.04C40.0539 368.424 38.3899 368.504 36.8379 368.504H35.9099V367.352ZM53.1566 362.68H54.4686V365.416H53.1566V362.68ZM58.4686 362.68H59.7806V365.416H58.4686V362.68ZM49.9246 364.936H62.9966V366.008H49.9246V364.936ZM56.4526 367.096C59.5566 367.096 61.4126 368.008 61.4126 369.656C61.4126 371.304 59.5566 372.232 56.4526 372.232C53.3486 372.232 51.4926 371.304 51.4926 369.656C51.4926 368.008 53.3486 367.096 56.4526 367.096ZM56.4526 368.12C54.1966 368.12 52.8366 368.68 52.8366 369.656C52.8366 370.648 54.1966 371.192 56.4526 371.192C58.7246 371.192 60.0686 370.648 60.0686 369.656C60.0686 368.68 58.7246 368.12 56.4526 368.12ZM56.4686 358.04C59.6046 358.04 61.5566 359.048 61.5566 360.744C61.5566 362.424 59.6046 363.416 56.4686 363.416C53.3166 363.416 51.3806 362.424 51.3806 360.744C51.3806 359.048 53.3166 358.04 56.4686 358.04ZM56.4686 359.08C54.1646 359.08 52.7406 359.688 52.7406 360.744C52.7406 361.784 54.1646 362.392 56.4686 362.392C58.7726 362.392 60.1966 361.784 60.1966 360.744C60.1966 359.688 58.7726 359.08 56.4686 359.08ZM75.1554 357.768H76.4834V372.264H75.1554V357.768ZM68.8514 358.888C70.9954 358.888 72.5314 360.856 72.5314 363.928C72.5314 367.016 70.9954 368.984 68.8514 368.984C66.7234 368.984 65.1874 367.016 65.1874 363.928C65.1874 360.856 66.7234 358.888 68.8514 358.888ZM68.8514 360.088C67.4434 360.088 66.4514 361.592 66.4514 363.928C66.4514 366.28 67.4434 367.816 68.8514 367.816C70.2754 367.816 71.2514 366.28 71.2514 363.928C71.2514 361.592 70.2754 360.088 68.8514 360.088ZM79.3781 365.08H92.4501V366.168H79.3781V365.08ZM81.0261 362.408H90.9461V363.512H81.0261V362.408ZM81.0261 358.408H90.8181V359.48H82.3541V362.776H81.0261V358.408ZM81.0421 370.824H91.0741V371.928H81.0421V370.824ZM81.0421 367.688H82.3701V371.112H81.0421V367.688ZM108.373 357.768H109.717V372.264H108.373V357.768ZM109.397 363.48H112.085V364.6H109.397V363.48ZM99.2049 367.544H100.341C103.013 367.544 104.885 367.448 107.045 367.048L107.189 368.168C104.965 368.584 103.061 368.664 100.341 368.664H99.2049V367.544ZM99.2049 359.176H105.925V360.264H100.517V368.04H99.2049V359.176ZM123.672 362.072H124.984V364.28H123.672V362.072ZM123.48 358.664H124.648V359.112C124.648 361.288 121.96 362.68 118.92 362.968L118.488 361.96C121.096 361.752 123.48 360.632 123.48 359.112V358.664ZM124.056 358.664H125.208V359.112C125.208 360.616 127.592 361.752 130.2 361.96L129.768 362.968C126.744 362.68 124.056 361.288 124.056 359.112V358.664ZM119 358.232H129.704V359.272H119V358.232ZM119.016 366.76H129.672V367.816H119.016V366.76ZM117.8 363.784H130.92V364.856H117.8V363.784ZM124.344 368.52C127.128 368.52 128.68 369.176 128.68 370.424C128.68 371.688 127.128 372.328 124.344 372.328C121.56 372.328 119.992 371.688 119.992 370.424C119.992 369.176 121.56 368.52 124.344 368.52ZM124.344 369.432C122.424 369.432 121.352 369.768 121.352 370.424C121.352 371.08 122.424 371.416 124.344 371.416C126.248 371.416 127.336 371.08 127.336 370.424C127.336 369.768 126.248 369.432 124.344 369.432ZM123.688 365.432H125V367.432H123.688V365.432ZM136.374 358.888C138.502 358.888 140.006 360.856 140.006 363.928C140.006 367.016 138.502 368.984 136.374 368.984C134.246 368.984 132.742 367.016 132.742 363.928C132.742 360.856 134.246 358.888 136.374 358.888ZM136.374 360.088C134.966 360.088 134.006 361.592 134.006 363.928C134.006 366.28 134.966 367.816 136.374 367.816C137.766 367.816 138.742 366.28 138.742 363.928C138.742 361.592 137.766 360.088 136.374 360.088ZM142.31 357.784H143.654V372.248H142.31V357.784ZM143.334 363.56H146.022V364.68H143.334V363.56ZM150.453 365.224H151.765V369.56H150.453V365.224ZM155.797 365.224H157.125V369.56H155.797V365.224ZM147.253 369.304H160.357V370.408H147.253V369.304ZM153.781 358.696C156.837 358.696 159.029 360.152 159.029 362.424C159.029 364.68 156.837 366.136 153.781 366.136C150.709 366.136 148.517 364.68 148.517 362.424C148.517 360.152 150.709 358.696 153.781 358.696ZM153.781 359.752C151.461 359.752 149.797 360.808 149.797 362.424C149.797 364.024 151.461 365.08 153.781 365.08C156.101 365.08 157.749 364.024 157.749 362.424C157.749 360.808 156.101 359.752 153.781 359.752ZM163.376 371.091C163.096 371.091 162.856 370.991 162.655 370.79C162.454 370.589 162.354 370.348 162.354 370.068C162.354 369.788 162.454 369.547 162.655 369.347C162.856 369.146 163.096 369.045 163.376 369.045C163.657 369.045 163.897 369.146 164.098 369.347C164.299 369.547 164.399 369.788 164.399 370.068C164.399 370.254 164.352 370.424 164.257 370.58C164.166 370.735 164.043 370.86 163.888 370.955C163.736 371.045 163.566 371.091 163.376 371.091Z" fill="white"/>
<path d="M259.093 297.768H260.421V312.264H259.093V297.768ZM252.789 298.888C254.933 298.888 256.469 300.856 256.469 303.928C256.469 307.016 254.933 308.984 252.789 308.984C250.661 308.984 249.125 307.016 249.125 303.928C249.125 300.856 250.661 298.888 252.789 298.888ZM252.789 300.088C251.381 300.088 250.389 301.592 250.389 303.928C250.389 306.28 251.381 307.816 252.789 307.816C254.213 307.816 255.189 306.28 255.189 303.928C255.189 301.592 254.213 300.088 252.789 300.088ZM273.876 297.784H275.204V308.472H273.876V297.784ZM270.756 302.248H274.132V303.352H270.756V302.248ZM269.412 298.904H270.804C270.804 302.632 268.18 305.464 264.1 306.824L263.524 305.752C267.06 304.568 269.412 302.296 269.412 299.432V298.904ZM264.244 298.904H270.276V299.992H264.244V298.904ZM266.068 310.84H275.572V311.928H266.068V310.84ZM266.068 307.4H267.396V311.384H266.068V307.4ZM293.51 297.784H294.79V312.248H293.51V297.784ZM291.078 303.672H293.862V304.76H291.078V303.672ZM290.23 298.104H291.478V311.512H290.23V298.104ZM283.222 299.528H284.55V307.88H283.222V299.528ZM283.222 307.352H284.15C285.638 307.352 287.302 307.256 289.19 306.888L289.334 308.04C287.366 308.424 285.702 308.504 284.15 308.504H283.222V307.352ZM307.029 297.768H308.373V312.248H307.029V297.768ZM308.005 303.64H310.677V304.744H308.005V303.64ZM303.333 299.336H304.629C304.629 303.448 302.741 307.16 298.069 309.512L297.333 308.488C301.333 306.456 303.333 303.368 303.333 299.544V299.336ZM298.005 299.336H304.021V300.424H298.005V299.336ZM320.008 298.904H321.096V300.056C321.096 302.552 319.448 304.584 316.984 305.368L316.328 304.312C318.52 303.656 320.008 301.96 320.008 300.056V298.904ZM320.248 298.904H321.336V300.056C321.336 301.768 322.776 303.336 324.904 303.944L324.28 305C321.864 304.264 320.248 302.344 320.248 300.056V298.904ZM316.776 298.584H324.52V299.672H316.776V298.584ZM326.36 297.784H327.688V305.224H326.36V297.784ZM327.112 300.92H329.816V302.024H327.112V300.92ZM318.504 305.912H327.688V309.416H319.848V311.64H318.536V308.44H326.392V306.952H318.504V305.912ZM318.536 311.08H328.216V312.104H318.536V311.08ZM343.115 300.392H346.811V301.496H343.115V300.392ZM346.251 297.784H347.579V305.24H346.251V297.784ZM338.267 305.992H347.579V309.448H339.611V311.64H338.315V308.456H346.267V307.048H338.267V305.992ZM338.315 311H348.123V312.056H338.315V311ZM339.291 298.232H340.379V299.592C340.379 302.264 338.779 304.424 336.363 305.288L335.675 304.232C337.851 303.496 339.291 301.688 339.291 299.592V298.232ZM339.515 298.232H340.587V299.592C340.587 301.48 342.043 303.224 344.139 303.912L343.451 304.952C341.115 304.12 339.515 302.04 339.515 299.592V298.232ZM357.305 300.12H361.481V301.208H357.305V300.12ZM357.305 303H361.513V304.072H357.305V303ZM360.969 297.784H362.297V306.344H360.969V297.784ZM351.065 298.872H357.673V305.304H351.065V298.872ZM356.361 299.944H352.361V304.248H356.361V299.944ZM357.545 306.76C360.521 306.76 362.361 307.768 362.361 309.496C362.361 311.224 360.521 312.216 357.545 312.216C354.553 312.216 352.713 311.224 352.713 309.496C352.713 307.768 354.553 306.76 357.545 306.76ZM357.545 307.816C355.369 307.816 354.041 308.44 354.041 309.496C354.041 310.552 355.369 311.176 357.545 311.176C359.721 311.176 361.049 310.552 361.049 309.496C361.049 308.44 359.721 307.816 357.545 307.816ZM375.016 297.736H376.344V305.72H375.016V297.736ZM375.784 301.208H378.488V302.328H375.784V301.208ZM367.16 306.456H376.344V309.688H368.504V311.448H367.192V308.728H375.048V307.464H367.16V306.456ZM367.192 311.064H376.872V312.088H367.192V311.064ZM365.16 299.08H373.704V300.12H365.16V299.08ZM369.432 300.76C371.512 300.76 372.888 301.672 372.888 303.144C372.888 304.6 371.512 305.496 369.432 305.496C367.32 305.496 365.96 304.6 365.96 303.144C365.96 301.672 367.32 300.76 369.432 300.76ZM369.432 301.736C368.088 301.736 367.224 302.28 367.224 303.144C367.224 303.992 368.088 304.536 369.432 304.536C370.76 304.536 371.624 303.992 371.624 303.144C371.624 302.28 370.76 301.736 369.432 301.736ZM368.76 297.624H370.088V299.8H368.76V297.624ZM390.187 298.296H391.355V299.096C391.355 301.864 388.539 303.848 385.531 304.36L385.003 303.288C387.643 302.888 390.187 301.16 390.187 299.096V298.296ZM390.427 298.296H391.579V299.096C391.579 301.112 394.155 302.888 396.763 303.288L396.235 304.36C393.259 303.848 390.427 301.832 390.427 299.096V298.296ZM390.187 306.744H391.499V312.248H390.187V306.744ZM384.347 305.928H397.419V307.032H384.347V305.928ZM407.166 306.68H408.19V307.464C408.19 309.352 407.006 311.256 404.926 312.056L404.254 311.064C406.078 310.408 407.166 308.856 407.166 307.464V306.68ZM407.454 306.68H408.446V307.464C408.446 308.92 409.31 310.472 411.038 311.176L410.478 312.184C408.398 311.368 407.454 309.384 407.454 307.464V306.68ZM412.51 306.68H413.502V307.464C413.502 309.16 412.542 311.304 410.478 312.184L409.918 311.176C411.63 310.392 412.51 308.712 412.51 307.464V306.68ZM412.782 306.68H413.806V307.464C413.806 308.952 414.878 310.44 416.718 311.064L416.046 312.056C413.934 311.288 412.782 309.464 412.782 307.464V306.68ZM414.078 297.8H415.422V306.056H414.078V297.8ZM407.662 298.632C409.854 298.632 411.422 300.008 411.422 302.008C411.422 304.008 409.854 305.368 407.662 305.368C405.47 305.368 403.886 304.008 403.886 302.008C403.886 300.008 405.47 298.632 407.662 298.632ZM407.662 299.736C406.222 299.736 405.182 300.664 405.182 302.008C405.182 303.352 406.222 304.264 407.662 304.264C409.102 304.264 410.142 303.352 410.142 302.008C410.142 300.664 409.102 299.736 407.662 299.736ZM420.044 302.12H429.868V303.208H420.044V302.12ZM418.268 305.144H431.388V306.232H418.268V305.144ZM420.044 298.312H421.356V302.664H420.044V298.312ZM419.948 310.808H429.948V311.896H419.948V310.808ZM419.948 307.672H421.26V311.096H419.948V307.672ZM287.201 317.784H288.545V332.248H287.201V317.784ZM288.225 323.464H290.913V324.6H288.225V323.464ZM277.985 319H279.297V322.824H283.425V319H284.737V328.776H277.985V319ZM279.297 323.88V327.688H283.425V323.88H279.297ZM292.144 329.368H305.248V330.472H292.144V329.368ZM298 326.264H299.328V329.832H298V326.264ZM293.728 318.856H303.632V323.24H295.088V326.136H293.776V322.168H302.32V319.928H293.728V318.856ZM293.776 325.576H303.968V326.664H293.776V325.576ZM312.771 319.32H322.083V320.392H312.771V319.32ZM311.363 329.032H324.435V330.136H311.363V329.032ZM321.379 319.32H322.675V320.76C322.675 322.616 322.675 324.68 322.131 327.8L320.803 327.672C321.379 324.712 321.379 322.552 321.379 320.76V319.32ZM341.557 317.784H342.837V332.248H341.557V317.784ZM339.125 323.672H341.909V324.76H339.125V323.672ZM338.277 318.104H339.525V331.512H338.277V318.104ZM331.269 319.528H332.597V327.88H331.269V319.528ZM331.269 327.352H332.197C333.685 327.352 335.349 327.256 337.237 326.888L337.381 328.04C335.413 328.424 333.749 328.504 332.197 328.504H331.269V327.352ZM348.516 322.68H349.828V325.416H348.516V322.68ZM353.828 322.68H355.14V325.416H353.828V322.68ZM345.284 324.936H358.356V326.008H345.284V324.936ZM351.812 327.096C354.916 327.096 356.772 328.008 356.772 329.656C356.772 331.304 354.916 332.232 351.812 332.232C348.708 332.232 346.852 331.304 346.852 329.656C346.852 328.008 348.708 327.096 351.812 327.096ZM351.812 328.12C349.556 328.12 348.196 328.68 348.196 329.656C348.196 330.648 349.556 331.192 351.812 331.192C354.084 331.192 355.428 330.648 355.428 329.656C355.428 328.68 354.084 328.12 351.812 328.12ZM351.828 318.04C354.964 318.04 356.916 319.048 356.916 320.744C356.916 322.424 354.964 323.416 351.828 323.416C348.676 323.416 346.74 322.424 346.74 320.744C346.74 319.048 348.676 318.04 351.828 318.04ZM351.828 319.08C349.524 319.08 348.1 319.688 348.1 320.744C348.1 321.784 349.524 322.392 351.828 322.392C354.132 322.392 355.556 321.784 355.556 320.744C355.556 319.688 354.132 319.08 351.828 319.08ZM370.515 317.768H371.843V332.264H370.515V317.768ZM364.211 318.888C366.355 318.888 367.891 320.856 367.891 323.928C367.891 327.016 366.355 328.984 364.211 328.984C362.083 328.984 360.547 327.016 360.547 323.928C360.547 320.856 362.083 318.888 364.211 318.888ZM364.211 320.088C362.803 320.088 361.811 321.592 361.811 323.928C361.811 326.28 362.803 327.816 364.211 327.816C365.635 327.816 366.611 326.28 366.611 323.928C366.611 321.592 365.635 320.088 364.211 320.088ZM384.53 317.768H385.858V332.264H384.53V317.768ZM385.538 323.528H388.226V324.648H385.538V323.528ZM375.314 327.672H376.466C379.186 327.672 381.074 327.576 383.266 327.16L383.41 328.264C381.154 328.664 379.234 328.776 376.466 328.776H375.314V327.672ZM375.282 319.128H381.826V324.312H376.626V328.12H375.314V323.224H380.514V320.216H375.282V319.128ZM396.384 320.328H400.432V321.416H396.384V320.328ZM396.384 323.416H400.464V324.52H396.384V323.416ZM390.112 319.032H396.72V325.816H390.112V319.032ZM395.408 320.104H391.408V324.744H395.408V320.104ZM400.016 317.8H401.344V328.36H400.016V317.8ZM392.048 330.84H401.696V331.928H392.048V330.84ZM392.048 327.4H393.376V331.336H392.048V327.4ZM253.736 338.872H260.376V345.096H253.736V338.872ZM259.08 339.944H255.032V344.04H259.08V339.944ZM263.032 337.784H264.36V346.328H263.032V337.784ZM263.992 341.368H266.504V342.488H263.992V341.368ZM259.752 346.824C262.696 346.824 264.504 347.832 264.504 349.528C264.504 351.24 262.696 352.232 259.752 352.232C256.808 352.232 255 351.24 255 349.528C255 347.832 256.808 346.824 259.752 346.824ZM259.752 347.896C257.608 347.896 256.296 348.488 256.296 349.528C256.296 350.568 257.608 351.176 259.752 351.176C261.896 351.176 263.208 350.568 263.208 349.528C263.208 348.488 261.896 347.896 259.752 347.896ZM275.286 340.392H278.983V341.496H275.286V340.392ZM278.423 337.784H279.751V345.24H278.423V337.784ZM270.439 345.992H279.751V349.448H271.783V351.64H270.487V348.456H278.439V347.048H270.439V345.992ZM270.487 351H280.295V352.056H270.487V351ZM271.463 338.232H272.551V339.592C272.551 342.264 270.951 344.424 268.535 345.288L267.847 344.232C270.023 343.496 271.463 341.688 271.463 339.592V338.232ZM271.687 338.232H272.759V339.592C272.759 341.48 274.215 343.224 276.311 343.912L275.623 344.952C273.287 344.12 271.687 342.04 271.687 339.592V338.232ZM293.077 337.768H294.405V352.264H293.077V337.768ZM286.773 338.888C288.917 338.888 290.453 340.856 290.453 343.928C290.453 347.016 288.917 348.984 286.773 348.984C284.645 348.984 283.109 347.016 283.109 343.928C283.109 340.856 284.645 338.888 286.773 338.888ZM286.773 340.088C285.365 340.088 284.373 341.592 284.373 343.928C284.373 346.28 285.365 347.816 286.773 347.816C288.197 347.816 289.173 346.28 289.173 343.928C289.173 341.592 288.197 340.088 286.773 340.088ZM301.124 339.848H302.196V342.2C302.196 345.256 300.356 348.328 298.052 349.464L297.284 348.408C299.38 347.416 301.124 344.696 301.124 342.2V339.848ZM301.38 339.848H302.452V342.2C302.452 344.648 304.196 347.144 306.324 348.056L305.572 349.112C303.236 348.024 301.38 345.208 301.38 342.2V339.848ZM297.764 339.256H305.844V340.376H297.764V339.256ZM307.796 337.784H309.124V352.248H307.796V337.784ZM326.407 337.784H327.735V345.144H326.407V337.784ZM327.159 340.888H329.863V341.992H327.159V340.888ZM317.111 338.6H323.751V344.392H317.111V338.6ZM322.455 339.656H318.407V343.336H322.455V339.656ZM318.551 345.832H327.735V349.384H319.895V351.544H318.583V348.376H326.439V346.888H318.551V345.832ZM318.583 350.984H328.263V352.056H318.583V350.984ZM332.614 339.224H341.926V340.328H332.614V339.224ZM331.238 349.128H344.31V350.232H331.238V349.128ZM336.31 343.96H337.638V349.672H336.31V343.96ZM341.43 339.224H342.742V340.664C342.742 342.456 342.742 344.44 342.214 347.368L340.886 347.192C341.43 344.424 341.43 342.392 341.43 340.664V339.224ZM360.344 337.784H361.672V345.144H360.344V337.784ZM361.096 340.888H363.8V341.992H361.096V340.888ZM352.488 345.832H361.672V349.384H353.832V351.544H352.52V348.376H360.376V346.888H352.488V345.832ZM352.52 350.984H362.2V352.056H352.52V350.984ZM354.44 338.296C356.616 338.296 358.184 339.624 358.184 341.512C358.184 343.416 356.616 344.744 354.44 344.744C352.296 344.744 350.712 343.416 350.712 341.512C350.712 339.624 352.296 338.296 354.44 338.296ZM354.44 339.384C353.048 339.384 352.008 340.264 352.008 341.512C352.008 342.776 353.048 343.656 354.44 343.656C355.864 343.656 356.904 342.776 356.904 341.512C356.904 340.264 355.864 339.384 354.44 339.384ZM375.735 337.768H377.063V352.264H375.735V337.768ZM372.887 341.08H376.087V342.168H372.887V341.08ZM365.703 347.784H366.775C369.015 347.784 370.855 347.72 373.063 347.368L373.191 348.472C370.919 348.824 369.063 348.904 366.775 348.904H365.703V347.784ZM365.671 339.08H371.991V344.264H367.015V348.04H365.703V343.176H370.679V340.184H365.671V339.08ZM372.791 345.032H375.991V346.12H372.791V345.032ZM385.686 339.208H386.838V339.816C386.838 342.408 384.086 344.312 381.174 344.808L380.662 343.752C383.206 343.384 385.686 341.72 385.686 339.816V339.208ZM386.022 339.208H387.158V339.816C387.158 341.72 389.654 343.384 392.182 343.752L391.686 344.808C388.758 344.312 386.022 342.408 386.022 339.816V339.208ZM385.734 346.728H387.046V352.248H385.734V346.728ZM379.894 346.024H392.966V347.112H379.894V346.024ZM381.11 338.68H391.702V339.752H381.11V338.68ZM400.309 342.952H403.077V344.056H400.309V342.952ZM397.605 339.144H398.645V341.896C398.645 344.92 397.381 347.848 395.269 349.144L394.437 348.136C396.421 346.968 397.605 344.376 397.605 341.896V339.144ZM397.861 339.144H398.885V341.848C398.885 344.168 399.973 346.632 401.877 347.784L401.109 348.824C399.029 347.544 397.861 344.664 397.861 341.848V339.144ZM405.621 337.784H406.901V352.248H405.621V337.784ZM402.693 338.088H403.941V351.528H402.693V338.088ZM412.531 345.224H413.843V349.56H412.531V345.224ZM417.875 345.224H419.203V349.56H417.875V345.224ZM409.331 349.304H422.435V350.408H409.331V349.304ZM415.859 338.696C418.915 338.696 421.107 340.152 421.107 342.424C421.107 344.68 418.915 346.136 415.859 346.136C412.787 346.136 410.595 344.68 410.595 342.424C410.595 340.152 412.787 338.696 415.859 338.696ZM415.859 339.752C413.539 339.752 411.875 340.808 411.875 342.424C411.875 344.024 413.539 345.08 415.859 345.08C418.179 345.08 419.827 344.024 419.827 342.424C419.827 340.808 418.179 339.752 415.859 339.752ZM425.455 351.091C425.174 351.091 424.934 350.991 424.733 350.79C424.532 350.589 424.432 350.348 424.432 350.068C424.432 349.788 424.532 349.547 424.733 349.347C424.934 349.146 425.174 349.045 425.455 349.045C425.735 349.045 425.975 349.146 426.176 349.347C426.377 349.547 426.477 349.788 426.477 350.068C426.477 350.254 426.43 350.424 426.335 350.58C426.244 350.735 426.121 350.86 425.966 350.955C425.814 351.045 425.644 351.091 425.455 351.091ZM258.298 365.182C258.298 363.75 258.484 362.434 258.855 361.233C259.23 360.028 259.764 358.92 260.457 357.909H261.639C261.366 358.284 261.111 358.746 260.872 359.295C260.637 359.841 260.431 360.441 260.253 361.097C260.075 361.748 259.935 362.422 259.832 363.119C259.734 363.816 259.685 364.504 259.685 365.182C259.685 366.083 259.772 366.998 259.946 367.926C260.12 368.854 260.355 369.716 260.651 370.511C260.946 371.307 261.276 371.955 261.639 372.455H260.457C259.764 371.443 259.23 370.337 258.855 369.136C258.484 367.932 258.298 366.614 258.298 365.182ZM264.277 371H262.8L267.072 359.364H268.527L272.8 371H271.322L267.845 361.205H267.754L264.277 371ZM264.822 366.455H270.777V367.705H264.822V366.455ZM276.021 359.364V371H274.612V359.364H276.021ZM293.25 357.8H294.594V368.36H293.25V357.8ZM285.298 370.84H295.026V371.928H285.298V370.84ZM285.298 367.272H286.61V371.208H285.298V367.272ZM286.834 358.792C288.994 358.792 290.594 360.264 290.594 362.36C290.594 364.44 288.994 365.928 286.834 365.928C284.674 365.928 283.058 364.44 283.058 362.36C283.058 360.264 284.674 358.792 286.834 358.792ZM286.834 359.944C285.426 359.944 284.354 360.936 284.354 362.36C284.354 363.768 285.426 364.76 286.834 364.76C288.242 364.76 289.314 363.768 289.314 362.36C289.314 360.936 288.242 359.944 286.834 359.944ZM305.248 361.864H308.272V362.936H305.248V361.864ZM308.016 357.784H309.344V368.536H308.016V357.784ZM300.096 370.84H309.728V371.928H300.096V370.84ZM300.096 367.624H301.424V371.48H300.096V367.624ZM298.176 365.16H299.232C302 365.16 303.536 365.096 305.392 364.776L305.52 365.848C303.632 366.2 302.048 366.248 299.232 366.248H298.176V365.16ZM298.176 358.904H304.656V359.992H299.488V365.336H298.176V358.904ZM299.056 361.976H304.256V363.032H299.056V361.976ZM316.863 358.824C319.119 358.824 320.735 360.216 320.735 362.232C320.735 364.264 319.119 365.656 316.863 365.656C314.607 365.656 312.975 364.264 312.975 362.232C312.975 360.216 314.607 358.824 316.863 358.824ZM316.863 359.976C315.359 359.976 314.271 360.888 314.271 362.232C314.271 363.576 315.359 364.504 316.863 364.504C318.351 364.504 319.439 363.576 319.439 362.232C319.439 360.888 318.351 359.976 316.863 359.976ZM322.623 357.768H323.951V372.264H322.623V357.768ZM312.431 369.096L312.239 367.992C314.879 367.992 318.527 367.976 321.679 367.48L321.791 368.456C318.543 369.08 315.007 369.096 312.431 369.096ZM341.906 357.8H343.25V368.488H341.906V357.8ZM333.954 370.84H343.682V371.928H333.954V370.84ZM333.954 367.48H335.266V371.416H333.954V367.48ZM335.314 360.552H336.402V361.16C336.402 363.752 334.754 365.896 332.338 366.728L331.682 365.688C333.826 364.984 335.314 363.16 335.314 361.16V360.552ZM335.538 360.552H336.626V361.16C336.626 363.048 338.13 364.76 340.29 365.432L339.65 366.472C337.202 365.688 335.538 363.64 335.538 361.16V360.552ZM332.018 359.72H339.89V360.792H332.018V359.72ZM335.314 357.848H336.626V360.232H335.314V357.848ZM353.825 361H357.553V362.088H353.825V361ZM349.761 359.016H350.849V359.976C350.849 362.408 349.217 364.6 346.801 365.416L346.161 364.376C348.273 363.656 349.761 361.832 349.761 359.976V359.016ZM350.016 359.016H351.105V359.992C351.105 361.72 352.513 363.384 354.593 364.04L353.953 365.08C351.585 364.312 350.016 362.296 350.016 359.992V359.016ZM346.561 358.52H354.289V359.608H346.561V358.52ZM356.673 357.784H358.001V365.24H356.673V357.784ZM348.689 365.976H358.001V369.448H350.016V371.688H348.721V368.456H356.689V367.032H348.689V365.976ZM348.721 371.032H358.529V372.088H348.721V371.032ZM370.719 357.8H372.047V368.648H370.719V357.8ZM371.631 362.536H374.191V363.656H371.631V362.536ZM360.863 359.544H369.407V360.616H360.863V359.544ZM365.135 361.416C367.183 361.416 368.591 362.488 368.591 364.12C368.591 365.736 367.183 366.808 365.135 366.808C363.071 366.808 361.663 365.736 361.663 364.12C361.663 362.488 363.071 361.416 365.135 361.416ZM365.135 362.456C363.823 362.456 362.927 363.112 362.927 364.12C362.927 365.112 363.823 365.768 365.135 365.768C366.431 365.768 367.327 365.112 367.327 364.12C367.327 363.112 366.431 362.456 365.135 362.456ZM364.463 357.784H365.791V360.104H364.463V357.784ZM363.039 370.84H372.703V371.928H363.039V370.84ZM363.039 367.784H364.367V371.304H363.039V367.784ZM389.938 357.784H391.266V365.496H389.938V357.784ZM390.898 361.16H393.41V362.264H390.898V361.16ZM380.706 363.912H381.826C384.802 363.912 386.482 363.816 388.418 363.432L388.562 364.504C386.578 364.92 384.866 365.016 381.826 365.016H380.706V363.912ZM380.706 358.728H387.074V359.816H382.018V364.664H380.706V358.728ZM382.146 366.28H383.458V368.056H389.954V366.28H391.266V372.008H382.146V366.28ZM383.458 369.112V370.92H389.954V369.112H383.458ZM401.665 360.44H405.841V361.512H401.665V360.44ZM401.665 363.56H405.873V364.632H401.665V363.56ZM405.329 357.8H406.657V368.504H405.329V357.8ZM397.361 370.84H407.009V371.928H397.361V370.84ZM397.361 367.464H398.689V371.4H397.361V367.464ZM395.473 358.744H396.785V361.304H400.705V358.744H402.001V366.04H395.473V358.744ZM396.785 362.344V364.952H400.705V362.344H396.785ZM411.136 364.536H421.072V365.624H411.136V364.536ZM409.488 369.32H422.592V370.44H409.488V369.32ZM415.344 365H416.672V369.768H415.344V365ZM411.136 358.936H420.928V360.024H412.464V365.016H411.136V358.936ZM299.172 377.784H300.5V392.248H299.172V377.784ZM294.932 379.336H296.244C296.244 383.528 294.356 387.192 289.524 389.56L288.82 388.488C292.996 386.472 294.932 383.4 294.932 379.56V379.336ZM289.476 379.336H295.508V380.424H289.476V379.336ZM314.355 377.784H315.635V392.248H314.355V377.784ZM311.907 383.576H314.691V384.68H311.907V383.576ZM311.075 378.104H312.323V391.512H311.075V378.104ZM303.875 387.576H304.819C306.931 387.576 308.371 387.496 310.051 387.144L310.179 388.248C308.451 388.616 306.995 388.68 304.819 388.68H303.875V387.576ZM303.875 379.544H309.251V380.632H305.187V388.072H303.875V379.544ZM318.049 380.248H325.217V381.336H318.049V380.248ZM321.633 382.296C323.441 382.296 324.753 383.656 324.753 385.608C324.753 387.544 323.441 388.904 321.633 388.904C319.841 388.904 318.529 387.544 318.529 385.608C318.529 383.656 319.841 382.296 321.633 382.296ZM321.633 383.432C320.529 383.432 319.729 384.328 319.729 385.608C319.729 386.888 320.529 387.784 321.633 387.784C322.753 387.784 323.569 386.888 323.569 385.608C323.569 384.328 322.753 383.432 321.633 383.432ZM329.041 377.784H330.321V392.248H329.041V377.784ZM326.737 383.864H329.473V384.968H326.737V383.864ZM325.953 378.104H327.201V391.544H325.953V378.104ZM320.993 378.2H322.305V380.92H320.993V378.2ZM338.592 379.208H339.744V379.816C339.744 382.408 336.992 384.312 334.08 384.808L333.568 383.752C336.112 383.384 338.592 381.72 338.592 379.816V379.208ZM338.928 379.208H340.064V379.816C340.064 381.72 342.56 383.384 345.088 383.752L344.592 384.808C341.664 384.312 338.928 382.408 338.928 379.816V379.208ZM338.64 386.728H339.952V392.248H338.64V386.728ZM332.8 386.024H345.872V387.112H332.8V386.024ZM334.016 378.68H344.608V379.752H334.016V378.68ZM353.215 382.952H355.983V384.056H353.215V382.952ZM350.511 379.144H351.551V381.896C351.551 384.92 350.287 387.848 348.175 389.144L347.343 388.136C349.327 386.968 350.511 384.376 350.511 381.896V379.144ZM350.767 379.144H351.791V381.848C351.791 384.168 352.879 386.632 354.783 387.784L354.015 388.824C351.935 387.544 350.767 384.664 350.767 381.848V379.144ZM358.527 377.784H359.807V392.248H358.527V377.784ZM355.599 378.088H356.847V391.528H355.599V378.088ZM365.438 385.224H366.75V389.56H365.438V385.224ZM370.782 385.224H372.11V389.56H370.782V385.224ZM362.238 389.304H375.342V390.408H362.238V389.304ZM368.766 378.696C371.822 378.696 374.014 380.152 374.014 382.424C374.014 384.68 371.822 386.136 368.766 386.136C365.694 386.136 363.502 384.68 363.502 382.424C363.502 380.152 365.694 378.696 368.766 378.696ZM368.766 379.752C366.446 379.752 364.782 380.808 364.782 382.424C364.782 384.024 366.446 385.08 368.766 385.08C371.086 385.08 372.734 384.024 372.734 382.424C372.734 380.808 371.086 379.752 368.766 379.752ZM378.361 391.091C378.08 391.091 377.84 390.991 377.639 390.79C377.438 390.589 377.338 390.348 377.338 390.068C377.338 389.788 377.438 389.547 377.639 389.347C377.84 389.146 378.08 389.045 378.361 389.045C378.641 389.045 378.882 389.146 379.082 389.347C379.283 389.547 379.384 389.788 379.384 390.068C379.384 390.254 379.336 390.424 379.241 390.58C379.151 390.735 379.027 390.86 378.872 390.955C378.721 391.045 378.55 391.091 378.361 391.091ZM378.361 384.614C378.08 384.614 377.84 384.513 377.639 384.312C377.438 384.112 377.338 383.871 377.338 383.591C377.338 383.311 377.438 383.07 377.639 382.869C377.84 382.669 378.08 382.568 378.361 382.568C378.641 382.568 378.882 382.669 379.082 382.869C379.283 383.07 379.384 383.311 379.384 383.591C379.384 383.777 379.336 383.947 379.241 384.102C379.151 384.258 379.027 384.383 378.872 384.477C378.721 384.568 378.55 384.614 378.361 384.614ZM384.653 386.091C384.653 387.523 384.466 388.841 384.091 390.045C383.72 391.246 383.188 392.352 382.494 393.364H381.312C381.585 392.989 381.839 392.527 382.074 391.977C382.313 391.432 382.521 390.833 382.699 390.182C382.877 389.527 383.015 388.85 383.114 388.153C383.216 387.453 383.267 386.765 383.267 386.091C383.267 385.189 383.18 384.275 383.006 383.347C382.831 382.419 382.597 381.557 382.301 380.761C382.006 379.966 381.676 379.318 381.312 378.818H382.494C383.188 379.83 383.72 380.937 384.091 382.142C384.466 383.343 384.653 384.659 384.653 386.091ZM390.45 386.091C390.45 387.523 390.263 388.841 389.888 390.045C389.517 391.246 388.984 392.352 388.291 393.364H387.109C387.382 392.989 387.636 392.527 387.871 391.977C388.109 391.432 388.318 390.833 388.496 390.182C388.674 389.527 388.812 388.85 388.911 388.153C389.013 387.453 389.064 386.765 389.064 386.091C389.064 385.189 388.977 384.275 388.803 383.347C388.628 382.419 388.393 381.557 388.098 380.761C387.803 379.966 387.473 379.318 387.109 378.818H388.291C388.984 379.83 389.517 380.937 389.888 382.142C390.263 383.343 390.45 384.659 390.45 386.091Z" fill="white"/>
<path d="M511.985 297.784H513.313V305.496H511.985V297.784ZM512.945 301.16H515.457V302.264H512.945V301.16ZM502.753 303.912H503.873C506.849 303.912 508.529 303.816 510.465 303.432L510.609 304.504C508.625 304.92 506.913 305.016 503.873 305.016H502.753V303.912ZM502.753 298.728H509.121V299.816H504.065V304.664H502.753V298.728ZM504.193 306.28H505.505V308.056H512.001V306.28H513.313V312.008H504.193V306.28ZM505.505 309.112V310.92H512.001V309.112H505.505ZM523.712 300.44H527.888V301.512H523.712V300.44ZM523.712 303.56H527.92V304.632H523.712V303.56ZM527.376 297.8H528.704V308.504H527.376V297.8ZM519.408 310.84H529.056V311.928H519.408V310.84ZM519.408 307.464H520.736V311.4H519.408V307.464ZM517.52 298.744H518.832V301.304H522.752V298.744H524.048V306.04H517.52V298.744ZM518.832 302.344V304.952H522.752V302.344H518.832ZM537.39 303.4H540.126V304.504H537.39V303.4ZM542.542 297.784H543.822V312.248H542.542V297.784ZM539.678 298.088H540.942V311.528H539.678V298.088ZM534.782 298.984C536.654 298.984 537.87 300.92 537.87 304.024C537.87 307.128 536.654 309.064 534.782 309.064C532.91 309.064 531.71 307.128 531.71 304.024C531.71 300.92 532.91 298.984 534.782 298.984ZM534.782 300.216C533.646 300.216 532.926 301.688 532.926 304.024C532.926 306.36 533.646 307.832 534.782 307.832C535.934 307.832 536.654 306.36 536.654 304.024C536.654 301.688 535.934 300.216 534.782 300.216ZM561.745 297.784H563.025V312.248H561.745V297.784ZM559.297 303.576H562.081V304.68H559.297V303.576ZM558.465 298.104H559.713V311.512H558.465V298.104ZM551.265 307.576H552.209C554.321 307.576 555.761 307.496 557.441 307.144L557.569 308.248C555.841 308.616 554.385 308.68 552.209 308.68H551.265V307.576ZM551.265 299.544H556.641V300.632H552.577V308.072H551.265V299.544ZM575.36 297.8H576.688V308.648H575.36V297.8ZM576.272 302.536H578.832V303.656H576.272V302.536ZM565.504 299.544H574.048V300.616H565.504V299.544ZM569.776 301.416C571.824 301.416 573.232 302.488 573.232 304.12C573.232 305.736 571.824 306.808 569.776 306.808C567.712 306.808 566.304 305.736 566.304 304.12C566.304 302.488 567.712 301.416 569.776 301.416ZM569.776 302.456C568.464 302.456 567.568 303.112 567.568 304.12C567.568 305.112 568.464 305.768 569.776 305.768C571.072 305.768 571.968 305.112 571.968 304.12C571.968 303.112 571.072 302.456 569.776 302.456ZM569.104 297.784H570.432V300.104H569.104V297.784ZM567.68 310.84H577.344V311.928H567.68V310.84ZM567.68 307.784H569.008V311.304H567.68V307.784ZM589.379 298.824C591.635 298.824 593.251 300.216 593.251 302.232C593.251 304.264 591.635 305.656 589.379 305.656C587.123 305.656 585.491 304.264 585.491 302.232C585.491 300.216 587.123 298.824 589.379 298.824ZM589.379 299.976C587.875 299.976 586.787 300.888 586.787 302.232C586.787 303.576 587.875 304.504 589.379 304.504C590.867 304.504 591.955 303.576 591.955 302.232C591.955 300.888 590.867 299.976 589.379 299.976ZM595.139 297.768H596.467V312.264H595.139V297.768ZM584.947 309.096L584.755 307.992C587.395 307.992 591.043 307.976 594.195 307.48L594.307 308.456C591.059 309.08 587.523 309.096 584.947 309.096ZM609.969 297.784H611.313V308.552H609.969V297.784ZM605.569 298.904H606.977C606.977 302.648 604.305 305.48 600.209 306.824L599.633 305.752C603.201 304.584 605.569 302.312 605.569 299.464V298.904ZM600.353 298.904H606.385V300.008H600.353V298.904ZM606.305 300.76H610.177V301.848H606.305V300.76ZM606.161 304.008H610.129V305.096H606.161V304.008ZM602.161 310.84H611.665V311.928H602.161V310.84ZM602.161 307.512H603.489V311.512H602.161V307.512ZM620.656 298.024C623.84 298.024 625.744 298.92 625.744 300.536C625.744 302.152 623.84 303.048 620.656 303.048C617.456 303.048 615.568 302.152 615.568 300.536C615.568 298.92 617.456 298.024 620.656 298.024ZM620.656 299.032C618.288 299.032 616.928 299.576 616.928 300.536C616.928 301.496 618.288 302.04 620.656 302.04C623.008 302.04 624.368 301.496 624.368 300.536C624.368 299.576 623.008 299.032 620.656 299.032ZM614.112 304.008H627.184V305.08H614.112V304.008ZM615.696 306.312H625.52V309.576H617.04V311.336H615.728V308.616H624.208V307.336H615.696V306.312ZM615.728 311.048H625.952V312.088H615.728V311.048ZM643.235 297.784H644.563V305.96H643.235V297.784ZM644.211 301.096H646.707V302.2H644.211V301.096ZM635.443 306.744H644.563V312.056H635.443V306.744ZM643.267 307.816H636.755V310.968H643.267V307.816ZM634.035 298.504H635.363V304.296H634.035V298.504ZM634.035 303.752H635.171C637.251 303.752 639.411 303.608 641.779 303.128L641.939 304.216C639.491 304.728 637.331 304.872 635.171 304.872H634.035V303.752ZM658.594 297.784H659.922V312.248H658.594V297.784ZM654.354 299.336H655.666C655.666 303.528 653.778 307.192 648.946 309.56L648.242 308.488C652.418 306.472 654.354 303.4 654.354 299.56V299.336ZM648.898 299.336H654.93V300.424H648.898V299.336ZM664.16 299.224H673.472V300.328H664.16V299.224ZM662.784 309.128H675.856V310.232H662.784V309.128ZM667.856 303.96H669.184V309.672H667.856V303.96ZM672.976 299.224H674.288V300.664C674.288 302.456 674.288 304.44 673.76 307.368L672.432 307.192C672.976 304.424 672.976 302.392 672.976 300.664V299.224ZM536.201 317.768H537.545V332.248H536.201V317.768ZM537.177 323.64H539.849V324.744H537.177V323.64ZM532.505 319.336H533.801C533.801 323.448 531.913 327.16 527.241 329.512L526.505 328.488C530.505 326.456 532.505 323.368 532.505 319.544V319.336ZM527.177 319.336H533.193V320.424H527.177V319.336ZM544.696 319.336H545.784V320.504C545.784 323.16 544.184 325.384 541.752 326.264L541.08 325.208C543.256 324.44 544.696 322.568 544.696 320.504V319.336ZM544.936 319.336H546.024V320.488C546.024 322.376 547.4 324.072 549.528 324.776L548.888 325.816C546.472 325.016 544.936 322.952 544.936 320.488V319.336ZM541.48 318.856H549.208V319.944H541.48V318.856ZM551.032 317.784H552.36V326.504H551.032V317.784ZM551.992 321.448H554.504V322.568H551.992V321.448ZM547.752 326.888C550.696 326.888 552.504 327.864 552.504 329.544C552.504 331.24 550.696 332.216 547.752 332.216C544.808 332.216 543 331.24 543 329.544C543 327.864 544.808 326.888 547.752 326.888ZM547.752 327.96C545.608 327.96 544.296 328.536 544.296 329.544C544.296 330.568 545.608 331.176 547.752 331.176C549.896 331.176 551.208 330.568 551.208 329.544C551.208 328.536 549.896 327.96 547.752 327.96ZM564.043 319.256H565.131V320.424C565.131 323.064 563.499 325.32 561.083 326.216L560.395 325.16C562.555 324.392 564.043 322.472 564.043 320.424V319.256ZM564.299 319.256H565.371V320.424C565.371 322.28 566.779 324.088 568.875 324.824L568.203 325.88C565.851 325.016 564.299 322.84 564.299 320.424V319.256ZM568.091 321.544H571.307V322.648H568.091V321.544ZM560.811 318.776H568.539V319.848H560.811V318.776ZM562.603 327.224H572.251V332.248H570.923V328.312H562.603V327.224ZM570.923 317.784H572.251V326.44H570.923V317.784ZM584.969 317.784H586.297V326.184H584.969V317.784ZM585.721 321.464H588.441V322.584H585.721V321.464ZM577.209 326.824H578.505V328.36H584.985V326.824H586.297V332.056H577.209V326.824ZM578.505 329.384V330.984H584.985V329.384H578.505ZM575.113 319.256H583.657V320.344H575.113V319.256ZM579.385 321C581.449 321 582.841 322.008 582.841 323.544C582.841 325.08 581.449 326.088 579.385 326.088C577.305 326.088 575.913 325.08 575.913 323.544C575.913 322.008 577.305 321 579.385 321ZM579.385 322.008C578.057 322.008 577.177 322.616 577.177 323.544C577.177 324.472 578.057 325.08 579.385 325.08C580.681 325.08 581.577 324.472 581.577 323.544C581.577 322.616 580.681 322.008 579.385 322.008ZM578.713 317.64H580.041V319.848H578.713V317.64ZM599.688 317.8H601.016V328.648H599.688V317.8ZM600.6 322.536H603.16V323.656H600.6V322.536ZM589.832 319.544H598.376V320.616H589.832V319.544ZM594.104 321.416C596.152 321.416 597.56 322.488 597.56 324.12C597.56 325.736 596.152 326.808 594.104 326.808C592.04 326.808 590.632 325.736 590.632 324.12C590.632 322.488 592.04 321.416 594.104 321.416ZM594.104 322.456C592.792 322.456 591.896 323.112 591.896 324.12C591.896 325.112 592.792 325.768 594.104 325.768C595.4 325.768 596.296 325.112 596.296 324.12C596.296 323.112 595.4 322.456 594.104 322.456ZM593.432 317.784H594.76V320.104H593.432V317.784ZM592.008 330.84H601.672V331.928H592.008V330.84ZM592.008 327.784H593.336V331.304H592.008V327.784ZM618.907 317.784H620.235V325.496H618.907V317.784ZM619.867 321.16H622.379V322.264H619.867V321.16ZM609.675 323.912H610.795C613.771 323.912 615.451 323.816 617.387 323.432L617.531 324.504C615.547 324.92 613.835 325.016 610.795 325.016H609.675V323.912ZM609.675 318.728H616.043V319.816H610.987V324.664H609.675V318.728ZM611.115 326.28H612.427V328.056H618.923V326.28H620.235V332.008H611.115V326.28ZM612.427 329.112V330.92H618.923V329.112H612.427ZM630.634 320.44H634.81V321.512H630.634V320.44ZM630.634 323.56H634.842V324.632H630.634V323.56ZM634.298 317.8H635.626V328.504H634.298V317.8ZM626.33 330.84H635.978V331.928H626.33V330.84ZM626.33 327.464H627.658V331.4H626.33V327.464ZM624.442 318.744H625.754V321.304H629.674V318.744H630.97V326.04H624.442V318.744ZM625.754 322.344V324.952H629.674V322.344H625.754ZM644.984 318.024C648.168 318.024 650.072 318.92 650.072 320.536C650.072 322.152 648.168 323.048 644.984 323.048C641.784 323.048 639.896 322.152 639.896 320.536C639.896 318.92 641.784 318.024 644.984 318.024ZM644.984 319.032C642.616 319.032 641.256 319.576 641.256 320.536C641.256 321.496 642.616 322.04 644.984 322.04C647.336 322.04 648.696 321.496 648.696 320.536C648.696 319.576 647.336 319.032 644.984 319.032ZM638.44 324.008H651.512V325.08H638.44V324.008ZM640.024 326.312H649.848V329.576H641.368V331.336H640.056V328.616H648.536V327.336H640.024V326.312ZM640.056 331.048H650.28V332.088H640.056V331.048ZM531.63 341.192H535.278V342.296H531.63V341.192ZM527.838 338.664H528.91V340.44C528.91 343.24 527.342 345.576 524.926 346.552L524.238 345.496C526.382 344.696 527.838 342.648 527.838 340.44V338.664ZM528.094 338.664H529.166V340.488C529.166 342.504 530.574 344.408 532.67 345.176L531.95 346.2C529.646 345.304 528.094 343.064 528.094 340.488V338.664ZM534.782 337.8H536.11V348.616H534.782V337.8ZM526.814 350.84H536.462V351.928H526.814V350.84ZM526.814 347.416H528.142V351.352H526.814V347.416ZM546.653 341.528H549.917V342.632H546.653V341.528ZM549.501 337.784H550.829V346.408H549.501V337.784ZM546.077 346.84C549.053 346.84 550.893 347.848 550.893 349.544C550.893 351.256 549.053 352.232 546.077 352.232C543.085 352.232 541.245 351.256 541.245 349.544C541.245 347.848 543.085 346.84 546.077 346.84ZM546.077 347.88C543.901 347.88 542.573 348.488 542.573 349.544C542.573 350.584 543.901 351.192 546.077 351.192C548.253 351.192 549.581 350.584 549.581 349.544C549.581 348.488 548.253 347.88 546.077 347.88ZM542.621 339.24H543.709V340.408C543.709 343.08 542.077 345.368 539.677 346.264L538.989 345.208C541.133 344.424 542.621 342.488 542.621 340.408V339.24ZM542.877 339.24H543.949V340.408C543.949 342.28 545.357 344.072 547.453 344.808L546.781 345.864C544.429 345.016 542.877 342.84 542.877 340.408V339.24ZM539.389 338.84H547.117V339.928H539.389V338.84ZM563.547 337.736H564.875V345.72H563.547V337.736ZM564.315 341.208H567.019V342.328H564.315V341.208ZM555.691 346.456H564.875V349.688H557.035V351.448H555.723V348.728H563.579V347.464H555.691V346.456ZM555.723 351.064H565.403V352.088H555.723V351.064ZM553.691 339.08H562.235V340.12H553.691V339.08ZM557.963 340.76C560.043 340.76 561.419 341.672 561.419 343.144C561.419 344.6 560.043 345.496 557.963 345.496C555.851 345.496 554.491 344.6 554.491 343.144C554.491 341.672 555.851 340.76 557.963 340.76ZM557.963 341.736C556.619 341.736 555.755 342.28 555.755 343.144C555.755 343.992 556.619 344.536 557.963 344.536C559.291 344.536 560.155 343.992 560.155 343.144C560.155 342.28 559.291 341.736 557.963 341.736ZM557.291 337.624H558.619V339.8H557.291V337.624ZM578.718 338.296H579.886V339.096C579.886 341.864 577.07 343.848 574.062 344.36L573.534 343.288C576.174 342.888 578.718 341.16 578.718 339.096V338.296ZM578.958 338.296H580.11V339.096C580.11 341.112 582.686 342.888 585.294 343.288L584.766 344.36C581.79 343.848 578.958 341.832 578.958 339.096V338.296ZM578.718 346.744H580.03V352.248H578.718V346.744ZM572.878 345.928H585.95V347.032H572.878V345.928ZM595.697 346.68H596.721V347.464C596.721 349.352 595.537 351.256 593.457 352.056L592.785 351.064C594.609 350.408 595.697 348.856 595.697 347.464V346.68ZM595.985 346.68H596.977V347.464C596.977 348.92 597.841 350.472 599.569 351.176L599.009 352.184C596.929 351.368 595.985 349.384 595.985 347.464V346.68ZM601.041 346.68H602.033V347.464C602.033 349.16 601.073 351.304 599.009 352.184L598.449 351.176C600.161 350.392 601.041 348.712 601.041 347.464V346.68ZM601.313 346.68H602.337V347.464C602.337 348.952 603.409 350.44 605.249 351.064L604.577 352.056C602.465 351.288 601.313 349.464 601.313 347.464V346.68ZM602.609 337.8H603.953V346.056H602.609V337.8ZM596.193 338.632C598.385 338.632 599.953 340.008 599.953 342.008C599.953 344.008 598.385 345.368 596.193 345.368C594.001 345.368 592.417 344.008 592.417 342.008C592.417 340.008 594.001 338.632 596.193 338.632ZM596.193 339.736C594.753 339.736 593.713 340.664 593.713 342.008C593.713 343.352 594.753 344.264 596.193 344.264C597.633 344.264 598.673 343.352 598.673 342.008C598.673 340.664 597.633 339.736 596.193 339.736ZM608.464 346.456H609.776V348.136H616.848V346.456H618.176V352.056H608.464V346.456ZM609.776 349.16V350.984H616.848V349.16H609.776ZM606.8 344.376H619.872V345.448H606.8V344.376ZM612.672 337.944H613.808V338.584C613.808 341.096 611.008 342.904 608.032 343.352L607.552 342.312C610.16 341.96 612.672 340.408 612.672 338.584V337.944ZM612.88 337.944H614.016V338.584C614.016 340.376 616.56 341.96 619.136 342.312L618.64 343.352C615.696 342.904 612.88 341.064 612.88 338.584V337.944ZM632.046 337.784H633.374V352.248H632.046V337.784ZM622.446 339.192H623.758V348.152H622.446V339.192ZM622.446 347.368H623.63C625.822 347.368 628.11 347.208 630.558 346.696L630.718 347.832C628.206 348.344 625.918 348.52 623.63 348.52H622.446V347.368ZM646.029 337.768H647.373V352.264H646.029V337.768ZM647.053 343.48H649.741V344.6H647.053V343.48ZM636.861 347.544H637.997C640.669 347.544 642.541 347.448 644.701 347.048L644.845 348.168C642.621 348.584 640.717 348.664 637.997 348.664H636.861V347.544ZM636.861 339.176H643.581V340.264H638.173V348.04H636.861V339.176ZM652.376 351.091C652.096 351.091 651.856 350.991 651.655 350.79C651.454 350.589 651.354 350.348 651.354 350.068C651.354 349.788 651.454 349.547 651.655 349.347C651.856 349.146 652.096 349.045 652.376 349.045C652.657 349.045 652.897 349.146 653.098 349.347C653.299 349.547 653.399 349.788 653.399 350.068C653.399 350.254 653.352 350.424 653.257 350.58C653.166 350.735 653.043 350.86 652.888 350.955C652.736 351.045 652.566 351.091 652.376 351.091ZM541.192 361.192H544.84V362.296H541.192V361.192ZM537.4 358.664H538.472V360.44C538.472 363.24 536.904 365.576 534.488 366.552L533.8 365.496C535.944 364.696 537.4 362.648 537.4 360.44V358.664ZM537.656 358.664H538.728V360.488C538.728 362.504 540.136 364.408 542.232 365.176L541.512 366.2C539.208 365.304 537.656 363.064 537.656 360.488V358.664ZM544.344 357.8H545.672V368.616H544.344V357.8ZM536.376 370.84H546.024V371.928H536.376V370.84ZM536.376 367.416H537.704V371.352H536.376V367.416ZM556.215 361.528H559.479V362.632H556.215V361.528ZM559.063 357.784H560.391V366.408H559.063V357.784ZM555.639 366.84C558.615 366.84 560.455 367.848 560.455 369.544C560.455 371.256 558.615 372.232 555.639 372.232C552.647 372.232 550.807 371.256 550.807 369.544C550.807 367.848 552.647 366.84 555.639 366.84ZM555.639 367.88C553.463 367.88 552.135 368.488 552.135 369.544C552.135 370.584 553.463 371.192 555.639 371.192C557.815 371.192 559.143 370.584 559.143 369.544C559.143 368.488 557.815 367.88 555.639 367.88ZM552.183 359.24H553.271V360.408C553.271 363.08 551.639 365.368 549.239 366.264L548.551 365.208C550.695 364.424 552.183 362.488 552.183 360.408V359.24ZM552.439 359.24H553.511V360.408C553.511 362.28 554.919 364.072 557.015 364.808L556.343 365.864C553.991 365.016 552.439 362.84 552.439 360.408V359.24ZM548.951 358.84H556.679V359.928H548.951V358.84ZM578.282 357.784H579.61V365.16H578.282V357.784ZM573.706 358.488H575.146C575.146 362.136 572.634 364.472 568.41 365.496L567.946 364.408C571.69 363.544 573.706 361.64 573.706 359.144V358.488ZM568.698 358.488H574.314V359.576H568.698V358.488ZM574.634 359.864H578.506V360.92H574.634V359.864ZM574.506 362.632H578.426V363.672H574.506V362.632ZM570.298 365.832H579.61V369.384H571.658V371.688H570.346V368.36H578.298V366.904H570.298V365.832ZM570.346 371.048H580.09V372.104H570.346V371.048ZM583.081 359.368H589.625V360.44H583.081V359.368ZM585.337 363.496H586.649V368.392H585.337V363.496ZM589.081 359.368H590.377V360.136C590.377 361.32 590.377 363.208 589.961 365.896L588.649 365.768C589.081 363.16 589.081 361.304 589.081 360.136V359.368ZM592.201 357.784H593.513V372.248H592.201V357.784ZM593.161 363.832H595.833V364.952H593.161V363.832ZM582.441 369.096L582.281 367.976C584.905 367.976 588.393 367.928 591.321 367.56L591.385 368.536C588.393 369.016 585.001 369.08 582.441 369.096ZM603.015 363.4H605.751V364.504H603.015V363.4ZM608.167 357.784H609.447V372.248H608.167V357.784ZM605.303 358.088H606.567V371.528H605.303V358.088ZM600.407 358.984C602.279 358.984 603.495 360.92 603.495 364.024C603.495 367.128 602.279 369.064 600.407 369.064C598.535 369.064 597.335 367.128 597.335 364.024C597.335 360.92 598.535 358.984 600.407 358.984ZM600.407 360.216C599.271 360.216 598.551 361.688 598.551 364.024C598.551 366.36 599.271 367.832 600.407 367.832C601.559 367.832 602.279 366.36 602.279 364.024C602.279 361.688 601.559 360.216 600.407 360.216ZM626.394 357.768H627.722V372.264H626.394V357.768ZM627.13 363.464H629.802V364.568H627.13V363.464ZM616.794 367.352H617.434C618.25 367.352 619.338 367.336 620.586 367.048L620.714 368.152C619.386 368.456 618.314 368.472 617.434 368.472H616.794V367.352ZM616.794 359.304H620.442V360.376H618.106V367.896H616.794V359.304ZM621.258 367.352H621.962C623.37 367.352 624.378 367.32 625.546 367.016L625.674 368.12C624.442 368.424 623.45 368.472 621.962 368.472H621.258V367.352ZM621.258 359.304H625.098V360.376H622.57V367.912H621.258V359.304ZM640.889 357.768H642.217V372.264H640.889V357.768ZM641.897 363.528H644.585V364.648H641.897V363.528ZM631.673 367.672H632.825C635.545 367.672 637.433 367.576 639.625 367.16L639.769 368.264C637.513 368.664 635.593 368.776 632.825 368.776H631.673V367.672ZM631.641 359.128H638.185V364.312H632.985V368.12H631.673V363.224H636.873V360.216H631.641V359.128ZM517.977 377.784H519.305V385.496H517.977V377.784ZM518.937 381.16H521.449V382.264H518.937V381.16ZM508.745 383.912H509.865C512.841 383.912 514.521 383.816 516.457 383.432L516.601 384.504C514.617 384.92 512.905 385.016 509.865 385.016H508.745V383.912ZM508.745 378.728H515.113V379.816H510.057V384.664H508.745V378.728ZM510.185 386.28H511.497V388.056H517.993V386.28H519.305V392.008H510.185V386.28ZM511.497 389.112V390.92H517.993V389.112H511.497ZM529.704 380.44H533.88V381.512H529.704V380.44ZM529.704 383.56H533.912V384.632H529.704V383.56ZM533.368 377.8H534.696V388.504H533.368V377.8ZM525.4 390.84H535.048V391.928H525.4V390.84ZM525.4 387.464H526.728V391.4H525.4V387.464ZM523.512 378.744H524.824V381.304H528.744V378.744H530.04V386.04H523.512V378.744ZM524.824 382.344V384.952H528.744V382.344H524.824ZM545.579 379.272H546.667V380.44C546.667 383.096 545.067 385.304 542.651 386.168L541.947 385.128C544.139 384.36 545.579 382.504 545.579 380.44V379.272ZM545.819 379.272H546.907V380.424C546.907 382.344 548.299 384.12 550.427 384.84L549.739 385.88C547.355 385.048 545.819 382.92 545.819 380.424V379.272ZM542.363 378.792H550.091V379.88H542.363V378.792ZM551.915 377.784H553.243V386.488H551.915V377.784ZM552.875 381.592H555.387V382.696H552.875V381.592ZM543.851 387.256H553.243V392.248H551.915V388.36H543.851V387.256ZM560.377 378.6H561.481V380.088C561.481 382.888 559.897 385.176 557.417 386.104L556.729 385.016C558.937 384.232 560.377 382.296 560.377 380.088V378.6ZM560.617 378.6H561.705V380.04C561.705 382.088 563.113 383.896 565.225 384.632L564.505 385.672C562.169 384.792 560.617 382.664 560.617 380.04V378.6ZM567.305 377.784H568.633V386.344H567.305V377.784ZM563.881 386.76C566.857 386.76 568.697 387.768 568.697 389.496C568.697 391.224 566.857 392.216 563.881 392.216C560.889 392.216 559.049 391.224 559.049 389.496C559.049 387.768 560.889 386.76 563.881 386.76ZM563.881 387.816C561.705 387.816 560.377 388.44 560.377 389.496C560.377 390.552 561.705 391.176 563.881 391.176C566.057 391.176 567.385 390.552 567.385 389.496C567.385 388.44 566.057 387.816 563.881 387.816ZM564.169 380.84H567.593V381.944H564.169V380.84ZM575.032 379.848H576.088V382.2C576.088 385.208 574.248 388.312 571.992 389.464L571.224 388.408C573.288 387.4 575.032 384.648 575.032 382.2V379.848ZM575.272 379.848H576.328V382.2C576.328 384.488 577.96 387.064 580.056 388.056L579.304 389.112C577.016 387.976 575.272 385.064 575.272 382.2V379.848ZM571.736 379.256H579.528V380.376H571.736V379.256ZM581.24 377.784H582.584V392.248H581.24V377.784ZM582.264 383.624H584.952V384.744H582.264V383.624ZM590.871 378.824C593.127 378.824 594.743 380.216 594.743 382.232C594.743 384.264 593.127 385.656 590.871 385.656C588.615 385.656 586.983 384.264 586.983 382.232C586.983 380.216 588.615 378.824 590.871 378.824ZM590.871 379.976C589.367 379.976 588.279 380.888 588.279 382.232C588.279 383.576 589.367 384.504 590.871 384.504C592.359 384.504 593.447 383.576 593.447 382.232C593.447 380.888 592.359 379.976 590.871 379.976ZM596.631 377.768H597.959V392.264H596.631V377.768ZM586.439 389.096L586.247 387.992C588.887 387.992 592.535 387.976 595.687 387.48L595.799 388.456C592.551 389.08 589.015 389.096 586.439 389.096ZM606.692 379.364L609.692 384.205H609.783L612.783 379.364H614.442L610.783 385.182L614.442 391H612.783L609.783 386.25H609.692L606.692 391H605.033L608.783 385.182L605.033 379.364H606.692ZM616.276 391V379.364H620.208C621.121 379.364 621.867 379.528 622.447 379.858C623.03 380.184 623.462 380.625 623.742 381.182C624.022 381.739 624.163 382.36 624.163 383.045C624.163 383.731 624.022 384.354 623.742 384.915C623.466 385.475 623.038 385.922 622.458 386.256C621.879 386.585 621.136 386.75 620.231 386.75H617.413V385.5H620.185C620.81 385.5 621.312 385.392 621.691 385.176C622.07 384.96 622.344 384.669 622.515 384.301C622.689 383.93 622.776 383.511 622.776 383.045C622.776 382.58 622.689 382.163 622.515 381.795C622.344 381.428 622.068 381.14 621.685 380.932C621.303 380.72 620.795 380.614 620.163 380.614H617.685V391H616.276ZM627.583 382.12H637.407V383.208H627.583V382.12ZM625.807 385.144H638.927V386.232H625.807V385.144ZM627.583 378.312H628.895V382.664H627.583V378.312ZM627.487 390.808H637.487V391.896H627.487V390.808ZM627.487 387.672H628.799V391.096H627.487V387.672ZM653.288 379.364H654.697V387.068C654.697 387.864 654.509 388.574 654.134 389.199C653.763 389.82 653.238 390.311 652.56 390.67C651.882 391.027 651.087 391.205 650.174 391.205C649.261 391.205 648.466 391.027 647.788 390.67C647.11 390.311 646.583 389.82 646.208 389.199C645.837 388.574 645.651 387.864 645.651 387.068V379.364H647.06V386.955C647.06 387.523 647.185 388.028 647.435 388.472C647.685 388.911 648.041 389.258 648.504 389.511C648.969 389.761 649.526 389.886 650.174 389.886C650.822 389.886 651.379 389.761 651.844 389.511C652.31 389.258 652.666 388.911 652.913 388.472C653.163 388.028 653.288 387.523 653.288 386.955V379.364ZM657.511 391V379.364H661.442C662.355 379.364 663.102 379.528 663.681 379.858C664.264 380.184 664.696 380.625 664.977 381.182C665.257 381.739 665.397 382.36 665.397 383.045C665.397 383.731 665.257 384.354 664.977 384.915C664.7 385.475 664.272 385.922 663.692 386.256C663.113 386.585 662.371 386.75 661.465 386.75H658.647V385.5H661.42C662.045 385.5 662.547 385.392 662.925 385.176C663.304 384.96 663.579 384.669 663.749 384.301C663.924 383.93 664.011 383.511 664.011 383.045C664.011 382.58 663.924 382.163 663.749 381.795C663.579 381.428 663.302 381.14 662.92 380.932C662.537 380.72 662.03 380.614 661.397 380.614H658.92V391H657.511ZM669.258 379.364L669.144 387.727H667.826L667.712 379.364H669.258ZM668.485 391.091C668.205 391.091 667.964 390.991 667.763 390.79C667.563 390.589 667.462 390.348 667.462 390.068C667.462 389.788 667.563 389.547 667.763 389.347C667.964 389.146 668.205 389.045 668.485 389.045C668.765 389.045 669.006 389.146 669.207 389.347C669.407 389.547 669.508 389.788 669.508 390.068C669.508 390.254 669.46 390.424 669.366 390.58C669.275 390.735 669.152 390.86 668.996 390.955C668.845 391.045 668.674 391.091 668.485 391.091Z" fill="white"/>
<path d="M306.292 251.564H310.016V265.452H306.292V251.564ZM308.98 257.136H313.46V260.16H308.98V257.136ZM290.584 261.868H292.74C298.368 261.868 301.168 261.728 304.276 261.084L304.64 264.024C301.476 264.724 298.508 264.864 292.74 264.864H290.584V261.868ZM290.584 253.104H302.092V256.072H294.28V263.856H290.584V253.104ZM293.076 266.712H296.772V269.064H306.32V266.712H310.016V277.184H293.076V266.712ZM296.772 271.948V274.216H306.32V271.948H296.772ZM328.074 255.904H334.682V258.844H328.074V255.904ZM328.074 261.476H334.794V264.416H328.074V261.476ZM333.338 251.592H337.062V270.716H333.338V251.592ZM319.898 274.076H337.622V277.044H319.898V274.076ZM319.898 268.84H323.65V275.784H319.898V268.84ZM316.454 253.272H320.15V257.22H325.078V253.272H328.718V266.656H316.454V253.272ZM320.15 260.048V263.716H325.078V260.048H320.15ZM357.752 251.564H361.448V277.492H357.752V251.564ZM360.608 261.672H365.2V264.78H360.608V261.672ZM341.008 255.4H356.1V258.368H341.008V255.4ZM348.596 259.824C352.376 259.824 355.176 262.4 355.176 266.012C355.176 269.624 352.376 272.2 348.596 272.2C344.816 272.2 342.016 269.624 342.016 266.012C342.016 262.4 344.816 259.824 348.596 259.824ZM348.596 262.848C346.832 262.848 345.572 264.024 345.572 266.012C345.572 268 346.832 269.176 348.596 269.176C350.36 269.176 351.62 268 351.62 266.012C351.62 264.024 350.36 262.848 348.596 262.848ZM346.72 251.984H350.444V256.52H346.72V251.984ZM384.742 251.564H388.494V277.492H384.742V251.564ZM377.098 254.252H380.794C380.794 262.176 378.106 268.672 368.894 273.124L366.962 270.156C374.41 266.572 377.098 261.868 377.098 254.924V254.252ZM368.334 254.252H378.862V257.192H368.334V254.252Z" fill="white"/>
<path d="M350.61 220.33H329.39C329.001 220.33 328.683 220.664 328.683 221.071V224.036C328.683 225.675 329.947 227 331.512 227H348.488C350.053 227 351.317 225.675 351.317 224.036V221.071C351.317 220.664 350.999 220.33 350.61 220.33ZM340 144C323.988 144 311 157.608 311 174.384C311 185.63 316.835 195.449 325.5 200.701V211.438C325.5 213.077 326.764 214.402 328.329 214.402H351.671C353.236 214.402 354.5 213.077 354.5 211.438V200.701C363.165 195.449 369 185.63 369 174.384C369 157.608 356.012 144 340 144ZM351.308 194.93L348.134 196.857V207.732H331.866V196.857L328.692 194.93C321.734 190.715 317.366 182.953 317.366 174.384C317.366 161.285 327.498 150.67 340 150.67C352.502 150.67 362.634 161.285 362.634 174.384C362.634 182.953 358.266 190.715 351.308 194.93Z" fill="white"/>
<path d="M129.392 150C129.083 150 128.767 150.062 128.45 150.204L81.6232 170.756H68.2998C67.5849 170.756 67 171.413 67 172.229V198.762C67 199.578 67.5849 200.235 68.2998 200.235H76.5619C76.2613 201.264 76.0989 202.356 76.0989 203.465C76.0989 209.313 80.4696 214.069 85.8476 214.069C90.3483 214.069 94.1422 210.733 95.2633 206.225L128.458 220.796C128.775 220.929 129.092 221 129.4 221C130.773 221 132 219.74 132 218.054V152.946C131.992 151.26 130.773 150 129.392 150ZM85.8476 207.707C83.6948 207.707 81.9481 205.808 81.9481 203.465C81.9481 202.471 82.265 201.522 82.8418 200.768L89.739 203.794C89.5766 205.977 87.8949 207.707 85.8476 207.707ZM126.143 212.889L83.8004 194.307L82.7524 193.846H72.8493V177.145H82.7524L83.8004 176.684L126.143 158.102V212.889Z" fill="white"/>
<path d="M586.682 163.773C587.913 162.147 588.594 160.154 588.594 158.082C588.594 154.793 586.755 151.68 583.796 149.944C583.035 149.498 582.167 149.262 581.284 149.263H563.721L564.16 140.262C564.263 138.086 563.494 136.021 562 134.446C561.266 133.67 560.382 133.053 559.4 132.632C558.419 132.211 557.362 131.996 556.294 132C552.485 132 549.116 134.564 548.105 138.233L541.814 161.011H532.344C531.047 161.011 530 162.059 530 163.355V190.015C530 191.312 531.047 192.359 532.344 192.359H576.384C577.058 192.359 577.717 192.227 578.325 191.963C581.812 190.477 584.06 187.071 584.06 183.292C584.06 182.369 583.928 181.461 583.665 180.582C584.895 178.956 585.576 176.963 585.576 174.891C585.576 173.968 585.444 173.06 585.181 172.181C586.411 170.555 587.092 168.563 587.092 166.49C587.078 165.567 586.946 164.651 586.682 163.773ZM535.273 187.086V166.285H541.206V187.086H535.273ZM581.885 161.231L580.281 162.623L581.299 164.483C581.634 165.096 581.808 165.784 581.804 166.482C581.804 167.691 581.277 168.841 580.369 169.632L578.765 171.023L579.783 172.884C580.118 173.497 580.292 174.185 580.288 174.883C580.288 176.092 579.761 177.242 578.853 178.033L577.249 179.424L578.267 181.285C578.602 181.898 578.776 182.586 578.772 183.284C578.772 184.925 577.805 186.404 576.311 187.078H545.894V166.05L553.181 139.647C553.369 138.97 553.772 138.373 554.33 137.946C554.888 137.519 555.57 137.285 556.272 137.281C556.829 137.281 557.378 137.442 557.817 137.772C558.542 138.314 558.931 139.134 558.887 140.005L558.184 154.537H581.211C582.515 155.335 583.32 156.683 583.32 158.082C583.32 159.29 582.793 160.433 581.885 161.231Z" fill="white"/>
<path d="M645.682 205.579C645.946 204.7 646.078 203.792 646.078 202.869C646.078 200.796 645.396 198.804 644.166 197.178C644.43 196.299 644.562 195.391 644.562 194.468C644.562 192.396 643.88 190.403 642.65 188.777C642.914 187.898 643.045 186.99 643.045 186.067C643.045 182.288 640.797 178.882 637.311 177.396C636.698 177.131 636.037 176.997 635.37 177H591.344C590.047 177 589 178.047 589 179.344V206.004C589 207.3 590.047 208.348 591.344 208.348H600.814L607.098 231.111C608.109 234.781 611.478 237.344 615.287 237.344C617.462 237.344 619.491 236.48 620.992 234.898C622.494 233.323 623.263 231.258 623.153 229.083L622.713 220.081H640.284C641.17 220.081 642.035 219.847 642.796 219.4C645.755 217.679 647.594 214.559 647.594 211.27C647.594 209.197 646.913 207.205 645.682 205.579ZM594.273 203.067V182.266H600.206V203.067H594.273ZM640.211 214.815H617.184L617.887 229.346C617.931 230.218 617.542 231.038 616.817 231.58C616.371 231.91 615.821 232.078 615.272 232.071C614.57 232.064 613.89 231.83 613.332 231.403C612.775 230.977 612.371 230.381 612.181 229.705L604.894 203.301V182.266H635.318C636.05 182.594 636.672 183.127 637.109 183.8C637.545 184.473 637.778 185.258 637.779 186.06C637.779 186.771 637.611 187.444 637.274 188.06L636.256 189.92L637.86 191.312C638.311 191.703 638.673 192.186 638.921 192.73C639.169 193.273 639.296 193.864 639.295 194.461C639.295 195.171 639.127 195.845 638.79 196.461L637.772 198.321L639.376 199.712C639.827 200.103 640.189 200.587 640.437 201.131C640.685 201.674 640.813 202.265 640.812 202.862C640.812 203.572 640.643 204.246 640.306 204.861L639.281 206.729L640.885 208.121C641.336 208.512 641.698 208.995 641.946 209.539C642.194 210.082 642.321 210.673 642.32 211.27C642.32 212.669 641.515 214.017 640.211 214.815Z" fill="white"/>
</svg>
