<svg width="377" height="567" viewBox="0 0 377 567" fill="none" xmlns="http://www.w3.org/2000/svg">
<path d="M129.168 170.048H132.264C132.264 176.888 130.488 182.624 122.52 186.8L120.768 184.376C127.32 180.92 129.168 176.72 129.168 170.432V170.048ZM122.088 170.048H131.112V172.568H122.088V170.048ZM129.48 175.496V177.92L121.32 178.664L120.912 175.976L129.48 175.496ZM136.368 167.912H139.56V190.136H136.368V167.912ZM132.24 176.432H138.048V179.024H132.24V176.432ZM158.35 167.912H161.566V190.136H158.35V167.912ZM143.59 169.952H156.07V172.496H143.59V169.952ZM143.302 185.072L142.99 182.456C146.998 182.456 152.35 182.384 156.934 181.832L157.102 184.16C152.422 184.952 147.31 185.048 143.302 185.072ZM145.51 171.944H148.606V183.152H145.51V171.944ZM151.054 171.944H154.15V183.152H151.054V171.944ZM169.1 172.16H171.476V172.808C171.476 176.336 170.036 179.6 166.556 180.896L165.092 178.544C167.9 177.464 169.1 175.16 169.1 172.808V172.16ZM169.748 172.16H172.1V172.808C172.1 175.016 173.324 177.152 176.108 178.136L174.692 180.488C171.188 179.288 169.748 176.192 169.748 172.808V172.16ZM165.716 170.336H175.46V172.832H165.716V170.336ZM169.1 168.176H172.1V171.608H169.1V168.176ZM181.028 167.936H184.052V182.96H181.028V167.936ZM178.46 173.192H181.988V175.784H178.46V173.192ZM176.396 168.272H179.372V181.016H176.396V168.272ZM174.812 181.928H177.524V182.264C177.524 186.128 174.452 189.272 168.884 190.064L167.756 187.592C172.556 186.968 174.812 184.544 174.812 182.264V181.928ZM175.268 181.928H177.98V182.264C177.98 184.544 180.26 186.968 185.036 187.592L183.908 190.064C178.34 189.272 175.268 186.128 175.268 182.264V181.928ZM201.581 172.808H205.277V175.376H201.581V172.808ZM201.581 179.672H205.277V182.264H201.581V179.672ZM208.805 167.912H211.853V190.136H208.805V167.912ZM204.365 168.248H207.341V189.128H204.365V168.248ZM197.741 169.472C200.693 169.472 202.589 172.52 202.589 177.536C202.589 182.576 200.693 185.624 197.741 185.624C194.813 185.624 192.941 182.576 192.941 177.536C192.941 172.52 194.813 169.472 197.741 169.472ZM197.741 172.472C196.517 172.472 195.797 174.152 195.797 177.536C195.797 180.944 196.517 182.6 197.741 182.6C198.989 182.6 199.709 180.944 199.709 177.536C199.709 174.152 198.989 172.472 197.741 172.472ZM231.339 170.792H235.179V173.408H231.339V170.792ZM231.339 175.616H235.179V178.232H231.339V175.616ZM229.131 167.912H232.323V181.016H229.131V167.912ZM217.491 181.928H232.323V190.136H229.131V184.472H217.491V181.928ZM221.019 169.112C224.451 169.112 227.067 171.392 227.067 174.56C227.067 177.728 224.451 179.984 221.019 179.984C217.587 179.984 214.971 177.728 214.971 174.56C214.971 171.392 217.587 169.112 221.019 169.112ZM221.019 171.824C219.339 171.824 218.091 172.808 218.091 174.56C218.091 176.312 219.339 177.32 221.019 177.32C222.699 177.32 223.947 176.312 223.947 174.56C223.947 172.808 222.699 171.824 221.019 171.824Z" fill="white"/>
<rect x="0.5" y="248.5" width="376" height="88" rx="44" stroke="white"/>
<rect x="0.5" y="363.5" width="376" height="88" rx="44" stroke="white"/>
<rect x="0.5" y="478.5" width="376" height="88" rx="44" stroke="white"/>
<path d="M46.64 267.48H48.22V281H46.64V267.48ZM40.3 272.58H43.72V273.94H40.3V272.58ZM43.2 267.84H44.78V280.48H43.2V267.84ZM36.44 283.8H48.78V285.16H36.44V283.8ZM36.44 279.34H38.1V284.5H36.44V279.34ZM33.8 269.22H40.78V277.5H33.8V269.22ZM39.22 270.52H35.34V276.18H39.22V270.52ZM53.4984 276.86H65.9184V278.2H53.4984V276.86ZM51.3984 281.94H67.7784V283.32H51.3984V281.94ZM58.7384 277.56H60.3784V282.58H58.7384V277.56ZM53.4984 268.94H65.7184V270.3H55.1784V277.36H53.4984V268.94ZM54.6384 272.82H65.3384V274.16H54.6384V272.82ZM75.6569 268.78C78.4769 268.78 80.4969 270.52 80.4969 273.04C80.4969 275.58 78.4769 277.32 75.6569 277.32C72.8369 277.32 70.7969 275.58 70.7969 273.04C70.7969 270.52 72.8369 268.78 75.6569 268.78ZM75.6569 270.22C73.7769 270.22 72.4169 271.36 72.4169 273.04C72.4169 274.72 73.7769 275.88 75.6569 275.88C77.5169 275.88 78.8769 274.72 78.8769 273.04C78.8769 271.36 77.5169 270.22 75.6569 270.22ZM82.8569 267.46H84.5169V285.58H82.8569V267.46ZM70.1169 281.62L69.8769 280.24C73.1769 280.24 77.7369 280.22 81.6769 279.6L81.8169 280.82C77.7569 281.6 73.3369 281.62 70.1169 281.62ZM93.8203 281.84H110.2V283.22H93.8203V281.84ZM101.1 277.46H102.74V282.3H101.1V277.46ZM101.06 268.68H102.5V270.08C102.5 273.94 98.8003 276.92 95.1603 277.68L94.4603 276.3C97.6403 275.72 101.06 273.06 101.06 270.08V268.68ZM101.36 268.68H102.8V270.08C102.8 273.08 106.24 275.72 109.42 276.3L108.7 277.68C105.06 276.92 101.36 273.94 101.36 270.08V268.68ZM125.939 267.48H127.539V285.56H125.939V267.48ZM123.019 274.74H126.479V276.1H123.019V274.74ZM118.339 269.8H119.939C119.939 274.46 118.339 278.78 113.179 281.68L112.199 280.5C116.739 277.96 118.339 274.3 118.339 270.12V269.8ZM112.899 269.8H118.899V271.18H112.899V269.8ZM121.919 267.96H123.499V284.68H121.919V267.96ZM132.697 268.24H144.337V269.58H132.697V268.24ZM130.617 274.2H146.997V275.56H130.617V274.2ZM143.257 268.24H144.877V269.4C144.877 270.7 144.877 272.38 144.397 274.62L142.777 274.44C143.257 272.24 143.257 270.68 143.257 269.4V268.24ZM132.537 277.34H144.937V281.94H134.237V284.46H132.577V280.66H143.297V278.68H132.537V277.34ZM132.577 284.02H145.397V285.36H132.577V284.02ZM149.816 269.46H157.996V270.8H149.816V269.46ZM152.636 274.62H154.276V280.74H152.636V274.62ZM157.316 269.46H158.936V270.42C158.936 271.9 158.936 274.26 158.416 277.62L156.776 277.46C157.316 274.2 157.316 271.88 157.316 270.42V269.46ZM161.216 267.48H162.856V285.56H161.216V267.48ZM162.416 275.04H165.756V276.44H162.416V275.04ZM149.016 281.62L148.816 280.22C152.096 280.22 156.456 280.16 160.116 279.7L160.196 280.92C156.456 281.52 152.216 281.6 149.016 281.62ZM172.999 270.56H181.959V271.92H172.999V270.56ZM177.479 273.12C179.739 273.12 181.379 274.82 181.379 277.26C181.379 279.68 179.739 281.38 177.479 281.38C175.239 281.38 173.599 279.68 173.599 277.26C173.599 274.82 175.239 273.12 177.479 273.12ZM177.479 274.54C176.099 274.54 175.099 275.66 175.099 277.26C175.099 278.86 176.099 279.98 177.479 279.98C178.879 279.98 179.899 278.86 179.899 277.26C179.899 275.66 178.879 274.54 177.479 274.54ZM186.739 267.48H188.339V285.56H186.739V267.48ZM183.859 275.08H187.279V276.46H183.859V275.08ZM182.879 267.88H184.439V284.68H182.879V267.88ZM176.679 268H178.319V271.4H176.679V268ZM196.198 269.04H197.558V272.28C197.558 276.44 195.318 280.3 192.358 281.8L191.338 280.44C194.018 279.16 196.198 275.7 196.198 272.28V269.04ZM196.478 269.04H197.838V272.28C197.838 275.58 199.998 278.9 202.678 280.14L201.678 281.46C198.738 280.02 196.478 276.3 196.478 272.28V269.04ZM204.558 267.46H206.218V285.58H204.558V267.46ZM210.536 279.7H211.716C214.576 279.7 216.276 279.64 218.296 279.24L218.476 280.62C216.376 281.04 214.616 281.1 211.716 281.1H210.536V279.7ZM210.536 269.54H217.656V270.9H212.116V280.22H210.536V269.54ZM211.636 274.32H217.376V275.66H211.636V274.32ZM223.596 267.48H225.196V285.56H223.596V267.48ZM220.736 274.72H224.196V276.1H220.736V274.72ZM219.616 267.86H221.196V284.66H219.616V267.86ZM229.994 269.4H241.634V270.74H229.994V269.4ZM228.234 281.54H244.574V282.92H228.234V281.54ZM240.754 269.4H242.374V271.2C242.374 273.52 242.374 276.1 241.694 280L240.034 279.84C240.754 276.14 240.754 273.44 240.754 271.2V269.4ZM253.953 274.5H257.373V275.88H253.953V274.5ZM260.393 267.48H261.993V285.56H260.393V267.48ZM256.813 267.86H258.393V284.66H256.813V267.86ZM250.693 268.98C253.033 268.98 254.553 271.4 254.553 275.28C254.553 279.16 253.033 281.58 250.693 281.58C248.353 281.58 246.853 279.16 246.853 275.28C246.853 271.4 248.353 268.98 250.693 268.98ZM250.693 270.52C249.273 270.52 248.373 272.36 248.373 275.28C248.373 278.2 249.273 280.04 250.693 280.04C252.133 280.04 253.033 278.2 253.033 275.28C253.033 272.36 252.133 270.52 250.693 270.52ZM283.816 267.48H285.476V285.56H283.816V267.48ZM278.516 269.42H280.156C280.156 274.66 277.796 279.24 271.756 282.2L270.876 280.86C276.096 278.34 278.516 274.5 278.516 269.7V269.42ZM271.696 269.42H279.236V270.78H271.696V269.42ZM301.415 267.5H303.075V280.76H301.415V267.5ZM302.555 272.96H305.755V274.34H302.555V272.96ZM291.815 283.8H303.895V285.16H291.815V283.8ZM291.815 279.48H293.475V284.12H291.815V279.48ZM289.795 268.78H291.435V271.8H296.535V268.78H298.155V277.74H289.795V268.78ZM291.435 273.1V276.4H296.535V273.1H291.435ZM319.693 267.48H321.353V285.56H319.693V267.48ZM320.953 274.9H324.313V276.3H320.953V274.9ZM307.353 270.36H318.013V271.72H307.353V270.36ZM312.753 273.22C315.313 273.22 317.153 274.94 317.153 277.38C317.153 279.82 315.313 281.54 312.753 281.54C310.213 281.54 308.353 279.82 308.353 277.38C308.353 274.94 310.213 273.22 312.753 273.22ZM312.753 274.6C311.113 274.6 309.933 275.74 309.933 277.38C309.933 279 311.113 280.16 312.753 280.16C314.393 280.16 315.573 279 315.573 277.38C315.573 275.74 314.393 274.6 312.753 274.6ZM311.893 267.7H313.553V270.98H311.893V267.7ZM333.992 271.5H339.452V272.88H333.992V271.5ZM333.992 277.22H339.452V278.6H333.992V277.22ZM330.672 268.86C333.292 268.86 335.172 271.32 335.172 275.16C335.172 279.02 333.292 281.48 330.672 281.48C328.032 281.48 326.172 279.02 326.172 275.16C326.172 271.32 328.032 268.86 330.672 268.86ZM330.672 270.36C328.932 270.36 327.732 272.24 327.732 275.16C327.732 278.1 328.932 280.02 330.672 280.02C332.412 280.02 333.612 278.1 333.612 275.16C333.612 272.24 332.412 270.36 330.672 270.36ZM339.092 267.46H340.732V285.58H339.092V267.46ZM33.96 298.88H41.96V300.24H33.96V298.88ZM36.68 302.92H38.32V307.44H36.68V302.92ZM41.3 298.88H42.94V299.84C42.94 301.02 42.94 302.82 42.46 305.2L40.84 305.02C41.3 302.64 41.3 301 41.3 299.84V298.88ZM45.4 297.48H47.06V311.1H45.4V297.48ZM46.3 303.36H49.64V304.74H46.3V303.36ZM35.64 313.8H47.64V315.16H35.64V313.8ZM35.64 309.84H37.28V314.22H35.64V309.84ZM33.04 308.22L32.86 306.86C36.08 306.86 40.52 306.78 44.18 306.28L44.3 307.48C40.54 308.14 36.22 308.22 33.04 308.22ZM64.5384 297.5H66.2184V307.76H64.5384V297.5ZM54.5384 308.8H66.2184V315.32H54.5384V308.8ZM64.5784 310.12H56.1584V313.98H64.5784V310.12ZM56.0984 298.18H57.4784V299.94C57.4784 303.3 55.3984 306.18 52.3384 307.32L51.5184 306C54.2384 305.02 56.0984 302.58 56.0984 299.94V298.18ZM56.3984 298.18H57.7584V299.94C57.7584 302.5 59.6384 304.76 62.3184 305.66L61.4984 306.96C58.4784 305.92 56.3984 303.22 56.3984 299.94V298.18ZM79.9219 308.6H81.2019V309.58C81.2019 311.94 79.7219 314.32 77.1219 315.32L76.2819 314.08C78.5619 313.26 79.9219 311.32 79.9219 309.58V308.6ZM80.2819 308.6H81.5219V309.58C81.5219 311.4 82.6019 313.34 84.7619 314.22L84.0619 315.48C81.4619 314.46 80.2819 311.98 80.2819 309.58V308.6ZM86.6019 308.6H87.8419V309.58C87.8419 311.7 86.6419 314.38 84.0619 315.48L83.3619 314.22C85.5019 313.24 86.6019 311.14 86.6019 309.58V308.6ZM86.9419 308.6H88.2219V309.58C88.2219 311.44 89.5619 313.3 91.8619 314.08L91.0219 315.32C88.3819 314.36 86.9419 312.08 86.9419 309.58V308.6ZM88.5619 297.5H90.2419V307.82H88.5619V297.5ZM80.5419 298.54C83.2819 298.54 85.2419 300.26 85.2419 302.76C85.2419 305.26 83.2819 306.96 80.5419 306.96C77.8019 306.96 75.8219 305.26 75.8219 302.76C75.8219 300.26 77.8019 298.54 80.5419 298.54ZM80.5419 299.92C78.7419 299.92 77.4419 301.08 77.4419 302.76C77.4419 304.44 78.7419 305.58 80.5419 305.58C82.3419 305.58 83.6419 304.44 83.6419 302.76C83.6419 301.08 82.3419 299.92 80.5419 299.92ZM96.0203 302.9H108.3V304.26H96.0203V302.9ZM93.8003 306.68H110.2V308.04H93.8003V306.68ZM96.0203 298.14H97.6603V303.58H96.0203V298.14ZM95.9003 313.76H108.4V315.12H95.9003V313.76ZM95.9003 309.84H97.5403V314.12H95.9003V309.84ZM125.344 299.36H126.944C126.944 304.58 125.144 309.38 118.784 312.58L117.844 311.3C123.424 308.5 125.344 304.48 125.344 299.54V299.36ZM118.824 299.36H126.344V300.7H118.824V299.36ZM125.244 303.84V305.1L118.184 305.76L117.904 304.32L125.244 303.84ZM131.044 297.48H132.704V315.56H131.044V297.48ZM126.904 304.72H131.844V306.1H126.904V304.72ZM149.402 297.48H151.062V315.56H149.402V297.48ZM136.682 299.42H146.922V300.78H136.682V299.42ZM136.402 311.1L136.202 309.68C139.562 309.68 144.002 309.64 147.842 309.18L147.942 310.4C144.042 311.02 139.702 311.08 136.402 311.1ZM138.682 300.44H140.282V310.06H138.682V300.44ZM143.302 300.44H144.922V310.06H143.302V300.44ZM158.401 300.74H159.661V301.24C159.661 304.1 158.201 306.84 155.581 307.98L154.781 306.72C157.061 305.74 158.401 303.48 158.401 301.24V300.74ZM158.721 300.74H159.961V301.24C159.961 303.32 161.361 305.42 163.621 306.32L162.841 307.56C160.201 306.52 158.721 303.96 158.721 301.24V300.74ZM155.121 299.88H163.181V301.2H155.121V299.88ZM158.401 297.76H159.961V300.48H158.401V297.76ZM168.281 297.5H169.861V309.72H168.281V297.5ZM165.441 302.08H168.861V303.46H165.441V302.08ZM164.441 297.8H166.001V308.16H164.441V297.8ZM163.041 308.98H164.441V309.4C164.441 312.58 161.181 314.86 157.541 315.5L156.921 314.2C160.101 313.7 163.041 311.74 163.041 309.4V308.98ZM163.261 308.98H164.681V309.4C164.681 311.74 167.621 313.7 170.801 314.2L170.181 315.5C166.541 314.86 163.261 312.58 163.261 309.4V308.98ZM181.199 297.78C185.179 297.78 187.559 298.9 187.559 300.92C187.559 302.94 185.179 304.06 181.199 304.06C177.199 304.06 174.839 302.94 174.839 300.92C174.839 298.9 177.199 297.78 181.199 297.78ZM181.199 299.04C178.239 299.04 176.539 299.72 176.539 300.92C176.539 302.12 178.239 302.8 181.199 302.8C184.139 302.8 185.839 302.12 185.839 300.92C185.839 299.72 184.139 299.04 181.199 299.04ZM173.019 305.26H189.359V306.6H173.019V305.26ZM174.999 308.14H187.279V312.22H176.679V314.42H175.039V311.02H185.639V309.42H174.999V308.14ZM175.039 314.06H187.819V315.36H175.039V314.06ZM201.563 300.46H202.923V301.24C202.923 304.32 200.883 306.82 197.843 307.78L197.063 306.48C199.743 305.66 201.563 303.6 201.563 301.24V300.46ZM201.863 300.46H203.223V301.24C203.223 303.4 204.983 305.36 207.643 306.14L206.863 307.42C203.843 306.52 201.863 304.12 201.863 301.24V300.46ZM197.563 299.58H207.203V300.92H197.563V299.58ZM201.563 297.4H203.223V300.14H201.563V297.4ZM209.423 297.48H211.083V307.98H209.423V297.48ZM210.623 301.94H213.763V303.32H210.623V301.94ZM204.603 309.48H206.023V309.96C206.023 312.8 203.023 314.9 199.483 315.5L198.843 314.22C201.963 313.74 204.603 311.98 204.603 309.96V309.48ZM204.923 309.48H206.342V309.96C206.342 311.94 209.023 313.74 212.083 314.24L211.463 315.52C207.923 314.92 204.923 312.74 204.923 309.96V309.48ZM199.543 308.96H211.403V310.3H199.543V308.96ZM220.261 298.86C222.921 298.86 224.801 301.32 224.801 305.16C224.801 309.02 222.921 311.48 220.261 311.48C217.601 311.48 215.721 309.02 215.721 305.16C215.721 301.32 217.601 298.86 220.261 298.86ZM220.261 300.36C218.501 300.36 217.301 302.24 217.301 305.16C217.301 308.1 218.501 310.02 220.261 310.02C222.001 310.02 223.221 308.1 223.221 305.16C223.221 302.24 222.001 300.36 220.261 300.36ZM227.681 297.48H229.361V315.56H227.681V297.48ZM228.961 304.7H232.321V306.1H228.961V304.7ZM233.859 311.88H250.239V313.26H233.859V311.88ZM241.179 307.56H242.839V312.28H241.179V307.56ZM235.779 298.76H237.419V301.98H246.639V298.76H248.279V308H235.779V298.76ZM237.419 303.32V306.64H246.639V303.32H237.419ZM259.378 303.94H262.838V305.32H259.378V303.94ZM255.998 299.18H257.298V302.62C257.298 306.4 255.718 310.06 253.078 311.68L252.038 310.42C254.518 308.96 255.998 305.72 255.998 302.62V299.18ZM256.318 299.18H257.598V302.56C257.598 305.46 258.958 308.54 261.338 309.98L260.378 311.28C257.778 309.68 256.318 306.08 256.318 302.56V299.18ZM266.018 297.48H267.618V315.56H266.018V297.48ZM262.358 297.86H263.918V314.66H262.358V297.86ZM274.656 306.78H276.296V312.2H274.656V306.78ZM281.336 306.78H282.996V312.2H281.336V306.78ZM270.656 311.88H287.036V313.26H270.656V311.88ZM278.816 298.62C282.636 298.62 285.376 300.44 285.376 303.28C285.376 306.1 282.636 307.92 278.816 307.92C274.976 307.92 272.236 306.1 272.236 303.28C272.236 300.44 274.976 298.62 278.816 298.62ZM278.816 299.94C275.916 299.94 273.836 301.26 273.836 303.28C273.836 305.28 275.916 306.6 278.816 306.6C281.716 306.6 283.776 305.28 283.776 303.28C283.776 301.26 281.716 299.94 278.816 299.94ZM290.81 314.114C290.46 314.114 290.159 313.988 289.908 313.737C289.657 313.486 289.532 313.186 289.532 312.835C289.532 312.485 289.657 312.184 289.908 311.933C290.159 311.682 290.46 311.557 290.81 311.557C291.161 311.557 291.461 311.682 291.712 311.933C291.963 312.184 292.089 312.485 292.089 312.835C292.089 313.067 292.03 313.28 291.911 313.474C291.798 313.669 291.644 313.825 291.45 313.943C291.26 314.057 291.047 314.114 290.81 314.114Z" fill="white"/>
<path d="M53.24 499.48H54.9V517.56H53.24V499.48ZM54.5 506.9H57.86V508.3H54.5V506.9ZM40.9 502.36H51.56V503.72H40.9V502.36ZM46.3 505.22C48.86 505.22 50.7 506.94 50.7 509.38C50.7 511.82 48.86 513.54 46.3 513.54C43.76 513.54 41.9 511.82 41.9 509.38C41.9 506.94 43.76 505.22 46.3 505.22ZM46.3 506.6C44.66 506.6 43.48 507.74 43.48 509.38C43.48 511 44.66 512.16 46.3 512.16C47.94 512.16 49.12 511 49.12 509.38C49.12 507.74 47.94 506.6 46.3 506.6ZM45.44 499.7H47.1V502.98H45.44V499.7ZM72.8384 506.68H76.1784V508.08H72.8384V506.68ZM71.6184 499.46H73.2984V517.56H71.6184V499.46ZM60.0984 501.24H61.7584V512.44H60.0984V501.24ZM60.0984 511.58H61.5384C64.2184 511.58 66.9584 511.4 69.9384 510.78L70.1384 512.16C67.0584 512.8 64.2784 512.98 61.5384 512.98H60.0984V511.58ZM83.6569 500.78C86.4769 500.78 88.4969 502.52 88.4969 505.04C88.4969 507.58 86.4769 509.32 83.6569 509.32C80.8369 509.32 78.7969 507.58 78.7969 505.04C78.7969 502.52 80.8369 500.78 83.6569 500.78ZM83.6569 502.22C81.7769 502.22 80.4169 503.36 80.4169 505.04C80.4169 506.72 81.7769 507.88 83.6569 507.88C85.5169 507.88 86.8769 506.72 86.8769 505.04C86.8769 503.36 85.5169 502.22 83.6569 502.22ZM90.8569 499.46H92.5169V517.58H90.8569V499.46ZM78.1169 513.62L77.8769 512.24C81.1769 512.24 85.7369 512.22 89.6769 511.6L89.8169 512.82C85.7569 513.6 81.3369 513.62 78.1169 513.62ZM109.32 501.36H110.92C110.92 506.58 109.12 511.38 102.76 514.58L101.82 513.3C107.4 510.5 109.32 506.48 109.32 501.54V501.36ZM102.8 501.36H110.32V502.7H102.8V501.36ZM109.22 505.84V507.1L102.16 507.76L101.88 506.32L109.22 505.84ZM115.02 499.48H116.68V517.56H115.02V499.48ZM110.88 506.72H115.82V508.1H110.88V506.72ZM133.379 499.48H135.039V517.56H133.379V499.48ZM120.659 501.42H130.899V502.78H120.659V501.42ZM120.379 513.1L120.179 511.68C123.539 511.68 127.979 511.64 131.819 511.18L131.919 512.4C128.019 513.02 123.679 513.08 120.379 513.1ZM122.659 502.44H124.259V512.06H122.659V502.44ZM127.279 502.44H128.899V512.06H127.279V502.44ZM142.377 502.74H143.637V503.24C143.637 506.1 142.177 508.84 139.557 509.98L138.757 508.72C141.037 507.74 142.377 505.48 142.377 503.24V502.74ZM142.697 502.74H143.937V503.24C143.937 505.32 145.337 507.42 147.597 508.32L146.817 509.56C144.177 508.52 142.697 505.96 142.697 503.24V502.74ZM139.097 501.88H147.157V503.2H139.097V501.88ZM142.377 499.76H143.937V502.48H142.377V499.76ZM152.257 499.5H153.837V511.72H152.257V499.5ZM149.417 504.08H152.837V505.46H149.417V504.08ZM148.417 499.8H149.977V510.16H148.417V499.8ZM147.017 510.98H148.417V511.4C148.417 514.58 145.157 516.86 141.517 517.5L140.897 516.2C144.077 515.7 147.017 513.74 147.017 511.4V510.98ZM147.237 510.98H148.657V511.4C148.657 513.74 151.597 515.7 154.777 516.2L154.157 517.5C150.517 516.86 147.237 514.58 147.237 511.4V510.98ZM164.336 506.5H167.756V507.88H164.336V506.5ZM170.776 499.48H172.376V517.56H170.776V499.48ZM167.196 499.86H168.776V516.66H167.196V499.86ZM161.076 500.98C163.416 500.98 164.936 503.4 164.936 507.28C164.936 511.16 163.416 513.58 161.076 513.58C158.736 513.58 157.236 511.16 157.236 507.28C157.236 503.4 158.736 500.98 161.076 500.98ZM161.076 502.52C159.656 502.52 158.756 504.36 158.756 507.28C158.756 510.2 159.656 512.04 161.076 512.04C162.516 512.04 163.416 510.2 163.416 507.28C163.416 504.36 162.516 502.52 161.076 502.52ZM193.399 499.5H195.059V513.06H193.399V499.5ZM194.539 505.42H197.739V506.82H194.539V505.42ZM181.079 501.68H191.759V503.02H181.079V501.68ZM186.419 504.02C188.979 504.02 190.739 505.36 190.739 507.4C190.739 509.42 188.979 510.76 186.419 510.76C183.839 510.76 182.079 509.42 182.079 507.4C182.079 505.36 183.839 504.02 186.419 504.02ZM186.419 505.32C184.779 505.32 183.659 506.14 183.659 507.4C183.659 508.64 184.779 509.46 186.419 509.46C188.039 509.46 189.159 508.64 189.159 507.4C189.159 506.14 188.039 505.32 186.419 505.32ZM185.579 499.48H187.239V502.38H185.579V499.48ZM183.799 515.8H195.879V517.16H183.799V515.8ZM183.799 511.98H185.459V516.38H183.799V511.98ZM213.583 504.58H218.783V505.94H213.583V504.58ZM218.263 499.5H219.923V512.88H218.263V499.5ZM208.303 515.8H220.363V517.16H208.303V515.8ZM208.303 511.58H209.963V516.5H208.303V511.58ZM205.943 500.68H207.583V503.88H212.483V500.68H214.103V509.8H205.943V500.68ZM207.583 505.18V508.44H212.483V505.18H207.583ZM229.321 500.78C232.141 500.78 234.161 502.52 234.161 505.04C234.161 507.58 232.141 509.32 229.321 509.32C226.501 509.32 224.461 507.58 224.461 505.04C224.461 502.52 226.501 500.78 229.321 500.78ZM229.321 502.22C227.441 502.22 226.081 503.36 226.081 505.04C226.081 506.72 227.441 507.88 229.321 507.88C231.181 507.88 232.541 506.72 232.541 505.04C232.541 503.36 231.181 502.22 229.321 502.22ZM236.521 499.46H238.181V517.58H236.521V499.46ZM223.781 513.62L223.541 512.24C226.841 512.24 231.401 512.22 235.341 511.6L235.481 512.82C231.421 513.6 227.001 513.62 223.781 513.62ZM254.684 503.84H258.204V505.22H254.684V503.84ZM254.684 509.34H258.204V510.72H254.684V509.34ZM261.244 499.48H262.844V517.56H261.244V499.48ZM257.704 499.86H259.264V516.66H257.704V499.86ZM251.544 500.98C253.884 500.98 255.404 503.4 255.404 507.28C255.404 511.16 253.884 513.58 251.544 513.58C249.204 513.58 247.704 511.16 247.704 507.28C247.704 503.4 249.204 500.98 251.544 500.98ZM251.544 502.52C250.124 502.52 249.204 504.36 249.204 507.28C249.204 510.2 250.124 512.04 251.544 512.04C252.984 512.04 253.884 510.2 253.884 507.28C253.884 504.36 252.984 502.52 251.544 502.52ZM279.403 502.22H282.543V503.62H279.403V502.22ZM279.403 506.1H282.543V507.48H279.403V506.1ZM278.243 499.48H279.903V510.22H278.243V499.48ZM268.163 511.08H279.903V517.56H278.243V512.42H268.163V511.08ZM270.923 500.54C273.643 500.54 275.643 502.3 275.643 504.84C275.643 507.36 273.643 509.1 270.923 509.1C268.203 509.1 266.203 507.36 266.203 504.84C266.203 502.3 268.203 500.54 270.923 500.54ZM270.923 501.96C269.123 501.96 267.823 503.12 267.823 504.84C267.823 506.54 269.123 507.72 270.923 507.72C272.723 507.72 274.023 506.54 274.023 504.84C274.023 503.12 272.723 501.96 270.923 501.96ZM285.021 501.1H293.321V509.48H285.021V501.1ZM291.701 502.44H286.641V508.14H291.701V502.44ZM296.641 499.46H298.301V512.72H296.641V499.46ZM297.781 504.98H300.981V506.36H297.781V504.98ZM287.041 515.8H299.121V517.16H287.041V515.8ZM287.041 511.46H288.701V516.38H287.041V511.46ZM53.22 529.46H54.9V547.56H53.22V529.46ZM54.44 536.8H57.78V538.18H54.44V536.8ZM48.6 531.42H50.22C50.22 536.56 47.86 541.2 42.02 544.14L41.1 542.86C46.1 540.32 48.6 536.46 48.6 531.68V531.42ZM41.94 531.42H49.46V532.78H41.94V531.42ZM61.6184 534.5H73.8784V535.86H61.6184V534.5ZM61.6184 529.84H63.2584V535.1H61.6184V529.84ZM59.3984 537.96H75.7384V539.3H59.3984V537.96ZM67.5384 540.92C71.3984 540.92 73.7384 542.1 73.7384 544.22C73.7384 546.3 71.3984 547.5 67.5384 547.5C63.6784 547.5 61.3384 546.3 61.3384 544.22C61.3384 542.1 63.6784 540.92 67.5384 540.92ZM67.5384 542.22C64.7184 542.22 63.0184 542.94 63.0184 544.22C63.0184 545.46 64.7184 546.18 67.5384 546.18C70.3784 546.18 72.0584 545.46 72.0584 544.22C72.0584 542.94 70.3784 542.22 67.5384 542.22ZM90.1569 529.48H91.8169V539.98H90.1569V529.48ZM91.0969 534.08H94.4969V535.48H91.0969V534.08ZM80.4569 540.78H82.0769V542.7H90.1769V540.78H91.8169V547.32H80.4569V540.78ZM82.0769 543.98V545.98H90.1769V543.98H82.0769ZM77.8369 531.32H88.5169V532.68H77.8369V531.32ZM83.1769 533.5C85.7569 533.5 87.4969 534.76 87.4969 536.68C87.4969 538.6 85.7569 539.86 83.1769 539.86C80.5769 539.86 78.8369 538.6 78.8369 536.68C78.8369 534.76 80.5769 533.5 83.1769 533.5ZM83.1769 534.76C81.5169 534.76 80.4169 535.52 80.4169 536.68C80.4169 537.84 81.5169 538.6 83.1769 538.6C84.7969 538.6 85.9169 537.84 85.9169 536.68C85.9169 535.52 84.7969 534.76 83.1769 534.76ZM82.3369 529.3H83.9969V532.06H82.3369V529.3ZM109.335 529.48H110.995V547.56H109.335V529.48ZM97.3353 531.24H98.9753V542.44H97.3353V531.24ZM97.3353 541.46H98.8153C101.555 541.46 104.415 541.26 107.475 540.62L107.675 542.04C104.535 542.68 101.675 542.9 98.8153 542.9H97.3353V541.46ZM126.814 529.46H128.494V547.58H126.814V529.46ZM128.094 536.6H131.454V538H128.094V536.6ZM115.354 541.68H116.774C120.114 541.68 122.454 541.56 125.154 541.06L125.334 542.46C122.554 542.98 120.174 543.08 116.774 543.08H115.354V541.68ZM115.354 531.22H123.754V532.58H116.994V542.3H115.354V531.22ZM134.748 546.114C134.397 546.114 134.097 545.988 133.846 545.737C133.595 545.486 133.469 545.186 133.469 544.835C133.469 544.485 133.595 544.184 133.846 543.933C134.097 543.682 134.397 543.557 134.748 543.557C135.098 543.557 135.399 543.682 135.65 543.933C135.901 544.184 136.026 544.485 136.026 544.835C136.026 545.067 135.967 545.28 135.849 545.474C135.735 545.669 135.581 545.825 135.387 545.943C135.198 546.057 134.985 546.114 134.748 546.114Z" fill="white"/>
<path d="M46.06 384.14C48.76 384.14 50.74 385.78 50.74 388.16C50.74 390.52 48.76 392.16 46.06 392.16C43.38 392.16 41.4 390.52 41.4 388.16C41.4 385.78 43.38 384.14 46.06 384.14ZM46.06 385.5C44.32 385.5 43 386.6 43 388.16C43 389.72 44.32 390.8 46.06 390.8C47.82 390.8 49.12 389.72 49.12 388.16C49.12 386.6 47.82 385.5 46.06 385.5ZM54.14 383.48H55.82V392.74H54.14V383.48ZM44.12 393.62H55.82V398.02H45.78V400.74H44.16V396.78H54.18V394.96H44.12V393.62ZM44.16 400H56.42V401.32H44.16V400ZM66.6384 385.26H68.0784V386.02C68.0784 389.26 64.6384 391.64 60.9984 392.26L60.3584 390.94C63.5384 390.48 66.6384 388.4 66.6384 386.02V385.26ZM67.0584 385.26H68.4784V386.02C68.4784 388.4 71.5984 390.48 74.7584 390.94L74.1384 392.26C70.4784 391.64 67.0584 389.26 67.0584 386.02V385.26ZM66.6984 394.66H68.3384V401.56H66.6984V394.66ZM59.3984 393.78H75.7384V395.14H59.3984V393.78ZM60.9184 384.6H74.1584V385.94H60.9184V384.6ZM82.8569 384.14C85.5569 384.14 87.5369 385.78 87.5369 388.16C87.5369 390.52 85.5569 392.16 82.8569 392.16C80.1769 392.16 78.1969 390.52 78.1969 388.16C78.1969 385.78 80.1769 384.14 82.8569 384.14ZM82.8569 385.5C81.1169 385.5 79.7969 386.6 79.7969 388.16C79.7969 389.72 81.1169 390.8 82.8569 390.8C84.6169 390.8 85.9169 389.72 85.9169 388.16C85.9169 386.6 84.6169 385.5 82.8569 385.5ZM90.9369 383.48H92.6169V392.74H90.9369V383.48ZM80.9169 393.62H92.6169V398.02H82.5769V400.74H80.9569V396.78H90.9769V394.96H80.9169V393.62ZM80.9569 400H93.2169V401.32H80.9569V400ZM101.82 392.38H118.16V393.74H101.82V392.38ZM109.16 389.48H110.8V392.94H109.16V389.48ZM103.88 388.96H116.26V390.32H103.88V388.96ZM103.88 384.3H116.12V385.64H105.52V389.76H103.88V384.3ZM109.96 395.04C113.82 395.04 116.16 396.22 116.16 398.28C116.16 400.38 113.82 401.54 109.96 401.54C106.1 401.54 103.76 400.38 103.76 398.28C103.76 396.22 106.1 395.04 109.96 395.04ZM109.96 396.32C107.14 396.32 105.44 397.04 105.44 398.28C105.44 399.54 107.14 400.24 109.96 400.24C112.8 400.24 114.48 399.54 114.48 398.28C114.48 397.04 112.8 396.32 109.96 396.32ZM132.579 383.46H134.239V396.78H132.579V383.46ZM133.719 388.96H136.919V390.34H133.719V388.96ZM122.979 399.8H135.059V401.16H122.979V399.8ZM122.979 395.42H124.639V400.34H122.979V395.42ZM125.259 384.74C127.959 384.74 129.979 386.6 129.979 389.2C129.979 391.82 127.959 393.66 125.259 393.66C122.559 393.66 120.539 391.82 120.539 389.2C120.539 386.6 122.559 384.74 125.259 384.74ZM125.259 386.2C123.499 386.2 122.159 387.44 122.159 389.2C122.159 390.98 123.499 392.2 125.259 392.2C127.019 392.2 128.359 390.98 128.359 389.2C128.359 387.44 127.019 386.2 125.259 386.2ZM151.442 387.84H154.962V389.22H151.442V387.84ZM151.442 393.34H154.962V394.72H151.442V393.34ZM158.002 383.48H159.602V401.56H158.002V383.48ZM154.462 383.86H156.022V400.66H154.462V383.86ZM148.302 384.98C150.642 384.98 152.162 387.4 152.162 391.28C152.162 395.16 150.642 397.58 148.302 397.58C145.962 397.58 144.462 395.16 144.462 391.28C144.462 387.4 145.962 384.98 148.302 384.98ZM148.302 386.52C146.882 386.52 145.962 388.36 145.962 391.28C145.962 394.2 146.882 396.04 148.302 396.04C149.742 396.04 150.642 394.2 150.642 391.28C150.642 388.36 149.742 386.52 148.302 386.52ZM176.161 386.22H179.301V387.62H176.161V386.22ZM176.161 390.1H179.301V391.48H176.161V390.1ZM175.001 383.48H176.661V394.22H175.001V383.48ZM164.921 395.08H176.661V401.56H175.001V396.42H164.921V395.08ZM167.681 384.54C170.401 384.54 172.401 386.3 172.401 388.84C172.401 391.36 170.401 393.1 167.681 393.1C164.961 393.1 162.961 391.36 162.961 388.84C162.961 386.3 164.961 384.54 167.681 384.54ZM167.681 385.96C165.881 385.96 164.581 387.12 164.581 388.84C164.581 390.54 165.881 391.72 167.681 391.72C169.481 391.72 170.781 390.54 170.781 388.84C170.781 387.12 169.481 385.96 167.681 385.96ZM194.159 383.46H195.819V401.58H194.159V383.46ZM186.279 384.86C188.959 384.86 190.879 387.32 190.879 391.16C190.879 395.02 188.959 397.48 186.279 397.48C183.619 397.48 181.699 395.02 181.699 391.16C181.699 387.32 183.619 384.86 186.279 384.86ZM186.279 386.36C184.519 386.36 183.279 388.24 183.279 391.16C183.279 394.1 184.519 396.02 186.279 396.02C188.059 396.02 189.279 394.1 189.279 391.16C189.279 388.24 188.059 386.36 186.279 386.36ZM217.283 383.46H218.963V401.56H217.283V383.46ZM218.503 390.8H221.843V392.18H218.503V390.8ZM212.663 385.42H214.283C214.283 390.56 211.923 395.2 206.083 398.14L205.163 396.86C210.163 394.32 212.663 390.46 212.663 385.68V385.42ZM206.003 385.42H213.523V386.78H206.003V385.42ZM225.681 388.5H237.941V389.86H225.681V388.5ZM225.681 383.84H227.321V389.1H225.681V383.84ZM223.461 391.96H239.801V393.3H223.461V391.96ZM231.601 394.92C235.461 394.92 237.801 396.1 237.801 398.22C237.801 400.3 235.461 401.5 231.601 401.5C227.741 401.5 225.401 400.3 225.401 398.22C225.401 396.1 227.741 394.92 231.601 394.92ZM231.601 396.22C228.781 396.22 227.081 396.94 227.081 398.22C227.081 399.46 228.781 400.18 231.601 400.18C234.441 400.18 236.121 399.46 236.121 398.22C236.121 396.94 234.441 396.22 231.601 396.22ZM254.099 383.48H255.759V401.56H254.099V383.48ZM255.359 390.9H258.719V392.3H255.359V390.9ZM241.759 386.36H252.419V387.72H241.759V386.36ZM247.159 389.22C249.719 389.22 251.559 390.94 251.559 393.38C251.559 395.82 249.719 397.54 247.159 397.54C244.619 397.54 242.759 395.82 242.759 393.38C242.759 390.94 244.619 389.22 247.159 389.22ZM247.159 390.6C245.519 390.6 244.339 391.74 244.339 393.38C244.339 395 245.519 396.16 247.159 396.16C248.799 396.16 249.979 395 249.979 393.38C249.979 391.74 248.799 390.6 247.159 390.6ZM246.299 383.7H247.959V386.98H246.299V383.7ZM268.558 387.8H274.138V389.16H268.558V387.8ZM268.558 392.78H274.138V394.16H268.558V392.78ZM260.978 385.24H269.198V397H260.978V385.24ZM267.558 386.58H262.598V395.66H267.558V386.58ZM273.498 383.46H275.138V401.58H273.498V383.46ZM291.481 387.84H295.001V389.22H291.481V387.84ZM291.481 393.34H295.001V394.72H291.481V393.34ZM298.041 383.48H299.641V401.56H298.041V383.48ZM294.501 383.86H296.061V400.66H294.501V383.86ZM288.341 384.98C290.681 384.98 292.201 387.4 292.201 391.28C292.201 395.16 290.681 397.58 288.341 397.58C286.001 397.58 284.501 395.16 284.501 391.28C284.501 387.4 286.001 384.98 288.341 384.98ZM288.341 386.52C286.921 386.52 286.001 388.36 286.001 391.28C286.001 394.2 286.921 396.04 288.341 396.04C289.781 396.04 290.681 394.2 290.681 391.28C290.681 388.36 289.781 386.52 288.341 386.52ZM316.2 386.22H319.34V387.62H316.2V386.22ZM316.2 390.1H319.34V391.48H316.2V390.1ZM315.04 383.48H316.7V394.22H315.04V383.48ZM304.96 395.08H316.7V401.56H315.04V396.42H304.96V395.08ZM307.72 384.54C310.44 384.54 312.44 386.3 312.44 388.84C312.44 391.36 310.44 393.1 307.72 393.1C305 393.1 303 391.36 303 388.84C303 386.3 305 384.54 307.72 384.54ZM307.72 385.96C305.92 385.96 304.62 387.12 304.62 388.84C304.62 390.54 305.92 391.72 307.72 391.72C309.52 391.72 310.82 390.54 310.82 388.84C310.82 387.12 309.52 385.96 307.72 385.96ZM45.72 421.96H47.38V424.28H45.72V421.96ZM53.34 413.5H55V425.62H53.34V413.5ZM54.3 418.96H57.64V420.34H54.3V418.96ZM41.1 425.1L40.88 423.74C44.12 423.74 48.52 423.74 52.26 423.2L52.4 424.38C48.54 425.06 44.26 425.08 41.1 425.1ZM43.12 426.52H55V431.56H53.34V427.84H43.12V426.52ZM41.34 415.12H51.72V416.36H41.34V415.12ZM46.54 417.06C49.08 417.06 50.74 418.08 50.74 419.74C50.74 421.4 49.08 422.42 46.54 422.42C43.98 422.42 42.32 421.4 42.32 419.74C42.32 418.08 43.98 417.06 46.54 417.06ZM46.54 418.2C44.92 418.2 43.88 418.78 43.88 419.74C43.88 420.66 44.92 421.26 46.54 421.26C48.14 421.26 49.18 420.66 49.18 419.74C49.18 418.78 48.14 418.2 46.54 418.2ZM45.72 413.34H47.38V415.72H45.72V413.34ZM69.0384 418.16H73.1184V419.54H69.0384V418.16ZM72.5984 413.48H74.2584V424.26H72.5984V413.48ZM68.3184 424.8C72.0384 424.8 74.3384 426.06 74.3384 428.18C74.3384 430.32 72.0384 431.54 68.3184 431.54C64.5784 431.54 62.2784 430.32 62.2784 428.18C62.2784 426.06 64.5784 424.8 68.3184 424.8ZM68.3184 426.1C65.5984 426.1 63.9384 426.86 63.9384 428.18C63.9384 429.48 65.5984 430.24 68.3184 430.24C71.0384 430.24 72.6984 429.48 72.6984 428.18C72.6984 426.86 71.0384 426.1 68.3184 426.1ZM63.9984 415.3H65.3584V416.76C65.3584 420.1 63.3184 422.96 60.3184 424.08L59.4584 422.76C62.1384 421.78 63.9984 419.36 63.9984 416.76V415.3ZM64.3184 415.3H65.6584V416.76C65.6584 419.1 67.4184 421.34 70.0384 422.26L69.1984 423.58C66.2584 422.52 64.3184 419.8 64.3184 416.76V415.3ZM59.9584 414.8H69.6184V416.16H59.9584V414.8ZM84.2619 415.54H98.8019V416.88H84.2619V415.54ZM83.4219 425.2H99.8019V426.56H83.4219V425.2ZM90.7419 426.3H92.4019V431.58H90.7419V426.3ZM91.5819 417.92C95.2619 417.92 97.4419 419 97.4419 420.94C97.4419 422.86 95.2619 423.96 91.5819 423.96C87.8819 423.96 85.7019 422.86 85.7019 420.94C85.7019 419 87.8819 417.92 91.5819 417.92ZM91.5819 419.2C88.9419 419.2 87.4219 419.82 87.4219 420.94C87.4219 422.06 88.9419 422.68 91.5819 422.68C94.2219 422.68 95.7419 422.06 95.7419 420.94C95.7419 419.82 94.2219 419.2 91.5819 419.2ZM90.7419 413.38H92.4019V416.44H90.7419V413.38ZM109.14 420.5H112.56V421.88H109.14V420.5ZM115.58 413.48H117.18V431.56H115.58V413.48ZM112 413.86H113.58V430.66H112V413.86ZM105.88 414.98C108.22 414.98 109.74 417.4 109.74 421.28C109.74 425.16 108.22 427.58 105.88 427.58C103.54 427.58 102.04 425.16 102.04 421.28C102.04 417.4 103.54 414.98 105.88 414.98ZM105.88 416.52C104.46 416.52 103.56 418.36 103.56 421.28C103.56 424.2 104.46 426.04 105.88 426.04C107.32 426.04 108.22 424.2 108.22 421.28C108.22 418.36 107.32 416.52 105.88 416.52ZM122.419 418.9H134.699V420.26H122.419V418.9ZM120.199 422.68H136.599V424.04H120.199V422.68ZM122.419 414.14H124.059V419.58H122.419V414.14ZM122.299 429.76H134.799V431.12H122.299V429.76ZM122.299 425.84H123.939V430.12H122.299V425.84ZM151.582 424.98H153.222V431.58H151.582V424.98ZM144.242 424.4H160.582V425.78H144.242V424.4ZM151.562 416.58H153.022V417.04C153.022 420.16 149.642 422.46 145.842 423.04L145.262 421.72C148.522 421.28 151.562 419.3 151.562 417.04V416.58ZM151.782 416.58H153.222V417.04C153.222 419.28 156.282 421.28 159.522 421.72L158.922 423.04C155.142 422.48 151.782 420.12 151.782 417.04V416.58ZM145.822 415.7H159.002V417.06H145.822V415.7ZM151.582 413.48H153.222V416.18H151.582V413.48ZM174.861 413.46H176.541V431.56H174.861V413.46ZM176.081 420.8H179.421V422.18H176.081V420.8ZM170.241 415.42H171.861C171.861 420.56 169.501 425.2 163.661 428.14L162.741 426.86C167.741 424.32 170.241 420.46 170.241 415.68V415.42ZM163.581 415.42H171.101V416.78H163.581V415.42ZM193.864 417.84H197.384V419.22H193.864V417.84ZM193.864 423.34H197.384V424.72H193.864V423.34ZM200.424 413.48H202.024V431.56H200.424V413.48ZM196.884 413.86H198.444V430.66H196.884V413.86ZM190.724 414.98C193.064 414.98 194.584 417.4 194.584 421.28C194.584 425.16 193.064 427.58 190.724 427.58C188.384 427.58 186.884 425.16 186.884 421.28C186.884 417.4 188.384 414.98 190.724 414.98ZM190.724 416.52C189.304 416.52 188.384 418.36 188.384 421.28C188.384 424.2 189.304 426.04 190.724 426.04C192.164 426.04 193.064 424.2 193.064 421.28C193.064 418.36 192.164 416.52 190.724 416.52ZM218.583 416.22H221.723V417.62H218.583V416.22ZM218.583 420.1H221.723V421.48H218.583V420.1ZM217.423 413.48H219.083V424.22H217.423V413.48ZM207.343 425.08H219.083V431.56H217.423V426.42H207.343V425.08ZM210.103 414.54C212.823 414.54 214.823 416.3 214.823 418.84C214.823 421.36 212.823 423.1 210.103 423.1C207.383 423.1 205.382 421.36 205.382 418.84C205.382 416.3 207.383 414.54 210.103 414.54ZM210.103 415.96C208.303 415.96 207.002 417.12 207.002 418.84C207.002 420.54 208.303 421.72 210.103 421.72C211.903 421.72 213.203 420.54 213.203 418.84C213.203 417.12 211.903 415.96 210.103 415.96ZM236.581 413.46H238.241V431.58H236.581V413.46ZM228.701 414.86C231.381 414.86 233.301 417.32 233.301 421.16C233.301 425.02 231.381 427.48 228.701 427.48C226.041 427.48 224.121 425.02 224.121 421.16C224.121 417.32 226.041 414.86 228.701 414.86ZM228.701 416.36C226.941 416.36 225.701 418.24 225.701 421.16C225.701 424.1 226.941 426.02 228.701 426.02C230.481 426.02 231.701 424.1 231.701 421.16C231.701 418.24 230.481 416.36 228.701 416.36ZM252.304 414.86C254.924 414.86 256.804 417.32 256.804 421.16C256.804 425.02 254.924 427.48 252.304 427.48C249.664 427.48 247.804 425.02 247.804 421.16C247.804 417.32 249.664 414.86 252.304 414.86ZM252.304 416.36C250.564 416.36 249.384 418.24 249.384 421.16C249.384 424.1 250.564 426.02 252.304 426.02C254.044 426.02 255.224 424.1 255.224 421.16C255.224 418.24 254.044 416.36 252.304 416.36ZM260.724 413.46H262.364V431.58H260.724V413.46ZM256.264 420.36H261.444V421.72H256.264V420.36ZM279.083 413.5H280.743V423.6H279.083V413.5ZM275.583 415.82H279.463V417.18H275.583V415.82ZM266.623 421.68H267.923C271.443 421.68 273.223 421.64 275.423 421.26L275.583 422.62C273.323 422.98 271.483 423.04 267.923 423.04H266.623V421.68ZM266.583 414.28H274.383V419.2H268.263V422.82H266.623V417.92H272.743V415.64H266.583V414.28ZM275.583 419.34H279.463V420.68H275.583V419.34ZM269.043 424.34H270.683V426.42H279.103V424.34H280.743V431.32H269.043V424.34ZM270.683 427.74V429.96H279.103V427.74H270.683ZM286.341 424.32H287.981V426.42H296.821V424.32H298.481V431.32H286.341V424.32ZM287.981 427.7V429.98H296.821V427.7H287.981ZM284.261 421.72H300.601V423.06H284.261V421.72ZM291.601 413.68H293.021V414.48C293.021 417.62 289.521 419.88 285.801 420.44L285.201 419.14C288.461 418.7 291.601 416.76 291.601 414.48V413.68ZM291.861 413.68H293.281V414.48C293.281 416.72 296.461 418.7 299.681 419.14L299.061 420.44C295.381 419.88 291.861 417.58 291.861 414.48V413.68ZM315.82 413.48H317.48V431.56H315.82V413.48ZM303.82 415.24H305.46V426.44H303.82V415.24ZM303.82 425.46H305.3C308.04 425.46 310.9 425.26 313.96 424.62L314.16 426.04C311.02 426.68 308.16 426.9 305.3 426.9H303.82V425.46ZM333.298 413.46H334.978V431.58H333.298V413.46ZM334.578 420.6H337.938V422H334.578V420.6ZM321.838 425.68H323.258C326.598 425.68 328.938 425.56 331.638 425.06L331.818 426.46C329.038 426.98 326.658 427.08 323.258 427.08H321.838V425.68ZM321.838 415.22H330.238V416.58H323.478V426.3H321.838V415.22ZM341.232 430.114C340.882 430.114 340.581 429.988 340.33 429.737C340.079 429.486 339.954 429.186 339.954 428.835C339.954 428.485 340.079 428.184 340.33 427.933C340.581 427.682 340.882 427.557 341.232 427.557C341.583 427.557 341.883 427.682 342.134 427.933C342.385 428.184 342.511 428.485 342.511 428.835C342.511 429.067 342.451 429.28 342.333 429.474C342.219 429.669 342.066 429.825 341.871 429.943C341.682 430.057 341.469 430.114 341.232 430.114Z" fill="white"/>
<path d="M232.5 10.5469H207.891V1.17188C207.891 0.527344 207.363 0 206.719 0H198.516C197.871 0 197.344 0.527344 197.344 1.17188V10.5469H159.844V1.17188C159.844 0.527344 159.316 0 158.672 0H150.469C149.824 0 149.297 0.527344 149.297 1.17188V10.5469H124.688C122.095 10.5469 120 12.6416 120 15.2344V112.5C120 115.093 122.095 117.188 124.688 117.188H232.5C235.093 117.188 237.188 115.093 237.188 112.5V15.2344C237.188 12.6416 235.093 10.5469 232.5 10.5469ZM226.641 106.641H130.547V21.0938H149.297V28.125C149.297 28.7695 149.824 29.2969 150.469 29.2969H158.672C159.316 29.2969 159.844 28.7695 159.844 28.125V21.0938H197.344V28.125C197.344 28.7695 197.871 29.2969 198.516 29.2969H206.719C207.363 29.2969 207.891 28.7695 207.891 28.125V21.0938H226.641V106.641ZM204.375 45.1172H196.289C195.542 45.1172 194.824 45.4834 194.385 46.084L172.28 76.5234L162.803 63.4863C162.363 62.8857 161.66 62.5195 160.898 62.5195H152.812C151.86 62.5195 151.304 63.6035 151.86 64.3799L170.376 89.8682C170.595 90.1678 170.881 90.4116 171.212 90.5796C171.543 90.7477 171.909 90.8353 172.28 90.8353C172.651 90.8353 173.017 90.7477 173.348 90.5796C173.679 90.4116 173.966 90.1678 174.185 89.8682L205.327 46.9922C205.884 46.2012 205.327 45.1172 204.375 45.1172Z" fill="white"/>
</svg>
