<svg width="377" height="567" viewBox="0 0 377 567" fill="none" xmlns="http://www.w3.org/2000/svg">
<path d="M129.168 170.048H132.264C132.264 176.888 130.488 182.624 122.52 186.8L120.768 184.376C127.32 180.92 129.168 176.72 129.168 170.432V170.048ZM122.088 170.048H131.112V172.568H122.088V170.048ZM129.48 175.496V177.92L121.32 178.664L120.912 175.976L129.48 175.496ZM136.368 167.912H139.56V190.136H136.368V167.912ZM132.24 176.432H138.048V179.024H132.24V176.432ZM158.35 167.912H161.566V190.136H158.35V167.912ZM143.59 169.952H156.07V172.496H143.59V169.952ZM143.302 185.072L142.99 182.456C146.998 182.456 152.35 182.384 156.934 181.832L157.102 184.16C152.422 184.952 147.31 185.048 143.302 185.072ZM145.51 171.944H148.606V183.152H145.51V171.944ZM151.054 171.944H154.15V183.152H151.054V171.944ZM169.1 172.16H171.476V172.808C171.476 176.336 170.036 179.6 166.556 180.896L165.092 178.544C167.9 177.464 169.1 175.16 169.1 172.808V172.16ZM169.748 172.16H172.1V172.808C172.1 175.016 173.324 177.152 176.108 178.136L174.692 180.488C171.188 179.288 169.748 176.192 169.748 172.808V172.16ZM165.716 170.336H175.46V172.832H165.716V170.336ZM169.1 168.176H172.1V171.608H169.1V168.176ZM181.028 167.936H184.052V182.96H181.028V167.936ZM178.46 173.192H181.988V175.784H178.46V173.192ZM176.396 168.272H179.372V181.016H176.396V168.272ZM174.812 181.928H177.524V182.264C177.524 186.128 174.452 189.272 168.884 190.064L167.756 187.592C172.556 186.968 174.812 184.544 174.812 182.264V181.928ZM175.268 181.928H177.98V182.264C177.98 184.544 180.26 186.968 185.036 187.592L183.908 190.064C178.34 189.272 175.268 186.128 175.268 182.264V181.928ZM201.581 172.808H205.277V175.376H201.581V172.808ZM201.581 179.672H205.277V182.264H201.581V179.672ZM208.805 167.912H211.853V190.136H208.805V167.912ZM204.365 168.248H207.341V189.128H204.365V168.248ZM197.741 169.472C200.693 169.472 202.589 172.52 202.589 177.536C202.589 182.576 200.693 185.624 197.741 185.624C194.813 185.624 192.941 182.576 192.941 177.536C192.941 172.52 194.813 169.472 197.741 169.472ZM197.741 172.472C196.517 172.472 195.797 174.152 195.797 177.536C195.797 180.944 196.517 182.6 197.741 182.6C198.989 182.6 199.709 180.944 199.709 177.536C199.709 174.152 198.989 172.472 197.741 172.472ZM231.339 170.792H235.179V173.408H231.339V170.792ZM231.339 175.616H235.179V178.232H231.339V175.616ZM229.131 167.912H232.323V181.016H229.131V167.912ZM217.491 181.928H232.323V190.136H229.131V184.472H217.491V181.928ZM221.019 169.112C224.451 169.112 227.067 171.392 227.067 174.56C227.067 177.728 224.451 179.984 221.019 179.984C217.587 179.984 214.971 177.728 214.971 174.56C214.971 171.392 217.587 169.112 221.019 169.112ZM221.019 171.824C219.339 171.824 218.091 172.808 218.091 174.56C218.091 176.312 219.339 177.32 221.019 177.32C222.699 177.32 223.947 176.312 223.947 174.56C223.947 172.808 222.699 171.824 221.019 171.824Z" fill="white"/>
<rect x="0.5" y="248.5" width="376" height="88" rx="44" stroke="white"/>
<rect x="0.5" y="363.5" width="376" height="88" rx="44" stroke="white"/>
<rect x="0.5" y="478.5" width="376" height="88" rx="44" stroke="white"/>
<path d="M44.7025 267.48H46.2825V281H44.7025V267.48ZM38.3625 272.58H41.7825V273.94H38.3625V272.58ZM41.2625 267.84H42.8425V280.48H41.2625V267.84ZM34.5025 283.8H46.8425V285.16H34.5025V283.8ZM34.5025 279.34H36.1625V284.5H34.5025V279.34ZM31.8625 269.22H38.8425V277.5H31.8625V269.22ZM37.2825 270.52H33.4025V276.18H37.2825V270.52ZM51.5609 276.86H63.9809V278.2H51.5609V276.86ZM49.4609 281.94H65.8409V283.32H49.4609V281.94ZM56.8009 277.56H58.4409V282.58H56.8009V277.56ZM51.5609 268.94H63.7809V270.3H53.2409V277.36H51.5609V268.94ZM52.7009 272.82H63.4009V274.16H52.7009V272.82ZM73.7194 268.78C76.5394 268.78 78.5594 270.52 78.5594 273.04C78.5594 275.58 76.5394 277.32 73.7194 277.32C70.8994 277.32 68.8594 275.58 68.8594 273.04C68.8594 270.52 70.8994 268.78 73.7194 268.78ZM73.7194 270.22C71.8394 270.22 70.4794 271.36 70.4794 273.04C70.4794 274.72 71.8394 275.88 73.7194 275.88C75.5794 275.88 76.9394 274.72 76.9394 273.04C76.9394 271.36 75.5794 270.22 73.7194 270.22ZM80.9194 267.46H82.5794V285.58H80.9194V267.46ZM68.1794 281.62L67.9394 280.24C71.2394 280.24 75.7994 280.22 79.7394 279.6L79.8794 280.82C75.8194 281.6 71.3994 281.62 68.1794 281.62ZM91.8828 281.84H108.263V283.22H91.8828V281.84ZM99.1628 277.46H100.803V282.3H99.1628V277.46ZM99.1228 268.68H100.563V270.08C100.563 273.94 96.8628 276.92 93.2228 277.68L92.5228 276.3C95.7028 275.72 99.1228 273.06 99.1228 270.08V268.68ZM99.4228 268.68H100.863V270.08C100.863 273.08 104.303 275.72 107.483 276.3L106.763 277.68C103.123 276.92 99.4228 273.94 99.4228 270.08V268.68ZM124.001 267.48H125.601V285.56H124.001V267.48ZM121.081 274.74H124.541V276.1H121.081V274.74ZM116.401 269.8H118.001C118.001 274.46 116.401 278.78 111.241 281.68L110.261 280.5C114.801 277.96 116.401 274.3 116.401 270.12V269.8ZM110.961 269.8H116.961V271.18H110.961V269.8ZM119.981 267.96H121.561V284.68H119.981V267.96ZM130.76 268.24H142.4V269.58H130.76V268.24ZM128.68 274.2H145.06V275.56H128.68V274.2ZM141.32 268.24H142.94V269.4C142.94 270.7 142.94 272.38 142.46 274.62L140.84 274.44C141.32 272.24 141.32 270.68 141.32 269.4V268.24ZM130.6 277.34H143V281.94H132.3V284.46H130.64V280.66H141.36V278.68H130.6V277.34ZM130.64 284.02H143.46V285.36H130.64V284.02ZM147.878 269.46H156.058V270.8H147.878V269.46ZM150.698 274.62H152.338V280.74H150.698V274.62ZM155.378 269.46H156.998V270.42C156.998 271.9 156.998 274.26 156.478 277.62L154.838 277.46C155.378 274.2 155.378 271.88 155.378 270.42V269.46ZM159.278 267.48H160.918V285.56H159.278V267.48ZM160.478 275.04H163.818V276.44H160.478V275.04ZM147.078 281.62L146.878 280.22C150.158 280.22 154.518 280.16 158.178 279.7L158.258 280.92C154.518 281.52 150.278 281.6 147.078 281.62ZM171.062 270.56H180.022V271.92H171.062V270.56ZM175.542 273.12C177.802 273.12 179.442 274.82 179.442 277.26C179.442 279.68 177.802 281.38 175.542 281.38C173.302 281.38 171.662 279.68 171.662 277.26C171.662 274.82 173.302 273.12 175.542 273.12ZM175.542 274.54C174.162 274.54 173.162 275.66 173.162 277.26C173.162 278.86 174.162 279.98 175.542 279.98C176.942 279.98 177.962 278.86 177.962 277.26C177.962 275.66 176.942 274.54 175.542 274.54ZM184.802 267.48H186.402V285.56H184.802V267.48ZM181.922 275.08H185.342V276.46H181.922V275.08ZM180.942 267.88H182.502V284.68H180.942V267.88ZM174.742 268H176.382V271.4H174.742V268ZM194.26 269.04H195.62V272.28C195.62 276.44 193.38 280.3 190.42 281.8L189.4 280.44C192.08 279.16 194.26 275.7 194.26 272.28V269.04ZM194.54 269.04H195.9V272.28C195.9 275.58 198.06 278.9 200.74 280.14L199.74 281.46C196.8 280.02 194.54 276.3 194.54 272.28V269.04ZM202.62 267.46H204.28V285.58H202.62V267.46ZM208.598 279.7H209.778C212.638 279.7 214.338 279.64 216.358 279.24L216.538 280.62C214.438 281.04 212.678 281.1 209.778 281.1H208.598V279.7ZM208.598 269.54H215.718V270.9H210.178V280.22H208.598V269.54ZM209.698 274.32H215.438V275.66H209.698V274.32ZM221.658 267.48H223.258V285.56H221.658V267.48ZM218.798 274.72H222.258V276.1H218.798V274.72ZM217.678 267.86H219.258V284.66H217.678V267.86ZM228.057 269.4H239.697V270.74H228.057V269.4ZM226.297 281.54H242.637V282.92H226.297V281.54ZM238.817 269.4H240.437V271.2C240.437 273.52 240.437 276.1 239.757 280L238.097 279.84C238.817 276.14 238.817 273.44 238.817 271.2V269.4ZM252.015 274.5H255.435V275.88H252.015V274.5ZM258.455 267.48H260.055V285.56H258.455V267.48ZM254.875 267.86H256.455V284.66H254.875V267.86ZM248.755 268.98C251.095 268.98 252.615 271.4 252.615 275.28C252.615 279.16 251.095 281.58 248.755 281.58C246.415 281.58 244.915 279.16 244.915 275.28C244.915 271.4 246.415 268.98 248.755 268.98ZM248.755 270.52C247.335 270.52 246.435 272.36 246.435 275.28C246.435 278.2 247.335 280.04 248.755 280.04C250.195 280.04 251.095 278.2 251.095 275.28C251.095 272.36 250.195 270.52 248.755 270.52ZM281.879 267.48H283.539V285.56H281.879V267.48ZM276.579 269.42H278.219C278.219 274.66 275.859 279.24 269.819 282.2L268.939 280.86C274.159 278.34 276.579 274.5 276.579 269.7V269.42ZM269.759 269.42H277.299V270.78H269.759V269.42ZM299.477 267.5H301.137V280.76H299.477V267.5ZM300.617 272.96H303.817V274.34H300.617V272.96ZM289.877 283.8H301.957V285.16H289.877V283.8ZM289.877 279.48H291.537V284.12H289.877V279.48ZM287.857 268.78H289.497V271.8H294.597V268.78H296.217V277.74H287.857V268.78ZM289.497 273.1V276.4H294.597V273.1H289.497ZM317.756 267.48H319.416V285.56H317.756V267.48ZM319.016 274.9H322.376V276.3H319.016V274.9ZM305.416 270.36H316.076V271.72H305.416V270.36ZM310.816 273.22C313.376 273.22 315.216 274.94 315.216 277.38C315.216 279.82 313.376 281.54 310.816 281.54C308.276 281.54 306.416 279.82 306.416 277.38C306.416 274.94 308.276 273.22 310.816 273.22ZM310.816 274.6C309.176 274.6 307.996 275.74 307.996 277.38C307.996 279 309.176 280.16 310.816 280.16C312.456 280.16 313.636 279 313.636 277.38C313.636 275.74 312.456 274.6 310.816 274.6ZM309.956 267.7H311.616V270.98H309.956V267.7ZM332.054 271.5H337.514V272.88H332.054V271.5ZM332.054 277.22H337.514V278.6H332.054V277.22ZM328.734 268.86C331.354 268.86 333.234 271.32 333.234 275.16C333.234 279.02 331.354 281.48 328.734 281.48C326.094 281.48 324.234 279.02 324.234 275.16C324.234 271.32 326.094 268.86 328.734 268.86ZM328.734 270.36C326.994 270.36 325.794 272.24 325.794 275.16C325.794 278.1 326.994 280.02 328.734 280.02C330.474 280.02 331.674 278.1 331.674 275.16C331.674 272.24 330.474 270.36 328.734 270.36ZM337.154 267.46H338.794V285.58H337.154V267.46ZM59.6788 298.88H67.6788V300.24H59.6788V298.88ZM62.3988 302.92H64.0388V307.44H62.3988V302.92ZM67.0188 298.88H68.6588V299.84C68.6588 301.02 68.6588 302.82 68.1788 305.2L66.5588 305.02C67.0188 302.64 67.0188 301 67.0188 299.84V298.88ZM71.1188 297.48H72.7788V311.1H71.1188V297.48ZM72.0188 303.36H75.3588V304.74H72.0188V303.36ZM61.3588 313.8H73.3588V315.16H61.3588V313.8ZM61.3588 309.84H62.9987V314.22H61.3588V309.84ZM58.7588 308.22L58.5788 306.86C61.7988 306.86 66.2388 306.78 69.8988 306.28L70.0188 307.48C66.2588 308.14 61.9388 308.22 58.7588 308.22ZM90.2572 297.5H91.9372V307.76H90.2572V297.5ZM80.2572 308.8H91.9372V315.32H80.2572V308.8ZM90.2972 310.12H81.8772V313.98H90.2972V310.12ZM81.8172 298.18H83.1972V299.94C83.1972 303.3 81.1172 306.18 78.0572 307.32L77.2372 306C79.9572 305.02 81.8172 302.58 81.8172 299.94V298.18ZM82.1172 298.18H83.4772V299.94C83.4772 302.5 85.3572 304.76 88.0372 305.66L87.2172 306.96C84.1972 305.92 82.1172 303.22 82.1172 299.94V298.18ZM105.641 308.6H106.921V309.58C106.921 311.94 105.441 314.32 102.841 315.32L102.001 314.08C104.281 313.26 105.641 311.32 105.641 309.58V308.6ZM106.001 308.6H107.241V309.58C107.241 311.4 108.321 313.34 110.481 314.22L109.781 315.48C107.181 314.46 106.001 311.98 106.001 309.58V308.6ZM112.321 308.6H113.561V309.58C113.561 311.7 112.361 314.38 109.781 315.48L109.081 314.22C111.221 313.24 112.321 311.14 112.321 309.58V308.6ZM112.661 308.6H113.941V309.58C113.941 311.44 115.281 313.3 117.581 314.08L116.741 315.32C114.101 314.36 112.661 312.08 112.661 309.58V308.6ZM114.281 297.5H115.961V307.82H114.281V297.5ZM106.261 298.54C109.001 298.54 110.961 300.26 110.961 302.76C110.961 305.26 109.001 306.96 106.261 306.96C103.521 306.96 101.541 305.26 101.541 302.76C101.541 300.26 103.521 298.54 106.261 298.54ZM106.261 299.92C104.461 299.92 103.161 301.08 103.161 302.76C103.161 304.44 104.461 305.58 106.261 305.58C108.061 305.58 109.361 304.44 109.361 302.76C109.361 301.08 108.061 299.92 106.261 299.92ZM121.739 302.9H134.019V304.26H121.739V302.9ZM119.519 306.68H135.919V308.04H119.519V306.68ZM121.739 298.14H123.379V303.58H121.739V298.14ZM121.619 313.76H134.119V315.12H121.619V313.76ZM121.619 309.84H123.259V314.12H121.619V309.84ZM151.063 299.36H152.662C152.662 304.58 150.863 309.38 144.503 312.58L143.563 311.3C149.143 308.5 151.063 304.48 151.063 299.54V299.36ZM144.543 299.36H152.063V300.7H144.543V299.36ZM150.963 303.84V305.1L143.903 305.76L143.623 304.32L150.963 303.84ZM156.763 297.48H158.423V315.56H156.763V297.48ZM152.623 304.72H157.563V306.1H152.623V304.72ZM175.121 297.48H176.781V315.56H175.121V297.48ZM162.401 299.42H172.641V300.78H162.401V299.42ZM162.121 311.1L161.921 309.68C165.281 309.68 169.721 309.64 173.561 309.18L173.661 310.4C169.761 311.02 165.421 311.08 162.121 311.1ZM164.401 300.44H166.001V310.06H164.401V300.44ZM169.021 300.44H170.641V310.06H169.021V300.44ZM184.119 300.74H185.379V301.24C185.379 304.1 183.919 306.84 181.299 307.98L180.499 306.72C182.779 305.74 184.119 303.48 184.119 301.24V300.74ZM184.439 300.74H185.679V301.24C185.679 303.32 187.079 305.42 189.339 306.32L188.559 307.56C185.919 306.52 184.439 303.96 184.439 301.24V300.74ZM180.839 299.88H188.899V301.2H180.839V299.88ZM184.119 297.76H185.679V300.48H184.119V297.76ZM193.999 297.5H195.579V309.72H193.999V297.5ZM191.159 302.08H194.579V303.46H191.159V302.08ZM190.159 297.8H191.719V308.16H190.159V297.8ZM188.759 308.98H190.159V309.4C190.159 312.58 186.899 314.86 183.259 315.5L182.639 314.2C185.819 313.7 188.759 311.74 188.759 309.4V308.98ZM188.979 308.98H190.399V309.4C190.399 311.74 193.339 313.7 196.519 314.2L195.899 315.5C192.259 314.86 188.979 312.58 188.979 309.4V308.98ZM206.918 297.78C210.898 297.78 213.278 298.9 213.278 300.92C213.278 302.94 210.898 304.06 206.918 304.06C202.918 304.06 200.558 302.94 200.558 300.92C200.558 298.9 202.918 297.78 206.918 297.78ZM206.918 299.04C203.958 299.04 202.258 299.72 202.258 300.92C202.258 302.12 203.958 302.8 206.918 302.8C209.858 302.8 211.558 302.12 211.558 300.92C211.558 299.72 209.858 299.04 206.918 299.04ZM198.738 305.26H215.078V306.6H198.738V305.26ZM200.718 308.14H212.998V312.22H202.398V314.42H200.758V311.02H211.358V309.42H200.718V308.14ZM200.758 314.06H213.538V315.36H200.758V314.06ZM227.281 300.46H228.641V301.24C228.641 304.32 226.601 306.82 223.561 307.78L222.781 306.48C225.461 305.66 227.281 303.6 227.281 301.24V300.46ZM227.581 300.46H228.941V301.24C228.941 303.4 230.701 305.36 233.361 306.14L232.581 307.42C229.561 306.52 227.581 304.12 227.581 301.24V300.46ZM223.281 299.58H232.921V300.92H223.281V299.58ZM227.281 297.4H228.941V300.14H227.281V297.4ZM235.141 297.48H236.801V307.98H235.141V297.48ZM236.341 301.94H239.481V303.32H236.341V301.94ZM230.321 309.48H231.741V309.96C231.741 312.8 228.741 314.9 225.201 315.5L224.561 314.22C227.681 313.74 230.321 311.98 230.321 309.96V309.48ZM230.641 309.48H232.061V309.96C232.061 311.94 234.741 313.74 237.801 314.24L237.181 315.52C233.641 314.92 230.641 312.74 230.641 309.96V309.48ZM225.261 308.96H237.121V310.3H225.261V308.96ZM245.98 298.86C248.64 298.86 250.52 301.32 250.52 305.16C250.52 309.02 248.64 311.48 245.98 311.48C243.32 311.48 241.44 309.02 241.44 305.16C241.44 301.32 243.32 298.86 245.98 298.86ZM245.98 300.36C244.22 300.36 243.02 302.24 243.02 305.16C243.02 308.1 244.22 310.02 245.98 310.02C247.72 310.02 248.94 308.1 248.94 305.16C248.94 302.24 247.72 300.36 245.98 300.36ZM253.4 297.48H255.08V315.56H253.4V297.48ZM254.68 304.7H258.04V306.1H254.68V304.7ZM259.578 311.88H275.958V313.26H259.578V311.88ZM266.898 307.56H268.558V312.28H266.898V307.56ZM261.498 298.76H263.138V301.98H272.358V298.76H273.998V308H261.498V298.76ZM263.138 303.32V306.64H272.358V303.32H263.138ZM285.097 303.94H288.557V305.32H285.097V303.94ZM281.717 299.18H283.017V302.62C283.017 306.4 281.437 310.06 278.797 311.68L277.757 310.42C280.237 308.96 281.717 305.72 281.717 302.62V299.18ZM282.037 299.18H283.317V302.56C283.317 305.46 284.677 308.54 287.057 309.98L286.097 311.28C283.497 309.68 282.037 306.08 282.037 302.56V299.18ZM291.737 297.48H293.337V315.56H291.737V297.48ZM288.077 297.86H289.637V314.66H288.077V297.86ZM300.375 306.78H302.015V312.2H300.375V306.78ZM307.055 306.78H308.715V312.2H307.055V306.78ZM296.375 311.88H312.755V313.26H296.375V311.88ZM304.535 298.62C308.355 298.62 311.095 300.44 311.095 303.28C311.095 306.1 308.355 307.92 304.535 307.92C300.695 307.92 297.955 306.1 297.955 303.28C297.955 300.44 300.695 298.62 304.535 298.62ZM304.535 299.94C301.635 299.94 299.555 301.26 299.555 303.28C299.555 305.28 301.635 306.6 304.535 306.6C307.435 306.6 309.495 305.28 309.495 303.28C309.495 301.26 307.435 299.94 304.535 299.94ZM316.529 314.114C316.179 314.114 315.878 313.988 315.627 313.737C315.376 313.486 315.251 313.186 315.251 312.835C315.251 312.485 315.376 312.184 315.627 311.933C315.878 311.682 316.179 311.557 316.529 311.557C316.879 311.557 317.18 311.682 317.431 311.933C317.682 312.184 317.808 312.485 317.808 312.835C317.808 313.067 317.748 313.28 317.63 313.474C317.516 313.669 317.362 313.825 317.168 313.943C316.979 314.057 316.766 314.114 316.529 314.114Z" fill="white"/>
<path d="M131.72 499.48H133.38V517.56H131.72V499.48ZM132.98 506.9H136.34V508.3H132.98V506.9ZM119.38 502.36H130.04V503.72H119.38V502.36ZM124.78 505.22C127.34 505.22 129.18 506.94 129.18 509.38C129.18 511.82 127.34 513.54 124.78 513.54C122.24 513.54 120.38 511.82 120.38 509.38C120.38 506.94 122.24 505.22 124.78 505.22ZM124.78 506.6C123.14 506.6 121.96 507.74 121.96 509.38C121.96 511 123.14 512.16 124.78 512.16C126.42 512.16 127.6 511 127.6 509.38C127.6 507.74 126.42 506.6 124.78 506.6ZM123.92 499.7H125.58V502.98H123.92V499.7ZM151.319 506.68H154.659V508.08H151.319V506.68ZM150.099 499.46H151.779V517.56H150.099V499.46ZM138.579 501.24H140.239V512.44H138.579V501.24ZM138.579 511.58H140.019C142.699 511.58 145.439 511.4 148.419 510.78L148.619 512.16C145.539 512.8 142.759 512.98 140.019 512.98H138.579V511.58ZM162.137 500.78C164.957 500.78 166.977 502.52 166.977 505.04C166.977 507.58 164.957 509.32 162.137 509.32C159.317 509.32 157.277 507.58 157.277 505.04C157.277 502.52 159.317 500.78 162.137 500.78ZM162.137 502.22C160.257 502.22 158.897 503.36 158.897 505.04C158.897 506.72 160.257 507.88 162.137 507.88C163.997 507.88 165.357 506.72 165.357 505.04C165.357 503.36 163.997 502.22 162.137 502.22ZM169.337 499.46H170.997V517.58H169.337V499.46ZM156.597 513.62L156.357 512.24C159.657 512.24 164.217 512.22 168.157 511.6L168.297 512.82C164.237 513.6 159.817 513.62 156.597 513.62ZM187.801 501.36H189.401C189.401 506.58 187.601 511.38 181.241 514.58L180.301 513.3C185.881 510.5 187.801 506.48 187.801 501.54V501.36ZM181.281 501.36H188.801V502.7H181.281V501.36ZM187.701 505.84V507.1L180.641 507.76L180.361 506.32L187.701 505.84ZM193.501 499.48H195.161V517.56H193.501V499.48ZM189.361 506.72H194.301V508.1H189.361V506.72ZM211.859 499.48H213.519V517.56H211.859V499.48ZM199.139 501.42H209.379V502.78H199.139V501.42ZM198.859 513.1L198.659 511.68C202.019 511.68 206.459 511.64 210.299 511.18L210.399 512.4C206.499 513.02 202.159 513.08 198.859 513.1ZM201.139 502.44H202.739V512.06H201.139V502.44ZM205.759 502.44H207.379V512.06H205.759V502.44ZM220.858 502.74H222.118V503.24C222.118 506.1 220.658 508.84 218.038 509.98L217.238 508.72C219.518 507.74 220.858 505.48 220.858 503.24V502.74ZM221.178 502.74H222.418V503.24C222.418 505.32 223.818 507.42 226.078 508.32L225.298 509.56C222.658 508.52 221.178 505.96 221.178 503.24V502.74ZM217.578 501.88H225.638V503.2H217.578V501.88ZM220.858 499.76H222.418V502.48H220.858V499.76ZM230.738 499.5H232.318V511.72H230.738V499.5ZM227.898 504.08H231.318V505.46H227.898V504.08ZM226.898 499.8H228.458V510.16H226.898V499.8ZM225.498 510.98H226.898V511.4C226.898 514.58 223.638 516.86 219.998 517.5L219.378 516.2C222.558 515.7 225.498 513.74 225.498 511.4V510.98ZM225.718 510.98H227.138V511.4C227.138 513.74 230.078 515.7 233.258 516.2L232.638 517.5C228.998 516.86 225.718 514.58 225.718 511.4V510.98ZM242.816 506.5H246.236V507.88H242.816V506.5ZM249.256 499.48H250.856V517.56H249.256V499.48ZM245.676 499.86H247.256V516.66H245.676V499.86ZM239.556 500.98C241.896 500.98 243.416 503.4 243.416 507.28C243.416 511.16 241.896 513.58 239.556 513.58C237.216 513.58 235.716 511.16 235.716 507.28C235.716 503.4 237.216 500.98 239.556 500.98ZM239.556 502.52C238.136 502.52 237.236 504.36 237.236 507.28C237.236 510.2 238.136 512.04 239.556 512.04C240.996 512.04 241.896 510.2 241.896 507.28C241.896 504.36 240.996 502.52 239.556 502.52ZM89.4772 529.5H91.1372V543.06H89.4772V529.5ZM90.6172 535.42H93.8172V536.82H90.6172V535.42ZM77.1572 531.68H87.8372V533.02H77.1572V531.68ZM82.4972 534.02C85.0572 534.02 86.8172 535.36 86.8172 537.4C86.8172 539.42 85.0572 540.76 82.4972 540.76C79.9172 540.76 78.1572 539.42 78.1572 537.4C78.1572 535.36 79.9172 534.02 82.4972 534.02ZM82.4972 535.32C80.8572 535.32 79.7372 536.14 79.7372 537.4C79.7372 538.64 80.8572 539.46 82.4972 539.46C84.1172 539.46 85.2372 538.64 85.2372 537.4C85.2372 536.14 84.1172 535.32 82.4972 535.32ZM81.6572 529.48H83.3172V532.38H81.6572V529.48ZM79.8772 545.8H91.9572V547.16H79.8772V545.8ZM79.8772 541.98H81.5372V546.38H79.8772V541.98ZM109.661 534.58H114.861V535.94H109.661V534.58ZM114.341 529.5H116.001V542.88H114.341V529.5ZM104.381 545.8H116.441V547.16H104.381V545.8ZM104.381 541.58H106.041V546.5H104.381V541.58ZM102.021 530.68H103.661V533.88H108.561V530.68H110.181V539.8H102.021V530.68ZM103.661 535.18V538.44H108.561V535.18H103.661ZM125.399 530.78C128.219 530.78 130.239 532.52 130.239 535.04C130.239 537.58 128.219 539.32 125.399 539.32C122.579 539.32 120.539 537.58 120.539 535.04C120.539 532.52 122.579 530.78 125.399 530.78ZM125.399 532.22C123.519 532.22 122.159 533.36 122.159 535.04C122.159 536.72 123.519 537.88 125.399 537.88C127.259 537.88 128.619 536.72 128.619 535.04C128.619 533.36 127.259 532.22 125.399 532.22ZM132.599 529.46H134.259V547.58H132.599V529.46ZM119.859 543.62L119.619 542.24C122.919 542.24 127.479 542.22 131.419 541.6L131.559 542.82C127.499 543.6 123.079 543.62 119.859 543.62ZM150.763 533.84H154.283V535.22H150.763V533.84ZM150.763 539.34H154.283V540.72H150.763V539.34ZM157.323 529.48H158.923V547.56H157.323V529.48ZM153.783 529.86H155.343V546.66H153.783V529.86ZM147.623 530.98C149.963 530.98 151.483 533.4 151.483 537.28C151.483 541.16 149.963 543.58 147.623 543.58C145.283 543.58 143.783 541.16 143.783 537.28C143.783 533.4 145.283 530.98 147.623 530.98ZM147.623 532.52C146.203 532.52 145.283 534.36 145.283 537.28C145.283 540.2 146.203 542.04 147.623 542.04C149.063 542.04 149.963 540.2 149.963 537.28C149.963 534.36 149.063 532.52 147.623 532.52ZM175.481 532.22H178.621V533.62H175.481V532.22ZM175.481 536.1H178.621V537.48H175.481V536.1ZM174.321 529.48H175.981V540.22H174.321V529.48ZM164.241 541.08H175.981V547.56H174.321V542.42H164.241V541.08ZM167.001 530.54C169.721 530.54 171.721 532.3 171.721 534.84C171.721 537.36 169.721 539.1 167.001 539.1C164.281 539.1 162.281 537.36 162.281 534.84C162.281 532.3 164.281 530.54 167.001 530.54ZM167.001 531.96C165.201 531.96 163.901 533.12 163.901 534.84C163.901 536.54 165.201 537.72 167.001 537.72C168.801 537.72 170.101 536.54 170.101 534.84C170.101 533.12 168.801 531.96 167.001 531.96ZM181.099 531.1H189.399V539.48H181.099V531.1ZM187.779 532.44H182.719V538.14H187.779V532.44ZM192.719 529.46H194.379V542.72H192.719V529.46ZM193.859 534.98H197.059V536.36H193.859V534.98ZM183.119 545.8H195.199V547.16H183.119V545.8ZM183.119 541.46H184.779V546.38H183.119V541.46ZM216.603 529.46H218.283V547.56H216.603V529.46ZM217.823 536.8H221.163V538.18H217.823V536.8ZM211.983 531.42H213.603C213.603 536.56 211.243 541.2 205.403 544.14L204.483 542.86C209.483 540.32 211.983 536.46 211.983 531.68V531.42ZM205.323 531.42H212.843V532.78H205.323V531.42ZM225.001 534.5H237.261V535.86H225.001V534.5ZM225.001 529.84H226.641V535.1H225.001V529.84ZM222.781 537.96H239.121V539.3H222.781V537.96ZM230.921 540.92C234.781 540.92 237.121 542.1 237.121 544.22C237.121 546.3 234.781 547.5 230.921 547.5C227.061 547.5 224.721 546.3 224.721 544.22C224.721 542.1 227.061 540.92 230.921 540.92ZM230.921 542.22C228.101 542.22 226.401 542.94 226.401 544.22C226.401 545.46 228.101 546.18 230.921 546.18C233.761 546.18 235.441 545.46 235.441 544.22C235.441 542.94 233.761 542.22 230.921 542.22ZM253.54 529.48H255.2V539.98H253.54V529.48ZM254.48 534.08H257.88V535.48H254.48V534.08ZM243.84 540.78H245.46V542.7H253.56V540.78H255.2V547.32H243.84V540.78ZM245.46 543.98V545.98H253.56V543.98H245.46ZM241.22 531.32H251.9V532.68H241.22V531.32ZM246.56 533.5C249.14 533.5 250.88 534.76 250.88 536.68C250.88 538.6 249.14 539.86 246.56 539.86C243.96 539.86 242.22 538.6 242.22 536.68C242.22 534.76 243.96 533.5 246.56 533.5ZM246.56 534.76C244.9 534.76 243.8 535.52 243.8 536.68C243.8 537.84 244.9 538.6 246.56 538.6C248.18 538.6 249.3 537.84 249.3 536.68C249.3 535.52 248.18 534.76 246.56 534.76ZM245.72 529.3H247.38V532.06H245.72V529.3ZM272.718 529.48H274.378V547.56H272.718V529.48ZM260.718 531.24H262.358V542.44H260.718V531.24ZM260.718 541.46H262.198C264.938 541.46 267.798 541.26 270.858 540.62L271.058 542.04C267.918 542.68 265.058 542.9 262.198 542.9H260.718V541.46ZM290.197 529.46H291.877V547.58H290.197V529.46ZM291.477 536.6H294.837V538H291.477V536.6ZM278.737 541.68H280.157C283.497 541.68 285.837 541.56 288.537 541.06L288.717 542.46C285.937 542.98 283.557 543.08 280.157 543.08H278.737V541.68ZM278.737 531.22H287.137V532.58H280.377V542.3H278.737V531.22ZM298.131 546.114C297.78 546.114 297.48 545.988 297.229 545.737C296.978 545.486 296.852 545.186 296.852 544.835C296.852 544.485 296.978 544.184 297.229 543.933C297.48 543.682 297.78 543.557 298.131 543.557C298.481 543.557 298.782 543.682 299.033 543.933C299.284 544.184 299.409 544.485 299.409 544.835C299.409 545.067 299.35 545.28 299.232 545.474C299.118 545.669 298.964 545.825 298.77 545.943C298.58 546.057 298.367 546.114 298.131 546.114Z" fill="white"/>
<path d="M51.7084 384.14C54.4084 384.14 56.3884 385.78 56.3884 388.16C56.3884 390.52 54.4084 392.16 51.7084 392.16C49.0284 392.16 47.0484 390.52 47.0484 388.16C47.0484 385.78 49.0284 384.14 51.7084 384.14ZM51.7084 385.5C49.9684 385.5 48.6484 386.6 48.6484 388.16C48.6484 389.72 49.9684 390.8 51.7084 390.8C53.4684 390.8 54.7684 389.72 54.7684 388.16C54.7684 386.6 53.4684 385.5 51.7084 385.5ZM59.7884 383.48H61.4684V392.74H59.7884V383.48ZM49.7684 393.62H61.4684V398.02H51.4284V400.74H49.8084V396.78H59.8284V394.96H49.7684V393.62ZM49.8084 400H62.0684V401.32H49.8084V400ZM72.2869 385.26H73.7269V386.02C73.7269 389.26 70.2869 391.64 66.6469 392.26L66.0069 390.94C69.1869 390.48 72.2869 388.4 72.2869 386.02V385.26ZM72.7069 385.26H74.1269V386.02C74.1269 388.4 77.2469 390.48 80.4069 390.94L79.7869 392.26C76.1269 391.64 72.7069 389.26 72.7069 386.02V385.26ZM72.3469 394.66H73.9869V401.56H72.3469V394.66ZM65.0469 393.78H81.3869V395.14H65.0469V393.78ZM66.5669 384.6H79.8069V385.94H66.5669V384.6ZM88.5053 384.14C91.2053 384.14 93.1853 385.78 93.1853 388.16C93.1853 390.52 91.2053 392.16 88.5053 392.16C85.8253 392.16 83.8453 390.52 83.8453 388.16C83.8453 385.78 85.8253 384.14 88.5053 384.14ZM88.5053 385.5C86.7653 385.5 85.4453 386.6 85.4453 388.16C85.4453 389.72 86.7653 390.8 88.5053 390.8C90.2653 390.8 91.5653 389.72 91.5653 388.16C91.5653 386.6 90.2653 385.5 88.5053 385.5ZM96.5853 383.48H98.2653V392.74H96.5853V383.48ZM86.5653 393.62H98.2653V398.02H88.2253V400.74H86.6053V396.78H96.6253V394.96H86.5653V393.62ZM86.6053 400H98.8653V401.32H86.6053V400ZM107.469 392.38H123.809V393.74H107.469V392.38ZM114.809 389.48H116.449V392.94H114.809V389.48ZM109.529 388.96H121.909V390.32H109.529V388.96ZM109.529 384.3H121.769V385.64H111.169V389.76H109.529V384.3ZM115.609 395.04C119.469 395.04 121.809 396.22 121.809 398.28C121.809 400.38 119.469 401.54 115.609 401.54C111.749 401.54 109.409 400.38 109.409 398.28C109.409 396.22 111.749 395.04 115.609 395.04ZM115.609 396.32C112.789 396.32 111.089 397.04 111.089 398.28C111.089 399.54 112.789 400.24 115.609 400.24C118.449 400.24 120.129 399.54 120.129 398.28C120.129 397.04 118.449 396.32 115.609 396.32ZM138.227 383.46H139.887V396.78H138.227V383.46ZM139.367 388.96H142.567V390.34H139.367V388.96ZM128.627 399.8H140.707V401.16H128.627V399.8ZM128.627 395.42H130.287V400.34H128.627V395.42ZM130.907 384.74C133.607 384.74 135.627 386.6 135.627 389.2C135.627 391.82 133.607 393.66 130.907 393.66C128.207 393.66 126.187 391.82 126.187 389.2C126.187 386.6 128.207 384.74 130.907 384.74ZM130.907 386.2C129.147 386.2 127.807 387.44 127.807 389.2C127.807 390.98 129.147 392.2 130.907 392.2C132.667 392.2 134.007 390.98 134.007 389.2C134.007 387.44 132.667 386.2 130.907 386.2ZM157.091 387.84H160.611V389.22H157.091V387.84ZM157.091 393.34H160.611V394.72H157.091V393.34ZM163.651 383.48H165.251V401.56H163.651V383.48ZM160.111 383.86H161.671V400.66H160.111V383.86ZM153.951 384.98C156.291 384.98 157.811 387.4 157.811 391.28C157.811 395.16 156.291 397.58 153.951 397.58C151.611 397.58 150.111 395.16 150.111 391.28C150.111 387.4 151.611 384.98 153.951 384.98ZM153.951 386.52C152.531 386.52 151.611 388.36 151.611 391.28C151.611 394.2 152.531 396.04 153.951 396.04C155.391 396.04 156.291 394.2 156.291 391.28C156.291 388.36 155.391 386.52 153.951 386.52ZM181.809 386.22H184.949V387.62H181.809V386.22ZM181.809 390.1H184.949V391.48H181.809V390.1ZM180.649 383.48H182.309V394.22H180.649V383.48ZM170.569 395.08H182.309V401.56H180.649V396.42H170.569V395.08ZM173.329 384.54C176.049 384.54 178.049 386.3 178.049 388.84C178.049 391.36 176.049 393.1 173.329 393.1C170.609 393.1 168.609 391.36 168.609 388.84C168.609 386.3 170.609 384.54 173.329 384.54ZM173.329 385.96C171.529 385.96 170.229 387.12 170.229 388.84C170.229 390.54 171.529 391.72 173.329 391.72C175.129 391.72 176.429 390.54 176.429 388.84C176.429 387.12 175.129 385.96 173.329 385.96ZM199.808 383.46H201.468V401.58H199.808V383.46ZM191.928 384.86C194.608 384.86 196.528 387.32 196.528 391.16C196.528 395.02 194.608 397.48 191.928 397.48C189.268 397.48 187.348 395.02 187.348 391.16C187.348 387.32 189.268 384.86 191.928 384.86ZM191.928 386.36C190.168 386.36 188.928 388.24 188.928 391.16C188.928 394.1 190.168 396.02 191.928 396.02C193.708 396.02 194.928 394.1 194.928 391.16C194.928 388.24 193.708 386.36 191.928 386.36ZM222.931 383.46H224.611V401.56H222.931V383.46ZM224.151 390.8H227.491V392.18H224.151V390.8ZM218.311 385.42H219.931C219.931 390.56 217.571 395.2 211.731 398.14L210.811 396.86C215.811 394.32 218.311 390.46 218.311 385.68V385.42ZM211.651 385.42H219.171V386.78H211.651V385.42ZM231.329 388.5H243.589V389.86H231.329V388.5ZM231.329 383.84H232.969V389.1H231.329V383.84ZM229.109 391.96H245.449V393.3H229.109V391.96ZM237.249 394.92C241.109 394.92 243.449 396.1 243.449 398.22C243.449 400.3 241.109 401.5 237.249 401.5C233.389 401.5 231.049 400.3 231.049 398.22C231.049 396.1 233.389 394.92 237.249 394.92ZM237.249 396.22C234.429 396.22 232.729 396.94 232.729 398.22C232.729 399.46 234.429 400.18 237.249 400.18C240.089 400.18 241.769 399.46 241.769 398.22C241.769 396.94 240.089 396.22 237.249 396.22ZM259.748 383.48H261.408V401.56H259.748V383.48ZM261.008 390.9H264.368V392.3H261.008V390.9ZM247.408 386.36H258.068V387.72H247.408V386.36ZM252.808 389.22C255.368 389.22 257.208 390.94 257.208 393.38C257.208 395.82 255.368 397.54 252.808 397.54C250.268 397.54 248.408 395.82 248.408 393.38C248.408 390.94 250.268 389.22 252.808 389.22ZM252.808 390.6C251.168 390.6 249.988 391.74 249.988 393.38C249.988 395 251.168 396.16 252.808 396.16C254.448 396.16 255.628 395 255.628 393.38C255.628 391.74 254.448 390.6 252.808 390.6ZM251.948 383.7H253.608V386.98H251.948V383.7ZM274.206 387.8H279.786V389.16H274.206V387.8ZM274.206 392.78H279.786V394.16H274.206V392.78ZM266.626 385.24H274.846V397H266.626V385.24ZM273.206 386.58H268.246V395.66H273.206V386.58ZM279.146 383.46H280.786V401.58H279.146V383.46ZM297.13 387.84H300.65V389.22H297.13V387.84ZM297.13 393.34H300.65V394.72H297.13V393.34ZM303.69 383.48H305.29V401.56H303.69V383.48ZM300.15 383.86H301.71V400.66H300.15V383.86ZM293.99 384.98C296.33 384.98 297.85 387.4 297.85 391.28C297.85 395.16 296.33 397.58 293.99 397.58C291.65 397.58 290.15 395.16 290.15 391.28C290.15 387.4 291.65 384.98 293.99 384.98ZM293.99 386.52C292.57 386.52 291.65 388.36 291.65 391.28C291.65 394.2 292.57 396.04 293.99 396.04C295.43 396.04 296.33 394.2 296.33 391.28C296.33 388.36 295.43 386.52 293.99 386.52ZM321.848 386.22H324.988V387.62H321.848V386.22ZM321.848 390.1H324.988V391.48H321.848V390.1ZM320.688 383.48H322.348V394.22H320.688V383.48ZM310.608 395.08H322.348V401.56H320.688V396.42H310.608V395.08ZM313.368 384.54C316.088 384.54 318.088 386.3 318.088 388.84C318.088 391.36 316.088 393.1 313.368 393.1C310.648 393.1 308.648 391.36 308.648 388.84C308.648 386.3 310.648 384.54 313.368 384.54ZM313.368 385.96C311.568 385.96 310.268 387.12 310.268 388.84C310.268 390.54 311.568 391.72 313.368 391.72C315.168 391.72 316.468 390.54 316.468 388.84C316.468 387.12 315.168 385.96 313.368 385.96ZM42.2278 421.96H43.8878V424.28H42.2278V421.96ZM49.8478 413.5H51.5078V425.62H49.8478V413.5ZM50.8078 418.96H54.1478V420.34H50.8078V418.96ZM37.6078 425.1L37.3878 423.74C40.6278 423.74 45.0278 423.74 48.7678 423.2L48.9078 424.38C45.0478 425.06 40.7678 425.08 37.6078 425.1ZM39.6278 426.52H51.5078V431.56H49.8478V427.84H39.6278V426.52ZM37.8478 415.12H48.2278V416.36H37.8478V415.12ZM43.0478 417.06C45.5878 417.06 47.2478 418.08 47.2478 419.74C47.2478 421.4 45.5878 422.42 43.0478 422.42C40.4878 422.42 38.8278 421.4 38.8278 419.74C38.8278 418.08 40.4878 417.06 43.0478 417.06ZM43.0478 418.2C41.4278 418.2 40.3878 418.78 40.3878 419.74C40.3878 420.66 41.4278 421.26 43.0478 421.26C44.6478 421.26 45.6878 420.66 45.6878 419.74C45.6878 418.78 44.6478 418.2 43.0478 418.2ZM42.2278 413.34H43.8878V415.72H42.2278V413.34ZM65.5463 418.16H69.6263V419.54H65.5463V418.16ZM69.1063 413.48H70.7663V424.26H69.1063V413.48ZM64.8263 424.8C68.5463 424.8 70.8463 426.06 70.8463 428.18C70.8463 430.32 68.5463 431.54 64.8263 431.54C61.0863 431.54 58.7863 430.32 58.7863 428.18C58.7863 426.06 61.0863 424.8 64.8263 424.8ZM64.8263 426.1C62.1063 426.1 60.4463 426.86 60.4463 428.18C60.4463 429.48 62.1063 430.24 64.8263 430.24C67.5463 430.24 69.2063 429.48 69.2063 428.18C69.2063 426.86 67.5463 426.1 64.8263 426.1ZM60.5063 415.3H61.8663V416.76C61.8663 420.1 59.8263 422.96 56.8263 424.08L55.9663 422.76C58.6463 421.78 60.5063 419.36 60.5063 416.76V415.3ZM60.8263 415.3H62.1663V416.76C62.1663 419.1 63.9263 421.34 66.5463 422.26L65.7063 423.58C62.7663 422.52 60.8263 419.8 60.8263 416.76V415.3ZM56.4663 414.8H66.1263V416.16H56.4663V414.8ZM80.7697 415.54H95.3097V416.88H80.7697V415.54ZM79.9297 425.2H96.3097V426.56H79.9297V425.2ZM87.2497 426.3H88.9097V431.58H87.2497V426.3ZM88.0897 417.92C91.7697 417.92 93.9497 419 93.9497 420.94C93.9497 422.86 91.7697 423.96 88.0897 423.96C84.3897 423.96 82.2097 422.86 82.2097 420.94C82.2097 419 84.3897 417.92 88.0897 417.92ZM88.0897 419.2C85.4497 419.2 83.9297 419.82 83.9297 420.94C83.9297 422.06 85.4497 422.68 88.0897 422.68C90.7297 422.68 92.2497 422.06 92.2497 420.94C92.2497 419.82 90.7297 419.2 88.0897 419.2ZM87.2497 413.38H88.9097V416.44H87.2497V413.38ZM105.648 420.5H109.068V421.88H105.648V420.5ZM112.088 413.48H113.688V431.56H112.088V413.48ZM108.508 413.86H110.088V430.66H108.508V413.86ZM102.388 414.98C104.728 414.98 106.248 417.4 106.248 421.28C106.248 425.16 104.728 427.58 102.388 427.58C100.048 427.58 98.5481 425.16 98.5481 421.28C98.5481 417.4 100.048 414.98 102.388 414.98ZM102.388 416.52C100.968 416.52 100.068 418.36 100.068 421.28C100.068 424.2 100.968 426.04 102.388 426.04C103.828 426.04 104.728 424.2 104.728 421.28C104.728 418.36 103.828 416.52 102.388 416.52ZM118.927 418.9H131.207V420.26H118.927V418.9ZM116.707 422.68H133.107V424.04H116.707V422.68ZM118.927 414.14H120.567V419.58H118.927V414.14ZM118.807 429.76H131.307V431.12H118.807V429.76ZM118.807 425.84H120.447V430.12H118.807V425.84ZM148.09 424.98H149.73V431.58H148.09V424.98ZM140.75 424.4H157.09V425.78H140.75V424.4ZM148.07 416.58H149.53V417.04C149.53 420.16 146.15 422.46 142.35 423.04L141.77 421.72C145.03 421.28 148.07 419.3 148.07 417.04V416.58ZM148.29 416.58H149.73V417.04C149.73 419.28 152.79 421.28 156.03 421.72L155.43 423.04C151.65 422.48 148.29 420.12 148.29 417.04V416.58ZM142.33 415.7H155.51V417.06H142.33V415.7ZM148.09 413.48H149.73V416.18H148.09V413.48ZM171.368 413.46H173.048V431.56H171.368V413.46ZM172.588 420.8H175.928V422.18H172.588V420.8ZM166.748 415.42H168.368C168.368 420.56 166.008 425.2 160.168 428.14L159.248 426.86C164.248 424.32 166.748 420.46 166.748 415.68V415.42ZM160.088 415.42H167.608V416.78H160.088V415.42ZM190.372 417.84H193.892V419.22H190.372V417.84ZM190.372 423.34H193.892V424.72H190.372V423.34ZM196.932 413.48H198.532V431.56H196.932V413.48ZM193.392 413.86H194.952V430.66H193.392V413.86ZM187.232 414.98C189.572 414.98 191.092 417.4 191.092 421.28C191.092 425.16 189.572 427.58 187.232 427.58C184.892 427.58 183.392 425.16 183.392 421.28C183.392 417.4 184.892 414.98 187.232 414.98ZM187.232 416.52C185.812 416.52 184.892 418.36 184.892 421.28C184.892 424.2 185.812 426.04 187.232 426.04C188.672 426.04 189.572 424.2 189.572 421.28C189.572 418.36 188.672 416.52 187.232 416.52ZM215.09 416.22H218.23V417.62H215.09V416.22ZM215.09 420.1H218.23V421.48H215.09V420.1ZM213.93 413.48H215.59V424.22H213.93V413.48ZM203.85 425.08H215.59V431.56H213.93V426.42H203.85V425.08ZM206.61 414.54C209.33 414.54 211.33 416.3 211.33 418.84C211.33 421.36 209.33 423.1 206.61 423.1C203.89 423.1 201.89 421.36 201.89 418.84C201.89 416.3 203.89 414.54 206.61 414.54ZM206.61 415.96C204.81 415.96 203.51 417.12 203.51 418.84C203.51 420.54 204.81 421.72 206.61 421.72C208.41 421.72 209.71 420.54 209.71 418.84C209.71 417.12 208.41 415.96 206.61 415.96ZM233.089 413.46H234.749V431.58H233.089V413.46ZM225.209 414.86C227.889 414.86 229.809 417.32 229.809 421.16C229.809 425.02 227.889 427.48 225.209 427.48C222.549 427.48 220.629 425.02 220.629 421.16C220.629 417.32 222.549 414.86 225.209 414.86ZM225.209 416.36C223.449 416.36 222.209 418.24 222.209 421.16C222.209 424.1 223.449 426.02 225.209 426.02C226.989 426.02 228.209 424.1 228.209 421.16C228.209 418.24 226.989 416.36 225.209 416.36ZM248.812 414.86C251.432 414.86 253.312 417.32 253.312 421.16C253.312 425.02 251.432 427.48 248.812 427.48C246.172 427.48 244.312 425.02 244.312 421.16C244.312 417.32 246.172 414.86 248.812 414.86ZM248.812 416.36C247.072 416.36 245.892 418.24 245.892 421.16C245.892 424.1 247.072 426.02 248.812 426.02C250.552 426.02 251.732 424.1 251.732 421.16C251.732 418.24 250.552 416.36 248.812 416.36ZM257.232 413.46H258.872V431.58H257.232V413.46ZM252.772 420.36H257.952V421.72H252.772V420.36ZM275.591 413.5H277.251V423.6H275.591V413.5ZM272.091 415.82H275.971V417.18H272.091V415.82ZM263.131 421.68H264.431C267.951 421.68 269.731 421.64 271.931 421.26L272.091 422.62C269.831 422.98 267.991 423.04 264.431 423.04H263.131V421.68ZM263.091 414.28H270.891V419.2H264.771V422.82H263.131V417.92H269.251V415.64H263.091V414.28ZM272.091 419.34H275.971V420.68H272.091V419.34ZM265.551 424.34H267.191V426.42H275.611V424.34H277.251V431.32H265.551V424.34ZM267.191 427.74V429.96H275.611V427.74H267.191ZM282.849 424.32H284.489V426.42H293.329V424.32H294.989V431.32H282.849V424.32ZM284.489 427.7V429.98H293.329V427.7H284.489ZM280.769 421.72H297.109V423.06H280.769V421.72ZM288.109 413.68H289.529V414.48C289.529 417.62 286.029 419.88 282.309 420.44L281.709 419.14C284.969 418.7 288.109 416.76 288.109 414.48V413.68ZM288.369 413.68H289.789V414.48C289.789 416.72 292.969 418.7 296.189 419.14L295.569 420.44C291.889 419.88 288.369 417.58 288.369 414.48V413.68ZM312.328 413.48H313.988V431.56H312.328V413.48ZM300.328 415.24H301.968V426.44H300.328V415.24ZM300.328 425.46H301.808C304.548 425.46 307.408 425.26 310.468 424.62L310.668 426.04C307.528 426.68 304.668 426.9 301.808 426.9H300.328V425.46ZM329.806 413.46H331.486V431.58H329.806V413.46ZM331.086 420.6H334.446V422H331.086V420.6ZM318.346 425.68H319.766C323.106 425.68 325.446 425.56 328.146 425.06L328.326 426.46C325.546 426.98 323.166 427.08 319.766 427.08H318.346V425.68ZM318.346 415.22H326.746V416.58H319.986V426.3H318.346V415.22ZM337.74 430.114C337.39 430.114 337.089 429.988 336.838 429.737C336.587 429.486 336.462 429.186 336.462 428.835C336.462 428.485 336.587 428.184 336.838 427.933C337.089 427.682 337.39 427.557 337.74 427.557C338.09 427.557 338.391 427.682 338.642 427.933C338.893 428.184 339.018 428.485 339.018 428.835C339.018 429.067 338.959 429.28 338.841 429.474C338.727 429.669 338.573 429.825 338.379 429.943C338.19 430.057 337.977 430.114 337.74 430.114Z" fill="white"/>
<path d="M232.5 10.5469H207.891V1.17188C207.891 0.527344 207.363 0 206.719 0H198.516C197.871 0 197.344 0.527344 197.344 1.17188V10.5469H159.844V1.17188C159.844 0.527344 159.316 0 158.672 0H150.469C149.824 0 149.297 0.527344 149.297 1.17188V10.5469H124.688C122.095 10.5469 120 12.6416 120 15.2344V112.5C120 115.093 122.095 117.188 124.688 117.188H232.5C235.093 117.188 237.188 115.093 237.188 112.5V15.2344C237.188 12.6416 235.093 10.5469 232.5 10.5469ZM226.641 106.641H130.547V21.0938H149.297V28.125C149.297 28.7695 149.824 29.2969 150.469 29.2969H158.672C159.316 29.2969 159.844 28.7695 159.844 28.125V21.0938H197.344V28.125C197.344 28.7695 197.871 29.2969 198.516 29.2969H206.719C207.363 29.2969 207.891 28.7695 207.891 28.125V21.0938H226.641V106.641ZM204.375 45.1172H196.289C195.542 45.1172 194.824 45.4834 194.385 46.084L172.28 76.5234L162.803 63.4863C162.363 62.8857 161.66 62.5195 160.898 62.5195H152.812C151.86 62.5195 151.304 63.6035 151.86 64.3799L170.376 89.8682C170.595 90.1678 170.881 90.4116 171.212 90.5796C171.543 90.7477 171.909 90.8353 172.28 90.8353C172.651 90.8353 173.017 90.7477 173.348 90.5796C173.679 90.4116 173.966 90.1678 174.185 89.8682L205.327 46.9922C205.884 46.2012 205.327 45.1172 204.375 45.1172Z" fill="white"/>
</svg>
