<svg width="165" height="796" viewBox="0 0 165 796" fill="none" xmlns="http://www.w3.org/2000/svg">
<line y1="-0.5" x2="95.2207" y2="-0.5" transform="matrix(-0.846183 0.532892 -0.563449 -0.826151 84.1328 0)" stroke="white"/>
<line y1="-0.5" x2="95.175" y2="-0.5" transform="matrix(-0.839151 -0.543898 0.574526 -0.818487 163.998 51.7656)" stroke="white"/>
<line y1="-0.5" x2="95.175" y2="-0.5" transform="matrix(-0.839151 -0.543898 0.574526 -0.818487 84.3555 102.487)" stroke="white"/>
<line y1="-0.5" x2="95.175" y2="-0.5" transform="matrix(-0.839151 0.543898 -0.574526 -0.818487 163.998 51.8398)" stroke="white"/>
<line y1="-0.5" x2="95.2207" y2="-0.5" transform="matrix(-0.846183 0.532892 -0.563449 -0.826151 80.5742 25.9199)" stroke="white"/>
<line y1="-0.5" x2="95.175" y2="-0.5" transform="matrix(-0.839151 -0.543898 0.574526 -0.818487 160.439 77.6855)" stroke="white"/>
<line y1="-0.5" x2="95.175" y2="-0.5" transform="matrix(-0.839151 -0.543898 0.574526 -0.818487 80.7969 128.407)" stroke="white"/>
<line y1="-0.5" x2="95.175" y2="-0.5" transform="matrix(-0.839151 0.543898 -0.574526 -0.818487 160.439 77.7598)" stroke="white"/>
<line y1="-0.5" x2="95.2207" y2="-0.5" transform="matrix(-0.846183 0.532892 -0.563449 -0.826151 80.5742 57.3955)" stroke="white"/>
<line y1="-0.5" x2="95.175" y2="-0.5" transform="matrix(-0.839151 -0.543898 0.574526 -0.818487 160.439 109.161)" stroke="white"/>
<line y1="-0.5" x2="95.175" y2="-0.5" transform="matrix(-0.839151 -0.543898 0.574526 -0.818487 80.7969 159.883)" stroke="white"/>
<line y1="-0.5" x2="95.175" y2="-0.5" transform="matrix(-0.839151 0.543898 -0.574526 -0.818487 160.439 109.235)" stroke="white"/>
<line x1="81.5" y1="211" x2="81.5" y2="796" stroke="white"/>
</svg>
